M48
; DRILL file {KiCad 9.0.2} date 2026-03-22T10:42:29-0500
; FORMAT={-:-/ absolute / inch / decimal}
; #@! TF.CreationDate,2026-03-22T10:42:29-05:00
; #@! TF.GenerationSoftware,Kicad,Pcbnew,9.0.2
; #@! TF.FileFunction,Plated,1,2,PTH
FMAT,2
INCH
; #@! TA.AperFunction,Plated,PTH,ViaDrill
T1C0.0157
; #@! TA.AperFunction,Plated,PTH,ComponentDrill
T2C0.0295
; #@! TA.AperFunction,Plated,PTH,ComponentDrill
T3C0.0315
; #@! TA.AperFunction,Plated,PTH,ComponentDrill
T4C0.0394
; #@! TA.AperFunction,Plated,PTH,ComponentDrill
T5C0.0402
; #@! TA.AperFunction,Plated,PTH,ComponentDrill
T6C0.1260
%
G90
G05
T1
X2.024Y-3.6588
X2.0349Y-2.9523
X2.06Y-2.3274
X2.0649Y-3.7714
X2.0669Y-3.7211
X2.0784Y-3.8546
X2.0907Y-3.889
X2.2021Y-3.7374
X2.2148Y-3.8912
X2.6979Y-3.2839
X2.736Y-4.2206
X2.8883Y-4.2769
X2.9687Y-4.0461
X3.1267Y-3.0452
X3.1536Y-3.2375
X3.2673Y-4.5911
X3.2864Y-1.6746
X3.3194Y-2.7231
X3.3774Y-1.4983
X3.4862Y-5.0002
X3.4899Y-4.6775
X3.6704Y-2.7062
X3.8174Y-3.7589
X3.8416Y-2.9245
X3.8774Y-3.6125
X3.8791Y-2.4731
X3.8794Y-4.4018
X3.9039Y-2.6188
X3.9669Y-3.2788
X4.0848Y-4.0387
X4.0985Y-2.6622
X4.1363Y-2.9954
X4.1542Y-4.4742
X4.2465Y-4.5966
X4.281Y-4.3528
X4.296Y-4.2454
X4.3126Y-4.6377
X4.3467Y-2.8112
X4.3578Y-2.8427
X4.3815Y-4.8683
X4.4327Y-4.7496
X4.4609Y-4.6003
X4.4738Y-4.7673
X4.5046Y-4.0633
X4.5827Y-2.3335
X4.5845Y-3.8406
X4.5903Y-3.9629
X4.5966Y-4.4241
X4.6083Y-2.3865
X4.6656Y-4.2928
X4.6812Y-3.9823
X4.7109Y-3.599
X4.7287Y-3.7495
X4.7287Y-4.1831
X4.7287Y-4.2313
X4.7888Y-4.7676
X4.8374Y-4.4441
X4.9016Y-3.8753
X4.9202Y-4.8165
X4.927Y-4.0163
X5.0072Y-4.9738
X5.0323Y-5.0212
X5.0425Y-5.113
X5.0974Y-4.3382
X5.1021Y-5.2786
X5.116Y-4.6618
X5.1284Y-5.162
X5.1439Y-5.2985
X5.1488Y-5.23
X5.1818Y-5.3235
X5.4755Y-3.961
X5.4837Y-5.1205
X5.5186Y-5.0458
X5.5297Y-3.8605
X5.5334Y-5.0954
X5.7247Y-3.6229
X5.7249Y-3.7903
X5.8719Y-4.1366
X5.876Y-2.6514
X5.8842Y-4.0804
X6.0161Y-4.1679
X6.085Y-4.3674
X6.1603Y-5.437
X6.2411Y-5.3575
X6.2439Y-4.392
X6.3145Y-5.0212
X6.3177Y-3.9809
X6.4202Y-4.4535
X6.4875Y-4.2443
X6.4891Y-4.2041
X6.6255Y-5.0319
X6.6652Y-4.9
X6.6877Y-4.878
X6.6942Y-5.0345
X6.7066Y-4.4412
X6.7234Y-5.1884
X6.7361Y-4.5694
X6.7386Y-4.4499
X6.7561Y-5.225
X6.7703Y-5.144
X6.7878Y-1.6382
X6.7943Y-4.3091
X6.8134Y-4.6834
X6.8171Y-4.6467
X6.8373Y-4.1864
X6.879Y-5.1065
X6.9412Y-4.6989
X6.9483Y-4.3675
X6.9498Y-2.9047
X6.9503Y-3.8644
X6.9704Y-3.5291
X6.9914Y-4.3271
X7.0168Y-3.6943
X7.0225Y-4.3025
X7.0415Y-3.2057
X7.1924Y-3.9265
X7.3472Y-3.8898
X7.5334Y-3.2289
X7.8468Y-3.6203
X8.3181Y-4.2138
T2
X3.3311Y-1.9972
X3.3811Y-1.9972
X3.4311Y-1.9972
T3
X1.6421Y-3.9386
X1.6465Y-5.252
X1.7449Y-5.252
X1.7476Y-2.987
X1.7476Y-3.087
X1.7476Y-3.187
X1.7476Y-3.287
X1.7476Y-3.387
X1.7476Y-3.487
X1.839Y-3.9386
X1.863Y-4.1689
X1.863Y-4.2689
X1.863Y-4.3689
X1.863Y-4.4689
X1.863Y-4.5689
X1.863Y-4.6689
X1.863Y-4.7689
X1.863Y-4.8689
X1.863Y-4.9689
X1.863Y-5.0689
X2.163Y-4.1689
X2.163Y-4.2689
X2.163Y-4.3689
X2.163Y-4.4689
X2.163Y-4.5689
X2.163Y-4.6689
X2.163Y-4.7689
X2.163Y-4.8689
X2.163Y-4.9689
X2.163Y-5.0689
X2.2201Y-3.9913
X2.4169Y-3.9913
X2.493Y-4.152
X2.493Y-4.252
X2.493Y-4.352
X2.493Y-4.452
X2.493Y-4.552
X2.493Y-4.652
X2.493Y-4.752
X2.493Y-4.852
X2.493Y-4.952
X2.493Y-5.052
X2.793Y-4.152
X2.793Y-4.252
X2.793Y-4.352
X2.793Y-4.452
X2.793Y-4.552
X2.793Y-4.652
X2.793Y-4.752
X2.793Y-4.852
X2.793Y-4.952
X2.793Y-5.052
X2.8518Y-3.9923
X3.0487Y-3.9923
X3.1231Y-4.1469
X3.1231Y-4.2469
X3.1231Y-4.3469
X3.1231Y-4.4469
X3.1231Y-4.5469
X3.1231Y-4.6469
X3.1231Y-4.7469
X3.1231Y-4.8469
X3.1231Y-4.9469
X3.1231Y-5.0469
X3.1618Y-2.6689
X3.1969Y-2.8909
X3.1969Y-2.9909
X3.1969Y-3.0909
X3.1969Y-3.1909
X3.1969Y-3.2909
X3.1969Y-3.3909
X3.1969Y-3.4909
X3.1969Y-3.5909
X3.1969Y-3.6909
X3.1969Y-3.7909
X3.3587Y-2.6689
X3.4231Y-4.1469
X3.4231Y-4.2469
X3.4231Y-4.3469
X3.4231Y-4.4469
X3.4231Y-4.5469
X3.4231Y-4.6469
X3.4231Y-4.7469
X3.4231Y-4.8469
X3.4231Y-4.9469
X3.4231Y-5.0469
X3.487Y-3.9803
X3.4969Y-2.8909
X3.4969Y-2.9909
X3.4969Y-3.0909
X3.4969Y-3.1909
X3.4969Y-3.2909
X3.4969Y-3.3909
X3.4969Y-3.4909
X3.4969Y-3.5909
X3.4969Y-3.6909
X3.4969Y-3.7909
X3.5248Y-2.7201
X3.6839Y-3.9803
X3.7059Y-1.6646
X3.7059Y-1.7646
X3.7059Y-1.8646
X3.7059Y-1.9646
X3.7059Y-2.0646
X3.7059Y-2.1646
X3.7059Y-2.2646
X3.7059Y-2.3646
X3.7059Y-2.4646
X3.7059Y-2.5646
X3.7217Y-2.7201
X3.7531Y-4.1441
X3.7531Y-4.2441
X3.7531Y-4.3441
X3.7531Y-4.4441
X3.7531Y-4.5441
X3.7531Y-4.6441
X3.7531Y-4.7441
X3.7531Y-4.8441
X3.7531Y-4.9441
X3.7531Y-5.0441
X3.7594Y-2.8937
X3.7594Y-2.9937
X3.7594Y-3.0937
X3.7594Y-3.1937
X3.7594Y-3.2937
X3.7594Y-3.3937
X3.7594Y-3.4937
X3.7594Y-3.5937
X3.7594Y-3.6937
X3.7594Y-3.7937
X4.0059Y-1.6646
X4.0059Y-1.7646
X4.0059Y-1.8646
X4.0059Y-1.9646
X4.0059Y-2.0646
X4.0059Y-2.1646
X4.0059Y-2.2646
X4.0059Y-2.3646
X4.0059Y-2.4646
X4.0059Y-2.5646
X4.0531Y-4.1441
X4.0531Y-4.2441
X4.0531Y-4.3441
X4.0531Y-4.4441
X4.0531Y-4.5441
X4.0531Y-4.6441
X4.0531Y-4.7441
X4.0531Y-4.8441
X4.0531Y-4.9441
X4.0531Y-5.0441
X4.0594Y-2.8937
X4.0594Y-2.9937
X4.0594Y-3.0937
X4.0594Y-3.1937
X4.0594Y-3.2937
X4.0594Y-3.3937
X4.0594Y-3.4937
X4.0594Y-3.5937
X4.0594Y-3.6937
X4.0594Y-3.7937
X4.2634Y-1.6591
X4.2634Y-1.7591
X4.2634Y-1.8591
X4.2634Y-1.9591
X4.2634Y-2.0591
X4.2642Y-2.2398
X4.2642Y-2.3398
X4.2642Y-2.4398
X4.2642Y-2.5398
X4.2642Y-2.6398
X4.2642Y-2.7398
X4.2642Y-2.8398
X4.2642Y-2.9398
X4.2642Y-3.0398
X4.4335Y-2.2748
X4.5634Y-1.6591
X4.5634Y-1.7591
X4.5634Y-1.8591
X4.5634Y-1.9591
X4.5634Y-2.0591
X4.6303Y-2.2748
X4.9818Y-4.3309
X5.1787Y-4.3309
X5.3319Y-3.4583
X5.3319Y-3.5583
X5.3319Y-3.6583
X5.3319Y-3.7583
X5.3319Y-3.8583
X5.3319Y-3.9583
X5.3319Y-4.0583
X5.3319Y-4.1583
X5.3319Y-4.2583
X5.3319Y-4.3583
X5.6319Y-3.4583
X5.6319Y-3.5583
X5.6319Y-3.6583
X5.6319Y-3.7583
X5.6319Y-3.8583
X5.6319Y-3.9583
X5.6319Y-4.0583
X5.6319Y-4.1583
X5.6319Y-4.2583
X5.6319Y-4.3583
X5.7051Y-3.2016
X5.8154Y-4.3413
X5.8394Y-3.437
X5.8394Y-3.537
X5.8394Y-3.637
X5.8394Y-3.737
X5.8394Y-3.837
X5.8394Y-3.937
X5.8394Y-4.037
X5.902Y-3.2016
X5.915Y-1.6551
X6.0122Y-4.3413
X6.1118Y-1.6551
X6.1394Y-3.437
X6.1394Y-3.537
X6.1394Y-3.637
X6.1394Y-3.737
X6.1394Y-3.837
X6.1394Y-3.937
X6.1394Y-4.037
X6.1845Y-3.2494
X6.363Y-3.4366
X6.363Y-3.5366
X6.363Y-3.6366
X6.363Y-3.7366
X6.363Y-3.8366
X6.363Y-3.9366
X6.363Y-4.0366
X6.363Y-4.1366
X6.363Y-4.2366
X6.363Y-4.3366
X6.3813Y-3.2494
X6.4252Y-4.5886
X6.5976Y-2.8303
X6.622Y-4.5886
X6.663Y-3.4366
X6.663Y-3.5366
X6.663Y-3.6366
X6.663Y-3.7366
X6.663Y-3.8366
X6.663Y-3.9366
X6.663Y-4.0366
X6.663Y-4.1366
X6.663Y-4.2366
X6.663Y-4.3366
X6.7417Y-5.0882
X6.7945Y-2.8303
X6.9386Y-5.0882
X7.1327Y-3.7902
X7.1327Y-3.8902
X7.1327Y-3.9902
X7.1327Y-4.0902
X7.1327Y-4.1902
X7.1327Y-4.2902
X7.1327Y-4.3902
X7.1327Y-4.4902
X7.1327Y-4.5902
X7.1327Y-4.6902
X7.1327Y-4.7902
X7.1327Y-4.8902
X7.1327Y-4.9902
X7.1327Y-5.0902
X7.4327Y-3.7902
X7.4327Y-3.8902
X7.4327Y-3.9902
X7.4327Y-4.0902
X7.4327Y-4.1902
X7.4327Y-4.2902
X7.4327Y-4.3902
X7.4327Y-4.4902
X7.4327Y-4.5902
X7.4327Y-4.6902
X7.4327Y-4.7902
X7.4327Y-4.8902
X7.4327Y-4.9902
X7.4327Y-5.0902
X7.6429Y-2.3256
X7.6429Y-2.485
X7.6429Y-2.6445
X7.6429Y-2.8039
X7.6429Y-2.9634
X7.6429Y-3.1228
X7.6429Y-3.2823
X7.6429Y-3.4417
X7.6429Y-3.6012
X7.6429Y-3.7606
X7.6429Y-3.9201
X7.6791Y-5.0976
X7.876Y-5.0976
X7.9429Y-2.3256
X7.9429Y-2.485
X7.9429Y-2.6445
X7.9429Y-2.8039
X7.9429Y-2.9634
X7.9429Y-3.1228
X7.9429Y-3.2823
X7.9429Y-3.4417
X7.9429Y-3.6012
X7.9429Y-3.7606
X7.9429Y-3.9201
X8.0767Y-5.2297
X8.1752Y-5.2297
T4
X8.1791Y-2.8959
X8.1791Y-2.986
X8.1791Y-3.0762
X8.1791Y-3.1663
X8.1791Y-3.2565
X8.2571Y-2.8508
X8.2571Y-2.9409
X8.2571Y-3.0311
X8.2571Y-3.1213
X8.2571Y-3.2114
X8.335Y-2.8959
X8.335Y-2.986
X8.335Y-3.0762
X8.335Y-3.1663
X8.335Y-3.2565
T5
X2.1803Y-1.6811
X2.1803Y-1.7811
X2.1803Y-1.8811
X2.1803Y-1.9811
X2.1803Y-2.0811
X2.1803Y-2.1811
X2.1803Y-2.2811
X2.1803Y-2.3811
X2.1803Y-2.4811
X2.1803Y-2.5811
X2.1803Y-2.6811
X2.1803Y-2.7811
X2.1803Y-2.8811
X2.1803Y-2.9811
X2.1803Y-3.0811
X2.1803Y-3.1811
X2.1803Y-3.2811
X2.1803Y-3.3811
X2.1803Y-3.4811
X2.1803Y-3.5811
X2.4303Y-3.572
X2.5303Y-3.572
X2.6303Y-3.572
X2.8803Y-1.6811
X2.8803Y-1.7811
X2.8803Y-1.8811
X2.8803Y-1.9811
X2.8803Y-2.0811
X2.8803Y-2.1811
X2.8803Y-2.2811
X2.8803Y-2.3811
X2.8803Y-2.4811
X2.8803Y-2.5811
X2.8803Y-2.6811
X2.8803Y-2.7811
X2.8803Y-2.8811
X2.8803Y-2.9811
X2.8803Y-3.0811
X2.8803Y-3.1811
X2.8803Y-3.2811
X2.8803Y-3.3811
X2.8803Y-3.4811
X2.8803Y-3.5811
T6
X8.2598Y-2.5736
X8.2598Y-3.5579
M30
