%TF.GenerationSoftware,KiCad,Pcbnew,9.0.2*%
%TF.CreationDate,2026-01-18T17:28:16-06:00*%
%TF.ProjectId,video,76696465-6f2e-46b6-9963-61645f706362,V0.9*%
%TF.SameCoordinates,Original*%
%TF.FileFunction,Legend,Bot*%
%TF.FilePolarity,Positive*%
%FSLAX46Y46*%
G04 Gerber Fmt 4.6, Leading zero omitted, Abs format (unit mm)*
G04 Created by KiCad (PCBNEW 9.0.2) date 2026-01-18 17:28:16*
%MOMM*%
%LPD*%
G01*
G04 APERTURE LIST*
%ADD10C,0.150000*%
G04 APERTURE END LIST*
D10*
X166191904Y-98174819D02*
X166191904Y-98984342D01*
X166191904Y-98984342D02*
X166144285Y-99079580D01*
X166144285Y-99079580D02*
X166096666Y-99127200D01*
X166096666Y-99127200D02*
X166001428Y-99174819D01*
X166001428Y-99174819D02*
X165810952Y-99174819D01*
X165810952Y-99174819D02*
X165715714Y-99127200D01*
X165715714Y-99127200D02*
X165668095Y-99079580D01*
X165668095Y-99079580D02*
X165620476Y-98984342D01*
X165620476Y-98984342D02*
X165620476Y-98174819D01*
X164715714Y-98174819D02*
X164906190Y-98174819D01*
X164906190Y-98174819D02*
X165001428Y-98222438D01*
X165001428Y-98222438D02*
X165049047Y-98270057D01*
X165049047Y-98270057D02*
X165144285Y-98412914D01*
X165144285Y-98412914D02*
X165191904Y-98603390D01*
X165191904Y-98603390D02*
X165191904Y-98984342D01*
X165191904Y-98984342D02*
X165144285Y-99079580D01*
X165144285Y-99079580D02*
X165096666Y-99127200D01*
X165096666Y-99127200D02*
X165001428Y-99174819D01*
X165001428Y-99174819D02*
X164810952Y-99174819D01*
X164810952Y-99174819D02*
X164715714Y-99127200D01*
X164715714Y-99127200D02*
X164668095Y-99079580D01*
X164668095Y-99079580D02*
X164620476Y-98984342D01*
X164620476Y-98984342D02*
X164620476Y-98746247D01*
X164620476Y-98746247D02*
X164668095Y-98651009D01*
X164668095Y-98651009D02*
X164715714Y-98603390D01*
X164715714Y-98603390D02*
X164810952Y-98555771D01*
X164810952Y-98555771D02*
X165001428Y-98555771D01*
X165001428Y-98555771D02*
X165096666Y-98603390D01*
X165096666Y-98603390D02*
X165144285Y-98651009D01*
X165144285Y-98651009D02*
X165191904Y-98746247D01*
X152891904Y-94374819D02*
X152891904Y-95184342D01*
X152891904Y-95184342D02*
X152844285Y-95279580D01*
X152844285Y-95279580D02*
X152796666Y-95327200D01*
X152796666Y-95327200D02*
X152701428Y-95374819D01*
X152701428Y-95374819D02*
X152510952Y-95374819D01*
X152510952Y-95374819D02*
X152415714Y-95327200D01*
X152415714Y-95327200D02*
X152368095Y-95279580D01*
X152368095Y-95279580D02*
X152320476Y-95184342D01*
X152320476Y-95184342D02*
X152320476Y-94374819D01*
X151891904Y-94470057D02*
X151844285Y-94422438D01*
X151844285Y-94422438D02*
X151749047Y-94374819D01*
X151749047Y-94374819D02*
X151510952Y-94374819D01*
X151510952Y-94374819D02*
X151415714Y-94422438D01*
X151415714Y-94422438D02*
X151368095Y-94470057D01*
X151368095Y-94470057D02*
X151320476Y-94565295D01*
X151320476Y-94565295D02*
X151320476Y-94660533D01*
X151320476Y-94660533D02*
X151368095Y-94803390D01*
X151368095Y-94803390D02*
X151939523Y-95374819D01*
X151939523Y-95374819D02*
X151320476Y-95374819D01*
X186218094Y-112234819D02*
X186218094Y-113044342D01*
X186218094Y-113044342D02*
X186170475Y-113139580D01*
X186170475Y-113139580D02*
X186122856Y-113187200D01*
X186122856Y-113187200D02*
X186027618Y-113234819D01*
X186027618Y-113234819D02*
X185837142Y-113234819D01*
X185837142Y-113234819D02*
X185741904Y-113187200D01*
X185741904Y-113187200D02*
X185694285Y-113139580D01*
X185694285Y-113139580D02*
X185646666Y-113044342D01*
X185646666Y-113044342D02*
X185646666Y-112234819D01*
X184741904Y-112568152D02*
X184741904Y-113234819D01*
X184979999Y-112187200D02*
X185218094Y-112901485D01*
X185218094Y-112901485D02*
X184599047Y-112901485D01*
X184027618Y-112234819D02*
X183932380Y-112234819D01*
X183932380Y-112234819D02*
X183837142Y-112282438D01*
X183837142Y-112282438D02*
X183789523Y-112330057D01*
X183789523Y-112330057D02*
X183741904Y-112425295D01*
X183741904Y-112425295D02*
X183694285Y-112615771D01*
X183694285Y-112615771D02*
X183694285Y-112853866D01*
X183694285Y-112853866D02*
X183741904Y-113044342D01*
X183741904Y-113044342D02*
X183789523Y-113139580D01*
X183789523Y-113139580D02*
X183837142Y-113187200D01*
X183837142Y-113187200D02*
X183932380Y-113234819D01*
X183932380Y-113234819D02*
X184027618Y-113234819D01*
X184027618Y-113234819D02*
X184122856Y-113187200D01*
X184122856Y-113187200D02*
X184170475Y-113139580D01*
X184170475Y-113139580D02*
X184218094Y-113044342D01*
X184218094Y-113044342D02*
X184265713Y-112853866D01*
X184265713Y-112853866D02*
X184265713Y-112615771D01*
X184265713Y-112615771D02*
X184218094Y-112425295D01*
X184218094Y-112425295D02*
X184170475Y-112330057D01*
X184170475Y-112330057D02*
X184122856Y-112282438D01*
X184122856Y-112282438D02*
X184027618Y-112234819D01*
X100061904Y-84564819D02*
X100061904Y-85374342D01*
X100061904Y-85374342D02*
X100014285Y-85469580D01*
X100014285Y-85469580D02*
X99966666Y-85517200D01*
X99966666Y-85517200D02*
X99871428Y-85564819D01*
X99871428Y-85564819D02*
X99680952Y-85564819D01*
X99680952Y-85564819D02*
X99585714Y-85517200D01*
X99585714Y-85517200D02*
X99538095Y-85469580D01*
X99538095Y-85469580D02*
X99490476Y-85374342D01*
X99490476Y-85374342D02*
X99490476Y-84564819D01*
X98538095Y-84564819D02*
X99014285Y-84564819D01*
X99014285Y-84564819D02*
X99061904Y-85041009D01*
X99061904Y-85041009D02*
X99014285Y-84993390D01*
X99014285Y-84993390D02*
X98919047Y-84945771D01*
X98919047Y-84945771D02*
X98680952Y-84945771D01*
X98680952Y-84945771D02*
X98585714Y-84993390D01*
X98585714Y-84993390D02*
X98538095Y-85041009D01*
X98538095Y-85041009D02*
X98490476Y-85136247D01*
X98490476Y-85136247D02*
X98490476Y-85374342D01*
X98490476Y-85374342D02*
X98538095Y-85469580D01*
X98538095Y-85469580D02*
X98585714Y-85517200D01*
X98585714Y-85517200D02*
X98680952Y-85564819D01*
X98680952Y-85564819D02*
X98919047Y-85564819D01*
X98919047Y-85564819D02*
X99014285Y-85517200D01*
X99014285Y-85517200D02*
X99061904Y-85469580D01*
X99901904Y-116144819D02*
X99901904Y-116954342D01*
X99901904Y-116954342D02*
X99854285Y-117049580D01*
X99854285Y-117049580D02*
X99806666Y-117097200D01*
X99806666Y-117097200D02*
X99711428Y-117144819D01*
X99711428Y-117144819D02*
X99520952Y-117144819D01*
X99520952Y-117144819D02*
X99425714Y-117097200D01*
X99425714Y-117097200D02*
X99378095Y-117049580D01*
X99378095Y-117049580D02*
X99330476Y-116954342D01*
X99330476Y-116954342D02*
X99330476Y-116144819D01*
X98425714Y-116478152D02*
X98425714Y-117144819D01*
X98663809Y-116097200D02*
X98901904Y-116811485D01*
X98901904Y-116811485D02*
X98282857Y-116811485D01*
X98701904Y-53164819D02*
X98701904Y-53974342D01*
X98701904Y-53974342D02*
X98654285Y-54069580D01*
X98654285Y-54069580D02*
X98606666Y-54117200D01*
X98606666Y-54117200D02*
X98511428Y-54164819D01*
X98511428Y-54164819D02*
X98320952Y-54164819D01*
X98320952Y-54164819D02*
X98225714Y-54117200D01*
X98225714Y-54117200D02*
X98178095Y-54069580D01*
X98178095Y-54069580D02*
X98130476Y-53974342D01*
X98130476Y-53974342D02*
X98130476Y-53164819D01*
X97606666Y-54164819D02*
X97416190Y-54164819D01*
X97416190Y-54164819D02*
X97320952Y-54117200D01*
X97320952Y-54117200D02*
X97273333Y-54069580D01*
X97273333Y-54069580D02*
X97178095Y-53926723D01*
X97178095Y-53926723D02*
X97130476Y-53736247D01*
X97130476Y-53736247D02*
X97130476Y-53355295D01*
X97130476Y-53355295D02*
X97178095Y-53260057D01*
X97178095Y-53260057D02*
X97225714Y-53212438D01*
X97225714Y-53212438D02*
X97320952Y-53164819D01*
X97320952Y-53164819D02*
X97511428Y-53164819D01*
X97511428Y-53164819D02*
X97606666Y-53212438D01*
X97606666Y-53212438D02*
X97654285Y-53260057D01*
X97654285Y-53260057D02*
X97701904Y-53355295D01*
X97701904Y-53355295D02*
X97701904Y-53593390D01*
X97701904Y-53593390D02*
X97654285Y-53688628D01*
X97654285Y-53688628D02*
X97606666Y-53736247D01*
X97606666Y-53736247D02*
X97511428Y-53783866D01*
X97511428Y-53783866D02*
X97320952Y-53783866D01*
X97320952Y-53783866D02*
X97225714Y-53736247D01*
X97225714Y-53736247D02*
X97178095Y-53688628D01*
X97178095Y-53688628D02*
X97130476Y-53593390D01*
X161538094Y-58434819D02*
X161538094Y-59244342D01*
X161538094Y-59244342D02*
X161490475Y-59339580D01*
X161490475Y-59339580D02*
X161442856Y-59387200D01*
X161442856Y-59387200D02*
X161347618Y-59434819D01*
X161347618Y-59434819D02*
X161157142Y-59434819D01*
X161157142Y-59434819D02*
X161061904Y-59387200D01*
X161061904Y-59387200D02*
X161014285Y-59339580D01*
X161014285Y-59339580D02*
X160966666Y-59244342D01*
X160966666Y-59244342D02*
X160966666Y-58434819D01*
X159966666Y-59434819D02*
X160538094Y-59434819D01*
X160252380Y-59434819D02*
X160252380Y-58434819D01*
X160252380Y-58434819D02*
X160347618Y-58577676D01*
X160347618Y-58577676D02*
X160442856Y-58672914D01*
X160442856Y-58672914D02*
X160538094Y-58720533D01*
X159109523Y-58434819D02*
X159299999Y-58434819D01*
X159299999Y-58434819D02*
X159395237Y-58482438D01*
X159395237Y-58482438D02*
X159442856Y-58530057D01*
X159442856Y-58530057D02*
X159538094Y-58672914D01*
X159538094Y-58672914D02*
X159585713Y-58863390D01*
X159585713Y-58863390D02*
X159585713Y-59244342D01*
X159585713Y-59244342D02*
X159538094Y-59339580D01*
X159538094Y-59339580D02*
X159490475Y-59387200D01*
X159490475Y-59387200D02*
X159395237Y-59434819D01*
X159395237Y-59434819D02*
X159204761Y-59434819D01*
X159204761Y-59434819D02*
X159109523Y-59387200D01*
X159109523Y-59387200D02*
X159061904Y-59339580D01*
X159061904Y-59339580D02*
X159014285Y-59244342D01*
X159014285Y-59244342D02*
X159014285Y-59006247D01*
X159014285Y-59006247D02*
X159061904Y-58911009D01*
X159061904Y-58911009D02*
X159109523Y-58863390D01*
X159109523Y-58863390D02*
X159204761Y-58815771D01*
X159204761Y-58815771D02*
X159395237Y-58815771D01*
X159395237Y-58815771D02*
X159490475Y-58863390D01*
X159490475Y-58863390D02*
X159538094Y-58911009D01*
X159538094Y-58911009D02*
X159585713Y-59006247D01*
X175462082Y-48398580D02*
X175509701Y-48446200D01*
X175509701Y-48446200D02*
X175652558Y-48493819D01*
X175652558Y-48493819D02*
X175747796Y-48493819D01*
X175747796Y-48493819D02*
X175890653Y-48446200D01*
X175890653Y-48446200D02*
X175985891Y-48350961D01*
X175985891Y-48350961D02*
X176033510Y-48255723D01*
X176033510Y-48255723D02*
X176081129Y-48065247D01*
X176081129Y-48065247D02*
X176081129Y-47922390D01*
X176081129Y-47922390D02*
X176033510Y-47731914D01*
X176033510Y-47731914D02*
X175985891Y-47636676D01*
X175985891Y-47636676D02*
X175890653Y-47541438D01*
X175890653Y-47541438D02*
X175747796Y-47493819D01*
X175747796Y-47493819D02*
X175652558Y-47493819D01*
X175652558Y-47493819D02*
X175509701Y-47541438D01*
X175509701Y-47541438D02*
X175462082Y-47589057D01*
X175128748Y-47493819D02*
X174509701Y-47493819D01*
X174509701Y-47493819D02*
X174843034Y-47874771D01*
X174843034Y-47874771D02*
X174700177Y-47874771D01*
X174700177Y-47874771D02*
X174604939Y-47922390D01*
X174604939Y-47922390D02*
X174557320Y-47970009D01*
X174557320Y-47970009D02*
X174509701Y-48065247D01*
X174509701Y-48065247D02*
X174509701Y-48303342D01*
X174509701Y-48303342D02*
X174557320Y-48398580D01*
X174557320Y-48398580D02*
X174604939Y-48446200D01*
X174604939Y-48446200D02*
X174700177Y-48493819D01*
X174700177Y-48493819D02*
X174985891Y-48493819D01*
X174985891Y-48493819D02*
X175081129Y-48446200D01*
X175081129Y-48446200D02*
X175128748Y-48398580D01*
X174033510Y-48493819D02*
X173843034Y-48493819D01*
X173843034Y-48493819D02*
X173747796Y-48446200D01*
X173747796Y-48446200D02*
X173700177Y-48398580D01*
X173700177Y-48398580D02*
X173604939Y-48255723D01*
X173604939Y-48255723D02*
X173557320Y-48065247D01*
X173557320Y-48065247D02*
X173557320Y-47684295D01*
X173557320Y-47684295D02*
X173604939Y-47589057D01*
X173604939Y-47589057D02*
X173652558Y-47541438D01*
X173652558Y-47541438D02*
X173747796Y-47493819D01*
X173747796Y-47493819D02*
X173938272Y-47493819D01*
X173938272Y-47493819D02*
X174033510Y-47541438D01*
X174033510Y-47541438D02*
X174081129Y-47589057D01*
X174081129Y-47589057D02*
X174128748Y-47684295D01*
X174128748Y-47684295D02*
X174128748Y-47922390D01*
X174128748Y-47922390D02*
X174081129Y-48017628D01*
X174081129Y-48017628D02*
X174033510Y-48065247D01*
X174033510Y-48065247D02*
X173938272Y-48112866D01*
X173938272Y-48112866D02*
X173747796Y-48112866D01*
X173747796Y-48112866D02*
X173652558Y-48065247D01*
X173652558Y-48065247D02*
X173604939Y-48017628D01*
X173604939Y-48017628D02*
X173557320Y-47922390D01*
X126741904Y-53034819D02*
X126741904Y-53844342D01*
X126741904Y-53844342D02*
X126694285Y-53939580D01*
X126694285Y-53939580D02*
X126646666Y-53987200D01*
X126646666Y-53987200D02*
X126551428Y-54034819D01*
X126551428Y-54034819D02*
X126360952Y-54034819D01*
X126360952Y-54034819D02*
X126265714Y-53987200D01*
X126265714Y-53987200D02*
X126218095Y-53939580D01*
X126218095Y-53939580D02*
X126170476Y-53844342D01*
X126170476Y-53844342D02*
X126170476Y-53034819D01*
X125789523Y-53034819D02*
X125122857Y-53034819D01*
X125122857Y-53034819D02*
X125551428Y-54034819D01*
X43702082Y-129958580D02*
X43749701Y-130006200D01*
X43749701Y-130006200D02*
X43892558Y-130053819D01*
X43892558Y-130053819D02*
X43987796Y-130053819D01*
X43987796Y-130053819D02*
X44130653Y-130006200D01*
X44130653Y-130006200D02*
X44225891Y-129910961D01*
X44225891Y-129910961D02*
X44273510Y-129815723D01*
X44273510Y-129815723D02*
X44321129Y-129625247D01*
X44321129Y-129625247D02*
X44321129Y-129482390D01*
X44321129Y-129482390D02*
X44273510Y-129291914D01*
X44273510Y-129291914D02*
X44225891Y-129196676D01*
X44225891Y-129196676D02*
X44130653Y-129101438D01*
X44130653Y-129101438D02*
X43987796Y-129053819D01*
X43987796Y-129053819D02*
X43892558Y-129053819D01*
X43892558Y-129053819D02*
X43749701Y-129101438D01*
X43749701Y-129101438D02*
X43702082Y-129149057D01*
X42749701Y-130053819D02*
X43321129Y-130053819D01*
X43035415Y-130053819D02*
X43035415Y-129053819D01*
X43035415Y-129053819D02*
X43130653Y-129196676D01*
X43130653Y-129196676D02*
X43225891Y-129291914D01*
X43225891Y-129291914D02*
X43321129Y-129339533D01*
X41892558Y-129387152D02*
X41892558Y-130053819D01*
X42130653Y-129006200D02*
X42368748Y-129720485D01*
X42368748Y-129720485D02*
X41749701Y-129720485D01*
X150370666Y-110605580D02*
X150418285Y-110653200D01*
X150418285Y-110653200D02*
X150561142Y-110700819D01*
X150561142Y-110700819D02*
X150656380Y-110700819D01*
X150656380Y-110700819D02*
X150799237Y-110653200D01*
X150799237Y-110653200D02*
X150894475Y-110557961D01*
X150894475Y-110557961D02*
X150942094Y-110462723D01*
X150942094Y-110462723D02*
X150989713Y-110272247D01*
X150989713Y-110272247D02*
X150989713Y-110129390D01*
X150989713Y-110129390D02*
X150942094Y-109938914D01*
X150942094Y-109938914D02*
X150894475Y-109843676D01*
X150894475Y-109843676D02*
X150799237Y-109748438D01*
X150799237Y-109748438D02*
X150656380Y-109700819D01*
X150656380Y-109700819D02*
X150561142Y-109700819D01*
X150561142Y-109700819D02*
X150418285Y-109748438D01*
X150418285Y-109748438D02*
X150370666Y-109796057D01*
X149513523Y-110034152D02*
X149513523Y-110700819D01*
X149751618Y-109653200D02*
X149989713Y-110367485D01*
X149989713Y-110367485D02*
X149370666Y-110367485D01*
X198802857Y-67600819D02*
X199136190Y-67124628D01*
X199374285Y-67600819D02*
X199374285Y-66600819D01*
X199374285Y-66600819D02*
X198993333Y-66600819D01*
X198993333Y-66600819D02*
X198898095Y-66648438D01*
X198898095Y-66648438D02*
X198850476Y-66696057D01*
X198850476Y-66696057D02*
X198802857Y-66791295D01*
X198802857Y-66791295D02*
X198802857Y-66934152D01*
X198802857Y-66934152D02*
X198850476Y-67029390D01*
X198850476Y-67029390D02*
X198898095Y-67077009D01*
X198898095Y-67077009D02*
X198993333Y-67124628D01*
X198993333Y-67124628D02*
X199374285Y-67124628D01*
X198421904Y-66696057D02*
X198374285Y-66648438D01*
X198374285Y-66648438D02*
X198279047Y-66600819D01*
X198279047Y-66600819D02*
X198040952Y-66600819D01*
X198040952Y-66600819D02*
X197945714Y-66648438D01*
X197945714Y-66648438D02*
X197898095Y-66696057D01*
X197898095Y-66696057D02*
X197850476Y-66791295D01*
X197850476Y-66791295D02*
X197850476Y-66886533D01*
X197850476Y-66886533D02*
X197898095Y-67029390D01*
X197898095Y-67029390D02*
X198469523Y-67600819D01*
X198469523Y-67600819D02*
X197850476Y-67600819D01*
X197469523Y-66696057D02*
X197421904Y-66648438D01*
X197421904Y-66648438D02*
X197326666Y-66600819D01*
X197326666Y-66600819D02*
X197088571Y-66600819D01*
X197088571Y-66600819D02*
X196993333Y-66648438D01*
X196993333Y-66648438D02*
X196945714Y-66696057D01*
X196945714Y-66696057D02*
X196898095Y-66791295D01*
X196898095Y-66791295D02*
X196898095Y-66886533D01*
X196898095Y-66886533D02*
X196945714Y-67029390D01*
X196945714Y-67029390D02*
X197517142Y-67600819D01*
X197517142Y-67600819D02*
X196898095Y-67600819D01*
X68371394Y-116344819D02*
X68371394Y-117154342D01*
X68371394Y-117154342D02*
X68323775Y-117249580D01*
X68323775Y-117249580D02*
X68276156Y-117297200D01*
X68276156Y-117297200D02*
X68180918Y-117344819D01*
X68180918Y-117344819D02*
X67990442Y-117344819D01*
X67990442Y-117344819D02*
X67895204Y-117297200D01*
X67895204Y-117297200D02*
X67847585Y-117249580D01*
X67847585Y-117249580D02*
X67799966Y-117154342D01*
X67799966Y-117154342D02*
X67799966Y-116344819D01*
X67419013Y-116344819D02*
X66799966Y-116344819D01*
X66799966Y-116344819D02*
X67133299Y-116725771D01*
X67133299Y-116725771D02*
X66990442Y-116725771D01*
X66990442Y-116725771D02*
X66895204Y-116773390D01*
X66895204Y-116773390D02*
X66847585Y-116821009D01*
X66847585Y-116821009D02*
X66799966Y-116916247D01*
X66799966Y-116916247D02*
X66799966Y-117154342D01*
X66799966Y-117154342D02*
X66847585Y-117249580D01*
X66847585Y-117249580D02*
X66895204Y-117297200D01*
X66895204Y-117297200D02*
X66990442Y-117344819D01*
X66990442Y-117344819D02*
X67276156Y-117344819D01*
X67276156Y-117344819D02*
X67371394Y-117297200D01*
X67371394Y-117297200D02*
X67419013Y-117249580D01*
X66419013Y-116440057D02*
X66371394Y-116392438D01*
X66371394Y-116392438D02*
X66276156Y-116344819D01*
X66276156Y-116344819D02*
X66038061Y-116344819D01*
X66038061Y-116344819D02*
X65942823Y-116392438D01*
X65942823Y-116392438D02*
X65895204Y-116440057D01*
X65895204Y-116440057D02*
X65847585Y-116535295D01*
X65847585Y-116535295D02*
X65847585Y-116630533D01*
X65847585Y-116630533D02*
X65895204Y-116773390D01*
X65895204Y-116773390D02*
X66466632Y-117344819D01*
X66466632Y-117344819D02*
X65847585Y-117344819D01*
X198802857Y-71650819D02*
X199136190Y-71174628D01*
X199374285Y-71650819D02*
X199374285Y-70650819D01*
X199374285Y-70650819D02*
X198993333Y-70650819D01*
X198993333Y-70650819D02*
X198898095Y-70698438D01*
X198898095Y-70698438D02*
X198850476Y-70746057D01*
X198850476Y-70746057D02*
X198802857Y-70841295D01*
X198802857Y-70841295D02*
X198802857Y-70984152D01*
X198802857Y-70984152D02*
X198850476Y-71079390D01*
X198850476Y-71079390D02*
X198898095Y-71127009D01*
X198898095Y-71127009D02*
X198993333Y-71174628D01*
X198993333Y-71174628D02*
X199374285Y-71174628D01*
X198421904Y-70746057D02*
X198374285Y-70698438D01*
X198374285Y-70698438D02*
X198279047Y-70650819D01*
X198279047Y-70650819D02*
X198040952Y-70650819D01*
X198040952Y-70650819D02*
X197945714Y-70698438D01*
X197945714Y-70698438D02*
X197898095Y-70746057D01*
X197898095Y-70746057D02*
X197850476Y-70841295D01*
X197850476Y-70841295D02*
X197850476Y-70936533D01*
X197850476Y-70936533D02*
X197898095Y-71079390D01*
X197898095Y-71079390D02*
X198469523Y-71650819D01*
X198469523Y-71650819D02*
X197850476Y-71650819D01*
X197517142Y-70650819D02*
X196898095Y-70650819D01*
X196898095Y-70650819D02*
X197231428Y-71031771D01*
X197231428Y-71031771D02*
X197088571Y-71031771D01*
X197088571Y-71031771D02*
X196993333Y-71079390D01*
X196993333Y-71079390D02*
X196945714Y-71127009D01*
X196945714Y-71127009D02*
X196898095Y-71222247D01*
X196898095Y-71222247D02*
X196898095Y-71460342D01*
X196898095Y-71460342D02*
X196945714Y-71555580D01*
X196945714Y-71555580D02*
X196993333Y-71603200D01*
X196993333Y-71603200D02*
X197088571Y-71650819D01*
X197088571Y-71650819D02*
X197374285Y-71650819D01*
X197374285Y-71650819D02*
X197469523Y-71603200D01*
X197469523Y-71603200D02*
X197517142Y-71555580D01*
X110269180Y-66906666D02*
X110745371Y-67239999D01*
X110269180Y-67478094D02*
X111269180Y-67478094D01*
X111269180Y-67478094D02*
X111269180Y-67097142D01*
X111269180Y-67097142D02*
X111221561Y-67001904D01*
X111221561Y-67001904D02*
X111173942Y-66954285D01*
X111173942Y-66954285D02*
X111078704Y-66906666D01*
X111078704Y-66906666D02*
X110935847Y-66906666D01*
X110935847Y-66906666D02*
X110840609Y-66954285D01*
X110840609Y-66954285D02*
X110792990Y-67001904D01*
X110792990Y-67001904D02*
X110745371Y-67097142D01*
X110745371Y-67097142D02*
X110745371Y-67478094D01*
X110269180Y-65906666D02*
X110745371Y-66239999D01*
X110269180Y-66478094D02*
X111269180Y-66478094D01*
X111269180Y-66478094D02*
X111269180Y-66097142D01*
X111269180Y-66097142D02*
X111221561Y-66001904D01*
X111221561Y-66001904D02*
X111173942Y-65954285D01*
X111173942Y-65954285D02*
X111078704Y-65906666D01*
X111078704Y-65906666D02*
X110935847Y-65906666D01*
X110935847Y-65906666D02*
X110840609Y-65954285D01*
X110840609Y-65954285D02*
X110792990Y-66001904D01*
X110792990Y-66001904D02*
X110745371Y-66097142D01*
X110745371Y-66097142D02*
X110745371Y-66478094D01*
X110269180Y-64954285D02*
X110269180Y-65525713D01*
X110269180Y-65239999D02*
X111269180Y-65239999D01*
X111269180Y-65239999D02*
X111126323Y-65335237D01*
X111126323Y-65335237D02*
X111031085Y-65430475D01*
X111031085Y-65430475D02*
X110983466Y-65525713D01*
X174422857Y-82569580D02*
X174470476Y-82617200D01*
X174470476Y-82617200D02*
X174613333Y-82664819D01*
X174613333Y-82664819D02*
X174708571Y-82664819D01*
X174708571Y-82664819D02*
X174851428Y-82617200D01*
X174851428Y-82617200D02*
X174946666Y-82521961D01*
X174946666Y-82521961D02*
X174994285Y-82426723D01*
X174994285Y-82426723D02*
X175041904Y-82236247D01*
X175041904Y-82236247D02*
X175041904Y-82093390D01*
X175041904Y-82093390D02*
X174994285Y-81902914D01*
X174994285Y-81902914D02*
X174946666Y-81807676D01*
X174946666Y-81807676D02*
X174851428Y-81712438D01*
X174851428Y-81712438D02*
X174708571Y-81664819D01*
X174708571Y-81664819D02*
X174613333Y-81664819D01*
X174613333Y-81664819D02*
X174470476Y-81712438D01*
X174470476Y-81712438D02*
X174422857Y-81760057D01*
X173565714Y-81998152D02*
X173565714Y-82664819D01*
X173803809Y-81617200D02*
X174041904Y-82331485D01*
X174041904Y-82331485D02*
X173422857Y-82331485D01*
X172565714Y-81664819D02*
X173041904Y-81664819D01*
X173041904Y-81664819D02*
X173089523Y-82141009D01*
X173089523Y-82141009D02*
X173041904Y-82093390D01*
X173041904Y-82093390D02*
X172946666Y-82045771D01*
X172946666Y-82045771D02*
X172708571Y-82045771D01*
X172708571Y-82045771D02*
X172613333Y-82093390D01*
X172613333Y-82093390D02*
X172565714Y-82141009D01*
X172565714Y-82141009D02*
X172518095Y-82236247D01*
X172518095Y-82236247D02*
X172518095Y-82474342D01*
X172518095Y-82474342D02*
X172565714Y-82569580D01*
X172565714Y-82569580D02*
X172613333Y-82617200D01*
X172613333Y-82617200D02*
X172708571Y-82664819D01*
X172708571Y-82664819D02*
X172946666Y-82664819D01*
X172946666Y-82664819D02*
X173041904Y-82617200D01*
X173041904Y-82617200D02*
X173089523Y-82569580D01*
X199011904Y-113994819D02*
X199011904Y-114804342D01*
X199011904Y-114804342D02*
X198964285Y-114899580D01*
X198964285Y-114899580D02*
X198916666Y-114947200D01*
X198916666Y-114947200D02*
X198821428Y-114994819D01*
X198821428Y-114994819D02*
X198630952Y-114994819D01*
X198630952Y-114994819D02*
X198535714Y-114947200D01*
X198535714Y-114947200D02*
X198488095Y-114899580D01*
X198488095Y-114899580D02*
X198440476Y-114804342D01*
X198440476Y-114804342D02*
X198440476Y-113994819D01*
X198059523Y-113994819D02*
X197440476Y-113994819D01*
X197440476Y-113994819D02*
X197773809Y-114375771D01*
X197773809Y-114375771D02*
X197630952Y-114375771D01*
X197630952Y-114375771D02*
X197535714Y-114423390D01*
X197535714Y-114423390D02*
X197488095Y-114471009D01*
X197488095Y-114471009D02*
X197440476Y-114566247D01*
X197440476Y-114566247D02*
X197440476Y-114804342D01*
X197440476Y-114804342D02*
X197488095Y-114899580D01*
X197488095Y-114899580D02*
X197535714Y-114947200D01*
X197535714Y-114947200D02*
X197630952Y-114994819D01*
X197630952Y-114994819D02*
X197916666Y-114994819D01*
X197916666Y-114994819D02*
X198011904Y-114947200D01*
X198011904Y-114947200D02*
X198059523Y-114899580D01*
X119292666Y-80313580D02*
X119340285Y-80361200D01*
X119340285Y-80361200D02*
X119483142Y-80408819D01*
X119483142Y-80408819D02*
X119578380Y-80408819D01*
X119578380Y-80408819D02*
X119721237Y-80361200D01*
X119721237Y-80361200D02*
X119816475Y-80265961D01*
X119816475Y-80265961D02*
X119864094Y-80170723D01*
X119864094Y-80170723D02*
X119911713Y-79980247D01*
X119911713Y-79980247D02*
X119911713Y-79837390D01*
X119911713Y-79837390D02*
X119864094Y-79646914D01*
X119864094Y-79646914D02*
X119816475Y-79551676D01*
X119816475Y-79551676D02*
X119721237Y-79456438D01*
X119721237Y-79456438D02*
X119578380Y-79408819D01*
X119578380Y-79408819D02*
X119483142Y-79408819D01*
X119483142Y-79408819D02*
X119340285Y-79456438D01*
X119340285Y-79456438D02*
X119292666Y-79504057D01*
X118959332Y-79408819D02*
X118340285Y-79408819D01*
X118340285Y-79408819D02*
X118673618Y-79789771D01*
X118673618Y-79789771D02*
X118530761Y-79789771D01*
X118530761Y-79789771D02*
X118435523Y-79837390D01*
X118435523Y-79837390D02*
X118387904Y-79885009D01*
X118387904Y-79885009D02*
X118340285Y-79980247D01*
X118340285Y-79980247D02*
X118340285Y-80218342D01*
X118340285Y-80218342D02*
X118387904Y-80313580D01*
X118387904Y-80313580D02*
X118435523Y-80361200D01*
X118435523Y-80361200D02*
X118530761Y-80408819D01*
X118530761Y-80408819D02*
X118816475Y-80408819D01*
X118816475Y-80408819D02*
X118911713Y-80361200D01*
X118911713Y-80361200D02*
X118959332Y-80313580D01*
X204340819Y-76589476D02*
X205055104Y-76589476D01*
X205055104Y-76589476D02*
X205197961Y-76541857D01*
X205197961Y-76541857D02*
X205293200Y-76446619D01*
X205293200Y-76446619D02*
X205340819Y-76303762D01*
X205340819Y-76303762D02*
X205340819Y-76208524D01*
X205340819Y-77589476D02*
X205340819Y-77018048D01*
X205340819Y-77303762D02*
X204340819Y-77303762D01*
X204340819Y-77303762D02*
X204483676Y-77208524D01*
X204483676Y-77208524D02*
X204578914Y-77113286D01*
X204578914Y-77113286D02*
X204626533Y-77018048D01*
X205340819Y-78541857D02*
X205340819Y-77970429D01*
X205340819Y-78256143D02*
X204340819Y-78256143D01*
X204340819Y-78256143D02*
X204483676Y-78160905D01*
X204483676Y-78160905D02*
X204578914Y-78065667D01*
X204578914Y-78065667D02*
X204626533Y-77970429D01*
X86262857Y-43219580D02*
X86310476Y-43267200D01*
X86310476Y-43267200D02*
X86453333Y-43314819D01*
X86453333Y-43314819D02*
X86548571Y-43314819D01*
X86548571Y-43314819D02*
X86691428Y-43267200D01*
X86691428Y-43267200D02*
X86786666Y-43171961D01*
X86786666Y-43171961D02*
X86834285Y-43076723D01*
X86834285Y-43076723D02*
X86881904Y-42886247D01*
X86881904Y-42886247D02*
X86881904Y-42743390D01*
X86881904Y-42743390D02*
X86834285Y-42552914D01*
X86834285Y-42552914D02*
X86786666Y-42457676D01*
X86786666Y-42457676D02*
X86691428Y-42362438D01*
X86691428Y-42362438D02*
X86548571Y-42314819D01*
X86548571Y-42314819D02*
X86453333Y-42314819D01*
X86453333Y-42314819D02*
X86310476Y-42362438D01*
X86310476Y-42362438D02*
X86262857Y-42410057D01*
X85929523Y-42314819D02*
X85310476Y-42314819D01*
X85310476Y-42314819D02*
X85643809Y-42695771D01*
X85643809Y-42695771D02*
X85500952Y-42695771D01*
X85500952Y-42695771D02*
X85405714Y-42743390D01*
X85405714Y-42743390D02*
X85358095Y-42791009D01*
X85358095Y-42791009D02*
X85310476Y-42886247D01*
X85310476Y-42886247D02*
X85310476Y-43124342D01*
X85310476Y-43124342D02*
X85358095Y-43219580D01*
X85358095Y-43219580D02*
X85405714Y-43267200D01*
X85405714Y-43267200D02*
X85500952Y-43314819D01*
X85500952Y-43314819D02*
X85786666Y-43314819D01*
X85786666Y-43314819D02*
X85881904Y-43267200D01*
X85881904Y-43267200D02*
X85929523Y-43219580D01*
X84977142Y-42314819D02*
X84310476Y-42314819D01*
X84310476Y-42314819D02*
X84739047Y-43314819D01*
X139326666Y-57839580D02*
X139374285Y-57887200D01*
X139374285Y-57887200D02*
X139517142Y-57934819D01*
X139517142Y-57934819D02*
X139612380Y-57934819D01*
X139612380Y-57934819D02*
X139755237Y-57887200D01*
X139755237Y-57887200D02*
X139850475Y-57791961D01*
X139850475Y-57791961D02*
X139898094Y-57696723D01*
X139898094Y-57696723D02*
X139945713Y-57506247D01*
X139945713Y-57506247D02*
X139945713Y-57363390D01*
X139945713Y-57363390D02*
X139898094Y-57172914D01*
X139898094Y-57172914D02*
X139850475Y-57077676D01*
X139850475Y-57077676D02*
X139755237Y-56982438D01*
X139755237Y-56982438D02*
X139612380Y-56934819D01*
X139612380Y-56934819D02*
X139517142Y-56934819D01*
X139517142Y-56934819D02*
X139374285Y-56982438D01*
X139374285Y-56982438D02*
X139326666Y-57030057D01*
X138993332Y-56934819D02*
X138326666Y-56934819D01*
X138326666Y-56934819D02*
X138755237Y-57934819D01*
X186218094Y-81054819D02*
X186218094Y-80054819D01*
X186218094Y-80054819D02*
X185837142Y-80054819D01*
X185837142Y-80054819D02*
X185741904Y-80102438D01*
X185741904Y-80102438D02*
X185694285Y-80150057D01*
X185694285Y-80150057D02*
X185646666Y-80245295D01*
X185646666Y-80245295D02*
X185646666Y-80388152D01*
X185646666Y-80388152D02*
X185694285Y-80483390D01*
X185694285Y-80483390D02*
X185741904Y-80531009D01*
X185741904Y-80531009D02*
X185837142Y-80578628D01*
X185837142Y-80578628D02*
X186218094Y-80578628D01*
X185313332Y-80054819D02*
X184694285Y-80054819D01*
X184694285Y-80054819D02*
X185027618Y-80435771D01*
X185027618Y-80435771D02*
X184884761Y-80435771D01*
X184884761Y-80435771D02*
X184789523Y-80483390D01*
X184789523Y-80483390D02*
X184741904Y-80531009D01*
X184741904Y-80531009D02*
X184694285Y-80626247D01*
X184694285Y-80626247D02*
X184694285Y-80864342D01*
X184694285Y-80864342D02*
X184741904Y-80959580D01*
X184741904Y-80959580D02*
X184789523Y-81007200D01*
X184789523Y-81007200D02*
X184884761Y-81054819D01*
X184884761Y-81054819D02*
X185170475Y-81054819D01*
X185170475Y-81054819D02*
X185265713Y-81007200D01*
X185265713Y-81007200D02*
X185313332Y-80959580D01*
X175589082Y-57911580D02*
X175636701Y-57959200D01*
X175636701Y-57959200D02*
X175779558Y-58006819D01*
X175779558Y-58006819D02*
X175874796Y-58006819D01*
X175874796Y-58006819D02*
X176017653Y-57959200D01*
X176017653Y-57959200D02*
X176112891Y-57863961D01*
X176112891Y-57863961D02*
X176160510Y-57768723D01*
X176160510Y-57768723D02*
X176208129Y-57578247D01*
X176208129Y-57578247D02*
X176208129Y-57435390D01*
X176208129Y-57435390D02*
X176160510Y-57244914D01*
X176160510Y-57244914D02*
X176112891Y-57149676D01*
X176112891Y-57149676D02*
X176017653Y-57054438D01*
X176017653Y-57054438D02*
X175874796Y-57006819D01*
X175874796Y-57006819D02*
X175779558Y-57006819D01*
X175779558Y-57006819D02*
X175636701Y-57054438D01*
X175636701Y-57054438D02*
X175589082Y-57102057D01*
X174731939Y-57340152D02*
X174731939Y-58006819D01*
X174970034Y-56959200D02*
X175208129Y-57673485D01*
X175208129Y-57673485D02*
X174589082Y-57673485D01*
X174303367Y-57006819D02*
X173684320Y-57006819D01*
X173684320Y-57006819D02*
X174017653Y-57387771D01*
X174017653Y-57387771D02*
X173874796Y-57387771D01*
X173874796Y-57387771D02*
X173779558Y-57435390D01*
X173779558Y-57435390D02*
X173731939Y-57483009D01*
X173731939Y-57483009D02*
X173684320Y-57578247D01*
X173684320Y-57578247D02*
X173684320Y-57816342D01*
X173684320Y-57816342D02*
X173731939Y-57911580D01*
X173731939Y-57911580D02*
X173779558Y-57959200D01*
X173779558Y-57959200D02*
X173874796Y-58006819D01*
X173874796Y-58006819D02*
X174160510Y-58006819D01*
X174160510Y-58006819D02*
X174255748Y-57959200D01*
X174255748Y-57959200D02*
X174303367Y-57911580D01*
X198326666Y-55450819D02*
X198659999Y-54974628D01*
X198898094Y-55450819D02*
X198898094Y-54450819D01*
X198898094Y-54450819D02*
X198517142Y-54450819D01*
X198517142Y-54450819D02*
X198421904Y-54498438D01*
X198421904Y-54498438D02*
X198374285Y-54546057D01*
X198374285Y-54546057D02*
X198326666Y-54641295D01*
X198326666Y-54641295D02*
X198326666Y-54784152D01*
X198326666Y-54784152D02*
X198374285Y-54879390D01*
X198374285Y-54879390D02*
X198421904Y-54927009D01*
X198421904Y-54927009D02*
X198517142Y-54974628D01*
X198517142Y-54974628D02*
X198898094Y-54974628D01*
X197993332Y-54450819D02*
X197374285Y-54450819D01*
X197374285Y-54450819D02*
X197707618Y-54831771D01*
X197707618Y-54831771D02*
X197564761Y-54831771D01*
X197564761Y-54831771D02*
X197469523Y-54879390D01*
X197469523Y-54879390D02*
X197421904Y-54927009D01*
X197421904Y-54927009D02*
X197374285Y-55022247D01*
X197374285Y-55022247D02*
X197374285Y-55260342D01*
X197374285Y-55260342D02*
X197421904Y-55355580D01*
X197421904Y-55355580D02*
X197469523Y-55403200D01*
X197469523Y-55403200D02*
X197564761Y-55450819D01*
X197564761Y-55450819D02*
X197850475Y-55450819D01*
X197850475Y-55450819D02*
X197945713Y-55403200D01*
X197945713Y-55403200D02*
X197993332Y-55355580D01*
X150447333Y-134074819D02*
X150447333Y-134789104D01*
X150447333Y-134789104D02*
X150494952Y-134931961D01*
X150494952Y-134931961D02*
X150590190Y-135027200D01*
X150590190Y-135027200D02*
X150733047Y-135074819D01*
X150733047Y-135074819D02*
X150828285Y-135074819D01*
X149542571Y-134074819D02*
X149733047Y-134074819D01*
X149733047Y-134074819D02*
X149828285Y-134122438D01*
X149828285Y-134122438D02*
X149875904Y-134170057D01*
X149875904Y-134170057D02*
X149971142Y-134312914D01*
X149971142Y-134312914D02*
X150018761Y-134503390D01*
X150018761Y-134503390D02*
X150018761Y-134884342D01*
X150018761Y-134884342D02*
X149971142Y-134979580D01*
X149971142Y-134979580D02*
X149923523Y-135027200D01*
X149923523Y-135027200D02*
X149828285Y-135074819D01*
X149828285Y-135074819D02*
X149637809Y-135074819D01*
X149637809Y-135074819D02*
X149542571Y-135027200D01*
X149542571Y-135027200D02*
X149494952Y-134979580D01*
X149494952Y-134979580D02*
X149447333Y-134884342D01*
X149447333Y-134884342D02*
X149447333Y-134646247D01*
X149447333Y-134646247D02*
X149494952Y-134551009D01*
X149494952Y-134551009D02*
X149542571Y-134503390D01*
X149542571Y-134503390D02*
X149637809Y-134455771D01*
X149637809Y-134455771D02*
X149828285Y-134455771D01*
X149828285Y-134455771D02*
X149923523Y-134503390D01*
X149923523Y-134503390D02*
X149971142Y-134551009D01*
X149971142Y-134551009D02*
X150018761Y-134646247D01*
X147736419Y-44378857D02*
X147688800Y-44426476D01*
X147688800Y-44426476D02*
X147641180Y-44569333D01*
X147641180Y-44569333D02*
X147641180Y-44664571D01*
X147641180Y-44664571D02*
X147688800Y-44807428D01*
X147688800Y-44807428D02*
X147784038Y-44902666D01*
X147784038Y-44902666D02*
X147879276Y-44950285D01*
X147879276Y-44950285D02*
X148069752Y-44997904D01*
X148069752Y-44997904D02*
X148212609Y-44997904D01*
X148212609Y-44997904D02*
X148403085Y-44950285D01*
X148403085Y-44950285D02*
X148498323Y-44902666D01*
X148498323Y-44902666D02*
X148593561Y-44807428D01*
X148593561Y-44807428D02*
X148641180Y-44664571D01*
X148641180Y-44664571D02*
X148641180Y-44569333D01*
X148641180Y-44569333D02*
X148593561Y-44426476D01*
X148593561Y-44426476D02*
X148545942Y-44378857D01*
X148307847Y-43521714D02*
X147641180Y-43521714D01*
X148688800Y-43759809D02*
X147974514Y-43997904D01*
X147974514Y-43997904D02*
X147974514Y-43378857D01*
X148545942Y-43045523D02*
X148593561Y-42997904D01*
X148593561Y-42997904D02*
X148641180Y-42902666D01*
X148641180Y-42902666D02*
X148641180Y-42664571D01*
X148641180Y-42664571D02*
X148593561Y-42569333D01*
X148593561Y-42569333D02*
X148545942Y-42521714D01*
X148545942Y-42521714D02*
X148450704Y-42474095D01*
X148450704Y-42474095D02*
X148355466Y-42474095D01*
X148355466Y-42474095D02*
X148212609Y-42521714D01*
X148212609Y-42521714D02*
X147641180Y-43093142D01*
X147641180Y-43093142D02*
X147641180Y-42474095D01*
X198802857Y-83800819D02*
X199136190Y-83324628D01*
X199374285Y-83800819D02*
X199374285Y-82800819D01*
X199374285Y-82800819D02*
X198993333Y-82800819D01*
X198993333Y-82800819D02*
X198898095Y-82848438D01*
X198898095Y-82848438D02*
X198850476Y-82896057D01*
X198850476Y-82896057D02*
X198802857Y-82991295D01*
X198802857Y-82991295D02*
X198802857Y-83134152D01*
X198802857Y-83134152D02*
X198850476Y-83229390D01*
X198850476Y-83229390D02*
X198898095Y-83277009D01*
X198898095Y-83277009D02*
X198993333Y-83324628D01*
X198993333Y-83324628D02*
X199374285Y-83324628D01*
X198421904Y-82896057D02*
X198374285Y-82848438D01*
X198374285Y-82848438D02*
X198279047Y-82800819D01*
X198279047Y-82800819D02*
X198040952Y-82800819D01*
X198040952Y-82800819D02*
X197945714Y-82848438D01*
X197945714Y-82848438D02*
X197898095Y-82896057D01*
X197898095Y-82896057D02*
X197850476Y-82991295D01*
X197850476Y-82991295D02*
X197850476Y-83086533D01*
X197850476Y-83086533D02*
X197898095Y-83229390D01*
X197898095Y-83229390D02*
X198469523Y-83800819D01*
X198469523Y-83800819D02*
X197850476Y-83800819D01*
X196993333Y-82800819D02*
X197183809Y-82800819D01*
X197183809Y-82800819D02*
X197279047Y-82848438D01*
X197279047Y-82848438D02*
X197326666Y-82896057D01*
X197326666Y-82896057D02*
X197421904Y-83038914D01*
X197421904Y-83038914D02*
X197469523Y-83229390D01*
X197469523Y-83229390D02*
X197469523Y-83610342D01*
X197469523Y-83610342D02*
X197421904Y-83705580D01*
X197421904Y-83705580D02*
X197374285Y-83753200D01*
X197374285Y-83753200D02*
X197279047Y-83800819D01*
X197279047Y-83800819D02*
X197088571Y-83800819D01*
X197088571Y-83800819D02*
X196993333Y-83753200D01*
X196993333Y-83753200D02*
X196945714Y-83705580D01*
X196945714Y-83705580D02*
X196898095Y-83610342D01*
X196898095Y-83610342D02*
X196898095Y-83372247D01*
X196898095Y-83372247D02*
X196945714Y-83277009D01*
X196945714Y-83277009D02*
X196993333Y-83229390D01*
X196993333Y-83229390D02*
X197088571Y-83181771D01*
X197088571Y-83181771D02*
X197279047Y-83181771D01*
X197279047Y-83181771D02*
X197374285Y-83229390D01*
X197374285Y-83229390D02*
X197421904Y-83277009D01*
X197421904Y-83277009D02*
X197469523Y-83372247D01*
X198802857Y-87850819D02*
X199136190Y-87374628D01*
X199374285Y-87850819D02*
X199374285Y-86850819D01*
X199374285Y-86850819D02*
X198993333Y-86850819D01*
X198993333Y-86850819D02*
X198898095Y-86898438D01*
X198898095Y-86898438D02*
X198850476Y-86946057D01*
X198850476Y-86946057D02*
X198802857Y-87041295D01*
X198802857Y-87041295D02*
X198802857Y-87184152D01*
X198802857Y-87184152D02*
X198850476Y-87279390D01*
X198850476Y-87279390D02*
X198898095Y-87327009D01*
X198898095Y-87327009D02*
X198993333Y-87374628D01*
X198993333Y-87374628D02*
X199374285Y-87374628D01*
X198421904Y-86946057D02*
X198374285Y-86898438D01*
X198374285Y-86898438D02*
X198279047Y-86850819D01*
X198279047Y-86850819D02*
X198040952Y-86850819D01*
X198040952Y-86850819D02*
X197945714Y-86898438D01*
X197945714Y-86898438D02*
X197898095Y-86946057D01*
X197898095Y-86946057D02*
X197850476Y-87041295D01*
X197850476Y-87041295D02*
X197850476Y-87136533D01*
X197850476Y-87136533D02*
X197898095Y-87279390D01*
X197898095Y-87279390D02*
X198469523Y-87850819D01*
X198469523Y-87850819D02*
X197850476Y-87850819D01*
X197517142Y-86850819D02*
X196850476Y-86850819D01*
X196850476Y-86850819D02*
X197279047Y-87850819D01*
X198802857Y-79750819D02*
X199136190Y-79274628D01*
X199374285Y-79750819D02*
X199374285Y-78750819D01*
X199374285Y-78750819D02*
X198993333Y-78750819D01*
X198993333Y-78750819D02*
X198898095Y-78798438D01*
X198898095Y-78798438D02*
X198850476Y-78846057D01*
X198850476Y-78846057D02*
X198802857Y-78941295D01*
X198802857Y-78941295D02*
X198802857Y-79084152D01*
X198802857Y-79084152D02*
X198850476Y-79179390D01*
X198850476Y-79179390D02*
X198898095Y-79227009D01*
X198898095Y-79227009D02*
X198993333Y-79274628D01*
X198993333Y-79274628D02*
X199374285Y-79274628D01*
X198421904Y-78846057D02*
X198374285Y-78798438D01*
X198374285Y-78798438D02*
X198279047Y-78750819D01*
X198279047Y-78750819D02*
X198040952Y-78750819D01*
X198040952Y-78750819D02*
X197945714Y-78798438D01*
X197945714Y-78798438D02*
X197898095Y-78846057D01*
X197898095Y-78846057D02*
X197850476Y-78941295D01*
X197850476Y-78941295D02*
X197850476Y-79036533D01*
X197850476Y-79036533D02*
X197898095Y-79179390D01*
X197898095Y-79179390D02*
X198469523Y-79750819D01*
X198469523Y-79750819D02*
X197850476Y-79750819D01*
X196945714Y-78750819D02*
X197421904Y-78750819D01*
X197421904Y-78750819D02*
X197469523Y-79227009D01*
X197469523Y-79227009D02*
X197421904Y-79179390D01*
X197421904Y-79179390D02*
X197326666Y-79131771D01*
X197326666Y-79131771D02*
X197088571Y-79131771D01*
X197088571Y-79131771D02*
X196993333Y-79179390D01*
X196993333Y-79179390D02*
X196945714Y-79227009D01*
X196945714Y-79227009D02*
X196898095Y-79322247D01*
X196898095Y-79322247D02*
X196898095Y-79560342D01*
X196898095Y-79560342D02*
X196945714Y-79655580D01*
X196945714Y-79655580D02*
X196993333Y-79703200D01*
X196993333Y-79703200D02*
X197088571Y-79750819D01*
X197088571Y-79750819D02*
X197326666Y-79750819D01*
X197326666Y-79750819D02*
X197421904Y-79703200D01*
X197421904Y-79703200D02*
X197469523Y-79655580D01*
X52368094Y-116774819D02*
X52368094Y-117584342D01*
X52368094Y-117584342D02*
X52320475Y-117679580D01*
X52320475Y-117679580D02*
X52272856Y-117727200D01*
X52272856Y-117727200D02*
X52177618Y-117774819D01*
X52177618Y-117774819D02*
X51987142Y-117774819D01*
X51987142Y-117774819D02*
X51891904Y-117727200D01*
X51891904Y-117727200D02*
X51844285Y-117679580D01*
X51844285Y-117679580D02*
X51796666Y-117584342D01*
X51796666Y-117584342D02*
X51796666Y-116774819D01*
X51415713Y-116774819D02*
X50796666Y-116774819D01*
X50796666Y-116774819D02*
X51129999Y-117155771D01*
X51129999Y-117155771D02*
X50987142Y-117155771D01*
X50987142Y-117155771D02*
X50891904Y-117203390D01*
X50891904Y-117203390D02*
X50844285Y-117251009D01*
X50844285Y-117251009D02*
X50796666Y-117346247D01*
X50796666Y-117346247D02*
X50796666Y-117584342D01*
X50796666Y-117584342D02*
X50844285Y-117679580D01*
X50844285Y-117679580D02*
X50891904Y-117727200D01*
X50891904Y-117727200D02*
X50987142Y-117774819D01*
X50987142Y-117774819D02*
X51272856Y-117774819D01*
X51272856Y-117774819D02*
X51368094Y-117727200D01*
X51368094Y-117727200D02*
X51415713Y-117679580D01*
X49939523Y-117108152D02*
X49939523Y-117774819D01*
X50177618Y-116727200D02*
X50415713Y-117441485D01*
X50415713Y-117441485D02*
X49796666Y-117441485D01*
X91452857Y-101689580D02*
X91500476Y-101737200D01*
X91500476Y-101737200D02*
X91643333Y-101784819D01*
X91643333Y-101784819D02*
X91738571Y-101784819D01*
X91738571Y-101784819D02*
X91881428Y-101737200D01*
X91881428Y-101737200D02*
X91976666Y-101641961D01*
X91976666Y-101641961D02*
X92024285Y-101546723D01*
X92024285Y-101546723D02*
X92071904Y-101356247D01*
X92071904Y-101356247D02*
X92071904Y-101213390D01*
X92071904Y-101213390D02*
X92024285Y-101022914D01*
X92024285Y-101022914D02*
X91976666Y-100927676D01*
X91976666Y-100927676D02*
X91881428Y-100832438D01*
X91881428Y-100832438D02*
X91738571Y-100784819D01*
X91738571Y-100784819D02*
X91643333Y-100784819D01*
X91643333Y-100784819D02*
X91500476Y-100832438D01*
X91500476Y-100832438D02*
X91452857Y-100880057D01*
X90500476Y-101784819D02*
X91071904Y-101784819D01*
X90786190Y-101784819D02*
X90786190Y-100784819D01*
X90786190Y-100784819D02*
X90881428Y-100927676D01*
X90881428Y-100927676D02*
X90976666Y-101022914D01*
X90976666Y-101022914D02*
X91071904Y-101070533D01*
X89881428Y-100784819D02*
X89786190Y-100784819D01*
X89786190Y-100784819D02*
X89690952Y-100832438D01*
X89690952Y-100832438D02*
X89643333Y-100880057D01*
X89643333Y-100880057D02*
X89595714Y-100975295D01*
X89595714Y-100975295D02*
X89548095Y-101165771D01*
X89548095Y-101165771D02*
X89548095Y-101403866D01*
X89548095Y-101403866D02*
X89595714Y-101594342D01*
X89595714Y-101594342D02*
X89643333Y-101689580D01*
X89643333Y-101689580D02*
X89690952Y-101737200D01*
X89690952Y-101737200D02*
X89786190Y-101784819D01*
X89786190Y-101784819D02*
X89881428Y-101784819D01*
X89881428Y-101784819D02*
X89976666Y-101737200D01*
X89976666Y-101737200D02*
X90024285Y-101689580D01*
X90024285Y-101689580D02*
X90071904Y-101594342D01*
X90071904Y-101594342D02*
X90119523Y-101403866D01*
X90119523Y-101403866D02*
X90119523Y-101165771D01*
X90119523Y-101165771D02*
X90071904Y-100975295D01*
X90071904Y-100975295D02*
X90024285Y-100880057D01*
X90024285Y-100880057D02*
X89976666Y-100832438D01*
X89976666Y-100832438D02*
X89881428Y-100784819D01*
X197932857Y-130069580D02*
X197980476Y-130117200D01*
X197980476Y-130117200D02*
X198123333Y-130164819D01*
X198123333Y-130164819D02*
X198218571Y-130164819D01*
X198218571Y-130164819D02*
X198361428Y-130117200D01*
X198361428Y-130117200D02*
X198456666Y-130021961D01*
X198456666Y-130021961D02*
X198504285Y-129926723D01*
X198504285Y-129926723D02*
X198551904Y-129736247D01*
X198551904Y-129736247D02*
X198551904Y-129593390D01*
X198551904Y-129593390D02*
X198504285Y-129402914D01*
X198504285Y-129402914D02*
X198456666Y-129307676D01*
X198456666Y-129307676D02*
X198361428Y-129212438D01*
X198361428Y-129212438D02*
X198218571Y-129164819D01*
X198218571Y-129164819D02*
X198123333Y-129164819D01*
X198123333Y-129164819D02*
X197980476Y-129212438D01*
X197980476Y-129212438D02*
X197932857Y-129260057D01*
X196980476Y-130164819D02*
X197551904Y-130164819D01*
X197266190Y-130164819D02*
X197266190Y-129164819D01*
X197266190Y-129164819D02*
X197361428Y-129307676D01*
X197361428Y-129307676D02*
X197456666Y-129402914D01*
X197456666Y-129402914D02*
X197551904Y-129450533D01*
X196599523Y-129260057D02*
X196551904Y-129212438D01*
X196551904Y-129212438D02*
X196456666Y-129164819D01*
X196456666Y-129164819D02*
X196218571Y-129164819D01*
X196218571Y-129164819D02*
X196123333Y-129212438D01*
X196123333Y-129212438D02*
X196075714Y-129260057D01*
X196075714Y-129260057D02*
X196028095Y-129355295D01*
X196028095Y-129355295D02*
X196028095Y-129450533D01*
X196028095Y-129450533D02*
X196075714Y-129593390D01*
X196075714Y-129593390D02*
X196647142Y-130164819D01*
X196647142Y-130164819D02*
X196028095Y-130164819D01*
X186938094Y-53044819D02*
X186938094Y-53854342D01*
X186938094Y-53854342D02*
X186890475Y-53949580D01*
X186890475Y-53949580D02*
X186842856Y-53997200D01*
X186842856Y-53997200D02*
X186747618Y-54044819D01*
X186747618Y-54044819D02*
X186557142Y-54044819D01*
X186557142Y-54044819D02*
X186461904Y-53997200D01*
X186461904Y-53997200D02*
X186414285Y-53949580D01*
X186414285Y-53949580D02*
X186366666Y-53854342D01*
X186366666Y-53854342D02*
X186366666Y-53044819D01*
X185938094Y-53140057D02*
X185890475Y-53092438D01*
X185890475Y-53092438D02*
X185795237Y-53044819D01*
X185795237Y-53044819D02*
X185557142Y-53044819D01*
X185557142Y-53044819D02*
X185461904Y-53092438D01*
X185461904Y-53092438D02*
X185414285Y-53140057D01*
X185414285Y-53140057D02*
X185366666Y-53235295D01*
X185366666Y-53235295D02*
X185366666Y-53330533D01*
X185366666Y-53330533D02*
X185414285Y-53473390D01*
X185414285Y-53473390D02*
X185985713Y-54044819D01*
X185985713Y-54044819D02*
X185366666Y-54044819D01*
X184747618Y-53044819D02*
X184652380Y-53044819D01*
X184652380Y-53044819D02*
X184557142Y-53092438D01*
X184557142Y-53092438D02*
X184509523Y-53140057D01*
X184509523Y-53140057D02*
X184461904Y-53235295D01*
X184461904Y-53235295D02*
X184414285Y-53425771D01*
X184414285Y-53425771D02*
X184414285Y-53663866D01*
X184414285Y-53663866D02*
X184461904Y-53854342D01*
X184461904Y-53854342D02*
X184509523Y-53949580D01*
X184509523Y-53949580D02*
X184557142Y-53997200D01*
X184557142Y-53997200D02*
X184652380Y-54044819D01*
X184652380Y-54044819D02*
X184747618Y-54044819D01*
X184747618Y-54044819D02*
X184842856Y-53997200D01*
X184842856Y-53997200D02*
X184890475Y-53949580D01*
X184890475Y-53949580D02*
X184938094Y-53854342D01*
X184938094Y-53854342D02*
X184985713Y-53663866D01*
X184985713Y-53663866D02*
X184985713Y-53425771D01*
X184985713Y-53425771D02*
X184938094Y-53235295D01*
X184938094Y-53235295D02*
X184890475Y-53140057D01*
X184890475Y-53140057D02*
X184842856Y-53092438D01*
X184842856Y-53092438D02*
X184747618Y-53044819D01*
X198802857Y-75700819D02*
X199136190Y-75224628D01*
X199374285Y-75700819D02*
X199374285Y-74700819D01*
X199374285Y-74700819D02*
X198993333Y-74700819D01*
X198993333Y-74700819D02*
X198898095Y-74748438D01*
X198898095Y-74748438D02*
X198850476Y-74796057D01*
X198850476Y-74796057D02*
X198802857Y-74891295D01*
X198802857Y-74891295D02*
X198802857Y-75034152D01*
X198802857Y-75034152D02*
X198850476Y-75129390D01*
X198850476Y-75129390D02*
X198898095Y-75177009D01*
X198898095Y-75177009D02*
X198993333Y-75224628D01*
X198993333Y-75224628D02*
X199374285Y-75224628D01*
X198421904Y-74796057D02*
X198374285Y-74748438D01*
X198374285Y-74748438D02*
X198279047Y-74700819D01*
X198279047Y-74700819D02*
X198040952Y-74700819D01*
X198040952Y-74700819D02*
X197945714Y-74748438D01*
X197945714Y-74748438D02*
X197898095Y-74796057D01*
X197898095Y-74796057D02*
X197850476Y-74891295D01*
X197850476Y-74891295D02*
X197850476Y-74986533D01*
X197850476Y-74986533D02*
X197898095Y-75129390D01*
X197898095Y-75129390D02*
X198469523Y-75700819D01*
X198469523Y-75700819D02*
X197850476Y-75700819D01*
X196993333Y-75034152D02*
X196993333Y-75700819D01*
X197231428Y-74653200D02*
X197469523Y-75367485D01*
X197469523Y-75367485D02*
X196850476Y-75367485D01*
X198326666Y-51400819D02*
X198659999Y-50924628D01*
X198898094Y-51400819D02*
X198898094Y-50400819D01*
X198898094Y-50400819D02*
X198517142Y-50400819D01*
X198517142Y-50400819D02*
X198421904Y-50448438D01*
X198421904Y-50448438D02*
X198374285Y-50496057D01*
X198374285Y-50496057D02*
X198326666Y-50591295D01*
X198326666Y-50591295D02*
X198326666Y-50734152D01*
X198326666Y-50734152D02*
X198374285Y-50829390D01*
X198374285Y-50829390D02*
X198421904Y-50877009D01*
X198421904Y-50877009D02*
X198517142Y-50924628D01*
X198517142Y-50924628D02*
X198898094Y-50924628D01*
X197374285Y-51400819D02*
X197945713Y-51400819D01*
X197659999Y-51400819D02*
X197659999Y-50400819D01*
X197659999Y-50400819D02*
X197755237Y-50543676D01*
X197755237Y-50543676D02*
X197850475Y-50638914D01*
X197850475Y-50638914D02*
X197945713Y-50686533D01*
X198802857Y-100000819D02*
X199136190Y-99524628D01*
X199374285Y-100000819D02*
X199374285Y-99000819D01*
X199374285Y-99000819D02*
X198993333Y-99000819D01*
X198993333Y-99000819D02*
X198898095Y-99048438D01*
X198898095Y-99048438D02*
X198850476Y-99096057D01*
X198850476Y-99096057D02*
X198802857Y-99191295D01*
X198802857Y-99191295D02*
X198802857Y-99334152D01*
X198802857Y-99334152D02*
X198850476Y-99429390D01*
X198850476Y-99429390D02*
X198898095Y-99477009D01*
X198898095Y-99477009D02*
X198993333Y-99524628D01*
X198993333Y-99524628D02*
X199374285Y-99524628D01*
X198469523Y-99000819D02*
X197850476Y-99000819D01*
X197850476Y-99000819D02*
X198183809Y-99381771D01*
X198183809Y-99381771D02*
X198040952Y-99381771D01*
X198040952Y-99381771D02*
X197945714Y-99429390D01*
X197945714Y-99429390D02*
X197898095Y-99477009D01*
X197898095Y-99477009D02*
X197850476Y-99572247D01*
X197850476Y-99572247D02*
X197850476Y-99810342D01*
X197850476Y-99810342D02*
X197898095Y-99905580D01*
X197898095Y-99905580D02*
X197945714Y-99953200D01*
X197945714Y-99953200D02*
X198040952Y-100000819D01*
X198040952Y-100000819D02*
X198326666Y-100000819D01*
X198326666Y-100000819D02*
X198421904Y-99953200D01*
X198421904Y-99953200D02*
X198469523Y-99905580D01*
X196898095Y-100000819D02*
X197469523Y-100000819D01*
X197183809Y-100000819D02*
X197183809Y-99000819D01*
X197183809Y-99000819D02*
X197279047Y-99143676D01*
X197279047Y-99143676D02*
X197374285Y-99238914D01*
X197374285Y-99238914D02*
X197469523Y-99286533D01*
X140478094Y-98724819D02*
X140478094Y-99534342D01*
X140478094Y-99534342D02*
X140430475Y-99629580D01*
X140430475Y-99629580D02*
X140382856Y-99677200D01*
X140382856Y-99677200D02*
X140287618Y-99724819D01*
X140287618Y-99724819D02*
X140097142Y-99724819D01*
X140097142Y-99724819D02*
X140001904Y-99677200D01*
X140001904Y-99677200D02*
X139954285Y-99629580D01*
X139954285Y-99629580D02*
X139906666Y-99534342D01*
X139906666Y-99534342D02*
X139906666Y-98724819D01*
X138906666Y-99724819D02*
X139478094Y-99724819D01*
X139192380Y-99724819D02*
X139192380Y-98724819D01*
X139192380Y-98724819D02*
X139287618Y-98867676D01*
X139287618Y-98867676D02*
X139382856Y-98962914D01*
X139382856Y-98962914D02*
X139478094Y-99010533D01*
X138335237Y-99153390D02*
X138430475Y-99105771D01*
X138430475Y-99105771D02*
X138478094Y-99058152D01*
X138478094Y-99058152D02*
X138525713Y-98962914D01*
X138525713Y-98962914D02*
X138525713Y-98915295D01*
X138525713Y-98915295D02*
X138478094Y-98820057D01*
X138478094Y-98820057D02*
X138430475Y-98772438D01*
X138430475Y-98772438D02*
X138335237Y-98724819D01*
X138335237Y-98724819D02*
X138144761Y-98724819D01*
X138144761Y-98724819D02*
X138049523Y-98772438D01*
X138049523Y-98772438D02*
X138001904Y-98820057D01*
X138001904Y-98820057D02*
X137954285Y-98915295D01*
X137954285Y-98915295D02*
X137954285Y-98962914D01*
X137954285Y-98962914D02*
X138001904Y-99058152D01*
X138001904Y-99058152D02*
X138049523Y-99105771D01*
X138049523Y-99105771D02*
X138144761Y-99153390D01*
X138144761Y-99153390D02*
X138335237Y-99153390D01*
X138335237Y-99153390D02*
X138430475Y-99201009D01*
X138430475Y-99201009D02*
X138478094Y-99248628D01*
X138478094Y-99248628D02*
X138525713Y-99343866D01*
X138525713Y-99343866D02*
X138525713Y-99534342D01*
X138525713Y-99534342D02*
X138478094Y-99629580D01*
X138478094Y-99629580D02*
X138430475Y-99677200D01*
X138430475Y-99677200D02*
X138335237Y-99724819D01*
X138335237Y-99724819D02*
X138144761Y-99724819D01*
X138144761Y-99724819D02*
X138049523Y-99677200D01*
X138049523Y-99677200D02*
X138001904Y-99629580D01*
X138001904Y-99629580D02*
X137954285Y-99534342D01*
X137954285Y-99534342D02*
X137954285Y-99343866D01*
X137954285Y-99343866D02*
X138001904Y-99248628D01*
X138001904Y-99248628D02*
X138049523Y-99201009D01*
X138049523Y-99201009D02*
X138144761Y-99153390D01*
X173646666Y-129829580D02*
X173694285Y-129877200D01*
X173694285Y-129877200D02*
X173837142Y-129924819D01*
X173837142Y-129924819D02*
X173932380Y-129924819D01*
X173932380Y-129924819D02*
X174075237Y-129877200D01*
X174075237Y-129877200D02*
X174170475Y-129781961D01*
X174170475Y-129781961D02*
X174218094Y-129686723D01*
X174218094Y-129686723D02*
X174265713Y-129496247D01*
X174265713Y-129496247D02*
X174265713Y-129353390D01*
X174265713Y-129353390D02*
X174218094Y-129162914D01*
X174218094Y-129162914D02*
X174170475Y-129067676D01*
X174170475Y-129067676D02*
X174075237Y-128972438D01*
X174075237Y-128972438D02*
X173932380Y-128924819D01*
X173932380Y-128924819D02*
X173837142Y-128924819D01*
X173837142Y-128924819D02*
X173694285Y-128972438D01*
X173694285Y-128972438D02*
X173646666Y-129020057D01*
X172789523Y-128924819D02*
X172979999Y-128924819D01*
X172979999Y-128924819D02*
X173075237Y-128972438D01*
X173075237Y-128972438D02*
X173122856Y-129020057D01*
X173122856Y-129020057D02*
X173218094Y-129162914D01*
X173218094Y-129162914D02*
X173265713Y-129353390D01*
X173265713Y-129353390D02*
X173265713Y-129734342D01*
X173265713Y-129734342D02*
X173218094Y-129829580D01*
X173218094Y-129829580D02*
X173170475Y-129877200D01*
X173170475Y-129877200D02*
X173075237Y-129924819D01*
X173075237Y-129924819D02*
X172884761Y-129924819D01*
X172884761Y-129924819D02*
X172789523Y-129877200D01*
X172789523Y-129877200D02*
X172741904Y-129829580D01*
X172741904Y-129829580D02*
X172694285Y-129734342D01*
X172694285Y-129734342D02*
X172694285Y-129496247D01*
X172694285Y-129496247D02*
X172741904Y-129401009D01*
X172741904Y-129401009D02*
X172789523Y-129353390D01*
X172789523Y-129353390D02*
X172884761Y-129305771D01*
X172884761Y-129305771D02*
X173075237Y-129305771D01*
X173075237Y-129305771D02*
X173170475Y-129353390D01*
X173170475Y-129353390D02*
X173218094Y-129401009D01*
X173218094Y-129401009D02*
X173265713Y-129496247D01*
X139698857Y-77913580D02*
X139746476Y-77961200D01*
X139746476Y-77961200D02*
X139889333Y-78008819D01*
X139889333Y-78008819D02*
X139984571Y-78008819D01*
X139984571Y-78008819D02*
X140127428Y-77961200D01*
X140127428Y-77961200D02*
X140222666Y-77865961D01*
X140222666Y-77865961D02*
X140270285Y-77770723D01*
X140270285Y-77770723D02*
X140317904Y-77580247D01*
X140317904Y-77580247D02*
X140317904Y-77437390D01*
X140317904Y-77437390D02*
X140270285Y-77246914D01*
X140270285Y-77246914D02*
X140222666Y-77151676D01*
X140222666Y-77151676D02*
X140127428Y-77056438D01*
X140127428Y-77056438D02*
X139984571Y-77008819D01*
X139984571Y-77008819D02*
X139889333Y-77008819D01*
X139889333Y-77008819D02*
X139746476Y-77056438D01*
X139746476Y-77056438D02*
X139698857Y-77104057D01*
X138841714Y-77342152D02*
X138841714Y-78008819D01*
X139079809Y-76961200D02*
X139317904Y-77675485D01*
X139317904Y-77675485D02*
X138698857Y-77675485D01*
X137889333Y-77342152D02*
X137889333Y-78008819D01*
X138127428Y-76961200D02*
X138365523Y-77675485D01*
X138365523Y-77675485D02*
X137746476Y-77675485D01*
X207031082Y-129393580D02*
X207078701Y-129441200D01*
X207078701Y-129441200D02*
X207221558Y-129488819D01*
X207221558Y-129488819D02*
X207316796Y-129488819D01*
X207316796Y-129488819D02*
X207459653Y-129441200D01*
X207459653Y-129441200D02*
X207554891Y-129345961D01*
X207554891Y-129345961D02*
X207602510Y-129250723D01*
X207602510Y-129250723D02*
X207650129Y-129060247D01*
X207650129Y-129060247D02*
X207650129Y-128917390D01*
X207650129Y-128917390D02*
X207602510Y-128726914D01*
X207602510Y-128726914D02*
X207554891Y-128631676D01*
X207554891Y-128631676D02*
X207459653Y-128536438D01*
X207459653Y-128536438D02*
X207316796Y-128488819D01*
X207316796Y-128488819D02*
X207221558Y-128488819D01*
X207221558Y-128488819D02*
X207078701Y-128536438D01*
X207078701Y-128536438D02*
X207031082Y-128584057D01*
X206078701Y-129488819D02*
X206650129Y-129488819D01*
X206364415Y-129488819D02*
X206364415Y-128488819D01*
X206364415Y-128488819D02*
X206459653Y-128631676D01*
X206459653Y-128631676D02*
X206554891Y-128726914D01*
X206554891Y-128726914D02*
X206650129Y-128774533D01*
X205745367Y-128488819D02*
X205126320Y-128488819D01*
X205126320Y-128488819D02*
X205459653Y-128869771D01*
X205459653Y-128869771D02*
X205316796Y-128869771D01*
X205316796Y-128869771D02*
X205221558Y-128917390D01*
X205221558Y-128917390D02*
X205173939Y-128965009D01*
X205173939Y-128965009D02*
X205126320Y-129060247D01*
X205126320Y-129060247D02*
X205126320Y-129298342D01*
X205126320Y-129298342D02*
X205173939Y-129393580D01*
X205173939Y-129393580D02*
X205221558Y-129441200D01*
X205221558Y-129441200D02*
X205316796Y-129488819D01*
X205316796Y-129488819D02*
X205602510Y-129488819D01*
X205602510Y-129488819D02*
X205697748Y-129441200D01*
X205697748Y-129441200D02*
X205745367Y-129393580D01*
X198802857Y-91900819D02*
X199136190Y-91424628D01*
X199374285Y-91900819D02*
X199374285Y-90900819D01*
X199374285Y-90900819D02*
X198993333Y-90900819D01*
X198993333Y-90900819D02*
X198898095Y-90948438D01*
X198898095Y-90948438D02*
X198850476Y-90996057D01*
X198850476Y-90996057D02*
X198802857Y-91091295D01*
X198802857Y-91091295D02*
X198802857Y-91234152D01*
X198802857Y-91234152D02*
X198850476Y-91329390D01*
X198850476Y-91329390D02*
X198898095Y-91377009D01*
X198898095Y-91377009D02*
X198993333Y-91424628D01*
X198993333Y-91424628D02*
X199374285Y-91424628D01*
X198421904Y-90996057D02*
X198374285Y-90948438D01*
X198374285Y-90948438D02*
X198279047Y-90900819D01*
X198279047Y-90900819D02*
X198040952Y-90900819D01*
X198040952Y-90900819D02*
X197945714Y-90948438D01*
X197945714Y-90948438D02*
X197898095Y-90996057D01*
X197898095Y-90996057D02*
X197850476Y-91091295D01*
X197850476Y-91091295D02*
X197850476Y-91186533D01*
X197850476Y-91186533D02*
X197898095Y-91329390D01*
X197898095Y-91329390D02*
X198469523Y-91900819D01*
X198469523Y-91900819D02*
X197850476Y-91900819D01*
X197279047Y-91329390D02*
X197374285Y-91281771D01*
X197374285Y-91281771D02*
X197421904Y-91234152D01*
X197421904Y-91234152D02*
X197469523Y-91138914D01*
X197469523Y-91138914D02*
X197469523Y-91091295D01*
X197469523Y-91091295D02*
X197421904Y-90996057D01*
X197421904Y-90996057D02*
X197374285Y-90948438D01*
X197374285Y-90948438D02*
X197279047Y-90900819D01*
X197279047Y-90900819D02*
X197088571Y-90900819D01*
X197088571Y-90900819D02*
X196993333Y-90948438D01*
X196993333Y-90948438D02*
X196945714Y-90996057D01*
X196945714Y-90996057D02*
X196898095Y-91091295D01*
X196898095Y-91091295D02*
X196898095Y-91138914D01*
X196898095Y-91138914D02*
X196945714Y-91234152D01*
X196945714Y-91234152D02*
X196993333Y-91281771D01*
X196993333Y-91281771D02*
X197088571Y-91329390D01*
X197088571Y-91329390D02*
X197279047Y-91329390D01*
X197279047Y-91329390D02*
X197374285Y-91377009D01*
X197374285Y-91377009D02*
X197421904Y-91424628D01*
X197421904Y-91424628D02*
X197469523Y-91519866D01*
X197469523Y-91519866D02*
X197469523Y-91710342D01*
X197469523Y-91710342D02*
X197421904Y-91805580D01*
X197421904Y-91805580D02*
X197374285Y-91853200D01*
X197374285Y-91853200D02*
X197279047Y-91900819D01*
X197279047Y-91900819D02*
X197088571Y-91900819D01*
X197088571Y-91900819D02*
X196993333Y-91853200D01*
X196993333Y-91853200D02*
X196945714Y-91805580D01*
X196945714Y-91805580D02*
X196898095Y-91710342D01*
X196898095Y-91710342D02*
X196898095Y-91519866D01*
X196898095Y-91519866D02*
X196945714Y-91424628D01*
X196945714Y-91424628D02*
X196993333Y-91377009D01*
X196993333Y-91377009D02*
X197088571Y-91329390D01*
X139132819Y-67364666D02*
X139847104Y-67364666D01*
X139847104Y-67364666D02*
X139989961Y-67317047D01*
X139989961Y-67317047D02*
X140085200Y-67221809D01*
X140085200Y-67221809D02*
X140132819Y-67078952D01*
X140132819Y-67078952D02*
X140132819Y-66983714D01*
X140132819Y-67840857D02*
X139132819Y-67840857D01*
X139132819Y-67840857D02*
X139132819Y-68221809D01*
X139132819Y-68221809D02*
X139180438Y-68317047D01*
X139180438Y-68317047D02*
X139228057Y-68364666D01*
X139228057Y-68364666D02*
X139323295Y-68412285D01*
X139323295Y-68412285D02*
X139466152Y-68412285D01*
X139466152Y-68412285D02*
X139561390Y-68364666D01*
X139561390Y-68364666D02*
X139609009Y-68317047D01*
X139609009Y-68317047D02*
X139656628Y-68221809D01*
X139656628Y-68221809D02*
X139656628Y-67840857D01*
X139132819Y-68745619D02*
X139132819Y-69364666D01*
X139132819Y-69364666D02*
X139513771Y-69031333D01*
X139513771Y-69031333D02*
X139513771Y-69174190D01*
X139513771Y-69174190D02*
X139561390Y-69269428D01*
X139561390Y-69269428D02*
X139609009Y-69317047D01*
X139609009Y-69317047D02*
X139704247Y-69364666D01*
X139704247Y-69364666D02*
X139942342Y-69364666D01*
X139942342Y-69364666D02*
X140037580Y-69317047D01*
X140037580Y-69317047D02*
X140085200Y-69269428D01*
X140085200Y-69269428D02*
X140132819Y-69174190D01*
X140132819Y-69174190D02*
X140132819Y-68888476D01*
X140132819Y-68888476D02*
X140085200Y-68793238D01*
X140085200Y-68793238D02*
X140037580Y-68745619D01*
X75126666Y-101479580D02*
X75174285Y-101527200D01*
X75174285Y-101527200D02*
X75317142Y-101574819D01*
X75317142Y-101574819D02*
X75412380Y-101574819D01*
X75412380Y-101574819D02*
X75555237Y-101527200D01*
X75555237Y-101527200D02*
X75650475Y-101431961D01*
X75650475Y-101431961D02*
X75698094Y-101336723D01*
X75698094Y-101336723D02*
X75745713Y-101146247D01*
X75745713Y-101146247D02*
X75745713Y-101003390D01*
X75745713Y-101003390D02*
X75698094Y-100812914D01*
X75698094Y-100812914D02*
X75650475Y-100717676D01*
X75650475Y-100717676D02*
X75555237Y-100622438D01*
X75555237Y-100622438D02*
X75412380Y-100574819D01*
X75412380Y-100574819D02*
X75317142Y-100574819D01*
X75317142Y-100574819D02*
X75174285Y-100622438D01*
X75174285Y-100622438D02*
X75126666Y-100670057D01*
X74174285Y-101574819D02*
X74745713Y-101574819D01*
X74459999Y-101574819D02*
X74459999Y-100574819D01*
X74459999Y-100574819D02*
X74555237Y-100717676D01*
X74555237Y-100717676D02*
X74650475Y-100812914D01*
X74650475Y-100812914D02*
X74745713Y-100860533D01*
X176326982Y-68598580D02*
X176374601Y-68646200D01*
X176374601Y-68646200D02*
X176517458Y-68693819D01*
X176517458Y-68693819D02*
X176612696Y-68693819D01*
X176612696Y-68693819D02*
X176755553Y-68646200D01*
X176755553Y-68646200D02*
X176850791Y-68550961D01*
X176850791Y-68550961D02*
X176898410Y-68455723D01*
X176898410Y-68455723D02*
X176946029Y-68265247D01*
X176946029Y-68265247D02*
X176946029Y-68122390D01*
X176946029Y-68122390D02*
X176898410Y-67931914D01*
X176898410Y-67931914D02*
X176850791Y-67836676D01*
X176850791Y-67836676D02*
X176755553Y-67741438D01*
X176755553Y-67741438D02*
X176612696Y-67693819D01*
X176612696Y-67693819D02*
X176517458Y-67693819D01*
X176517458Y-67693819D02*
X176374601Y-67741438D01*
X176374601Y-67741438D02*
X176326982Y-67789057D01*
X175422220Y-67693819D02*
X175898410Y-67693819D01*
X175898410Y-67693819D02*
X175946029Y-68170009D01*
X175946029Y-68170009D02*
X175898410Y-68122390D01*
X175898410Y-68122390D02*
X175803172Y-68074771D01*
X175803172Y-68074771D02*
X175565077Y-68074771D01*
X175565077Y-68074771D02*
X175469839Y-68122390D01*
X175469839Y-68122390D02*
X175422220Y-68170009D01*
X175422220Y-68170009D02*
X175374601Y-68265247D01*
X175374601Y-68265247D02*
X175374601Y-68503342D01*
X175374601Y-68503342D02*
X175422220Y-68598580D01*
X175422220Y-68598580D02*
X175469839Y-68646200D01*
X175469839Y-68646200D02*
X175565077Y-68693819D01*
X175565077Y-68693819D02*
X175803172Y-68693819D01*
X175803172Y-68693819D02*
X175898410Y-68646200D01*
X175898410Y-68646200D02*
X175946029Y-68598580D01*
X174755553Y-67693819D02*
X174660315Y-67693819D01*
X174660315Y-67693819D02*
X174565077Y-67741438D01*
X174565077Y-67741438D02*
X174517458Y-67789057D01*
X174517458Y-67789057D02*
X174469839Y-67884295D01*
X174469839Y-67884295D02*
X174422220Y-68074771D01*
X174422220Y-68074771D02*
X174422220Y-68312866D01*
X174422220Y-68312866D02*
X174469839Y-68503342D01*
X174469839Y-68503342D02*
X174517458Y-68598580D01*
X174517458Y-68598580D02*
X174565077Y-68646200D01*
X174565077Y-68646200D02*
X174660315Y-68693819D01*
X174660315Y-68693819D02*
X174755553Y-68693819D01*
X174755553Y-68693819D02*
X174850791Y-68646200D01*
X174850791Y-68646200D02*
X174898410Y-68598580D01*
X174898410Y-68598580D02*
X174946029Y-68503342D01*
X174946029Y-68503342D02*
X174993648Y-68312866D01*
X174993648Y-68312866D02*
X174993648Y-68074771D01*
X174993648Y-68074771D02*
X174946029Y-67884295D01*
X174946029Y-67884295D02*
X174898410Y-67789057D01*
X174898410Y-67789057D02*
X174850791Y-67741438D01*
X174850791Y-67741438D02*
X174755553Y-67693819D01*
X127260819Y-82499523D02*
X126784628Y-82166190D01*
X127260819Y-81928095D02*
X126260819Y-81928095D01*
X126260819Y-81928095D02*
X126260819Y-82309047D01*
X126260819Y-82309047D02*
X126308438Y-82404285D01*
X126308438Y-82404285D02*
X126356057Y-82451904D01*
X126356057Y-82451904D02*
X126451295Y-82499523D01*
X126451295Y-82499523D02*
X126594152Y-82499523D01*
X126594152Y-82499523D02*
X126689390Y-82451904D01*
X126689390Y-82451904D02*
X126737009Y-82404285D01*
X126737009Y-82404285D02*
X126784628Y-82309047D01*
X126784628Y-82309047D02*
X126784628Y-81928095D01*
X127260819Y-82928095D02*
X126260819Y-82928095D01*
X126260819Y-82928095D02*
X127260819Y-83499523D01*
X127260819Y-83499523D02*
X126260819Y-83499523D01*
X126356057Y-83928095D02*
X126308438Y-83975714D01*
X126308438Y-83975714D02*
X126260819Y-84070952D01*
X126260819Y-84070952D02*
X126260819Y-84309047D01*
X126260819Y-84309047D02*
X126308438Y-84404285D01*
X126308438Y-84404285D02*
X126356057Y-84451904D01*
X126356057Y-84451904D02*
X126451295Y-84499523D01*
X126451295Y-84499523D02*
X126546533Y-84499523D01*
X126546533Y-84499523D02*
X126689390Y-84451904D01*
X126689390Y-84451904D02*
X127260819Y-83880476D01*
X127260819Y-83880476D02*
X127260819Y-84499523D01*
X147316666Y-81909580D02*
X147364285Y-81957200D01*
X147364285Y-81957200D02*
X147507142Y-82004819D01*
X147507142Y-82004819D02*
X147602380Y-82004819D01*
X147602380Y-82004819D02*
X147745237Y-81957200D01*
X147745237Y-81957200D02*
X147840475Y-81861961D01*
X147840475Y-81861961D02*
X147888094Y-81766723D01*
X147888094Y-81766723D02*
X147935713Y-81576247D01*
X147935713Y-81576247D02*
X147935713Y-81433390D01*
X147935713Y-81433390D02*
X147888094Y-81242914D01*
X147888094Y-81242914D02*
X147840475Y-81147676D01*
X147840475Y-81147676D02*
X147745237Y-81052438D01*
X147745237Y-81052438D02*
X147602380Y-81004819D01*
X147602380Y-81004819D02*
X147507142Y-81004819D01*
X147507142Y-81004819D02*
X147364285Y-81052438D01*
X147364285Y-81052438D02*
X147316666Y-81100057D01*
X146745237Y-81433390D02*
X146840475Y-81385771D01*
X146840475Y-81385771D02*
X146888094Y-81338152D01*
X146888094Y-81338152D02*
X146935713Y-81242914D01*
X146935713Y-81242914D02*
X146935713Y-81195295D01*
X146935713Y-81195295D02*
X146888094Y-81100057D01*
X146888094Y-81100057D02*
X146840475Y-81052438D01*
X146840475Y-81052438D02*
X146745237Y-81004819D01*
X146745237Y-81004819D02*
X146554761Y-81004819D01*
X146554761Y-81004819D02*
X146459523Y-81052438D01*
X146459523Y-81052438D02*
X146411904Y-81100057D01*
X146411904Y-81100057D02*
X146364285Y-81195295D01*
X146364285Y-81195295D02*
X146364285Y-81242914D01*
X146364285Y-81242914D02*
X146411904Y-81338152D01*
X146411904Y-81338152D02*
X146459523Y-81385771D01*
X146459523Y-81385771D02*
X146554761Y-81433390D01*
X146554761Y-81433390D02*
X146745237Y-81433390D01*
X146745237Y-81433390D02*
X146840475Y-81481009D01*
X146840475Y-81481009D02*
X146888094Y-81528628D01*
X146888094Y-81528628D02*
X146935713Y-81623866D01*
X146935713Y-81623866D02*
X146935713Y-81814342D01*
X146935713Y-81814342D02*
X146888094Y-81909580D01*
X146888094Y-81909580D02*
X146840475Y-81957200D01*
X146840475Y-81957200D02*
X146745237Y-82004819D01*
X146745237Y-82004819D02*
X146554761Y-82004819D01*
X146554761Y-82004819D02*
X146459523Y-81957200D01*
X146459523Y-81957200D02*
X146411904Y-81909580D01*
X146411904Y-81909580D02*
X146364285Y-81814342D01*
X146364285Y-81814342D02*
X146364285Y-81623866D01*
X146364285Y-81623866D02*
X146411904Y-81528628D01*
X146411904Y-81528628D02*
X146459523Y-81481009D01*
X146459523Y-81481009D02*
X146554761Y-81433390D01*
X198802857Y-95950819D02*
X199136190Y-95474628D01*
X199374285Y-95950819D02*
X199374285Y-94950819D01*
X199374285Y-94950819D02*
X198993333Y-94950819D01*
X198993333Y-94950819D02*
X198898095Y-94998438D01*
X198898095Y-94998438D02*
X198850476Y-95046057D01*
X198850476Y-95046057D02*
X198802857Y-95141295D01*
X198802857Y-95141295D02*
X198802857Y-95284152D01*
X198802857Y-95284152D02*
X198850476Y-95379390D01*
X198850476Y-95379390D02*
X198898095Y-95427009D01*
X198898095Y-95427009D02*
X198993333Y-95474628D01*
X198993333Y-95474628D02*
X199374285Y-95474628D01*
X198421904Y-95046057D02*
X198374285Y-94998438D01*
X198374285Y-94998438D02*
X198279047Y-94950819D01*
X198279047Y-94950819D02*
X198040952Y-94950819D01*
X198040952Y-94950819D02*
X197945714Y-94998438D01*
X197945714Y-94998438D02*
X197898095Y-95046057D01*
X197898095Y-95046057D02*
X197850476Y-95141295D01*
X197850476Y-95141295D02*
X197850476Y-95236533D01*
X197850476Y-95236533D02*
X197898095Y-95379390D01*
X197898095Y-95379390D02*
X198469523Y-95950819D01*
X198469523Y-95950819D02*
X197850476Y-95950819D01*
X197374285Y-95950819D02*
X197183809Y-95950819D01*
X197183809Y-95950819D02*
X197088571Y-95903200D01*
X197088571Y-95903200D02*
X197040952Y-95855580D01*
X197040952Y-95855580D02*
X196945714Y-95712723D01*
X196945714Y-95712723D02*
X196898095Y-95522247D01*
X196898095Y-95522247D02*
X196898095Y-95141295D01*
X196898095Y-95141295D02*
X196945714Y-95046057D01*
X196945714Y-95046057D02*
X196993333Y-94998438D01*
X196993333Y-94998438D02*
X197088571Y-94950819D01*
X197088571Y-94950819D02*
X197279047Y-94950819D01*
X197279047Y-94950819D02*
X197374285Y-94998438D01*
X197374285Y-94998438D02*
X197421904Y-95046057D01*
X197421904Y-95046057D02*
X197469523Y-95141295D01*
X197469523Y-95141295D02*
X197469523Y-95379390D01*
X197469523Y-95379390D02*
X197421904Y-95474628D01*
X197421904Y-95474628D02*
X197374285Y-95522247D01*
X197374285Y-95522247D02*
X197279047Y-95569866D01*
X197279047Y-95569866D02*
X197088571Y-95569866D01*
X197088571Y-95569866D02*
X196993333Y-95522247D01*
X196993333Y-95522247D02*
X196945714Y-95474628D01*
X196945714Y-95474628D02*
X196898095Y-95379390D01*
X45406666Y-100939580D02*
X45454285Y-100987200D01*
X45454285Y-100987200D02*
X45597142Y-101034819D01*
X45597142Y-101034819D02*
X45692380Y-101034819D01*
X45692380Y-101034819D02*
X45835237Y-100987200D01*
X45835237Y-100987200D02*
X45930475Y-100891961D01*
X45930475Y-100891961D02*
X45978094Y-100796723D01*
X45978094Y-100796723D02*
X46025713Y-100606247D01*
X46025713Y-100606247D02*
X46025713Y-100463390D01*
X46025713Y-100463390D02*
X45978094Y-100272914D01*
X45978094Y-100272914D02*
X45930475Y-100177676D01*
X45930475Y-100177676D02*
X45835237Y-100082438D01*
X45835237Y-100082438D02*
X45692380Y-100034819D01*
X45692380Y-100034819D02*
X45597142Y-100034819D01*
X45597142Y-100034819D02*
X45454285Y-100082438D01*
X45454285Y-100082438D02*
X45406666Y-100130057D01*
X45025713Y-100130057D02*
X44978094Y-100082438D01*
X44978094Y-100082438D02*
X44882856Y-100034819D01*
X44882856Y-100034819D02*
X44644761Y-100034819D01*
X44644761Y-100034819D02*
X44549523Y-100082438D01*
X44549523Y-100082438D02*
X44501904Y-100130057D01*
X44501904Y-100130057D02*
X44454285Y-100225295D01*
X44454285Y-100225295D02*
X44454285Y-100320533D01*
X44454285Y-100320533D02*
X44501904Y-100463390D01*
X44501904Y-100463390D02*
X45073332Y-101034819D01*
X45073332Y-101034819D02*
X44454285Y-101034819D01*
X113433332Y-47627200D02*
X113290475Y-47674819D01*
X113290475Y-47674819D02*
X113052380Y-47674819D01*
X113052380Y-47674819D02*
X112957142Y-47627200D01*
X112957142Y-47627200D02*
X112909523Y-47579580D01*
X112909523Y-47579580D02*
X112861904Y-47484342D01*
X112861904Y-47484342D02*
X112861904Y-47389104D01*
X112861904Y-47389104D02*
X112909523Y-47293866D01*
X112909523Y-47293866D02*
X112957142Y-47246247D01*
X112957142Y-47246247D02*
X113052380Y-47198628D01*
X113052380Y-47198628D02*
X113242856Y-47151009D01*
X113242856Y-47151009D02*
X113338094Y-47103390D01*
X113338094Y-47103390D02*
X113385713Y-47055771D01*
X113385713Y-47055771D02*
X113433332Y-46960533D01*
X113433332Y-46960533D02*
X113433332Y-46865295D01*
X113433332Y-46865295D02*
X113385713Y-46770057D01*
X113385713Y-46770057D02*
X113338094Y-46722438D01*
X113338094Y-46722438D02*
X113242856Y-46674819D01*
X113242856Y-46674819D02*
X113004761Y-46674819D01*
X113004761Y-46674819D02*
X112861904Y-46722438D01*
X112528570Y-46674819D02*
X112290475Y-47674819D01*
X112290475Y-47674819D02*
X112099999Y-46960533D01*
X112099999Y-46960533D02*
X111909523Y-47674819D01*
X111909523Y-47674819D02*
X111671428Y-46674819D01*
X111338094Y-46770057D02*
X111290475Y-46722438D01*
X111290475Y-46722438D02*
X111195237Y-46674819D01*
X111195237Y-46674819D02*
X110957142Y-46674819D01*
X110957142Y-46674819D02*
X110861904Y-46722438D01*
X110861904Y-46722438D02*
X110814285Y-46770057D01*
X110814285Y-46770057D02*
X110766666Y-46865295D01*
X110766666Y-46865295D02*
X110766666Y-46960533D01*
X110766666Y-46960533D02*
X110814285Y-47103390D01*
X110814285Y-47103390D02*
X111385713Y-47674819D01*
X111385713Y-47674819D02*
X110766666Y-47674819D01*
X198326666Y-59500819D02*
X198659999Y-59024628D01*
X198898094Y-59500819D02*
X198898094Y-58500819D01*
X198898094Y-58500819D02*
X198517142Y-58500819D01*
X198517142Y-58500819D02*
X198421904Y-58548438D01*
X198421904Y-58548438D02*
X198374285Y-58596057D01*
X198374285Y-58596057D02*
X198326666Y-58691295D01*
X198326666Y-58691295D02*
X198326666Y-58834152D01*
X198326666Y-58834152D02*
X198374285Y-58929390D01*
X198374285Y-58929390D02*
X198421904Y-58977009D01*
X198421904Y-58977009D02*
X198517142Y-59024628D01*
X198517142Y-59024628D02*
X198898094Y-59024628D01*
X197469523Y-58834152D02*
X197469523Y-59500819D01*
X197707618Y-58453200D02*
X197945713Y-59167485D01*
X197945713Y-59167485D02*
X197326666Y-59167485D01*
X140763332Y-47997200D02*
X140620475Y-48044819D01*
X140620475Y-48044819D02*
X140382380Y-48044819D01*
X140382380Y-48044819D02*
X140287142Y-47997200D01*
X140287142Y-47997200D02*
X140239523Y-47949580D01*
X140239523Y-47949580D02*
X140191904Y-47854342D01*
X140191904Y-47854342D02*
X140191904Y-47759104D01*
X140191904Y-47759104D02*
X140239523Y-47663866D01*
X140239523Y-47663866D02*
X140287142Y-47616247D01*
X140287142Y-47616247D02*
X140382380Y-47568628D01*
X140382380Y-47568628D02*
X140572856Y-47521009D01*
X140572856Y-47521009D02*
X140668094Y-47473390D01*
X140668094Y-47473390D02*
X140715713Y-47425771D01*
X140715713Y-47425771D02*
X140763332Y-47330533D01*
X140763332Y-47330533D02*
X140763332Y-47235295D01*
X140763332Y-47235295D02*
X140715713Y-47140057D01*
X140715713Y-47140057D02*
X140668094Y-47092438D01*
X140668094Y-47092438D02*
X140572856Y-47044819D01*
X140572856Y-47044819D02*
X140334761Y-47044819D01*
X140334761Y-47044819D02*
X140191904Y-47092438D01*
X139858570Y-47044819D02*
X139620475Y-48044819D01*
X139620475Y-48044819D02*
X139429999Y-47330533D01*
X139429999Y-47330533D02*
X139239523Y-48044819D01*
X139239523Y-48044819D02*
X139001428Y-47044819D01*
X138096666Y-48044819D02*
X138668094Y-48044819D01*
X138382380Y-48044819D02*
X138382380Y-47044819D01*
X138382380Y-47044819D02*
X138477618Y-47187676D01*
X138477618Y-47187676D02*
X138572856Y-47282914D01*
X138572856Y-47282914D02*
X138668094Y-47330533D01*
X198326666Y-63550819D02*
X198659999Y-63074628D01*
X198898094Y-63550819D02*
X198898094Y-62550819D01*
X198898094Y-62550819D02*
X198517142Y-62550819D01*
X198517142Y-62550819D02*
X198421904Y-62598438D01*
X198421904Y-62598438D02*
X198374285Y-62646057D01*
X198374285Y-62646057D02*
X198326666Y-62741295D01*
X198326666Y-62741295D02*
X198326666Y-62884152D01*
X198326666Y-62884152D02*
X198374285Y-62979390D01*
X198374285Y-62979390D02*
X198421904Y-63027009D01*
X198421904Y-63027009D02*
X198517142Y-63074628D01*
X198517142Y-63074628D02*
X198898094Y-63074628D01*
X197421904Y-62550819D02*
X197898094Y-62550819D01*
X197898094Y-62550819D02*
X197945713Y-63027009D01*
X197945713Y-63027009D02*
X197898094Y-62979390D01*
X197898094Y-62979390D02*
X197802856Y-62931771D01*
X197802856Y-62931771D02*
X197564761Y-62931771D01*
X197564761Y-62931771D02*
X197469523Y-62979390D01*
X197469523Y-62979390D02*
X197421904Y-63027009D01*
X197421904Y-63027009D02*
X197374285Y-63122247D01*
X197374285Y-63122247D02*
X197374285Y-63360342D01*
X197374285Y-63360342D02*
X197421904Y-63455580D01*
X197421904Y-63455580D02*
X197469523Y-63503200D01*
X197469523Y-63503200D02*
X197564761Y-63550819D01*
X197564761Y-63550819D02*
X197802856Y-63550819D01*
X197802856Y-63550819D02*
X197898094Y-63503200D01*
X197898094Y-63503200D02*
X197945713Y-63455580D01*
X120110094Y-98260819D02*
X120110094Y-99070342D01*
X120110094Y-99070342D02*
X120062475Y-99165580D01*
X120062475Y-99165580D02*
X120014856Y-99213200D01*
X120014856Y-99213200D02*
X119919618Y-99260819D01*
X119919618Y-99260819D02*
X119729142Y-99260819D01*
X119729142Y-99260819D02*
X119633904Y-99213200D01*
X119633904Y-99213200D02*
X119586285Y-99165580D01*
X119586285Y-99165580D02*
X119538666Y-99070342D01*
X119538666Y-99070342D02*
X119538666Y-98260819D01*
X118538666Y-99260819D02*
X119110094Y-99260819D01*
X118824380Y-99260819D02*
X118824380Y-98260819D01*
X118824380Y-98260819D02*
X118919618Y-98403676D01*
X118919618Y-98403676D02*
X119014856Y-98498914D01*
X119014856Y-98498914D02*
X119110094Y-98546533D01*
X118062475Y-99260819D02*
X117871999Y-99260819D01*
X117871999Y-99260819D02*
X117776761Y-99213200D01*
X117776761Y-99213200D02*
X117729142Y-99165580D01*
X117729142Y-99165580D02*
X117633904Y-99022723D01*
X117633904Y-99022723D02*
X117586285Y-98832247D01*
X117586285Y-98832247D02*
X117586285Y-98451295D01*
X117586285Y-98451295D02*
X117633904Y-98356057D01*
X117633904Y-98356057D02*
X117681523Y-98308438D01*
X117681523Y-98308438D02*
X117776761Y-98260819D01*
X117776761Y-98260819D02*
X117967237Y-98260819D01*
X117967237Y-98260819D02*
X118062475Y-98308438D01*
X118062475Y-98308438D02*
X118110094Y-98356057D01*
X118110094Y-98356057D02*
X118157713Y-98451295D01*
X118157713Y-98451295D02*
X118157713Y-98689390D01*
X118157713Y-98689390D02*
X118110094Y-98784628D01*
X118110094Y-98784628D02*
X118062475Y-98832247D01*
X118062475Y-98832247D02*
X117967237Y-98879866D01*
X117967237Y-98879866D02*
X117776761Y-98879866D01*
X117776761Y-98879866D02*
X117681523Y-98832247D01*
X117681523Y-98832247D02*
X117633904Y-98784628D01*
X117633904Y-98784628D02*
X117586285Y-98689390D01*
X128944666Y-110595580D02*
X128992285Y-110643200D01*
X128992285Y-110643200D02*
X129135142Y-110690819D01*
X129135142Y-110690819D02*
X129230380Y-110690819D01*
X129230380Y-110690819D02*
X129373237Y-110643200D01*
X129373237Y-110643200D02*
X129468475Y-110547961D01*
X129468475Y-110547961D02*
X129516094Y-110452723D01*
X129516094Y-110452723D02*
X129563713Y-110262247D01*
X129563713Y-110262247D02*
X129563713Y-110119390D01*
X129563713Y-110119390D02*
X129516094Y-109928914D01*
X129516094Y-109928914D02*
X129468475Y-109833676D01*
X129468475Y-109833676D02*
X129373237Y-109738438D01*
X129373237Y-109738438D02*
X129230380Y-109690819D01*
X129230380Y-109690819D02*
X129135142Y-109690819D01*
X129135142Y-109690819D02*
X128992285Y-109738438D01*
X128992285Y-109738438D02*
X128944666Y-109786057D01*
X128039904Y-109690819D02*
X128516094Y-109690819D01*
X128516094Y-109690819D02*
X128563713Y-110167009D01*
X128563713Y-110167009D02*
X128516094Y-110119390D01*
X128516094Y-110119390D02*
X128420856Y-110071771D01*
X128420856Y-110071771D02*
X128182761Y-110071771D01*
X128182761Y-110071771D02*
X128087523Y-110119390D01*
X128087523Y-110119390D02*
X128039904Y-110167009D01*
X128039904Y-110167009D02*
X127992285Y-110262247D01*
X127992285Y-110262247D02*
X127992285Y-110500342D01*
X127992285Y-110500342D02*
X128039904Y-110595580D01*
X128039904Y-110595580D02*
X128087523Y-110643200D01*
X128087523Y-110643200D02*
X128182761Y-110690819D01*
X128182761Y-110690819D02*
X128420856Y-110690819D01*
X128420856Y-110690819D02*
X128516094Y-110643200D01*
X128516094Y-110643200D02*
X128563713Y-110595580D01*
X84374794Y-116214819D02*
X84374794Y-117024342D01*
X84374794Y-117024342D02*
X84327175Y-117119580D01*
X84327175Y-117119580D02*
X84279556Y-117167200D01*
X84279556Y-117167200D02*
X84184318Y-117214819D01*
X84184318Y-117214819D02*
X83993842Y-117214819D01*
X83993842Y-117214819D02*
X83898604Y-117167200D01*
X83898604Y-117167200D02*
X83850985Y-117119580D01*
X83850985Y-117119580D02*
X83803366Y-117024342D01*
X83803366Y-117024342D02*
X83803366Y-116214819D01*
X83422413Y-116214819D02*
X82803366Y-116214819D01*
X82803366Y-116214819D02*
X83136699Y-116595771D01*
X83136699Y-116595771D02*
X82993842Y-116595771D01*
X82993842Y-116595771D02*
X82898604Y-116643390D01*
X82898604Y-116643390D02*
X82850985Y-116691009D01*
X82850985Y-116691009D02*
X82803366Y-116786247D01*
X82803366Y-116786247D02*
X82803366Y-117024342D01*
X82803366Y-117024342D02*
X82850985Y-117119580D01*
X82850985Y-117119580D02*
X82898604Y-117167200D01*
X82898604Y-117167200D02*
X82993842Y-117214819D01*
X82993842Y-117214819D02*
X83279556Y-117214819D01*
X83279556Y-117214819D02*
X83374794Y-117167200D01*
X83374794Y-117167200D02*
X83422413Y-117119580D01*
X82470032Y-116214819D02*
X81850985Y-116214819D01*
X81850985Y-116214819D02*
X82184318Y-116595771D01*
X82184318Y-116595771D02*
X82041461Y-116595771D01*
X82041461Y-116595771D02*
X81946223Y-116643390D01*
X81946223Y-116643390D02*
X81898604Y-116691009D01*
X81898604Y-116691009D02*
X81850985Y-116786247D01*
X81850985Y-116786247D02*
X81850985Y-117024342D01*
X81850985Y-117024342D02*
X81898604Y-117119580D01*
X81898604Y-117119580D02*
X81946223Y-117167200D01*
X81946223Y-117167200D02*
X82041461Y-117214819D01*
X82041461Y-117214819D02*
X82327175Y-117214819D01*
X82327175Y-117214819D02*
X82422413Y-117167200D01*
X82422413Y-117167200D02*
X82470032Y-117119580D01*
X165606666Y-117139580D02*
X165654285Y-117187200D01*
X165654285Y-117187200D02*
X165797142Y-117234819D01*
X165797142Y-117234819D02*
X165892380Y-117234819D01*
X165892380Y-117234819D02*
X166035237Y-117187200D01*
X166035237Y-117187200D02*
X166130475Y-117091961D01*
X166130475Y-117091961D02*
X166178094Y-116996723D01*
X166178094Y-116996723D02*
X166225713Y-116806247D01*
X166225713Y-116806247D02*
X166225713Y-116663390D01*
X166225713Y-116663390D02*
X166178094Y-116472914D01*
X166178094Y-116472914D02*
X166130475Y-116377676D01*
X166130475Y-116377676D02*
X166035237Y-116282438D01*
X166035237Y-116282438D02*
X165892380Y-116234819D01*
X165892380Y-116234819D02*
X165797142Y-116234819D01*
X165797142Y-116234819D02*
X165654285Y-116282438D01*
X165654285Y-116282438D02*
X165606666Y-116330057D01*
X165130475Y-117234819D02*
X164939999Y-117234819D01*
X164939999Y-117234819D02*
X164844761Y-117187200D01*
X164844761Y-117187200D02*
X164797142Y-117139580D01*
X164797142Y-117139580D02*
X164701904Y-116996723D01*
X164701904Y-116996723D02*
X164654285Y-116806247D01*
X164654285Y-116806247D02*
X164654285Y-116425295D01*
X164654285Y-116425295D02*
X164701904Y-116330057D01*
X164701904Y-116330057D02*
X164749523Y-116282438D01*
X164749523Y-116282438D02*
X164844761Y-116234819D01*
X164844761Y-116234819D02*
X165035237Y-116234819D01*
X165035237Y-116234819D02*
X165130475Y-116282438D01*
X165130475Y-116282438D02*
X165178094Y-116330057D01*
X165178094Y-116330057D02*
X165225713Y-116425295D01*
X165225713Y-116425295D02*
X165225713Y-116663390D01*
X165225713Y-116663390D02*
X165178094Y-116758628D01*
X165178094Y-116758628D02*
X165130475Y-116806247D01*
X165130475Y-116806247D02*
X165035237Y-116853866D01*
X165035237Y-116853866D02*
X164844761Y-116853866D01*
X164844761Y-116853866D02*
X164749523Y-116806247D01*
X164749523Y-116806247D02*
X164701904Y-116758628D01*
X164701904Y-116758628D02*
X164654285Y-116663390D01*
X147786419Y-52088857D02*
X147738800Y-52136476D01*
X147738800Y-52136476D02*
X147691180Y-52279333D01*
X147691180Y-52279333D02*
X147691180Y-52374571D01*
X147691180Y-52374571D02*
X147738800Y-52517428D01*
X147738800Y-52517428D02*
X147834038Y-52612666D01*
X147834038Y-52612666D02*
X147929276Y-52660285D01*
X147929276Y-52660285D02*
X148119752Y-52707904D01*
X148119752Y-52707904D02*
X148262609Y-52707904D01*
X148262609Y-52707904D02*
X148453085Y-52660285D01*
X148453085Y-52660285D02*
X148548323Y-52612666D01*
X148548323Y-52612666D02*
X148643561Y-52517428D01*
X148643561Y-52517428D02*
X148691180Y-52374571D01*
X148691180Y-52374571D02*
X148691180Y-52279333D01*
X148691180Y-52279333D02*
X148643561Y-52136476D01*
X148643561Y-52136476D02*
X148595942Y-52088857D01*
X148357847Y-51231714D02*
X147691180Y-51231714D01*
X148738800Y-51469809D02*
X148024514Y-51707904D01*
X148024514Y-51707904D02*
X148024514Y-51088857D01*
X148691180Y-50279333D02*
X148691180Y-50469809D01*
X148691180Y-50469809D02*
X148643561Y-50565047D01*
X148643561Y-50565047D02*
X148595942Y-50612666D01*
X148595942Y-50612666D02*
X148453085Y-50707904D01*
X148453085Y-50707904D02*
X148262609Y-50755523D01*
X148262609Y-50755523D02*
X147881657Y-50755523D01*
X147881657Y-50755523D02*
X147786419Y-50707904D01*
X147786419Y-50707904D02*
X147738800Y-50660285D01*
X147738800Y-50660285D02*
X147691180Y-50565047D01*
X147691180Y-50565047D02*
X147691180Y-50374571D01*
X147691180Y-50374571D02*
X147738800Y-50279333D01*
X147738800Y-50279333D02*
X147786419Y-50231714D01*
X147786419Y-50231714D02*
X147881657Y-50184095D01*
X147881657Y-50184095D02*
X148119752Y-50184095D01*
X148119752Y-50184095D02*
X148214990Y-50231714D01*
X148214990Y-50231714D02*
X148262609Y-50279333D01*
X148262609Y-50279333D02*
X148310228Y-50374571D01*
X148310228Y-50374571D02*
X148310228Y-50565047D01*
X148310228Y-50565047D02*
X148262609Y-50660285D01*
X148262609Y-50660285D02*
X148214990Y-50707904D01*
X148214990Y-50707904D02*
X148119752Y-50755523D01*
X175412082Y-39178580D02*
X175459701Y-39226200D01*
X175459701Y-39226200D02*
X175602558Y-39273819D01*
X175602558Y-39273819D02*
X175697796Y-39273819D01*
X175697796Y-39273819D02*
X175840653Y-39226200D01*
X175840653Y-39226200D02*
X175935891Y-39130961D01*
X175935891Y-39130961D02*
X175983510Y-39035723D01*
X175983510Y-39035723D02*
X176031129Y-38845247D01*
X176031129Y-38845247D02*
X176031129Y-38702390D01*
X176031129Y-38702390D02*
X175983510Y-38511914D01*
X175983510Y-38511914D02*
X175935891Y-38416676D01*
X175935891Y-38416676D02*
X175840653Y-38321438D01*
X175840653Y-38321438D02*
X175697796Y-38273819D01*
X175697796Y-38273819D02*
X175602558Y-38273819D01*
X175602558Y-38273819D02*
X175459701Y-38321438D01*
X175459701Y-38321438D02*
X175412082Y-38369057D01*
X175078748Y-38273819D02*
X174459701Y-38273819D01*
X174459701Y-38273819D02*
X174793034Y-38654771D01*
X174793034Y-38654771D02*
X174650177Y-38654771D01*
X174650177Y-38654771D02*
X174554939Y-38702390D01*
X174554939Y-38702390D02*
X174507320Y-38750009D01*
X174507320Y-38750009D02*
X174459701Y-38845247D01*
X174459701Y-38845247D02*
X174459701Y-39083342D01*
X174459701Y-39083342D02*
X174507320Y-39178580D01*
X174507320Y-39178580D02*
X174554939Y-39226200D01*
X174554939Y-39226200D02*
X174650177Y-39273819D01*
X174650177Y-39273819D02*
X174935891Y-39273819D01*
X174935891Y-39273819D02*
X175031129Y-39226200D01*
X175031129Y-39226200D02*
X175078748Y-39178580D01*
X173888272Y-38702390D02*
X173983510Y-38654771D01*
X173983510Y-38654771D02*
X174031129Y-38607152D01*
X174031129Y-38607152D02*
X174078748Y-38511914D01*
X174078748Y-38511914D02*
X174078748Y-38464295D01*
X174078748Y-38464295D02*
X174031129Y-38369057D01*
X174031129Y-38369057D02*
X173983510Y-38321438D01*
X173983510Y-38321438D02*
X173888272Y-38273819D01*
X173888272Y-38273819D02*
X173697796Y-38273819D01*
X173697796Y-38273819D02*
X173602558Y-38321438D01*
X173602558Y-38321438D02*
X173554939Y-38369057D01*
X173554939Y-38369057D02*
X173507320Y-38464295D01*
X173507320Y-38464295D02*
X173507320Y-38511914D01*
X173507320Y-38511914D02*
X173554939Y-38607152D01*
X173554939Y-38607152D02*
X173602558Y-38654771D01*
X173602558Y-38654771D02*
X173697796Y-38702390D01*
X173697796Y-38702390D02*
X173888272Y-38702390D01*
X173888272Y-38702390D02*
X173983510Y-38750009D01*
X173983510Y-38750009D02*
X174031129Y-38797628D01*
X174031129Y-38797628D02*
X174078748Y-38892866D01*
X174078748Y-38892866D02*
X174078748Y-39083342D01*
X174078748Y-39083342D02*
X174031129Y-39178580D01*
X174031129Y-39178580D02*
X173983510Y-39226200D01*
X173983510Y-39226200D02*
X173888272Y-39273819D01*
X173888272Y-39273819D02*
X173697796Y-39273819D01*
X173697796Y-39273819D02*
X173602558Y-39226200D01*
X173602558Y-39226200D02*
X173554939Y-39178580D01*
X173554939Y-39178580D02*
X173507320Y-39083342D01*
X173507320Y-39083342D02*
X173507320Y-38892866D01*
X173507320Y-38892866D02*
X173554939Y-38797628D01*
X173554939Y-38797628D02*
X173602558Y-38750009D01*
X173602558Y-38750009D02*
X173697796Y-38702390D01*
X59692857Y-101409580D02*
X59740476Y-101457200D01*
X59740476Y-101457200D02*
X59883333Y-101504819D01*
X59883333Y-101504819D02*
X59978571Y-101504819D01*
X59978571Y-101504819D02*
X60121428Y-101457200D01*
X60121428Y-101457200D02*
X60216666Y-101361961D01*
X60216666Y-101361961D02*
X60264285Y-101266723D01*
X60264285Y-101266723D02*
X60311904Y-101076247D01*
X60311904Y-101076247D02*
X60311904Y-100933390D01*
X60311904Y-100933390D02*
X60264285Y-100742914D01*
X60264285Y-100742914D02*
X60216666Y-100647676D01*
X60216666Y-100647676D02*
X60121428Y-100552438D01*
X60121428Y-100552438D02*
X59978571Y-100504819D01*
X59978571Y-100504819D02*
X59883333Y-100504819D01*
X59883333Y-100504819D02*
X59740476Y-100552438D01*
X59740476Y-100552438D02*
X59692857Y-100600057D01*
X58740476Y-101504819D02*
X59311904Y-101504819D01*
X59026190Y-101504819D02*
X59026190Y-100504819D01*
X59026190Y-100504819D02*
X59121428Y-100647676D01*
X59121428Y-100647676D02*
X59216666Y-100742914D01*
X59216666Y-100742914D02*
X59311904Y-100790533D01*
X57788095Y-101504819D02*
X58359523Y-101504819D01*
X58073809Y-101504819D02*
X58073809Y-100504819D01*
X58073809Y-100504819D02*
X58169047Y-100647676D01*
X58169047Y-100647676D02*
X58264285Y-100742914D01*
X58264285Y-100742914D02*
X58359523Y-100790533D01*
M02*
