%TF.GenerationSoftware,KiCad,Pcbnew,9.0.2*%
%TF.CreationDate,2026-01-18T17:28:16-06:00*%
%TF.ProjectId,video,76696465-6f2e-46b6-9963-61645f706362,V0.9*%
%TF.SameCoordinates,Original*%
%TF.FileFunction,Profile,NP*%
%FSLAX46Y46*%
G04 Gerber Fmt 4.6, Leading zero omitted, Abs format (unit mm)*
G04 Created by KiCad (PCBNEW 9.0.2) date 2026-01-18 17:28:16*
%MOMM*%
%LPD*%
G01*
G04 APERTURE LIST*
%TA.AperFunction,Profile*%
%ADD10C,0.381000*%
%TD*%
%TA.AperFunction,Profile*%
%ADD11C,0.010000*%
%TD*%
G04 APERTURE END LIST*
D10*
X81812821Y-38310730D02*
G75*
G02*
X79298169Y-40850729I-2532618J-7434D01*
G01*
X41200000Y-40930000D02*
X79303120Y-40850729D01*
X81812821Y-38310730D02*
X81823724Y-37225707D01*
X81823408Y-37225707D02*
G75*
G02*
X84312980Y-34693051I2532973J55D01*
G01*
X84312980Y-34693104D02*
X213073266Y-34612866D01*
X215638666Y-37203666D02*
X215638666Y-136263666D01*
X192778666Y-145864866D02*
G75*
G02*
X192143666Y-146499866I-634966J-34D01*
G01*
X111371666Y-138727466D02*
X111388830Y-145873073D01*
X38939095Y-43235707D02*
G75*
G02*
X41206846Y-40928705I2307285J56D01*
G01*
X106545666Y-138727466D02*
X111371666Y-138727466D01*
X112023830Y-146508073D02*
G75*
G02*
X111388827Y-145873073I70J635073D01*
G01*
X41554400Y-138760200D02*
X106545666Y-138727466D01*
X215638718Y-136263666D02*
G75*
G02*
X213124066Y-138803665I-2532618J-7434D01*
G01*
X41554400Y-138760200D02*
G75*
G02*
X39014400Y-136220200I0J2540000D01*
G01*
X112023830Y-146508073D02*
X192143666Y-146499866D01*
X192804066Y-138790966D02*
X213124066Y-138803666D01*
X213073260Y-34612377D02*
G75*
G02*
X215638666Y-37203666I32840J-2533023D01*
G01*
X39014400Y-136220200D02*
X38939097Y-43238177D01*
X192804066Y-138790966D02*
X192778666Y-145864866D01*
D11*
%TO.C,J24*%
X213450000Y-42330000D02*
X213450000Y-44130000D01*
X213450000Y-44130000D02*
X215150000Y-44130000D01*
X213450000Y-50830000D02*
X213450000Y-52630000D01*
X213450000Y-52630000D02*
X215150000Y-52630000D01*
X215150000Y-42330000D02*
X213450000Y-42330000D01*
X215150000Y-44130000D02*
X215150000Y-42330000D01*
X215150000Y-50830000D02*
X213450000Y-50830000D01*
X215150000Y-52630000D02*
X215150000Y-50830000D01*
%TD*%
M02*
