M48
; DRILL file {KiCad 9.0.2} date 2026-01-31T17:48:01-0600
; FORMAT={-:-/ absolute / inch / decimal}
; #@! TF.CreationDate,2026-01-31T17:48:01-06:00
; #@! TF.GenerationSoftware,Kicad,Pcbnew,9.0.2
; #@! TF.FileFunction,Plated,1,2,PTH
FMAT,2
INCH
; #@! TA.AperFunction,Plated,PTH,ViaDrill
T1C0.0157
; #@! TA.AperFunction,Plated,PTH,ComponentDrill
T2C0.0295
; #@! TA.AperFunction,Plated,PTH,ComponentDrill
T3C0.0315
; #@! TA.AperFunction,Plated,PTH,ComponentDrill
T4C0.0394
; #@! TA.AperFunction,Plated,PTH,ComponentDrill
T5C0.0402
; #@! TA.AperFunction,Plated,PTH,ComponentDrill
T6C0.0512
; #@! TA.AperFunction,Plated,PTH,ComponentDrill
T7C0.1260
%
G90
G05
T1
X2.234Y-4.322
X2.2606Y-3.6021
X2.5609Y-4.4058
X2.6598Y-3.9466
X2.6863Y-3.9746
X2.7188Y-4.0041
X2.745Y-3.1746
X2.7597Y-1.8326
X2.8606Y-4.5911
X2.8834Y-4.8236
X2.9445Y-4.3884
X3.0003Y-4.1969
X3.0016Y-4.2963
X3.0945Y-1.6533
X3.1649Y-1.8326
X3.1711Y-5.002
X3.2539Y-2.2433
X3.272Y-3.6362
X3.3139Y-1.4979
X3.3194Y-2.5448
X3.4868Y-4.5026
X3.5128Y-2.4181
X3.5545Y-4.0121
X3.5974Y-2.571
X3.6856Y-2.6749
X3.6867Y-3.0256
X3.6974Y-2.7853
X3.7915Y-2.766
X3.7972Y-4.1969
X3.798Y-5.1899
X3.844Y-3.2789
X3.8702Y-4.0101
X3.8764Y-5.2283
X3.8895Y-5.0208
X3.9158Y-4.6941
X3.9197Y-5.1397
X3.9313Y-2.8967
X3.9342Y-4.1885
X3.9368Y-4.8902
X3.9384Y-5.0637
X3.9543Y-3.5018
X3.9582Y-2.6203
X3.9643Y-3.1937
X3.9645Y-3.9757
X3.9734Y-4.0741
X4.1491Y-4.2963
X4.1629Y-4.6151
X4.1744Y-4.3407
X4.2234Y-4.4389
X4.2265Y-5.0391
X4.2541Y-4.4764
X4.295Y-4.3053
X4.3075Y-3.4937
X4.3406Y-3.4188
X4.3776Y-3.2301
X4.403Y-4.5769
X4.4031Y-3.2531
X4.4176Y-5.2457
X4.4856Y-4.5391
X4.5538Y-5.2412
X4.5822Y-3.7957
X4.6652Y-4.9828
X4.6736Y-3.2372
X4.7108Y-2.6613
X4.7266Y-3.3277
X4.7624Y-3.3906
X4.7679Y-2.7241
X4.7692Y-2.9202
X4.7964Y-3.2444
X4.8497Y-2.0094
X4.8579Y-4.4642
X4.8741Y-3.0095
X4.8851Y-2.4304
X4.9078Y-2.6362
X4.9187Y-3.3818
X4.94Y-2.8544
X4.9401Y-5.4426
X4.9537Y-3.9947
X4.9573Y-2.4519
X4.9604Y-3.5586
X4.9957Y-3.0719
X4.9958Y-3.5084
X5.0031Y-2.8128
X5.007Y-3.6053
X5.0095Y-3.5603
X5.0115Y-4.8302
X5.0265Y-5.4373
X5.0275Y-5.3387
X5.0756Y-5.3663
X5.1141Y-5.4375
X5.1282Y-4.0583
X5.1411Y-5.4018
X5.1551Y-5.318
X5.1594Y-5.171
X5.1823Y-5.2454
X5.1871Y-5.287
X5.2065Y-2.9437
X5.2137Y-2.6983
X5.2219Y-3.3253
X5.2234Y-3.3616
X5.243Y-1.8472
X5.2437Y-2.5696
X5.2444Y-2.0501
X5.2554Y-3.5178
X5.2695Y-5.2208
X5.2736Y-2.999
X5.2757Y-5.1878
X5.2956Y-1.8236
X5.3233Y-5.4369
X5.3977Y-3.5006
X5.4522Y-3.4978
X5.5121Y-5.2247
X5.5275Y-5.2749
X5.5922Y-2.9795
X5.696Y-5.3003
X5.7419Y-4.3083
X5.8035Y-5.3174
X5.8054Y-2.8025
X5.8497Y-5.2688
X5.8738Y-3.0777
X5.9546Y-4.2026
X6.0535Y-3.9456
X6.082Y-2.6301
X6.084Y-4.4053
X6.2745Y-4.088
X6.3481Y-5.2497
X6.3835Y-5.2966
X6.4287Y-5.2833
X6.4828Y-4.1866
X6.5209Y-3.8366
X6.5246Y-5.3159
X6.5293Y-5.3651
X6.5493Y-5.3405
X6.558Y-5.2289
X6.5776Y-3.1232
X6.5785Y-4.9828
X6.5794Y-5.1373
X6.5852Y-4.4896
X6.5879Y-4.5263
X6.6272Y-5.3822
X6.6295Y-5.1615
X6.6355Y-5.0647
X6.6556Y-4.829
X6.6768Y-4.8602
X6.703Y-1.7635
X6.7135Y-3.1734
X6.7216Y-1.9277
X6.7352Y-2.2714
X6.7547Y-4.9454
X6.7634Y-2.4087
X6.7738Y-4.6391
X6.7746Y-1.965
X6.7864Y-4.1353
X6.7873Y-4.996
X6.7973Y-2.3227
X6.8142Y-4.0081
X6.819Y-5.4378
X6.8313Y-4.06
X6.8589Y-4.8333
X6.8589Y-4.9454
X6.8866Y-4.7703
X6.8923Y-4.5451
X6.9264Y-4.8446
X6.935Y-3.754
X6.9608Y-4.765
X6.9793Y-2.1629
X6.9855Y-5.1863
X6.986Y-4.738
X6.9861Y-2.3155
X7.0052Y-2.0747
X7.015Y-3.7786
X7.0156Y-5.2058
X7.0202Y-5.4381
X7.0236Y-5.4059
X7.0346Y-3.5866
X7.0547Y-4.4629
X7.0579Y-4.5205
X7.0579Y-4.927
X7.0624Y-3.7288
X7.0625Y-4.8123
X7.0656Y-3.0777
X7.073Y-4.0354
X7.0832Y-5.3614
X7.1583Y-5.2273
X7.1729Y-3.9392
X7.1906Y-5.1504
X7.1997Y-4.0768
X7.2544Y-1.4979
X7.2544Y-1.5505
X7.2737Y-5.0016
X7.2985Y-4.3263
X7.3028Y-2.7591
X7.3237Y-4.5451
X7.3329Y-5.1849
X7.338Y-3.1228
X7.3686Y-5.3673
X7.4097Y-1.8003
X7.4144Y-3.535
X7.4801Y-5.3645
X7.4975Y-1.5659
X7.5195Y-5.2284
X7.5923Y-5.3324
X7.673Y-4.9775
X7.7278Y-4.9326
X7.7417Y-5.0101
X7.8105Y-3.4829
X7.8301Y-3.2435
T2
X3.3311Y-1.9972
X3.3811Y-1.9972
X3.4311Y-1.9972
T3
X1.6421Y-3.9386
X1.6465Y-5.252
X1.7449Y-5.252
X1.7476Y-2.987
X1.7476Y-3.087
X1.7476Y-3.187
X1.7476Y-3.287
X1.7476Y-3.387
X1.7476Y-3.487
X1.839Y-3.9386
X1.863Y-4.1689
X1.863Y-4.2689
X1.863Y-4.3689
X1.863Y-4.4689
X1.863Y-4.5689
X1.863Y-4.6689
X1.863Y-4.7689
X1.863Y-4.8689
X1.863Y-4.9689
X1.863Y-5.0689
X2.163Y-4.1689
X2.163Y-4.2689
X2.163Y-4.3689
X2.163Y-4.4689
X2.163Y-4.5689
X2.163Y-4.6689
X2.163Y-4.7689
X2.163Y-4.8689
X2.163Y-4.9689
X2.163Y-5.0689
X2.2201Y-3.9913
X2.4169Y-3.9913
X2.493Y-4.152
X2.493Y-4.252
X2.493Y-4.352
X2.493Y-4.452
X2.493Y-4.552
X2.493Y-4.652
X2.493Y-4.752
X2.493Y-4.852
X2.493Y-4.952
X2.493Y-5.052
X2.793Y-4.152
X2.793Y-4.252
X2.793Y-4.352
X2.793Y-4.452
X2.793Y-4.552
X2.793Y-4.652
X2.793Y-4.752
X2.793Y-4.852
X2.793Y-4.952
X2.793Y-5.052
X2.8518Y-3.9923
X3.0487Y-3.9923
X3.1231Y-4.1469
X3.1231Y-4.2469
X3.1231Y-4.3469
X3.1231Y-4.4469
X3.1231Y-4.5469
X3.1231Y-4.6469
X3.1231Y-4.7469
X3.1231Y-4.8469
X3.1231Y-4.9469
X3.1231Y-5.0469
X3.1618Y-2.6689
X3.1969Y-2.8909
X3.1969Y-2.9909
X3.1969Y-3.0909
X3.1969Y-3.1909
X3.1969Y-3.2909
X3.1969Y-3.3909
X3.1969Y-3.4909
X3.1969Y-3.5909
X3.1969Y-3.6909
X3.1969Y-3.7909
X3.2827Y-1.6783
X3.3587Y-2.6689
X3.4231Y-4.1469
X3.4231Y-4.2469
X3.4231Y-4.3469
X3.4231Y-4.4469
X3.4231Y-4.5469
X3.4231Y-4.6469
X3.4231Y-4.7469
X3.4231Y-4.8469
X3.4231Y-4.9469
X3.4231Y-5.0469
X3.4795Y-1.6783
X3.487Y-3.9803
X3.4969Y-2.8909
X3.4969Y-2.9909
X3.4969Y-3.0909
X3.4969Y-3.1909
X3.4969Y-3.2909
X3.4969Y-3.3909
X3.4969Y-3.4909
X3.4969Y-3.5909
X3.4969Y-3.6909
X3.4969Y-3.7909
X3.5248Y-2.7201
X3.6839Y-3.9803
X3.7059Y-1.6646
X3.7059Y-1.7646
X3.7059Y-1.8646
X3.7059Y-1.9646
X3.7059Y-2.0646
X3.7059Y-2.1646
X3.7059Y-2.2646
X3.7059Y-2.3646
X3.7059Y-2.4646
X3.7059Y-2.5646
X3.7217Y-2.7201
X3.7531Y-4.1441
X3.7531Y-4.2441
X3.7531Y-4.3441
X3.7531Y-4.4441
X3.7531Y-4.5441
X3.7531Y-4.6441
X3.7531Y-4.7441
X3.7531Y-4.8441
X3.7531Y-4.9441
X3.7531Y-5.0441
X3.7594Y-2.8937
X3.7594Y-2.9937
X3.7594Y-3.0937
X3.7594Y-3.1937
X3.7594Y-3.2937
X3.7594Y-3.3937
X3.7594Y-3.4937
X3.7594Y-3.5937
X3.7594Y-3.6937
X3.7594Y-3.7937
X4.0059Y-1.6646
X4.0059Y-1.7646
X4.0059Y-1.8646
X4.0059Y-1.9646
X4.0059Y-2.0646
X4.0059Y-2.1646
X4.0059Y-2.2646
X4.0059Y-2.3646
X4.0059Y-2.4646
X4.0059Y-2.5646
X4.0531Y-4.1441
X4.0531Y-4.2441
X4.0531Y-4.3441
X4.0531Y-4.4441
X4.0531Y-4.5441
X4.0531Y-4.6441
X4.0531Y-4.7441
X4.0531Y-4.8441
X4.0531Y-4.9441
X4.0531Y-5.0441
X4.0594Y-2.8937
X4.0594Y-2.9937
X4.0594Y-3.0937
X4.0594Y-3.1937
X4.0594Y-3.2937
X4.0594Y-3.3937
X4.0594Y-3.4937
X4.0594Y-3.5937
X4.0594Y-3.6937
X4.0594Y-3.7937
X4.2634Y-1.6591
X4.2634Y-1.7591
X4.2634Y-1.8591
X4.2634Y-1.9591
X4.2634Y-2.0591
X4.2642Y-2.2398
X4.2642Y-2.3398
X4.2642Y-2.4398
X4.2642Y-2.5398
X4.2642Y-2.6398
X4.2642Y-2.7398
X4.2642Y-2.8398
X4.2642Y-2.9398
X4.2642Y-3.0398
X4.4335Y-2.2748
X4.53Y-3.44
X4.53Y-3.54
X4.53Y-3.64
X4.53Y-3.74
X4.53Y-3.84
X4.53Y-3.94
X4.53Y-4.04
X4.53Y-4.14
X4.53Y-4.24
X4.53Y-4.34
X4.5634Y-1.6591
X4.5634Y-1.7591
X4.5634Y-1.8591
X4.5634Y-1.9591
X4.5634Y-2.0591
X4.6018Y-3.1387
X4.6303Y-2.2748
X4.7987Y-3.1387
X4.8098Y-1.6594
X4.8098Y-1.7594
X4.8098Y-1.8594
X4.8098Y-1.9594
X4.8098Y-2.0594
X4.8098Y-2.1594
X4.8098Y-2.2594
X4.8098Y-2.3594
X4.8098Y-2.4594
X4.8098Y-2.5594
X4.83Y-3.44
X4.83Y-3.54
X4.83Y-3.64
X4.83Y-3.74
X4.83Y-3.84
X4.83Y-3.94
X4.83Y-4.04
X4.83Y-4.14
X4.83Y-4.24
X4.83Y-4.34
X4.9818Y-4.3309
X5.0874Y-2.8433
X5.0874Y-2.9433
X5.0874Y-3.0433
X5.0874Y-3.1433
X5.0874Y-3.2433
X5.0874Y-3.3433
X5.0874Y-3.4433
X5.0874Y-3.5433
X5.0874Y-3.6433
X5.1098Y-1.6594
X5.1098Y-1.7594
X5.1098Y-1.8594
X5.1098Y-1.9594
X5.1098Y-2.0594
X5.1098Y-2.1594
X5.1098Y-2.2594
X5.1098Y-2.3594
X5.1098Y-2.4594
X5.1098Y-2.5594
X5.1787Y-4.3309
X5.3319Y-3.4583
X5.3319Y-3.5583
X5.3319Y-3.6583
X5.3319Y-3.7583
X5.3319Y-3.8583
X5.3319Y-3.9583
X5.3319Y-4.0583
X5.3319Y-4.1583
X5.3319Y-4.2583
X5.3319Y-4.3583
X5.3394Y-1.6736
X5.3394Y-1.7736
X5.3394Y-1.8736
X5.3394Y-1.9736
X5.3394Y-2.0736
X5.3865Y-3.0443
X5.3906Y-2.2539
X5.5833Y-3.0443
X5.5874Y-2.2539
X5.6319Y-3.4583
X5.6319Y-3.5583
X5.6319Y-3.6583
X5.6319Y-3.7583
X5.6319Y-3.8583
X5.6319Y-3.9583
X5.6319Y-4.0583
X5.6319Y-4.1583
X5.6319Y-4.2583
X5.6319Y-4.3583
X5.6394Y-1.6736
X5.6394Y-1.7736
X5.6394Y-1.8736
X5.6394Y-1.9736
X5.6394Y-2.0736
X5.7051Y-3.2016
X5.8154Y-4.3413
X5.8394Y-3.437
X5.8394Y-3.537
X5.8394Y-3.637
X5.8394Y-3.737
X5.8394Y-3.837
X5.8394Y-3.937
X5.8394Y-4.037
X5.8396Y-1.6337
X5.8396Y-1.8306
X5.8416Y-1.9372
X5.8416Y-2.1341
X5.902Y-3.2016
X6.011Y-1.672
X6.011Y-1.772
X6.011Y-1.872
X6.011Y-1.972
X6.011Y-2.072
X6.011Y-2.172
X6.011Y-2.272
X6.011Y-2.372
X6.011Y-2.472
X6.011Y-2.572
X6.011Y-2.672
X6.011Y-2.772
X6.011Y-2.872
X6.011Y-2.972
X6.0122Y-4.3413
X6.1394Y-3.437
X6.1394Y-3.537
X6.1394Y-3.637
X6.1394Y-3.737
X6.1394Y-3.837
X6.1394Y-3.937
X6.1394Y-4.037
X6.1845Y-3.2494
X6.363Y-3.4366
X6.363Y-3.5366
X6.363Y-3.6366
X6.363Y-3.7366
X6.363Y-3.8366
X6.363Y-3.9366
X6.363Y-4.0366
X6.363Y-4.1366
X6.363Y-4.2366
X6.363Y-4.3366
X6.3813Y-3.2494
X6.4252Y-4.5886
X6.611Y-1.672
X6.611Y-1.772
X6.611Y-1.872
X6.611Y-1.972
X6.611Y-2.072
X6.611Y-2.172
X6.611Y-2.272
X6.611Y-2.372
X6.611Y-2.472
X6.611Y-2.572
X6.611Y-2.672
X6.611Y-2.772
X6.611Y-2.872
X6.611Y-2.972
X6.622Y-4.5886
X6.663Y-3.4366
X6.663Y-3.5366
X6.663Y-3.6366
X6.663Y-3.7366
X6.663Y-3.8366
X6.663Y-3.9366
X6.663Y-4.0366
X6.663Y-4.1366
X6.663Y-4.2366
X6.663Y-4.3366
X6.7417Y-5.0882
X6.7535Y-3.2276
X6.8319Y-1.678
X6.8339Y-2.0409
X6.8389Y-2.4155
X6.8679Y-2.8362
X6.9303Y-1.678
X6.9323Y-2.0409
X6.9373Y-2.4155
X6.9386Y-5.0882
X6.9504Y-3.2276
X6.9663Y-2.8362
X7.1327Y-3.7902
X7.1327Y-3.8902
X7.1327Y-3.9902
X7.1327Y-4.0902
X7.1327Y-4.1902
X7.1327Y-4.2902
X7.1327Y-4.3902
X7.1327Y-4.4902
X7.1327Y-4.5902
X7.1327Y-4.6902
X7.1327Y-4.7902
X7.1327Y-4.8902
X7.1327Y-4.9902
X7.1327Y-5.0902
X7.1524Y-2.8732
X7.1524Y-2.9732
X7.1524Y-3.0732
X7.1524Y-3.1732
X7.1524Y-3.2732
X7.1524Y-3.3732
X7.1524Y-3.4732
X7.161Y-1.6598
X7.161Y-1.7598
X7.161Y-1.8598
X7.161Y-1.9598
X7.161Y-2.0598
X7.161Y-2.1598
X7.161Y-2.2598
X7.161Y-2.3598
X7.161Y-2.4598
X7.161Y-2.5598
X7.4327Y-3.7902
X7.4327Y-3.8902
X7.4327Y-3.9902
X7.4327Y-4.0902
X7.4327Y-4.1902
X7.4327Y-4.2902
X7.4327Y-4.3902
X7.4327Y-4.4902
X7.4327Y-4.5902
X7.4327Y-4.6902
X7.4327Y-4.7902
X7.4327Y-4.8902
X7.4327Y-4.9902
X7.4327Y-5.0902
X7.4524Y-2.8732
X7.4524Y-2.9732
X7.4524Y-3.0732
X7.4524Y-3.1732
X7.4524Y-3.2732
X7.4524Y-3.3732
X7.4524Y-3.4732
X7.461Y-1.6598
X7.461Y-1.7598
X7.461Y-1.8598
X7.461Y-1.9598
X7.461Y-2.0598
X7.461Y-2.1598
X7.461Y-2.2598
X7.461Y-2.3598
X7.461Y-2.4598
X7.461Y-2.5598
X7.6429Y-2.3256
X7.6429Y-2.485
X7.6429Y-2.6445
X7.6429Y-2.8039
X7.6429Y-2.9634
X7.6429Y-3.1228
X7.6429Y-3.2823
X7.6429Y-3.4417
X7.6429Y-3.6012
X7.6429Y-3.7606
X7.6429Y-3.9201
X7.6551Y-4.2094
X7.6551Y-4.3094
X7.6551Y-4.4094
X7.6551Y-4.5094
X7.6551Y-4.6094
X7.6551Y-4.7094
X7.6551Y-4.8094
X7.6791Y-5.0976
X7.876Y-5.0976
X7.9429Y-2.3256
X7.9429Y-2.485
X7.9429Y-2.6445
X7.9429Y-2.8039
X7.9429Y-2.9634
X7.9429Y-3.1228
X7.9429Y-3.2823
X7.9429Y-3.4417
X7.9429Y-3.6012
X7.9429Y-3.7606
X7.9429Y-3.9201
X7.9551Y-4.2094
X7.9551Y-4.3094
X7.9551Y-4.4094
X7.9551Y-4.5094
X7.9551Y-4.6094
X7.9551Y-4.7094
X7.9551Y-4.8094
X8.0767Y-5.2297
X8.1752Y-5.2297
T4
X5.4991Y-2.585
X5.4991Y-2.685
X5.4991Y-2.785
X8.1791Y-2.8959
X8.1791Y-2.986
X8.1791Y-3.0762
X8.1791Y-3.1663
X8.1791Y-3.2565
X8.2571Y-2.8508
X8.2571Y-2.9409
X8.2571Y-3.0311
X8.2571Y-3.1213
X8.2571Y-3.2114
X8.335Y-2.8959
X8.335Y-2.986
X8.335Y-3.0762
X8.335Y-3.1663
X8.335Y-3.2565
T5
X2.1803Y-1.6811
X2.1803Y-1.7811
X2.1803Y-1.8811
X2.1803Y-1.9811
X2.1803Y-2.0811
X2.1803Y-2.1811
X2.1803Y-2.2811
X2.1803Y-2.3811
X2.1803Y-2.4811
X2.1803Y-2.5811
X2.1803Y-2.6811
X2.1803Y-2.7811
X2.1803Y-2.8811
X2.1803Y-2.9811
X2.1803Y-3.0811
X2.1803Y-3.1811
X2.1803Y-3.2811
X2.1803Y-3.3811
X2.1803Y-3.4811
X2.1803Y-3.5811
X2.4303Y-3.572
X2.5303Y-3.572
X2.6303Y-3.572
X2.8803Y-1.6811
X2.8803Y-1.7811
X2.8803Y-1.8811
X2.8803Y-1.9811
X2.8803Y-2.0811
X2.8803Y-2.1811
X2.8803Y-2.2811
X2.8803Y-2.3811
X2.8803Y-2.4811
X2.8803Y-2.5811
X2.8803Y-2.6811
X2.8803Y-2.7811
X2.8803Y-2.8811
X2.8803Y-2.9811
X2.8803Y-3.0811
X2.8803Y-3.1811
X2.8803Y-3.2811
X2.8803Y-3.3811
X2.8803Y-3.4811
X2.8803Y-3.5811
T7
X8.2598Y-2.5736
X8.2598Y-3.5579
T4
G00X8.1094Y-4.1795
M15
G01X8.1606Y-4.1795
M16
G05
T6
G00X8.3122Y-4.1382
M15
G01X8.3122Y-4.2209
M16
G05
M30
