M48
; DRILL file {KiCad 9.0.2} date 2026-01-18T17:28:18-0600
; FORMAT={-:-/ absolute / inch / decimal}
; #@! TF.CreationDate,2026-01-18T17:28:18-06:00
; #@! TF.GenerationSoftware,Kicad,Pcbnew,9.0.2
; #@! TF.FileFunction,Plated,1,2,PTH
FMAT,2
INCH
; #@! TA.AperFunction,Plated,PTH,ViaDrill
T1C0.0157
; #@! TA.AperFunction,Plated,PTH,ComponentDrill
T2C0.0295
; #@! TA.AperFunction,Plated,PTH,ComponentDrill
T3C0.0315
; #@! TA.AperFunction,Plated,PTH,ComponentDrill
T4C0.0394
; #@! TA.AperFunction,Plated,PTH,ComponentDrill
T5C0.0402
; #@! TA.AperFunction,Plated,PTH,ComponentDrill
T6C0.0512
; #@! TA.AperFunction,Plated,PTH,ComponentDrill
T7C0.1260
%
G90
G05
T1
X2.0136Y-3.134
X2.0173Y-3.0348
X2.041Y-3.5811
X2.2302Y-1.6348
X2.2305Y-4.2901
X2.2627Y-2.4098
X2.3073Y-3.8697
X2.3425Y-4.3501
X2.4045Y-4.2874
X2.5975Y-4.7266
X2.6098Y-3.0811
X2.6169Y-3.855
X2.6781Y-4.5576
X2.827Y-1.8274
X3.0247Y-3.1243
X3.056Y-4.2218
X3.1111Y-2.0067
X3.196Y-4.7183
X3.2018Y-4.9268
X3.2261Y-4.7603
X3.2487Y-4.7022
X3.2517Y-3.732
X3.3184Y-4.9469
X3.3282Y-1.5143
X3.3509Y-4.4676
X3.3608Y-5.0196
X3.3917Y-2.462
X3.4798Y-5.0811
X3.5122Y-2.6853
X3.5328Y-4.7219
X3.5916Y-2.7647
X3.6379Y-4.0647
X3.6799Y-4.4441
X3.713Y-1.4204
X3.8217Y-4.8154
X3.8366Y-3.9849
X3.8473Y-2.0893
X3.9135Y-4.908
X3.9362Y-3.6508
X3.9389Y-4.0985
X3.9426Y-4.6884
X3.9622Y-3.5008
X3.9633Y-4.2994
X4.0041Y-2.7914
X4.0541Y-2.0159
X4.1292Y-2.7047
X4.1487Y-4.6388
X4.1497Y-4.0618
X4.1534Y-4.7076
X4.1651Y-4.5528
X4.1669Y-3.5109
X4.1765Y-4.7941
X4.1797Y-2.1489
X4.1839Y-4.607
X4.1919Y-3.4617
X4.2043Y-3.3211
X4.231Y-3.7442
X4.2318Y-4.6446
X4.2321Y-2.886
X4.2324Y-3.5406
X4.2712Y-5.1432
X4.2778Y-4.4537
X4.2994Y-4.4954
X4.3032Y-5.2764
X4.3086Y-4.1887
X4.3182Y-3.4863
X4.3207Y-4.5232
X4.3258Y-4.8789
X4.349Y-4.452
X4.3654Y-4.52
X4.3774Y-4.7309
X4.4084Y-3.3365
X4.4099Y-4.3802
X4.4344Y-5.0201
X4.4566Y-3.6632
X4.4695Y-5.0887
X4.4816Y-4.6022
X4.4952Y-4.775
X4.5131Y-4.5932
X4.5209Y-3.3716
X4.5251Y-4.7979
X4.5393Y-2.7709
X4.5398Y-4.4766
X4.5563Y-3.3845
X4.5616Y-4.7969
X4.5783Y-4.5457
X4.6109Y-4.7927
X4.6272Y-4.04
X4.637Y-3.53
X4.6491Y-3.0214
X4.6541Y-4.8191
X4.6574Y-3.8557
X4.6585Y-3.1161
X4.7105Y-3.6022
X4.7119Y-4.7573
X4.7353Y-5.1915
X4.7353Y-2.9518
X4.7449Y-3.2331
X4.7697Y-3.2069
X4.8071Y-4.5109
X4.9106Y-1.8038
X4.9378Y-3.3837
X4.9484Y-2.9831
X4.9684Y-2.4594
X4.9934Y-3.356
X5.0115Y-4.4665
X5.0275Y-3.099
X5.0312Y-5.4364
X5.0538Y-1.9936
X5.1277Y-3.4075
X5.1317Y-4.2295
X5.132Y-3.2114
X5.1335Y-3.3159
X5.1499Y-4.7041
X5.189Y-5.2433
X5.2047Y-3.0512
X5.2241Y-1.8212
X5.2422Y-2.4151
X5.2498Y-5.4378
X5.2732Y-3.246
X5.2899Y-2.9266
X5.2985Y-3.3969
X5.3067Y-4.6669
X5.3607Y-2.4594
X5.389Y-5.4375
X5.4576Y-3.2147
X5.471Y-4.5022
X5.4765Y-3.1354
X5.4959Y-3.3159
X5.5002Y-3.6583
X5.5008Y-3.8583
X5.5021Y-4.5994
X5.5067Y-3.1162
X5.5093Y-4.1049
X5.5169Y-3.246
X5.525Y-2.0736
X5.5256Y-2.2708
X5.5566Y-5.0612
X5.5642Y-3.1623
X5.5865Y-3.3086
X5.5975Y-4.6988
X5.618Y-3.3029
X5.6287Y-3.2065
X5.6478Y-5.1411
X5.6645Y-2.894
X5.6743Y-5.0727
X5.6796Y-3.4009
X5.6847Y-5.3145
X5.701Y-4.5919
X5.7137Y-4.6423
X5.7139Y-2.4264
X5.736Y-4.5393
X5.7418Y-4.4798
X5.7547Y-2.2163
X5.7647Y-5.1989
X5.7706Y-2.444
X5.7807Y-4.5646
X5.7969Y-2.518
X5.8391Y-2.9558
X5.8601Y-2.4688
X5.8628Y-4.4553
X5.871Y-5.0209
X5.9078Y-3.8922
X5.9129Y-3.1474
X5.9281Y-3.5917
X6.0324Y-4.5126
X6.0492Y-4.1796
X6.0619Y-4.7133
X6.1137Y-5.0511
X6.1496Y-1.9271
X6.197Y-4.4657
X6.2156Y-5.3509
X6.2215Y-3.5809
X6.2541Y-3.3655
X6.2775Y-3.3409
X6.2782Y-5.2364
X6.2963Y-5.4205
X6.3284Y-4.7369
X6.3284Y-4.8788
X6.3487Y-4.7913
X6.3588Y-5.238
X6.3816Y-4.6787
X6.421Y-4.6419
X6.4244Y-4.2713
X6.4505Y-4.2366
X6.4756Y-4.211
X6.477Y-5.2289
X6.4789Y-5.2656
X6.5005Y-4.1818
X6.512Y-4.4227
X6.5139Y-5.4166
X6.5304Y-2.738
X6.5357Y-2.922
X6.5451Y-5.2871
X6.5508Y-3.5742
X6.5567Y-3.1183
X6.5693Y-4.8229
X6.5775Y-3.7923
X6.5792Y-5.3048
X6.5808Y-4.7661
X6.5897Y-4.7976
X6.6184Y-5.3519
X6.6336Y-5.3225
X6.6591Y-4.9138
X6.6711Y-2.0384
X6.6729Y-3.2633
X6.6735Y-5.0209
X6.7074Y-2.1147
X6.7389Y-4.2866
X6.7409Y-4.6616
X6.7416Y-2.1098
X6.7443Y-2.1598
X6.7466Y-1.8587
X6.7478Y-4.4364
X6.7713Y-1.7598
X6.7813Y-4.9697
X6.7817Y-5.0425
X6.7887Y-1.7322
X6.7978Y-4.2277
X6.8028Y-4.2829
X6.8151Y-4.8698
X6.8231Y-5.0092
X6.824Y-4.836
X6.8411Y-4.8944
X6.884Y-2.935
X6.8862Y-2.5277
X6.9076Y-3.727
X6.9219Y-2.5983
X6.9476Y-4.2449
X6.9511Y-4.0474
X6.9565Y-4.97
X6.9759Y-2.2598
X6.9828Y-4.0347
X6.9897Y-5.0402
X6.9928Y-3.603
X6.9938Y-4.9441
X7.0046Y-3.0207
X7.0232Y-3.629
X7.0406Y-2.3706
X7.1975Y-2.8185
X7.2182Y-4.1773
X7.2547Y-3.5765
X7.2669Y-4.5402
X7.326Y-2.7431
X7.3979Y-3.603
X7.4442Y-1.5143
X7.4587Y-1.4841
X7.4723Y-1.5894
X7.4905Y-1.3896
X7.5172Y-3.7152
X7.5289Y-1.6809
X7.5703Y-1.5446
X7.598Y-1.75
X7.6927Y-4.987
X7.7321Y-1.4204
X7.7489Y-5.1205
X7.8656Y-4.9833
X7.9319Y-5.0807
X8.0779Y-2.8959
T2
X3.3458Y-2.7823
X3.3958Y-2.7823
X3.4458Y-2.7823
T3
X1.6465Y-5.252
X1.6929Y-3.9508
X1.7449Y-5.252
X1.7476Y-2.987
X1.7476Y-3.087
X1.7476Y-3.187
X1.7476Y-3.287
X1.7476Y-3.387
X1.7476Y-3.487
X1.863Y-4.1689
X1.863Y-4.2689
X1.863Y-4.3689
X1.863Y-4.4689
X1.863Y-4.5689
X1.863Y-4.6689
X1.863Y-4.7689
X1.863Y-4.8689
X1.863Y-4.9689
X1.863Y-5.0689
X1.8898Y-3.9508
X2.163Y-4.1689
X2.163Y-4.2689
X2.163Y-4.3689
X2.163Y-4.4689
X2.163Y-4.5689
X2.163Y-4.6689
X2.163Y-4.7689
X2.163Y-4.8689
X2.163Y-4.9689
X2.163Y-5.0689
X2.2366Y-3.9693
X2.4335Y-3.9693
X2.493Y-4.152
X2.493Y-4.252
X2.493Y-4.352
X2.493Y-4.452
X2.493Y-4.552
X2.493Y-4.652
X2.493Y-4.752
X2.493Y-4.852
X2.493Y-4.952
X2.493Y-5.052
X2.793Y-4.152
X2.793Y-4.252
X2.793Y-4.352
X2.793Y-4.452
X2.793Y-4.552
X2.793Y-4.652
X2.793Y-4.752
X2.793Y-4.852
X2.793Y-4.952
X2.793Y-5.052
X2.863Y-3.972
X3.0598Y-3.972
X3.1231Y-4.1469
X3.1231Y-4.2469
X3.1231Y-4.3469
X3.1231Y-4.4469
X3.1231Y-4.5469
X3.1231Y-4.6469
X3.1231Y-4.7469
X3.1231Y-4.8469
X3.1231Y-4.9469
X3.1231Y-5.0469
X3.2827Y-1.6783
X3.4231Y-4.1469
X3.4231Y-4.2469
X3.4231Y-4.3469
X3.4231Y-4.4469
X3.4231Y-4.5469
X3.4231Y-4.6469
X3.4231Y-4.7469
X3.4231Y-4.8469
X3.4231Y-4.9469
X3.4231Y-5.0469
X3.4795Y-1.6783
X3.487Y-3.9803
X3.6839Y-3.9803
X3.7059Y-1.6646
X3.7059Y-1.7646
X3.7059Y-1.8646
X3.7059Y-1.9646
X3.7059Y-2.0646
X3.7059Y-2.1646
X3.7059Y-2.2646
X3.7059Y-2.3646
X3.7059Y-2.4646
X3.7059Y-2.5646
X3.7531Y-4.1441
X3.7531Y-4.2441
X3.7531Y-4.3441
X3.7531Y-4.4441
X3.7531Y-4.5441
X3.7531Y-4.6441
X3.7531Y-4.7441
X3.7531Y-4.8441
X3.7531Y-4.9441
X3.7531Y-5.0441
X3.7594Y-2.9008
X3.7594Y-3.0008
X3.7594Y-3.1008
X3.7594Y-3.2008
X3.7594Y-3.3008
X3.7594Y-3.4008
X3.7594Y-3.5008
X3.7594Y-3.6008
X3.7594Y-3.7008
X3.7594Y-3.8008
X4.0059Y-1.6646
X4.0059Y-1.7646
X4.0059Y-1.8646
X4.0059Y-1.9646
X4.0059Y-2.0646
X4.0059Y-2.1646
X4.0059Y-2.2646
X4.0059Y-2.3646
X4.0059Y-2.4646
X4.0059Y-2.5646
X4.0531Y-4.1441
X4.0531Y-4.2441
X4.0531Y-4.3441
X4.0531Y-4.4441
X4.0531Y-4.5441
X4.0531Y-4.6441
X4.0531Y-4.7441
X4.0531Y-4.8441
X4.0531Y-4.9441
X4.0531Y-5.0441
X4.0594Y-2.9008
X4.0594Y-3.0008
X4.0594Y-3.1008
X4.0594Y-3.2008
X4.0594Y-3.3008
X4.0594Y-3.4008
X4.0594Y-3.5008
X4.0594Y-3.6008
X4.0594Y-3.7008
X4.0594Y-3.8008
X4.2634Y-1.6591
X4.2634Y-1.7591
X4.2634Y-1.8591
X4.2634Y-1.9591
X4.2634Y-2.0591
X4.2642Y-2.2398
X4.2642Y-2.3398
X4.2642Y-2.4398
X4.2642Y-2.5398
X4.2642Y-2.6398
X4.2642Y-2.7398
X4.2642Y-2.8398
X4.2642Y-2.9398
X4.2642Y-3.0398
X4.53Y-3.44
X4.53Y-3.54
X4.53Y-3.64
X4.53Y-3.74
X4.53Y-3.84
X4.53Y-3.94
X4.53Y-4.04
X4.53Y-4.14
X4.53Y-4.24
X4.53Y-4.34
X4.5634Y-1.6591
X4.5634Y-1.7591
X4.5634Y-1.8591
X4.5634Y-1.9591
X4.5634Y-2.0591
X4.6018Y-3.1387
X4.7987Y-3.1387
X4.8098Y-1.6594
X4.8098Y-1.7594
X4.8098Y-1.8594
X4.8098Y-1.9594
X4.8098Y-2.0594
X4.8098Y-2.1594
X4.8098Y-2.2594
X4.8098Y-2.3594
X4.8098Y-2.4594
X4.8098Y-2.5594
X4.83Y-3.44
X4.83Y-3.54
X4.83Y-3.64
X4.83Y-3.74
X4.83Y-3.84
X4.83Y-3.94
X4.83Y-4.04
X4.83Y-4.14
X4.83Y-4.24
X4.83Y-4.34
X4.9818Y-4.3309
X5.0874Y-2.8433
X5.0874Y-2.9433
X5.0874Y-3.0433
X5.0874Y-3.1433
X5.0874Y-3.2433
X5.0874Y-3.3433
X5.0874Y-3.4433
X5.0874Y-3.5433
X5.0874Y-3.6433
X5.1098Y-1.6594
X5.1098Y-1.7594
X5.1098Y-1.8594
X5.1098Y-1.9594
X5.1098Y-2.0594
X5.1098Y-2.1594
X5.1098Y-2.2594
X5.1098Y-2.3594
X5.1098Y-2.4594
X5.1098Y-2.5594
X5.1787Y-4.3309
X5.3319Y-3.4583
X5.3319Y-3.5583
X5.3319Y-3.6583
X5.3319Y-3.7583
X5.3319Y-3.8583
X5.3319Y-3.9583
X5.3319Y-4.0583
X5.3319Y-4.1583
X5.3319Y-4.2583
X5.3319Y-4.3583
X5.3394Y-1.6736
X5.3394Y-1.7736
X5.3394Y-1.8736
X5.3394Y-1.9736
X5.3394Y-2.0736
X5.3865Y-3.0443
X5.3906Y-2.2539
X5.5833Y-3.0443
X5.5874Y-2.2539
X5.6319Y-3.4583
X5.6319Y-3.5583
X5.6319Y-3.6583
X5.6319Y-3.7583
X5.6319Y-3.8583
X5.6319Y-3.9583
X5.6319Y-4.0583
X5.6319Y-4.1583
X5.6319Y-4.2583
X5.6319Y-4.3583
X5.6394Y-1.6736
X5.6394Y-1.7736
X5.6394Y-1.8736
X5.6394Y-1.9736
X5.6394Y-2.0736
X5.7051Y-3.2016
X5.8154Y-4.3413
X5.8394Y-3.437
X5.8394Y-3.537
X5.8394Y-3.637
X5.8394Y-3.737
X5.8394Y-3.837
X5.8394Y-3.937
X5.8394Y-4.037
X5.8396Y-1.6337
X5.8396Y-1.8306
X5.8416Y-1.9372
X5.8416Y-2.1341
X5.902Y-3.2016
X6.011Y-1.672
X6.011Y-1.772
X6.011Y-1.872
X6.011Y-1.972
X6.011Y-2.072
X6.011Y-2.172
X6.011Y-2.272
X6.011Y-2.372
X6.011Y-2.472
X6.011Y-2.572
X6.011Y-2.672
X6.011Y-2.772
X6.011Y-2.872
X6.011Y-2.972
X6.0122Y-4.3413
X6.1394Y-3.437
X6.1394Y-3.537
X6.1394Y-3.637
X6.1394Y-3.737
X6.1394Y-3.837
X6.1394Y-3.937
X6.1394Y-4.037
X6.363Y-3.4366
X6.363Y-3.5366
X6.363Y-3.6366
X6.363Y-3.7366
X6.363Y-3.8366
X6.363Y-3.9366
X6.363Y-4.0366
X6.363Y-4.1366
X6.363Y-4.2366
X6.363Y-4.3366
X6.4252Y-4.5886
X6.611Y-1.672
X6.611Y-1.772
X6.611Y-1.872
X6.611Y-1.972
X6.611Y-2.072
X6.611Y-2.172
X6.611Y-2.272
X6.611Y-2.372
X6.611Y-2.472
X6.611Y-2.572
X6.611Y-2.672
X6.611Y-2.772
X6.611Y-2.872
X6.611Y-2.972
X6.622Y-4.5886
X6.663Y-3.4366
X6.663Y-3.5366
X6.663Y-3.6366
X6.663Y-3.7366
X6.663Y-3.8366
X6.663Y-3.9366
X6.663Y-4.0366
X6.663Y-4.1366
X6.663Y-4.2366
X6.663Y-4.3366
X6.7417Y-5.0882
X6.7535Y-3.2276
X6.8319Y-1.678
X6.8339Y-2.0409
X6.8389Y-2.4155
X6.8679Y-2.8362
X6.9303Y-1.678
X6.9323Y-2.0409
X6.9373Y-2.4155
X6.9386Y-5.0882
X6.9504Y-3.2276
X6.9663Y-2.8362
X7.1327Y-3.7902
X7.1327Y-3.8902
X7.1327Y-3.9902
X7.1327Y-4.0902
X7.1327Y-4.1902
X7.1327Y-4.2902
X7.1327Y-4.3902
X7.1327Y-4.4902
X7.1327Y-4.5902
X7.1327Y-4.6902
X7.1327Y-4.7902
X7.1327Y-4.8902
X7.1327Y-4.9902
X7.1327Y-5.0902
X7.1524Y-2.8732
X7.1524Y-2.9732
X7.1524Y-3.0732
X7.1524Y-3.1732
X7.1524Y-3.2732
X7.1524Y-3.3732
X7.1524Y-3.4732
X7.161Y-1.6598
X7.161Y-1.7598
X7.161Y-1.8598
X7.161Y-1.9598
X7.161Y-2.0598
X7.161Y-2.1598
X7.161Y-2.2598
X7.161Y-2.3598
X7.161Y-2.4598
X7.161Y-2.5598
X7.4327Y-3.7902
X7.4327Y-3.8902
X7.4327Y-3.9902
X7.4327Y-4.0902
X7.4327Y-4.1902
X7.4327Y-4.2902
X7.4327Y-4.3902
X7.4327Y-4.4902
X7.4327Y-4.5902
X7.4327Y-4.6902
X7.4327Y-4.7902
X7.4327Y-4.8902
X7.4327Y-4.9902
X7.4327Y-5.0902
X7.4524Y-2.8732
X7.4524Y-2.9732
X7.4524Y-3.0732
X7.4524Y-3.1732
X7.4524Y-3.2732
X7.4524Y-3.3732
X7.4524Y-3.4732
X7.461Y-1.6598
X7.461Y-1.7598
X7.461Y-1.8598
X7.461Y-1.9598
X7.461Y-2.0598
X7.461Y-2.1598
X7.461Y-2.2598
X7.461Y-2.3598
X7.461Y-2.4598
X7.461Y-2.5598
X7.6429Y-2.0067
X7.6429Y-2.1661
X7.6429Y-2.3256
X7.6429Y-2.485
X7.6429Y-2.6445
X7.6429Y-2.8039
X7.6429Y-2.9634
X7.6429Y-3.1228
X7.6429Y-3.2823
X7.6429Y-3.4417
X7.6429Y-3.6012
X7.6429Y-3.7606
X7.6429Y-3.9201
X7.6551Y-4.2094
X7.6551Y-4.3094
X7.6551Y-4.4094
X7.6551Y-4.5094
X7.6551Y-4.6094
X7.6551Y-4.7094
X7.6551Y-4.8094
X7.6791Y-5.0976
X7.876Y-5.0976
X7.9429Y-2.0067
X7.9429Y-2.1661
X7.9429Y-2.3256
X7.9429Y-2.485
X7.9429Y-2.6445
X7.9429Y-2.8039
X7.9429Y-2.9634
X7.9429Y-3.1228
X7.9429Y-3.2823
X7.9429Y-3.4417
X7.9429Y-3.6012
X7.9429Y-3.7606
X7.9429Y-3.9201
X7.9551Y-4.2094
X7.9551Y-4.3094
X7.9551Y-4.4094
X7.9551Y-4.5094
X7.9551Y-4.6094
X7.9551Y-4.7094
X7.9551Y-4.8094
X8.0767Y-5.2297
X8.1752Y-5.2297
T4
X5.4991Y-2.585
X5.4991Y-2.685
X5.4991Y-2.785
X8.1791Y-2.8959
X8.1791Y-2.986
X8.1791Y-3.0762
X8.1791Y-3.1663
X8.1791Y-3.2565
X8.2571Y-2.8508
X8.2571Y-2.9409
X8.2571Y-3.0311
X8.2571Y-3.1213
X8.2571Y-3.2114
X8.335Y-2.8959
X8.335Y-2.986
X8.335Y-3.0762
X8.335Y-3.1663
X8.335Y-3.2565
T5
X2.1803Y-1.6811
X2.1803Y-1.7811
X2.1803Y-1.8811
X2.1803Y-1.9811
X2.1803Y-2.0811
X2.1803Y-2.1811
X2.1803Y-2.2811
X2.1803Y-2.3811
X2.1803Y-2.4811
X2.1803Y-2.5811
X2.1803Y-2.6811
X2.1803Y-2.7811
X2.1803Y-2.8811
X2.1803Y-2.9811
X2.1803Y-3.0811
X2.1803Y-3.1811
X2.1803Y-3.2811
X2.1803Y-3.3811
X2.1803Y-3.4811
X2.1803Y-3.5811
X2.4303Y-3.572
X2.5303Y-3.572
X2.6303Y-3.572
X2.8803Y-1.6811
X2.8803Y-1.7811
X2.8803Y-1.8811
X2.8803Y-1.9811
X2.8803Y-2.0811
X2.8803Y-2.1811
X2.8803Y-2.2811
X2.8803Y-2.3811
X2.8803Y-2.4811
X2.8803Y-2.5811
X2.8803Y-2.6811
X2.8803Y-2.7811
X2.8803Y-2.8811
X2.8803Y-2.9811
X2.8803Y-3.0811
X2.8803Y-3.1811
X2.8803Y-3.2811
X2.8803Y-3.3811
X2.8803Y-3.4811
X2.8803Y-3.5811
T7
X8.2598Y-2.5736
X8.2598Y-3.5579
T4
G00X8.1102Y-1.8693
M15
G01X8.1614Y-1.8693
M16
G05
T6
G00X8.313Y-1.828
M15
G01X8.313Y-1.9106
M16
G05
M30
