%TF.GenerationSoftware,KiCad,Pcbnew,9.0.2*%
%TF.CreationDate,2026-03-22T10:42:30-05:00*%
%TF.ProjectId,video,76696465-6f2e-46b6-9963-61645f706362,V1.6*%
%TF.SameCoordinates,Original*%
%TF.FileFunction,Soldermask,Top*%
%TF.FilePolarity,Negative*%
%FSLAX46Y46*%
G04 Gerber Fmt 4.6, Leading zero omitted, Abs format (unit mm)*
G04 Created by KiCad (PCBNEW 9.0.2) date 2026-03-22 10:42:30*
%MOMM*%
%LPD*%
G01*
G04 APERTURE LIST*
G04 Aperture macros list*
%AMRoundRect*
0 Rectangle with rounded corners*
0 $1 Rounding radius*
0 $2 $3 $4 $5 $6 $7 $8 $9 X,Y pos of 4 corners*
0 Add a 4 corners polygon primitive as box body*
4,1,4,$2,$3,$4,$5,$6,$7,$8,$9,$2,$3,0*
0 Add four circle primitives for the rounded corners*
1,1,$1+$1,$2,$3*
1,1,$1+$1,$4,$5*
1,1,$1+$1,$6,$7*
1,1,$1+$1,$8,$9*
0 Add four rect primitives between the rounded corners*
20,1,$1+$1,$2,$3,$4,$5,0*
20,1,$1+$1,$4,$5,$6,$7,0*
20,1,$1+$1,$6,$7,$8,$9,0*
20,1,$1+$1,$8,$9,$2,$3,0*%
G04 Aperture macros list end*
%ADD10RoundRect,0.200000X-1.200000X-0.800000X1.200000X-0.800000X1.200000X0.800000X-1.200000X0.800000X0*%
%ADD11O,2.800000X2.000000*%
%ADD12RoundRect,0.200000X-0.525000X-0.750000X0.525000X-0.750000X0.525000X0.750000X-0.525000X0.750000X0*%
%ADD13O,1.450000X1.900000*%
%ADD14RoundRect,0.200000X-0.800000X-0.800000X0.800000X-0.800000X0.800000X0.800000X-0.800000X0.800000X0*%
%ADD15C,2.000000*%
%ADD16O,2.000000X2.000000*%
%ADD17RoundRect,0.200000X-0.800000X0.800000X-0.800000X-0.800000X0.800000X-0.800000X0.800000X0.800000X0*%
%ADD18O,2.200000X2.200000*%
%ADD19O,1.900000X1.900000*%
%ADD20O,2.100000X2.100000*%
%ADD21RoundRect,0.200000X-1.750000X-0.850000X1.750000X-0.850000X1.750000X0.850000X-1.750000X0.850000X0*%
%ADD22RoundRect,0.200000X-0.850000X-0.850000X0.850000X-0.850000X0.850000X0.850000X-0.850000X0.850000X0*%
%ADD23RoundRect,0.200000X0.850000X-1.750000X0.850000X1.750000X-0.850000X1.750000X-0.850000X-1.750000X0*%
%ADD24C,4.400000*%
%ADD25RoundRect,0.200000X0.800000X-0.800000X0.800000X0.800000X-0.800000X0.800000X-0.800000X-0.800000X0*%
%ADD26RoundRect,0.200000X-0.890000X-3.810000X0.890000X-3.810000X0.890000X3.810000X-0.890000X3.810000X0*%
G04 APERTURE END LIST*
D10*
%TO.C,U9*%
X94130000Y-42280000D03*
D11*
X94130000Y-44820000D03*
X94130000Y-47360000D03*
X94130000Y-49900000D03*
X94130000Y-52440000D03*
X94130000Y-54980000D03*
X94130000Y-57520000D03*
X94130000Y-60060000D03*
X94130000Y-62600000D03*
X94130000Y-65140000D03*
X101750000Y-65140000D03*
X101750000Y-62600000D03*
X101750000Y-60060000D03*
X101750000Y-57520000D03*
X101750000Y-54980000D03*
X101750000Y-52440000D03*
X101750000Y-49900000D03*
X101750000Y-47360000D03*
X101750000Y-44820000D03*
X101750000Y-42280000D03*
%TD*%
D12*
%TO.C,U1*%
X84610000Y-50730000D03*
D13*
X85880000Y-50730000D03*
X87150000Y-50730000D03*
%TD*%
D14*
%TO.C,C14*%
X41820000Y-133400000D03*
D15*
X44320000Y-133400000D03*
%TD*%
%TO.C,C4*%
X147710000Y-110270000D03*
X152710000Y-110270000D03*
%TD*%
%TO.C,R22*%
X194130000Y-67170000D03*
D16*
X201750000Y-67170000D03*
%TD*%
D10*
%TO.C,U32*%
X63323300Y-105460000D03*
D11*
X63323300Y-108000000D03*
X63323300Y-110540000D03*
X63323300Y-113080000D03*
X63323300Y-115620000D03*
X63323300Y-118160000D03*
X63323300Y-120700000D03*
X63323300Y-123240000D03*
X63323300Y-125780000D03*
X63323300Y-128320000D03*
X70943300Y-128320000D03*
X70943300Y-125780000D03*
X70943300Y-123240000D03*
X70943300Y-120700000D03*
X70943300Y-118160000D03*
X70943300Y-115620000D03*
X70943300Y-113080000D03*
X70943300Y-110540000D03*
X70943300Y-108000000D03*
X70943300Y-105460000D03*
%TD*%
D15*
%TO.C,R23*%
X194130000Y-71220000D03*
D16*
X201750000Y-71220000D03*
%TD*%
D17*
%TO.C,RR1*%
X108310000Y-56890000D03*
D16*
X108310000Y-59430000D03*
X108310000Y-61970000D03*
X108310000Y-64510000D03*
X108310000Y-67050000D03*
X108310000Y-69590000D03*
X108310000Y-72130000D03*
X108310000Y-74670000D03*
X108310000Y-77210000D03*
%TD*%
D10*
%TO.C,U6*%
X161620000Y-87290000D03*
D11*
X161620000Y-89830000D03*
X161620000Y-92370000D03*
X161620000Y-94910000D03*
X161620000Y-97450000D03*
X161620000Y-99990000D03*
X161620000Y-102530000D03*
X161620000Y-105070000D03*
X161620000Y-107610000D03*
X161620000Y-110150000D03*
X169240000Y-110150000D03*
X169240000Y-107610000D03*
X169240000Y-105070000D03*
X169240000Y-102530000D03*
X169240000Y-99990000D03*
X169240000Y-97450000D03*
X169240000Y-94910000D03*
X169240000Y-92370000D03*
X169240000Y-89830000D03*
X169240000Y-87290000D03*
%TD*%
D18*
%TO.C,U36*%
X61545000Y-42830000D03*
D19*
X61845000Y-45860000D03*
X66695000Y-45860000D03*
D18*
X66995000Y-42830000D03*
D20*
X55380000Y-42700000D03*
D21*
X54480000Y-42700000D03*
D20*
X55380000Y-45240000D03*
D21*
X54480000Y-45240000D03*
D22*
X55380000Y-47780000D03*
D21*
X54480000Y-47780000D03*
D20*
X55380000Y-50320000D03*
D21*
X54480000Y-50320000D03*
D20*
X55380000Y-52860000D03*
D21*
X54480000Y-52860000D03*
D20*
X55380000Y-55400000D03*
D21*
X54480000Y-55400000D03*
D20*
X55380000Y-57940000D03*
D21*
X54480000Y-57940000D03*
D22*
X55380000Y-60480000D03*
D21*
X54480000Y-60480000D03*
D20*
X55380000Y-63020000D03*
D21*
X54480000Y-63020000D03*
D20*
X55380000Y-65560000D03*
D21*
X54480000Y-65560000D03*
D20*
X55380000Y-68100000D03*
D21*
X54480000Y-68100000D03*
D20*
X55380000Y-70640000D03*
D21*
X54480000Y-70640000D03*
D22*
X55380000Y-73180000D03*
D21*
X54480000Y-73180000D03*
D20*
X55380000Y-75720000D03*
D21*
X54480000Y-75720000D03*
D20*
X55380000Y-78260000D03*
D21*
X54480000Y-78260000D03*
D20*
X55380000Y-80800000D03*
D21*
X54480000Y-80800000D03*
D20*
X55380000Y-83340000D03*
D21*
X54480000Y-83340000D03*
D22*
X55380000Y-85880000D03*
D21*
X54480000Y-85880000D03*
D20*
X55380000Y-88420000D03*
D21*
X54480000Y-88420000D03*
D20*
X55380000Y-90960000D03*
D21*
X54480000Y-90960000D03*
D20*
X73160000Y-90960000D03*
D21*
X74060000Y-90960000D03*
D20*
X73160000Y-88420000D03*
D21*
X74060000Y-88420000D03*
D22*
X73160000Y-85880000D03*
D21*
X74060000Y-85880000D03*
D20*
X73160000Y-83340000D03*
D21*
X74060000Y-83340000D03*
D20*
X73160000Y-80800000D03*
D21*
X74060000Y-80800000D03*
D20*
X73160000Y-78260000D03*
D21*
X74060000Y-78260000D03*
D20*
X73160000Y-75720000D03*
D21*
X74060000Y-75720000D03*
D22*
X73160000Y-73180000D03*
D21*
X74060000Y-73180000D03*
D20*
X73160000Y-70640000D03*
D21*
X74060000Y-70640000D03*
D20*
X73160000Y-68100000D03*
D21*
X74060000Y-68100000D03*
D20*
X73160000Y-65560000D03*
D21*
X74060000Y-65560000D03*
D20*
X73160000Y-63020000D03*
D21*
X74060000Y-63020000D03*
D22*
X73160000Y-60480000D03*
D21*
X74060000Y-60480000D03*
D20*
X73160000Y-57940000D03*
D21*
X74060000Y-57940000D03*
D20*
X73160000Y-55400000D03*
D21*
X74060000Y-55400000D03*
D20*
X73160000Y-52860000D03*
D21*
X74060000Y-52860000D03*
D20*
X73160000Y-50320000D03*
D21*
X74060000Y-50320000D03*
D22*
X73160000Y-47780000D03*
D21*
X74060000Y-47780000D03*
D20*
X73160000Y-45240000D03*
D21*
X74060000Y-45240000D03*
D20*
X73160000Y-42700000D03*
D21*
X74060000Y-42700000D03*
D20*
X61730000Y-90730000D03*
D23*
X61730000Y-91630000D03*
D22*
X64270000Y-90730000D03*
D23*
X64270000Y-91630000D03*
D20*
X66810000Y-90730000D03*
D23*
X66810000Y-91630000D03*
%TD*%
D10*
%TO.C,U40*%
X181170000Y-96270000D03*
D11*
X181170000Y-98810000D03*
X181170000Y-101350000D03*
X181170000Y-103890000D03*
X181170000Y-106430000D03*
X181170000Y-108970000D03*
X181170000Y-111510000D03*
X181170000Y-114050000D03*
X181170000Y-116590000D03*
X181170000Y-119130000D03*
X181170000Y-121670000D03*
X181170000Y-124210000D03*
X181170000Y-126750000D03*
X181170000Y-129290000D03*
X188790000Y-129290000D03*
X188790000Y-126750000D03*
X188790000Y-124210000D03*
X188790000Y-121670000D03*
X188790000Y-119130000D03*
X188790000Y-116590000D03*
X188790000Y-114050000D03*
X188790000Y-111510000D03*
X188790000Y-108970000D03*
X188790000Y-106430000D03*
X188790000Y-103890000D03*
X188790000Y-101350000D03*
X188790000Y-98810000D03*
X188790000Y-96270000D03*
%TD*%
D15*
%TO.C,C3*%
X167580000Y-71890000D03*
X172580000Y-71890000D03*
%TD*%
D24*
%TO.C,J11*%
X209800000Y-90370000D03*
X209800000Y-65370000D03*
D25*
X207750000Y-73555000D03*
D15*
X207750000Y-75845000D03*
X207750000Y-78135000D03*
X207750000Y-80425000D03*
X207750000Y-82715000D03*
X209730000Y-72410000D03*
X209730000Y-74700000D03*
X209730000Y-76990000D03*
X209730000Y-79280000D03*
X209730000Y-81570000D03*
X211710000Y-73555000D03*
X211710000Y-75845000D03*
X211710000Y-78135000D03*
X211710000Y-80425000D03*
X211710000Y-82715000D03*
%TD*%
D10*
%TO.C,U4*%
X95330000Y-105260000D03*
D11*
X95330000Y-107800000D03*
X95330000Y-110340000D03*
X95330000Y-112880000D03*
X95330000Y-115420000D03*
X95330000Y-117960000D03*
X95330000Y-120500000D03*
X95330000Y-123040000D03*
X95330000Y-125580000D03*
X95330000Y-128120000D03*
X102950000Y-128120000D03*
X102950000Y-125580000D03*
X102950000Y-123040000D03*
X102950000Y-120500000D03*
X102950000Y-117960000D03*
X102950000Y-115420000D03*
X102950000Y-112880000D03*
X102950000Y-110340000D03*
X102950000Y-107800000D03*
X102950000Y-105260000D03*
%TD*%
D15*
%TO.C,C7*%
X150240000Y-42040000D03*
X155240000Y-42040000D03*
%TD*%
D26*
%TO.C,J6*%
X190220600Y-142443200D03*
X187680600Y-142443200D03*
X185140600Y-142443200D03*
X182600600Y-142443200D03*
X180060600Y-142443200D03*
X177520600Y-142443200D03*
X174980600Y-142443200D03*
X172440600Y-142443200D03*
X169900600Y-142443200D03*
X167360600Y-142443200D03*
X164820600Y-142443200D03*
X162280600Y-142443200D03*
X159740600Y-142443200D03*
X157200600Y-142443200D03*
X154660600Y-142443200D03*
X152120600Y-142443200D03*
X149580600Y-142443200D03*
X147040600Y-142443200D03*
X144500600Y-142443200D03*
X141960600Y-142443200D03*
X139420600Y-142443200D03*
X136880600Y-142443200D03*
X134340600Y-142443200D03*
X131800600Y-142443200D03*
X129260600Y-142443200D03*
X126720600Y-142443200D03*
X124180600Y-142443200D03*
X121640600Y-142443200D03*
X119100600Y-142443200D03*
X116560600Y-142443200D03*
X114020600Y-142443200D03*
%TD*%
D15*
%TO.C,C17*%
X41710000Y-100040000D03*
X46710000Y-100040000D03*
%TD*%
D10*
%TO.C,U2*%
X148320000Y-87300000D03*
D11*
X148320000Y-89840000D03*
X148320000Y-92380000D03*
X148320000Y-94920000D03*
X148320000Y-97460000D03*
X148320000Y-100000000D03*
X148320000Y-102540000D03*
X155940000Y-102540000D03*
X155940000Y-100000000D03*
X155940000Y-97460000D03*
X155940000Y-94920000D03*
X155940000Y-92380000D03*
X155940000Y-89840000D03*
X155940000Y-87300000D03*
%TD*%
D15*
%TO.C,R26*%
X194130000Y-83370000D03*
D16*
X201750000Y-83370000D03*
%TD*%
D15*
%TO.C,R27*%
X194130000Y-87420000D03*
D16*
X201750000Y-87420000D03*
%TD*%
D15*
%TO.C,R25*%
X194130000Y-79320000D03*
D16*
X201750000Y-79320000D03*
%TD*%
D10*
%TO.C,U34*%
X47320000Y-105890000D03*
D11*
X47320000Y-108430000D03*
X47320000Y-110970000D03*
X47320000Y-113510000D03*
X47320000Y-116050000D03*
X47320000Y-118590000D03*
X47320000Y-121130000D03*
X47320000Y-123670000D03*
X47320000Y-126210000D03*
X47320000Y-128750000D03*
X54940000Y-128750000D03*
X54940000Y-126210000D03*
X54940000Y-123670000D03*
X54940000Y-121130000D03*
X54940000Y-118590000D03*
X54940000Y-116050000D03*
X54940000Y-113510000D03*
X54940000Y-110970000D03*
X54940000Y-108430000D03*
X54940000Y-105890000D03*
%TD*%
D10*
%TO.C,U5*%
X95490000Y-73500000D03*
D11*
X95490000Y-76040000D03*
X95490000Y-78580000D03*
X95490000Y-81120000D03*
X95490000Y-83660000D03*
X95490000Y-86200000D03*
X95490000Y-88740000D03*
X95490000Y-91280000D03*
X95490000Y-93820000D03*
X95490000Y-96360000D03*
X103110000Y-96360000D03*
X103110000Y-93820000D03*
X103110000Y-91280000D03*
X103110000Y-88740000D03*
X103110000Y-86200000D03*
X103110000Y-83660000D03*
X103110000Y-81120000D03*
X103110000Y-78580000D03*
X103110000Y-76040000D03*
X103110000Y-73500000D03*
%TD*%
D25*
%TO.C,RN1*%
X44390000Y-88570000D03*
D15*
X44390000Y-86030000D03*
X44390000Y-83490000D03*
X44390000Y-80950000D03*
X44390000Y-78410000D03*
X44390000Y-75870000D03*
%TD*%
%TO.C,C10*%
X88570000Y-101100000D03*
X93570000Y-101100000D03*
%TD*%
%TO.C,C12*%
X195050000Y-129480000D03*
X200050000Y-129480000D03*
%TD*%
%TO.C,R24*%
X194130000Y-75270000D03*
D16*
X201750000Y-75270000D03*
%TD*%
D15*
%TO.C,R31*%
X194130000Y-99570000D03*
D16*
X201750000Y-99570000D03*
%TD*%
D10*
%TO.C,U18*%
X135430000Y-87840000D03*
D11*
X135430000Y-90380000D03*
X135430000Y-92920000D03*
X135430000Y-95460000D03*
X135430000Y-98000000D03*
X135430000Y-100540000D03*
X135430000Y-103080000D03*
X135430000Y-105620000D03*
X135430000Y-108160000D03*
X135430000Y-110700000D03*
X143050000Y-110700000D03*
X143050000Y-108160000D03*
X143050000Y-105620000D03*
X143050000Y-103080000D03*
X143050000Y-100540000D03*
X143050000Y-98000000D03*
X143050000Y-95460000D03*
X143050000Y-92920000D03*
X143050000Y-90380000D03*
X143050000Y-87840000D03*
%TD*%
D15*
%TO.C,C6*%
X171240000Y-129240000D03*
X176240000Y-129240000D03*
%TD*%
%TO.C,C16*%
X56390000Y-101380000D03*
X61390000Y-101380000D03*
%TD*%
D14*
%TO.C,C13*%
X205149000Y-132835000D03*
D15*
X207649000Y-132835000D03*
%TD*%
%TO.C,R28*%
X194130000Y-91470000D03*
D16*
X201750000Y-91470000D03*
%TD*%
D15*
%TO.C,C18*%
X85310000Y-67790000D03*
X80310000Y-67790000D03*
%TD*%
D10*
%TO.C,U8*%
X81200000Y-73430000D03*
D11*
X81200000Y-75970000D03*
X81200000Y-78510000D03*
X81200000Y-81050000D03*
X81200000Y-83590000D03*
X81200000Y-86130000D03*
X81200000Y-88670000D03*
X81200000Y-91210000D03*
X81200000Y-93750000D03*
X81200000Y-96290000D03*
X88820000Y-96290000D03*
X88820000Y-93750000D03*
X88820000Y-91210000D03*
X88820000Y-88670000D03*
X88820000Y-86130000D03*
X88820000Y-83590000D03*
X88820000Y-81050000D03*
X88820000Y-78510000D03*
X88820000Y-75970000D03*
X88820000Y-73430000D03*
%TD*%
D15*
%TO.C,C1*%
X89530000Y-69090000D03*
X94530000Y-69090000D03*
%TD*%
%TO.C,C8*%
X144910000Y-81320000D03*
X149910000Y-81320000D03*
%TD*%
%TO.C,R29*%
X194130000Y-95520000D03*
D16*
X201750000Y-95520000D03*
%TD*%
D15*
%TO.C,C15*%
X72436000Y-101404000D03*
X77436000Y-101404000D03*
%TD*%
%TO.C,C2*%
X112610000Y-57780000D03*
X117610000Y-57780000D03*
%TD*%
D10*
%TO.C,SW2*%
X108290000Y-42140000D03*
D11*
X108290000Y-44680000D03*
X108290000Y-47220000D03*
X108290000Y-49760000D03*
X108290000Y-52300000D03*
X115910000Y-52300000D03*
X115910000Y-49760000D03*
X115910000Y-47220000D03*
X115910000Y-44680000D03*
X115910000Y-42140000D03*
%TD*%
D15*
%TO.C,R4*%
X194130000Y-59070000D03*
D16*
X201750000Y-59070000D03*
%TD*%
D15*
%TO.C,R5*%
X194130000Y-63120000D03*
D16*
X201750000Y-63120000D03*
%TD*%
D15*
%TO.C,C5*%
X126538000Y-110006000D03*
X131538000Y-110006000D03*
%TD*%
D10*
%TO.C,U33*%
X79326700Y-105330000D03*
D11*
X79326700Y-107870000D03*
X79326700Y-110410000D03*
X79326700Y-112950000D03*
X79326700Y-115490000D03*
X79326700Y-118030000D03*
X79326700Y-120570000D03*
X79326700Y-123110000D03*
X79326700Y-125650000D03*
X79326700Y-128190000D03*
X86946700Y-128190000D03*
X86946700Y-125650000D03*
X86946700Y-123110000D03*
X86946700Y-120570000D03*
X86946700Y-118030000D03*
X86946700Y-115490000D03*
X86946700Y-112950000D03*
X86946700Y-110410000D03*
X86946700Y-107870000D03*
X86946700Y-105330000D03*
%TD*%
D15*
%TO.C,C9*%
X163200000Y-116550000D03*
X168200000Y-116550000D03*
%TD*%
%TO.C,C11*%
X157086000Y-82534000D03*
X162086000Y-82534000D03*
%TD*%
M02*
