%TF.GenerationSoftware,KiCad,Pcbnew,9.0.2*%
%TF.CreationDate,2026-03-22T10:42:30-05:00*%
%TF.ProjectId,video,76696465-6f2e-46b6-9963-61645f706362,V1.6*%
%TF.SameCoordinates,Original*%
%TF.FileFunction,Legend,Bot*%
%TF.FilePolarity,Positive*%
%FSLAX46Y46*%
G04 Gerber Fmt 4.6, Leading zero omitted, Abs format (unit mm)*
G04 Created by KiCad (PCBNEW 9.0.2) date 2026-03-22 10:42:30*
%MOMM*%
%LPD*%
G01*
G04 APERTURE LIST*
%ADD10C,0.150000*%
G04 APERTURE END LIST*
D10*
X98701904Y-53164819D02*
X98701904Y-53974342D01*
X98701904Y-53974342D02*
X98654285Y-54069580D01*
X98654285Y-54069580D02*
X98606666Y-54117200D01*
X98606666Y-54117200D02*
X98511428Y-54164819D01*
X98511428Y-54164819D02*
X98320952Y-54164819D01*
X98320952Y-54164819D02*
X98225714Y-54117200D01*
X98225714Y-54117200D02*
X98178095Y-54069580D01*
X98178095Y-54069580D02*
X98130476Y-53974342D01*
X98130476Y-53974342D02*
X98130476Y-53164819D01*
X97606666Y-54164819D02*
X97416190Y-54164819D01*
X97416190Y-54164819D02*
X97320952Y-54117200D01*
X97320952Y-54117200D02*
X97273333Y-54069580D01*
X97273333Y-54069580D02*
X97178095Y-53926723D01*
X97178095Y-53926723D02*
X97130476Y-53736247D01*
X97130476Y-53736247D02*
X97130476Y-53355295D01*
X97130476Y-53355295D02*
X97178095Y-53260057D01*
X97178095Y-53260057D02*
X97225714Y-53212438D01*
X97225714Y-53212438D02*
X97320952Y-53164819D01*
X97320952Y-53164819D02*
X97511428Y-53164819D01*
X97511428Y-53164819D02*
X97606666Y-53212438D01*
X97606666Y-53212438D02*
X97654285Y-53260057D01*
X97654285Y-53260057D02*
X97701904Y-53355295D01*
X97701904Y-53355295D02*
X97701904Y-53593390D01*
X97701904Y-53593390D02*
X97654285Y-53688628D01*
X97654285Y-53688628D02*
X97606666Y-53736247D01*
X97606666Y-53736247D02*
X97511428Y-53783866D01*
X97511428Y-53783866D02*
X97320952Y-53783866D01*
X97320952Y-53783866D02*
X97225714Y-53736247D01*
X97225714Y-53736247D02*
X97178095Y-53688628D01*
X97178095Y-53688628D02*
X97130476Y-53593390D01*
X43702082Y-129958580D02*
X43749701Y-130006200D01*
X43749701Y-130006200D02*
X43892558Y-130053819D01*
X43892558Y-130053819D02*
X43987796Y-130053819D01*
X43987796Y-130053819D02*
X44130653Y-130006200D01*
X44130653Y-130006200D02*
X44225891Y-129910961D01*
X44225891Y-129910961D02*
X44273510Y-129815723D01*
X44273510Y-129815723D02*
X44321129Y-129625247D01*
X44321129Y-129625247D02*
X44321129Y-129482390D01*
X44321129Y-129482390D02*
X44273510Y-129291914D01*
X44273510Y-129291914D02*
X44225891Y-129196676D01*
X44225891Y-129196676D02*
X44130653Y-129101438D01*
X44130653Y-129101438D02*
X43987796Y-129053819D01*
X43987796Y-129053819D02*
X43892558Y-129053819D01*
X43892558Y-129053819D02*
X43749701Y-129101438D01*
X43749701Y-129101438D02*
X43702082Y-129149057D01*
X42749701Y-130053819D02*
X43321129Y-130053819D01*
X43035415Y-130053819D02*
X43035415Y-129053819D01*
X43035415Y-129053819D02*
X43130653Y-129196676D01*
X43130653Y-129196676D02*
X43225891Y-129291914D01*
X43225891Y-129291914D02*
X43321129Y-129339533D01*
X41892558Y-129387152D02*
X41892558Y-130053819D01*
X42130653Y-129006200D02*
X42368748Y-129720485D01*
X42368748Y-129720485D02*
X41749701Y-129720485D01*
X150370666Y-110605580D02*
X150418285Y-110653200D01*
X150418285Y-110653200D02*
X150561142Y-110700819D01*
X150561142Y-110700819D02*
X150656380Y-110700819D01*
X150656380Y-110700819D02*
X150799237Y-110653200D01*
X150799237Y-110653200D02*
X150894475Y-110557961D01*
X150894475Y-110557961D02*
X150942094Y-110462723D01*
X150942094Y-110462723D02*
X150989713Y-110272247D01*
X150989713Y-110272247D02*
X150989713Y-110129390D01*
X150989713Y-110129390D02*
X150942094Y-109938914D01*
X150942094Y-109938914D02*
X150894475Y-109843676D01*
X150894475Y-109843676D02*
X150799237Y-109748438D01*
X150799237Y-109748438D02*
X150656380Y-109700819D01*
X150656380Y-109700819D02*
X150561142Y-109700819D01*
X150561142Y-109700819D02*
X150418285Y-109748438D01*
X150418285Y-109748438D02*
X150370666Y-109796057D01*
X149513523Y-110034152D02*
X149513523Y-110700819D01*
X149751618Y-109653200D02*
X149989713Y-110367485D01*
X149989713Y-110367485D02*
X149370666Y-110367485D01*
X198802857Y-67600819D02*
X199136190Y-67124628D01*
X199374285Y-67600819D02*
X199374285Y-66600819D01*
X199374285Y-66600819D02*
X198993333Y-66600819D01*
X198993333Y-66600819D02*
X198898095Y-66648438D01*
X198898095Y-66648438D02*
X198850476Y-66696057D01*
X198850476Y-66696057D02*
X198802857Y-66791295D01*
X198802857Y-66791295D02*
X198802857Y-66934152D01*
X198802857Y-66934152D02*
X198850476Y-67029390D01*
X198850476Y-67029390D02*
X198898095Y-67077009D01*
X198898095Y-67077009D02*
X198993333Y-67124628D01*
X198993333Y-67124628D02*
X199374285Y-67124628D01*
X198421904Y-66696057D02*
X198374285Y-66648438D01*
X198374285Y-66648438D02*
X198279047Y-66600819D01*
X198279047Y-66600819D02*
X198040952Y-66600819D01*
X198040952Y-66600819D02*
X197945714Y-66648438D01*
X197945714Y-66648438D02*
X197898095Y-66696057D01*
X197898095Y-66696057D02*
X197850476Y-66791295D01*
X197850476Y-66791295D02*
X197850476Y-66886533D01*
X197850476Y-66886533D02*
X197898095Y-67029390D01*
X197898095Y-67029390D02*
X198469523Y-67600819D01*
X198469523Y-67600819D02*
X197850476Y-67600819D01*
X197469523Y-66696057D02*
X197421904Y-66648438D01*
X197421904Y-66648438D02*
X197326666Y-66600819D01*
X197326666Y-66600819D02*
X197088571Y-66600819D01*
X197088571Y-66600819D02*
X196993333Y-66648438D01*
X196993333Y-66648438D02*
X196945714Y-66696057D01*
X196945714Y-66696057D02*
X196898095Y-66791295D01*
X196898095Y-66791295D02*
X196898095Y-66886533D01*
X196898095Y-66886533D02*
X196945714Y-67029390D01*
X196945714Y-67029390D02*
X197517142Y-67600819D01*
X197517142Y-67600819D02*
X196898095Y-67600819D01*
X68371394Y-116344819D02*
X68371394Y-117154342D01*
X68371394Y-117154342D02*
X68323775Y-117249580D01*
X68323775Y-117249580D02*
X68276156Y-117297200D01*
X68276156Y-117297200D02*
X68180918Y-117344819D01*
X68180918Y-117344819D02*
X67990442Y-117344819D01*
X67990442Y-117344819D02*
X67895204Y-117297200D01*
X67895204Y-117297200D02*
X67847585Y-117249580D01*
X67847585Y-117249580D02*
X67799966Y-117154342D01*
X67799966Y-117154342D02*
X67799966Y-116344819D01*
X67419013Y-116344819D02*
X66799966Y-116344819D01*
X66799966Y-116344819D02*
X67133299Y-116725771D01*
X67133299Y-116725771D02*
X66990442Y-116725771D01*
X66990442Y-116725771D02*
X66895204Y-116773390D01*
X66895204Y-116773390D02*
X66847585Y-116821009D01*
X66847585Y-116821009D02*
X66799966Y-116916247D01*
X66799966Y-116916247D02*
X66799966Y-117154342D01*
X66799966Y-117154342D02*
X66847585Y-117249580D01*
X66847585Y-117249580D02*
X66895204Y-117297200D01*
X66895204Y-117297200D02*
X66990442Y-117344819D01*
X66990442Y-117344819D02*
X67276156Y-117344819D01*
X67276156Y-117344819D02*
X67371394Y-117297200D01*
X67371394Y-117297200D02*
X67419013Y-117249580D01*
X66419013Y-116440057D02*
X66371394Y-116392438D01*
X66371394Y-116392438D02*
X66276156Y-116344819D01*
X66276156Y-116344819D02*
X66038061Y-116344819D01*
X66038061Y-116344819D02*
X65942823Y-116392438D01*
X65942823Y-116392438D02*
X65895204Y-116440057D01*
X65895204Y-116440057D02*
X65847585Y-116535295D01*
X65847585Y-116535295D02*
X65847585Y-116630533D01*
X65847585Y-116630533D02*
X65895204Y-116773390D01*
X65895204Y-116773390D02*
X66466632Y-117344819D01*
X66466632Y-117344819D02*
X65847585Y-117344819D01*
X198802857Y-71650819D02*
X199136190Y-71174628D01*
X199374285Y-71650819D02*
X199374285Y-70650819D01*
X199374285Y-70650819D02*
X198993333Y-70650819D01*
X198993333Y-70650819D02*
X198898095Y-70698438D01*
X198898095Y-70698438D02*
X198850476Y-70746057D01*
X198850476Y-70746057D02*
X198802857Y-70841295D01*
X198802857Y-70841295D02*
X198802857Y-70984152D01*
X198802857Y-70984152D02*
X198850476Y-71079390D01*
X198850476Y-71079390D02*
X198898095Y-71127009D01*
X198898095Y-71127009D02*
X198993333Y-71174628D01*
X198993333Y-71174628D02*
X199374285Y-71174628D01*
X198421904Y-70746057D02*
X198374285Y-70698438D01*
X198374285Y-70698438D02*
X198279047Y-70650819D01*
X198279047Y-70650819D02*
X198040952Y-70650819D01*
X198040952Y-70650819D02*
X197945714Y-70698438D01*
X197945714Y-70698438D02*
X197898095Y-70746057D01*
X197898095Y-70746057D02*
X197850476Y-70841295D01*
X197850476Y-70841295D02*
X197850476Y-70936533D01*
X197850476Y-70936533D02*
X197898095Y-71079390D01*
X197898095Y-71079390D02*
X198469523Y-71650819D01*
X198469523Y-71650819D02*
X197850476Y-71650819D01*
X197517142Y-70650819D02*
X196898095Y-70650819D01*
X196898095Y-70650819D02*
X197231428Y-71031771D01*
X197231428Y-71031771D02*
X197088571Y-71031771D01*
X197088571Y-71031771D02*
X196993333Y-71079390D01*
X196993333Y-71079390D02*
X196945714Y-71127009D01*
X196945714Y-71127009D02*
X196898095Y-71222247D01*
X196898095Y-71222247D02*
X196898095Y-71460342D01*
X196898095Y-71460342D02*
X196945714Y-71555580D01*
X196945714Y-71555580D02*
X196993333Y-71603200D01*
X196993333Y-71603200D02*
X197088571Y-71650819D01*
X197088571Y-71650819D02*
X197374285Y-71650819D01*
X197374285Y-71650819D02*
X197469523Y-71603200D01*
X197469523Y-71603200D02*
X197517142Y-71555580D01*
X110269180Y-66906666D02*
X110745371Y-67239999D01*
X110269180Y-67478094D02*
X111269180Y-67478094D01*
X111269180Y-67478094D02*
X111269180Y-67097142D01*
X111269180Y-67097142D02*
X111221561Y-67001904D01*
X111221561Y-67001904D02*
X111173942Y-66954285D01*
X111173942Y-66954285D02*
X111078704Y-66906666D01*
X111078704Y-66906666D02*
X110935847Y-66906666D01*
X110935847Y-66906666D02*
X110840609Y-66954285D01*
X110840609Y-66954285D02*
X110792990Y-67001904D01*
X110792990Y-67001904D02*
X110745371Y-67097142D01*
X110745371Y-67097142D02*
X110745371Y-67478094D01*
X110269180Y-65906666D02*
X110745371Y-66239999D01*
X110269180Y-66478094D02*
X111269180Y-66478094D01*
X111269180Y-66478094D02*
X111269180Y-66097142D01*
X111269180Y-66097142D02*
X111221561Y-66001904D01*
X111221561Y-66001904D02*
X111173942Y-65954285D01*
X111173942Y-65954285D02*
X111078704Y-65906666D01*
X111078704Y-65906666D02*
X110935847Y-65906666D01*
X110935847Y-65906666D02*
X110840609Y-65954285D01*
X110840609Y-65954285D02*
X110792990Y-66001904D01*
X110792990Y-66001904D02*
X110745371Y-66097142D01*
X110745371Y-66097142D02*
X110745371Y-66478094D01*
X110269180Y-64954285D02*
X110269180Y-65525713D01*
X110269180Y-65239999D02*
X111269180Y-65239999D01*
X111269180Y-65239999D02*
X111126323Y-65335237D01*
X111126323Y-65335237D02*
X111031085Y-65430475D01*
X111031085Y-65430475D02*
X110983466Y-65525713D01*
X166191904Y-98174819D02*
X166191904Y-98984342D01*
X166191904Y-98984342D02*
X166144285Y-99079580D01*
X166144285Y-99079580D02*
X166096666Y-99127200D01*
X166096666Y-99127200D02*
X166001428Y-99174819D01*
X166001428Y-99174819D02*
X165810952Y-99174819D01*
X165810952Y-99174819D02*
X165715714Y-99127200D01*
X165715714Y-99127200D02*
X165668095Y-99079580D01*
X165668095Y-99079580D02*
X165620476Y-98984342D01*
X165620476Y-98984342D02*
X165620476Y-98174819D01*
X164715714Y-98174819D02*
X164906190Y-98174819D01*
X164906190Y-98174819D02*
X165001428Y-98222438D01*
X165001428Y-98222438D02*
X165049047Y-98270057D01*
X165049047Y-98270057D02*
X165144285Y-98412914D01*
X165144285Y-98412914D02*
X165191904Y-98603390D01*
X165191904Y-98603390D02*
X165191904Y-98984342D01*
X165191904Y-98984342D02*
X165144285Y-99079580D01*
X165144285Y-99079580D02*
X165096666Y-99127200D01*
X165096666Y-99127200D02*
X165001428Y-99174819D01*
X165001428Y-99174819D02*
X164810952Y-99174819D01*
X164810952Y-99174819D02*
X164715714Y-99127200D01*
X164715714Y-99127200D02*
X164668095Y-99079580D01*
X164668095Y-99079580D02*
X164620476Y-98984342D01*
X164620476Y-98984342D02*
X164620476Y-98746247D01*
X164620476Y-98746247D02*
X164668095Y-98651009D01*
X164668095Y-98651009D02*
X164715714Y-98603390D01*
X164715714Y-98603390D02*
X164810952Y-98555771D01*
X164810952Y-98555771D02*
X165001428Y-98555771D01*
X165001428Y-98555771D02*
X165096666Y-98603390D01*
X165096666Y-98603390D02*
X165144285Y-98651009D01*
X165144285Y-98651009D02*
X165191904Y-98746247D01*
X186218094Y-112234819D02*
X186218094Y-113044342D01*
X186218094Y-113044342D02*
X186170475Y-113139580D01*
X186170475Y-113139580D02*
X186122856Y-113187200D01*
X186122856Y-113187200D02*
X186027618Y-113234819D01*
X186027618Y-113234819D02*
X185837142Y-113234819D01*
X185837142Y-113234819D02*
X185741904Y-113187200D01*
X185741904Y-113187200D02*
X185694285Y-113139580D01*
X185694285Y-113139580D02*
X185646666Y-113044342D01*
X185646666Y-113044342D02*
X185646666Y-112234819D01*
X184741904Y-112568152D02*
X184741904Y-113234819D01*
X184979999Y-112187200D02*
X185218094Y-112901485D01*
X185218094Y-112901485D02*
X184599047Y-112901485D01*
X184027618Y-112234819D02*
X183932380Y-112234819D01*
X183932380Y-112234819D02*
X183837142Y-112282438D01*
X183837142Y-112282438D02*
X183789523Y-112330057D01*
X183789523Y-112330057D02*
X183741904Y-112425295D01*
X183741904Y-112425295D02*
X183694285Y-112615771D01*
X183694285Y-112615771D02*
X183694285Y-112853866D01*
X183694285Y-112853866D02*
X183741904Y-113044342D01*
X183741904Y-113044342D02*
X183789523Y-113139580D01*
X183789523Y-113139580D02*
X183837142Y-113187200D01*
X183837142Y-113187200D02*
X183932380Y-113234819D01*
X183932380Y-113234819D02*
X184027618Y-113234819D01*
X184027618Y-113234819D02*
X184122856Y-113187200D01*
X184122856Y-113187200D02*
X184170475Y-113139580D01*
X184170475Y-113139580D02*
X184218094Y-113044342D01*
X184218094Y-113044342D02*
X184265713Y-112853866D01*
X184265713Y-112853866D02*
X184265713Y-112615771D01*
X184265713Y-112615771D02*
X184218094Y-112425295D01*
X184218094Y-112425295D02*
X184170475Y-112330057D01*
X184170475Y-112330057D02*
X184122856Y-112282438D01*
X184122856Y-112282438D02*
X184027618Y-112234819D01*
X169986666Y-72479580D02*
X170034285Y-72527200D01*
X170034285Y-72527200D02*
X170177142Y-72574819D01*
X170177142Y-72574819D02*
X170272380Y-72574819D01*
X170272380Y-72574819D02*
X170415237Y-72527200D01*
X170415237Y-72527200D02*
X170510475Y-72431961D01*
X170510475Y-72431961D02*
X170558094Y-72336723D01*
X170558094Y-72336723D02*
X170605713Y-72146247D01*
X170605713Y-72146247D02*
X170605713Y-72003390D01*
X170605713Y-72003390D02*
X170558094Y-71812914D01*
X170558094Y-71812914D02*
X170510475Y-71717676D01*
X170510475Y-71717676D02*
X170415237Y-71622438D01*
X170415237Y-71622438D02*
X170272380Y-71574819D01*
X170272380Y-71574819D02*
X170177142Y-71574819D01*
X170177142Y-71574819D02*
X170034285Y-71622438D01*
X170034285Y-71622438D02*
X169986666Y-71670057D01*
X169653332Y-71574819D02*
X169034285Y-71574819D01*
X169034285Y-71574819D02*
X169367618Y-71955771D01*
X169367618Y-71955771D02*
X169224761Y-71955771D01*
X169224761Y-71955771D02*
X169129523Y-72003390D01*
X169129523Y-72003390D02*
X169081904Y-72051009D01*
X169081904Y-72051009D02*
X169034285Y-72146247D01*
X169034285Y-72146247D02*
X169034285Y-72384342D01*
X169034285Y-72384342D02*
X169081904Y-72479580D01*
X169081904Y-72479580D02*
X169129523Y-72527200D01*
X169129523Y-72527200D02*
X169224761Y-72574819D01*
X169224761Y-72574819D02*
X169510475Y-72574819D01*
X169510475Y-72574819D02*
X169605713Y-72527200D01*
X169605713Y-72527200D02*
X169653332Y-72479580D01*
X204340819Y-76589476D02*
X205055104Y-76589476D01*
X205055104Y-76589476D02*
X205197961Y-76541857D01*
X205197961Y-76541857D02*
X205293200Y-76446619D01*
X205293200Y-76446619D02*
X205340819Y-76303762D01*
X205340819Y-76303762D02*
X205340819Y-76208524D01*
X205340819Y-77589476D02*
X205340819Y-77018048D01*
X205340819Y-77303762D02*
X204340819Y-77303762D01*
X204340819Y-77303762D02*
X204483676Y-77208524D01*
X204483676Y-77208524D02*
X204578914Y-77113286D01*
X204578914Y-77113286D02*
X204626533Y-77018048D01*
X205340819Y-78541857D02*
X205340819Y-77970429D01*
X205340819Y-78256143D02*
X204340819Y-78256143D01*
X204340819Y-78256143D02*
X204483676Y-78160905D01*
X204483676Y-78160905D02*
X204578914Y-78065667D01*
X204578914Y-78065667D02*
X204626533Y-77970429D01*
X99901904Y-116144819D02*
X99901904Y-116954342D01*
X99901904Y-116954342D02*
X99854285Y-117049580D01*
X99854285Y-117049580D02*
X99806666Y-117097200D01*
X99806666Y-117097200D02*
X99711428Y-117144819D01*
X99711428Y-117144819D02*
X99520952Y-117144819D01*
X99520952Y-117144819D02*
X99425714Y-117097200D01*
X99425714Y-117097200D02*
X99378095Y-117049580D01*
X99378095Y-117049580D02*
X99330476Y-116954342D01*
X99330476Y-116954342D02*
X99330476Y-116144819D01*
X98425714Y-116478152D02*
X98425714Y-117144819D01*
X98663809Y-116097200D02*
X98901904Y-116811485D01*
X98901904Y-116811485D02*
X98282857Y-116811485D01*
X152646666Y-42629580D02*
X152694285Y-42677200D01*
X152694285Y-42677200D02*
X152837142Y-42724819D01*
X152837142Y-42724819D02*
X152932380Y-42724819D01*
X152932380Y-42724819D02*
X153075237Y-42677200D01*
X153075237Y-42677200D02*
X153170475Y-42581961D01*
X153170475Y-42581961D02*
X153218094Y-42486723D01*
X153218094Y-42486723D02*
X153265713Y-42296247D01*
X153265713Y-42296247D02*
X153265713Y-42153390D01*
X153265713Y-42153390D02*
X153218094Y-41962914D01*
X153218094Y-41962914D02*
X153170475Y-41867676D01*
X153170475Y-41867676D02*
X153075237Y-41772438D01*
X153075237Y-41772438D02*
X152932380Y-41724819D01*
X152932380Y-41724819D02*
X152837142Y-41724819D01*
X152837142Y-41724819D02*
X152694285Y-41772438D01*
X152694285Y-41772438D02*
X152646666Y-41820057D01*
X152313332Y-41724819D02*
X151646666Y-41724819D01*
X151646666Y-41724819D02*
X152075237Y-42724819D01*
X150447333Y-134074819D02*
X150447333Y-134789104D01*
X150447333Y-134789104D02*
X150494952Y-134931961D01*
X150494952Y-134931961D02*
X150590190Y-135027200D01*
X150590190Y-135027200D02*
X150733047Y-135074819D01*
X150733047Y-135074819D02*
X150828285Y-135074819D01*
X149542571Y-134074819D02*
X149733047Y-134074819D01*
X149733047Y-134074819D02*
X149828285Y-134122438D01*
X149828285Y-134122438D02*
X149875904Y-134170057D01*
X149875904Y-134170057D02*
X149971142Y-134312914D01*
X149971142Y-134312914D02*
X150018761Y-134503390D01*
X150018761Y-134503390D02*
X150018761Y-134884342D01*
X150018761Y-134884342D02*
X149971142Y-134979580D01*
X149971142Y-134979580D02*
X149923523Y-135027200D01*
X149923523Y-135027200D02*
X149828285Y-135074819D01*
X149828285Y-135074819D02*
X149637809Y-135074819D01*
X149637809Y-135074819D02*
X149542571Y-135027200D01*
X149542571Y-135027200D02*
X149494952Y-134979580D01*
X149494952Y-134979580D02*
X149447333Y-134884342D01*
X149447333Y-134884342D02*
X149447333Y-134646247D01*
X149447333Y-134646247D02*
X149494952Y-134551009D01*
X149494952Y-134551009D02*
X149542571Y-134503390D01*
X149542571Y-134503390D02*
X149637809Y-134455771D01*
X149637809Y-134455771D02*
X149828285Y-134455771D01*
X149828285Y-134455771D02*
X149923523Y-134503390D01*
X149923523Y-134503390D02*
X149971142Y-134551009D01*
X149971142Y-134551009D02*
X150018761Y-134646247D01*
X44592857Y-100629580D02*
X44640476Y-100677200D01*
X44640476Y-100677200D02*
X44783333Y-100724819D01*
X44783333Y-100724819D02*
X44878571Y-100724819D01*
X44878571Y-100724819D02*
X45021428Y-100677200D01*
X45021428Y-100677200D02*
X45116666Y-100581961D01*
X45116666Y-100581961D02*
X45164285Y-100486723D01*
X45164285Y-100486723D02*
X45211904Y-100296247D01*
X45211904Y-100296247D02*
X45211904Y-100153390D01*
X45211904Y-100153390D02*
X45164285Y-99962914D01*
X45164285Y-99962914D02*
X45116666Y-99867676D01*
X45116666Y-99867676D02*
X45021428Y-99772438D01*
X45021428Y-99772438D02*
X44878571Y-99724819D01*
X44878571Y-99724819D02*
X44783333Y-99724819D01*
X44783333Y-99724819D02*
X44640476Y-99772438D01*
X44640476Y-99772438D02*
X44592857Y-99820057D01*
X43640476Y-100724819D02*
X44211904Y-100724819D01*
X43926190Y-100724819D02*
X43926190Y-99724819D01*
X43926190Y-99724819D02*
X44021428Y-99867676D01*
X44021428Y-99867676D02*
X44116666Y-99962914D01*
X44116666Y-99962914D02*
X44211904Y-100010533D01*
X43307142Y-99724819D02*
X42640476Y-99724819D01*
X42640476Y-99724819D02*
X43069047Y-100724819D01*
X152891904Y-94374819D02*
X152891904Y-95184342D01*
X152891904Y-95184342D02*
X152844285Y-95279580D01*
X152844285Y-95279580D02*
X152796666Y-95327200D01*
X152796666Y-95327200D02*
X152701428Y-95374819D01*
X152701428Y-95374819D02*
X152510952Y-95374819D01*
X152510952Y-95374819D02*
X152415714Y-95327200D01*
X152415714Y-95327200D02*
X152368095Y-95279580D01*
X152368095Y-95279580D02*
X152320476Y-95184342D01*
X152320476Y-95184342D02*
X152320476Y-94374819D01*
X151891904Y-94470057D02*
X151844285Y-94422438D01*
X151844285Y-94422438D02*
X151749047Y-94374819D01*
X151749047Y-94374819D02*
X151510952Y-94374819D01*
X151510952Y-94374819D02*
X151415714Y-94422438D01*
X151415714Y-94422438D02*
X151368095Y-94470057D01*
X151368095Y-94470057D02*
X151320476Y-94565295D01*
X151320476Y-94565295D02*
X151320476Y-94660533D01*
X151320476Y-94660533D02*
X151368095Y-94803390D01*
X151368095Y-94803390D02*
X151939523Y-95374819D01*
X151939523Y-95374819D02*
X151320476Y-95374819D01*
X198802857Y-83800819D02*
X199136190Y-83324628D01*
X199374285Y-83800819D02*
X199374285Y-82800819D01*
X199374285Y-82800819D02*
X198993333Y-82800819D01*
X198993333Y-82800819D02*
X198898095Y-82848438D01*
X198898095Y-82848438D02*
X198850476Y-82896057D01*
X198850476Y-82896057D02*
X198802857Y-82991295D01*
X198802857Y-82991295D02*
X198802857Y-83134152D01*
X198802857Y-83134152D02*
X198850476Y-83229390D01*
X198850476Y-83229390D02*
X198898095Y-83277009D01*
X198898095Y-83277009D02*
X198993333Y-83324628D01*
X198993333Y-83324628D02*
X199374285Y-83324628D01*
X198421904Y-82896057D02*
X198374285Y-82848438D01*
X198374285Y-82848438D02*
X198279047Y-82800819D01*
X198279047Y-82800819D02*
X198040952Y-82800819D01*
X198040952Y-82800819D02*
X197945714Y-82848438D01*
X197945714Y-82848438D02*
X197898095Y-82896057D01*
X197898095Y-82896057D02*
X197850476Y-82991295D01*
X197850476Y-82991295D02*
X197850476Y-83086533D01*
X197850476Y-83086533D02*
X197898095Y-83229390D01*
X197898095Y-83229390D02*
X198469523Y-83800819D01*
X198469523Y-83800819D02*
X197850476Y-83800819D01*
X196993333Y-82800819D02*
X197183809Y-82800819D01*
X197183809Y-82800819D02*
X197279047Y-82848438D01*
X197279047Y-82848438D02*
X197326666Y-82896057D01*
X197326666Y-82896057D02*
X197421904Y-83038914D01*
X197421904Y-83038914D02*
X197469523Y-83229390D01*
X197469523Y-83229390D02*
X197469523Y-83610342D01*
X197469523Y-83610342D02*
X197421904Y-83705580D01*
X197421904Y-83705580D02*
X197374285Y-83753200D01*
X197374285Y-83753200D02*
X197279047Y-83800819D01*
X197279047Y-83800819D02*
X197088571Y-83800819D01*
X197088571Y-83800819D02*
X196993333Y-83753200D01*
X196993333Y-83753200D02*
X196945714Y-83705580D01*
X196945714Y-83705580D02*
X196898095Y-83610342D01*
X196898095Y-83610342D02*
X196898095Y-83372247D01*
X196898095Y-83372247D02*
X196945714Y-83277009D01*
X196945714Y-83277009D02*
X196993333Y-83229390D01*
X196993333Y-83229390D02*
X197088571Y-83181771D01*
X197088571Y-83181771D02*
X197279047Y-83181771D01*
X197279047Y-83181771D02*
X197374285Y-83229390D01*
X197374285Y-83229390D02*
X197421904Y-83277009D01*
X197421904Y-83277009D02*
X197469523Y-83372247D01*
X198802857Y-87850819D02*
X199136190Y-87374628D01*
X199374285Y-87850819D02*
X199374285Y-86850819D01*
X199374285Y-86850819D02*
X198993333Y-86850819D01*
X198993333Y-86850819D02*
X198898095Y-86898438D01*
X198898095Y-86898438D02*
X198850476Y-86946057D01*
X198850476Y-86946057D02*
X198802857Y-87041295D01*
X198802857Y-87041295D02*
X198802857Y-87184152D01*
X198802857Y-87184152D02*
X198850476Y-87279390D01*
X198850476Y-87279390D02*
X198898095Y-87327009D01*
X198898095Y-87327009D02*
X198993333Y-87374628D01*
X198993333Y-87374628D02*
X199374285Y-87374628D01*
X198421904Y-86946057D02*
X198374285Y-86898438D01*
X198374285Y-86898438D02*
X198279047Y-86850819D01*
X198279047Y-86850819D02*
X198040952Y-86850819D01*
X198040952Y-86850819D02*
X197945714Y-86898438D01*
X197945714Y-86898438D02*
X197898095Y-86946057D01*
X197898095Y-86946057D02*
X197850476Y-87041295D01*
X197850476Y-87041295D02*
X197850476Y-87136533D01*
X197850476Y-87136533D02*
X197898095Y-87279390D01*
X197898095Y-87279390D02*
X198469523Y-87850819D01*
X198469523Y-87850819D02*
X197850476Y-87850819D01*
X197517142Y-86850819D02*
X196850476Y-86850819D01*
X196850476Y-86850819D02*
X197279047Y-87850819D01*
X198802857Y-79750819D02*
X199136190Y-79274628D01*
X199374285Y-79750819D02*
X199374285Y-78750819D01*
X199374285Y-78750819D02*
X198993333Y-78750819D01*
X198993333Y-78750819D02*
X198898095Y-78798438D01*
X198898095Y-78798438D02*
X198850476Y-78846057D01*
X198850476Y-78846057D02*
X198802857Y-78941295D01*
X198802857Y-78941295D02*
X198802857Y-79084152D01*
X198802857Y-79084152D02*
X198850476Y-79179390D01*
X198850476Y-79179390D02*
X198898095Y-79227009D01*
X198898095Y-79227009D02*
X198993333Y-79274628D01*
X198993333Y-79274628D02*
X199374285Y-79274628D01*
X198421904Y-78846057D02*
X198374285Y-78798438D01*
X198374285Y-78798438D02*
X198279047Y-78750819D01*
X198279047Y-78750819D02*
X198040952Y-78750819D01*
X198040952Y-78750819D02*
X197945714Y-78798438D01*
X197945714Y-78798438D02*
X197898095Y-78846057D01*
X197898095Y-78846057D02*
X197850476Y-78941295D01*
X197850476Y-78941295D02*
X197850476Y-79036533D01*
X197850476Y-79036533D02*
X197898095Y-79179390D01*
X197898095Y-79179390D02*
X198469523Y-79750819D01*
X198469523Y-79750819D02*
X197850476Y-79750819D01*
X196945714Y-78750819D02*
X197421904Y-78750819D01*
X197421904Y-78750819D02*
X197469523Y-79227009D01*
X197469523Y-79227009D02*
X197421904Y-79179390D01*
X197421904Y-79179390D02*
X197326666Y-79131771D01*
X197326666Y-79131771D02*
X197088571Y-79131771D01*
X197088571Y-79131771D02*
X196993333Y-79179390D01*
X196993333Y-79179390D02*
X196945714Y-79227009D01*
X196945714Y-79227009D02*
X196898095Y-79322247D01*
X196898095Y-79322247D02*
X196898095Y-79560342D01*
X196898095Y-79560342D02*
X196945714Y-79655580D01*
X196945714Y-79655580D02*
X196993333Y-79703200D01*
X196993333Y-79703200D02*
X197088571Y-79750819D01*
X197088571Y-79750819D02*
X197326666Y-79750819D01*
X197326666Y-79750819D02*
X197421904Y-79703200D01*
X197421904Y-79703200D02*
X197469523Y-79655580D01*
X52368094Y-116774819D02*
X52368094Y-117584342D01*
X52368094Y-117584342D02*
X52320475Y-117679580D01*
X52320475Y-117679580D02*
X52272856Y-117727200D01*
X52272856Y-117727200D02*
X52177618Y-117774819D01*
X52177618Y-117774819D02*
X51987142Y-117774819D01*
X51987142Y-117774819D02*
X51891904Y-117727200D01*
X51891904Y-117727200D02*
X51844285Y-117679580D01*
X51844285Y-117679580D02*
X51796666Y-117584342D01*
X51796666Y-117584342D02*
X51796666Y-116774819D01*
X51415713Y-116774819D02*
X50796666Y-116774819D01*
X50796666Y-116774819D02*
X51129999Y-117155771D01*
X51129999Y-117155771D02*
X50987142Y-117155771D01*
X50987142Y-117155771D02*
X50891904Y-117203390D01*
X50891904Y-117203390D02*
X50844285Y-117251009D01*
X50844285Y-117251009D02*
X50796666Y-117346247D01*
X50796666Y-117346247D02*
X50796666Y-117584342D01*
X50796666Y-117584342D02*
X50844285Y-117679580D01*
X50844285Y-117679580D02*
X50891904Y-117727200D01*
X50891904Y-117727200D02*
X50987142Y-117774819D01*
X50987142Y-117774819D02*
X51272856Y-117774819D01*
X51272856Y-117774819D02*
X51368094Y-117727200D01*
X51368094Y-117727200D02*
X51415713Y-117679580D01*
X49939523Y-117108152D02*
X49939523Y-117774819D01*
X50177618Y-116727200D02*
X50415713Y-117441485D01*
X50415713Y-117441485D02*
X49796666Y-117441485D01*
X100061904Y-84384819D02*
X100061904Y-85194342D01*
X100061904Y-85194342D02*
X100014285Y-85289580D01*
X100014285Y-85289580D02*
X99966666Y-85337200D01*
X99966666Y-85337200D02*
X99871428Y-85384819D01*
X99871428Y-85384819D02*
X99680952Y-85384819D01*
X99680952Y-85384819D02*
X99585714Y-85337200D01*
X99585714Y-85337200D02*
X99538095Y-85289580D01*
X99538095Y-85289580D02*
X99490476Y-85194342D01*
X99490476Y-85194342D02*
X99490476Y-84384819D01*
X98538095Y-84384819D02*
X99014285Y-84384819D01*
X99014285Y-84384819D02*
X99061904Y-84861009D01*
X99061904Y-84861009D02*
X99014285Y-84813390D01*
X99014285Y-84813390D02*
X98919047Y-84765771D01*
X98919047Y-84765771D02*
X98680952Y-84765771D01*
X98680952Y-84765771D02*
X98585714Y-84813390D01*
X98585714Y-84813390D02*
X98538095Y-84861009D01*
X98538095Y-84861009D02*
X98490476Y-84956247D01*
X98490476Y-84956247D02*
X98490476Y-85194342D01*
X98490476Y-85194342D02*
X98538095Y-85289580D01*
X98538095Y-85289580D02*
X98585714Y-85337200D01*
X98585714Y-85337200D02*
X98680952Y-85384819D01*
X98680952Y-85384819D02*
X98919047Y-85384819D01*
X98919047Y-85384819D02*
X99014285Y-85337200D01*
X99014285Y-85337200D02*
X99061904Y-85289580D01*
X91452857Y-101689580D02*
X91500476Y-101737200D01*
X91500476Y-101737200D02*
X91643333Y-101784819D01*
X91643333Y-101784819D02*
X91738571Y-101784819D01*
X91738571Y-101784819D02*
X91881428Y-101737200D01*
X91881428Y-101737200D02*
X91976666Y-101641961D01*
X91976666Y-101641961D02*
X92024285Y-101546723D01*
X92024285Y-101546723D02*
X92071904Y-101356247D01*
X92071904Y-101356247D02*
X92071904Y-101213390D01*
X92071904Y-101213390D02*
X92024285Y-101022914D01*
X92024285Y-101022914D02*
X91976666Y-100927676D01*
X91976666Y-100927676D02*
X91881428Y-100832438D01*
X91881428Y-100832438D02*
X91738571Y-100784819D01*
X91738571Y-100784819D02*
X91643333Y-100784819D01*
X91643333Y-100784819D02*
X91500476Y-100832438D01*
X91500476Y-100832438D02*
X91452857Y-100880057D01*
X90500476Y-101784819D02*
X91071904Y-101784819D01*
X90786190Y-101784819D02*
X90786190Y-100784819D01*
X90786190Y-100784819D02*
X90881428Y-100927676D01*
X90881428Y-100927676D02*
X90976666Y-101022914D01*
X90976666Y-101022914D02*
X91071904Y-101070533D01*
X89881428Y-100784819D02*
X89786190Y-100784819D01*
X89786190Y-100784819D02*
X89690952Y-100832438D01*
X89690952Y-100832438D02*
X89643333Y-100880057D01*
X89643333Y-100880057D02*
X89595714Y-100975295D01*
X89595714Y-100975295D02*
X89548095Y-101165771D01*
X89548095Y-101165771D02*
X89548095Y-101403866D01*
X89548095Y-101403866D02*
X89595714Y-101594342D01*
X89595714Y-101594342D02*
X89643333Y-101689580D01*
X89643333Y-101689580D02*
X89690952Y-101737200D01*
X89690952Y-101737200D02*
X89786190Y-101784819D01*
X89786190Y-101784819D02*
X89881428Y-101784819D01*
X89881428Y-101784819D02*
X89976666Y-101737200D01*
X89976666Y-101737200D02*
X90024285Y-101689580D01*
X90024285Y-101689580D02*
X90071904Y-101594342D01*
X90071904Y-101594342D02*
X90119523Y-101403866D01*
X90119523Y-101403866D02*
X90119523Y-101165771D01*
X90119523Y-101165771D02*
X90071904Y-100975295D01*
X90071904Y-100975295D02*
X90024285Y-100880057D01*
X90024285Y-100880057D02*
X89976666Y-100832438D01*
X89976666Y-100832438D02*
X89881428Y-100784819D01*
X197932857Y-130069580D02*
X197980476Y-130117200D01*
X197980476Y-130117200D02*
X198123333Y-130164819D01*
X198123333Y-130164819D02*
X198218571Y-130164819D01*
X198218571Y-130164819D02*
X198361428Y-130117200D01*
X198361428Y-130117200D02*
X198456666Y-130021961D01*
X198456666Y-130021961D02*
X198504285Y-129926723D01*
X198504285Y-129926723D02*
X198551904Y-129736247D01*
X198551904Y-129736247D02*
X198551904Y-129593390D01*
X198551904Y-129593390D02*
X198504285Y-129402914D01*
X198504285Y-129402914D02*
X198456666Y-129307676D01*
X198456666Y-129307676D02*
X198361428Y-129212438D01*
X198361428Y-129212438D02*
X198218571Y-129164819D01*
X198218571Y-129164819D02*
X198123333Y-129164819D01*
X198123333Y-129164819D02*
X197980476Y-129212438D01*
X197980476Y-129212438D02*
X197932857Y-129260057D01*
X196980476Y-130164819D02*
X197551904Y-130164819D01*
X197266190Y-130164819D02*
X197266190Y-129164819D01*
X197266190Y-129164819D02*
X197361428Y-129307676D01*
X197361428Y-129307676D02*
X197456666Y-129402914D01*
X197456666Y-129402914D02*
X197551904Y-129450533D01*
X196599523Y-129260057D02*
X196551904Y-129212438D01*
X196551904Y-129212438D02*
X196456666Y-129164819D01*
X196456666Y-129164819D02*
X196218571Y-129164819D01*
X196218571Y-129164819D02*
X196123333Y-129212438D01*
X196123333Y-129212438D02*
X196075714Y-129260057D01*
X196075714Y-129260057D02*
X196028095Y-129355295D01*
X196028095Y-129355295D02*
X196028095Y-129450533D01*
X196028095Y-129450533D02*
X196075714Y-129593390D01*
X196075714Y-129593390D02*
X196647142Y-130164819D01*
X196647142Y-130164819D02*
X196028095Y-130164819D01*
X198802857Y-75700819D02*
X199136190Y-75224628D01*
X199374285Y-75700819D02*
X199374285Y-74700819D01*
X199374285Y-74700819D02*
X198993333Y-74700819D01*
X198993333Y-74700819D02*
X198898095Y-74748438D01*
X198898095Y-74748438D02*
X198850476Y-74796057D01*
X198850476Y-74796057D02*
X198802857Y-74891295D01*
X198802857Y-74891295D02*
X198802857Y-75034152D01*
X198802857Y-75034152D02*
X198850476Y-75129390D01*
X198850476Y-75129390D02*
X198898095Y-75177009D01*
X198898095Y-75177009D02*
X198993333Y-75224628D01*
X198993333Y-75224628D02*
X199374285Y-75224628D01*
X198421904Y-74796057D02*
X198374285Y-74748438D01*
X198374285Y-74748438D02*
X198279047Y-74700819D01*
X198279047Y-74700819D02*
X198040952Y-74700819D01*
X198040952Y-74700819D02*
X197945714Y-74748438D01*
X197945714Y-74748438D02*
X197898095Y-74796057D01*
X197898095Y-74796057D02*
X197850476Y-74891295D01*
X197850476Y-74891295D02*
X197850476Y-74986533D01*
X197850476Y-74986533D02*
X197898095Y-75129390D01*
X197898095Y-75129390D02*
X198469523Y-75700819D01*
X198469523Y-75700819D02*
X197850476Y-75700819D01*
X196993333Y-75034152D02*
X196993333Y-75700819D01*
X197231428Y-74653200D02*
X197469523Y-75367485D01*
X197469523Y-75367485D02*
X196850476Y-75367485D01*
X198802857Y-100000819D02*
X199136190Y-99524628D01*
X199374285Y-100000819D02*
X199374285Y-99000819D01*
X199374285Y-99000819D02*
X198993333Y-99000819D01*
X198993333Y-99000819D02*
X198898095Y-99048438D01*
X198898095Y-99048438D02*
X198850476Y-99096057D01*
X198850476Y-99096057D02*
X198802857Y-99191295D01*
X198802857Y-99191295D02*
X198802857Y-99334152D01*
X198802857Y-99334152D02*
X198850476Y-99429390D01*
X198850476Y-99429390D02*
X198898095Y-99477009D01*
X198898095Y-99477009D02*
X198993333Y-99524628D01*
X198993333Y-99524628D02*
X199374285Y-99524628D01*
X198469523Y-99000819D02*
X197850476Y-99000819D01*
X197850476Y-99000819D02*
X198183809Y-99381771D01*
X198183809Y-99381771D02*
X198040952Y-99381771D01*
X198040952Y-99381771D02*
X197945714Y-99429390D01*
X197945714Y-99429390D02*
X197898095Y-99477009D01*
X197898095Y-99477009D02*
X197850476Y-99572247D01*
X197850476Y-99572247D02*
X197850476Y-99810342D01*
X197850476Y-99810342D02*
X197898095Y-99905580D01*
X197898095Y-99905580D02*
X197945714Y-99953200D01*
X197945714Y-99953200D02*
X198040952Y-100000819D01*
X198040952Y-100000819D02*
X198326666Y-100000819D01*
X198326666Y-100000819D02*
X198421904Y-99953200D01*
X198421904Y-99953200D02*
X198469523Y-99905580D01*
X196898095Y-100000819D02*
X197469523Y-100000819D01*
X197183809Y-100000819D02*
X197183809Y-99000819D01*
X197183809Y-99000819D02*
X197279047Y-99143676D01*
X197279047Y-99143676D02*
X197374285Y-99238914D01*
X197374285Y-99238914D02*
X197469523Y-99286533D01*
X140478094Y-98724819D02*
X140478094Y-99534342D01*
X140478094Y-99534342D02*
X140430475Y-99629580D01*
X140430475Y-99629580D02*
X140382856Y-99677200D01*
X140382856Y-99677200D02*
X140287618Y-99724819D01*
X140287618Y-99724819D02*
X140097142Y-99724819D01*
X140097142Y-99724819D02*
X140001904Y-99677200D01*
X140001904Y-99677200D02*
X139954285Y-99629580D01*
X139954285Y-99629580D02*
X139906666Y-99534342D01*
X139906666Y-99534342D02*
X139906666Y-98724819D01*
X138906666Y-99724819D02*
X139478094Y-99724819D01*
X139192380Y-99724819D02*
X139192380Y-98724819D01*
X139192380Y-98724819D02*
X139287618Y-98867676D01*
X139287618Y-98867676D02*
X139382856Y-98962914D01*
X139382856Y-98962914D02*
X139478094Y-99010533D01*
X138335237Y-99153390D02*
X138430475Y-99105771D01*
X138430475Y-99105771D02*
X138478094Y-99058152D01*
X138478094Y-99058152D02*
X138525713Y-98962914D01*
X138525713Y-98962914D02*
X138525713Y-98915295D01*
X138525713Y-98915295D02*
X138478094Y-98820057D01*
X138478094Y-98820057D02*
X138430475Y-98772438D01*
X138430475Y-98772438D02*
X138335237Y-98724819D01*
X138335237Y-98724819D02*
X138144761Y-98724819D01*
X138144761Y-98724819D02*
X138049523Y-98772438D01*
X138049523Y-98772438D02*
X138001904Y-98820057D01*
X138001904Y-98820057D02*
X137954285Y-98915295D01*
X137954285Y-98915295D02*
X137954285Y-98962914D01*
X137954285Y-98962914D02*
X138001904Y-99058152D01*
X138001904Y-99058152D02*
X138049523Y-99105771D01*
X138049523Y-99105771D02*
X138144761Y-99153390D01*
X138144761Y-99153390D02*
X138335237Y-99153390D01*
X138335237Y-99153390D02*
X138430475Y-99201009D01*
X138430475Y-99201009D02*
X138478094Y-99248628D01*
X138478094Y-99248628D02*
X138525713Y-99343866D01*
X138525713Y-99343866D02*
X138525713Y-99534342D01*
X138525713Y-99534342D02*
X138478094Y-99629580D01*
X138478094Y-99629580D02*
X138430475Y-99677200D01*
X138430475Y-99677200D02*
X138335237Y-99724819D01*
X138335237Y-99724819D02*
X138144761Y-99724819D01*
X138144761Y-99724819D02*
X138049523Y-99677200D01*
X138049523Y-99677200D02*
X138001904Y-99629580D01*
X138001904Y-99629580D02*
X137954285Y-99534342D01*
X137954285Y-99534342D02*
X137954285Y-99343866D01*
X137954285Y-99343866D02*
X138001904Y-99248628D01*
X138001904Y-99248628D02*
X138049523Y-99201009D01*
X138049523Y-99201009D02*
X138144761Y-99153390D01*
X173646666Y-129829580D02*
X173694285Y-129877200D01*
X173694285Y-129877200D02*
X173837142Y-129924819D01*
X173837142Y-129924819D02*
X173932380Y-129924819D01*
X173932380Y-129924819D02*
X174075237Y-129877200D01*
X174075237Y-129877200D02*
X174170475Y-129781961D01*
X174170475Y-129781961D02*
X174218094Y-129686723D01*
X174218094Y-129686723D02*
X174265713Y-129496247D01*
X174265713Y-129496247D02*
X174265713Y-129353390D01*
X174265713Y-129353390D02*
X174218094Y-129162914D01*
X174218094Y-129162914D02*
X174170475Y-129067676D01*
X174170475Y-129067676D02*
X174075237Y-128972438D01*
X174075237Y-128972438D02*
X173932380Y-128924819D01*
X173932380Y-128924819D02*
X173837142Y-128924819D01*
X173837142Y-128924819D02*
X173694285Y-128972438D01*
X173694285Y-128972438D02*
X173646666Y-129020057D01*
X172789523Y-128924819D02*
X172979999Y-128924819D01*
X172979999Y-128924819D02*
X173075237Y-128972438D01*
X173075237Y-128972438D02*
X173122856Y-129020057D01*
X173122856Y-129020057D02*
X173218094Y-129162914D01*
X173218094Y-129162914D02*
X173265713Y-129353390D01*
X173265713Y-129353390D02*
X173265713Y-129734342D01*
X173265713Y-129734342D02*
X173218094Y-129829580D01*
X173218094Y-129829580D02*
X173170475Y-129877200D01*
X173170475Y-129877200D02*
X173075237Y-129924819D01*
X173075237Y-129924819D02*
X172884761Y-129924819D01*
X172884761Y-129924819D02*
X172789523Y-129877200D01*
X172789523Y-129877200D02*
X172741904Y-129829580D01*
X172741904Y-129829580D02*
X172694285Y-129734342D01*
X172694285Y-129734342D02*
X172694285Y-129496247D01*
X172694285Y-129496247D02*
X172741904Y-129401009D01*
X172741904Y-129401009D02*
X172789523Y-129353390D01*
X172789523Y-129353390D02*
X172884761Y-129305771D01*
X172884761Y-129305771D02*
X173075237Y-129305771D01*
X173075237Y-129305771D02*
X173170475Y-129353390D01*
X173170475Y-129353390D02*
X173218094Y-129401009D01*
X173218094Y-129401009D02*
X173265713Y-129496247D01*
X59272857Y-101969580D02*
X59320476Y-102017200D01*
X59320476Y-102017200D02*
X59463333Y-102064819D01*
X59463333Y-102064819D02*
X59558571Y-102064819D01*
X59558571Y-102064819D02*
X59701428Y-102017200D01*
X59701428Y-102017200D02*
X59796666Y-101921961D01*
X59796666Y-101921961D02*
X59844285Y-101826723D01*
X59844285Y-101826723D02*
X59891904Y-101636247D01*
X59891904Y-101636247D02*
X59891904Y-101493390D01*
X59891904Y-101493390D02*
X59844285Y-101302914D01*
X59844285Y-101302914D02*
X59796666Y-101207676D01*
X59796666Y-101207676D02*
X59701428Y-101112438D01*
X59701428Y-101112438D02*
X59558571Y-101064819D01*
X59558571Y-101064819D02*
X59463333Y-101064819D01*
X59463333Y-101064819D02*
X59320476Y-101112438D01*
X59320476Y-101112438D02*
X59272857Y-101160057D01*
X58320476Y-102064819D02*
X58891904Y-102064819D01*
X58606190Y-102064819D02*
X58606190Y-101064819D01*
X58606190Y-101064819D02*
X58701428Y-101207676D01*
X58701428Y-101207676D02*
X58796666Y-101302914D01*
X58796666Y-101302914D02*
X58891904Y-101350533D01*
X57463333Y-101064819D02*
X57653809Y-101064819D01*
X57653809Y-101064819D02*
X57749047Y-101112438D01*
X57749047Y-101112438D02*
X57796666Y-101160057D01*
X57796666Y-101160057D02*
X57891904Y-101302914D01*
X57891904Y-101302914D02*
X57939523Y-101493390D01*
X57939523Y-101493390D02*
X57939523Y-101874342D01*
X57939523Y-101874342D02*
X57891904Y-101969580D01*
X57891904Y-101969580D02*
X57844285Y-102017200D01*
X57844285Y-102017200D02*
X57749047Y-102064819D01*
X57749047Y-102064819D02*
X57558571Y-102064819D01*
X57558571Y-102064819D02*
X57463333Y-102017200D01*
X57463333Y-102017200D02*
X57415714Y-101969580D01*
X57415714Y-101969580D02*
X57368095Y-101874342D01*
X57368095Y-101874342D02*
X57368095Y-101636247D01*
X57368095Y-101636247D02*
X57415714Y-101541009D01*
X57415714Y-101541009D02*
X57463333Y-101493390D01*
X57463333Y-101493390D02*
X57558571Y-101445771D01*
X57558571Y-101445771D02*
X57749047Y-101445771D01*
X57749047Y-101445771D02*
X57844285Y-101493390D01*
X57844285Y-101493390D02*
X57891904Y-101541009D01*
X57891904Y-101541009D02*
X57939523Y-101636247D01*
X207031082Y-129393580D02*
X207078701Y-129441200D01*
X207078701Y-129441200D02*
X207221558Y-129488819D01*
X207221558Y-129488819D02*
X207316796Y-129488819D01*
X207316796Y-129488819D02*
X207459653Y-129441200D01*
X207459653Y-129441200D02*
X207554891Y-129345961D01*
X207554891Y-129345961D02*
X207602510Y-129250723D01*
X207602510Y-129250723D02*
X207650129Y-129060247D01*
X207650129Y-129060247D02*
X207650129Y-128917390D01*
X207650129Y-128917390D02*
X207602510Y-128726914D01*
X207602510Y-128726914D02*
X207554891Y-128631676D01*
X207554891Y-128631676D02*
X207459653Y-128536438D01*
X207459653Y-128536438D02*
X207316796Y-128488819D01*
X207316796Y-128488819D02*
X207221558Y-128488819D01*
X207221558Y-128488819D02*
X207078701Y-128536438D01*
X207078701Y-128536438D02*
X207031082Y-128584057D01*
X206078701Y-129488819D02*
X206650129Y-129488819D01*
X206364415Y-129488819D02*
X206364415Y-128488819D01*
X206364415Y-128488819D02*
X206459653Y-128631676D01*
X206459653Y-128631676D02*
X206554891Y-128726914D01*
X206554891Y-128726914D02*
X206650129Y-128774533D01*
X205745367Y-128488819D02*
X205126320Y-128488819D01*
X205126320Y-128488819D02*
X205459653Y-128869771D01*
X205459653Y-128869771D02*
X205316796Y-128869771D01*
X205316796Y-128869771D02*
X205221558Y-128917390D01*
X205221558Y-128917390D02*
X205173939Y-128965009D01*
X205173939Y-128965009D02*
X205126320Y-129060247D01*
X205126320Y-129060247D02*
X205126320Y-129298342D01*
X205126320Y-129298342D02*
X205173939Y-129393580D01*
X205173939Y-129393580D02*
X205221558Y-129441200D01*
X205221558Y-129441200D02*
X205316796Y-129488819D01*
X205316796Y-129488819D02*
X205602510Y-129488819D01*
X205602510Y-129488819D02*
X205697748Y-129441200D01*
X205697748Y-129441200D02*
X205745367Y-129393580D01*
X198802857Y-91900819D02*
X199136190Y-91424628D01*
X199374285Y-91900819D02*
X199374285Y-90900819D01*
X199374285Y-90900819D02*
X198993333Y-90900819D01*
X198993333Y-90900819D02*
X198898095Y-90948438D01*
X198898095Y-90948438D02*
X198850476Y-90996057D01*
X198850476Y-90996057D02*
X198802857Y-91091295D01*
X198802857Y-91091295D02*
X198802857Y-91234152D01*
X198802857Y-91234152D02*
X198850476Y-91329390D01*
X198850476Y-91329390D02*
X198898095Y-91377009D01*
X198898095Y-91377009D02*
X198993333Y-91424628D01*
X198993333Y-91424628D02*
X199374285Y-91424628D01*
X198421904Y-90996057D02*
X198374285Y-90948438D01*
X198374285Y-90948438D02*
X198279047Y-90900819D01*
X198279047Y-90900819D02*
X198040952Y-90900819D01*
X198040952Y-90900819D02*
X197945714Y-90948438D01*
X197945714Y-90948438D02*
X197898095Y-90996057D01*
X197898095Y-90996057D02*
X197850476Y-91091295D01*
X197850476Y-91091295D02*
X197850476Y-91186533D01*
X197850476Y-91186533D02*
X197898095Y-91329390D01*
X197898095Y-91329390D02*
X198469523Y-91900819D01*
X198469523Y-91900819D02*
X197850476Y-91900819D01*
X197279047Y-91329390D02*
X197374285Y-91281771D01*
X197374285Y-91281771D02*
X197421904Y-91234152D01*
X197421904Y-91234152D02*
X197469523Y-91138914D01*
X197469523Y-91138914D02*
X197469523Y-91091295D01*
X197469523Y-91091295D02*
X197421904Y-90996057D01*
X197421904Y-90996057D02*
X197374285Y-90948438D01*
X197374285Y-90948438D02*
X197279047Y-90900819D01*
X197279047Y-90900819D02*
X197088571Y-90900819D01*
X197088571Y-90900819D02*
X196993333Y-90948438D01*
X196993333Y-90948438D02*
X196945714Y-90996057D01*
X196945714Y-90996057D02*
X196898095Y-91091295D01*
X196898095Y-91091295D02*
X196898095Y-91138914D01*
X196898095Y-91138914D02*
X196945714Y-91234152D01*
X196945714Y-91234152D02*
X196993333Y-91281771D01*
X196993333Y-91281771D02*
X197088571Y-91329390D01*
X197088571Y-91329390D02*
X197279047Y-91329390D01*
X197279047Y-91329390D02*
X197374285Y-91377009D01*
X197374285Y-91377009D02*
X197421904Y-91424628D01*
X197421904Y-91424628D02*
X197469523Y-91519866D01*
X197469523Y-91519866D02*
X197469523Y-91710342D01*
X197469523Y-91710342D02*
X197421904Y-91805580D01*
X197421904Y-91805580D02*
X197374285Y-91853200D01*
X197374285Y-91853200D02*
X197279047Y-91900819D01*
X197279047Y-91900819D02*
X197088571Y-91900819D01*
X197088571Y-91900819D02*
X196993333Y-91853200D01*
X196993333Y-91853200D02*
X196945714Y-91805580D01*
X196945714Y-91805580D02*
X196898095Y-91710342D01*
X196898095Y-91710342D02*
X196898095Y-91519866D01*
X196898095Y-91519866D02*
X196945714Y-91424628D01*
X196945714Y-91424628D02*
X196993333Y-91377009D01*
X196993333Y-91377009D02*
X197088571Y-91329390D01*
X83712857Y-67919580D02*
X83760476Y-67967200D01*
X83760476Y-67967200D02*
X83903333Y-68014819D01*
X83903333Y-68014819D02*
X83998571Y-68014819D01*
X83998571Y-68014819D02*
X84141428Y-67967200D01*
X84141428Y-67967200D02*
X84236666Y-67871961D01*
X84236666Y-67871961D02*
X84284285Y-67776723D01*
X84284285Y-67776723D02*
X84331904Y-67586247D01*
X84331904Y-67586247D02*
X84331904Y-67443390D01*
X84331904Y-67443390D02*
X84284285Y-67252914D01*
X84284285Y-67252914D02*
X84236666Y-67157676D01*
X84236666Y-67157676D02*
X84141428Y-67062438D01*
X84141428Y-67062438D02*
X83998571Y-67014819D01*
X83998571Y-67014819D02*
X83903333Y-67014819D01*
X83903333Y-67014819D02*
X83760476Y-67062438D01*
X83760476Y-67062438D02*
X83712857Y-67110057D01*
X82760476Y-68014819D02*
X83331904Y-68014819D01*
X83046190Y-68014819D02*
X83046190Y-67014819D01*
X83046190Y-67014819D02*
X83141428Y-67157676D01*
X83141428Y-67157676D02*
X83236666Y-67252914D01*
X83236666Y-67252914D02*
X83331904Y-67300533D01*
X82189047Y-67443390D02*
X82284285Y-67395771D01*
X82284285Y-67395771D02*
X82331904Y-67348152D01*
X82331904Y-67348152D02*
X82379523Y-67252914D01*
X82379523Y-67252914D02*
X82379523Y-67205295D01*
X82379523Y-67205295D02*
X82331904Y-67110057D01*
X82331904Y-67110057D02*
X82284285Y-67062438D01*
X82284285Y-67062438D02*
X82189047Y-67014819D01*
X82189047Y-67014819D02*
X81998571Y-67014819D01*
X81998571Y-67014819D02*
X81903333Y-67062438D01*
X81903333Y-67062438D02*
X81855714Y-67110057D01*
X81855714Y-67110057D02*
X81808095Y-67205295D01*
X81808095Y-67205295D02*
X81808095Y-67252914D01*
X81808095Y-67252914D02*
X81855714Y-67348152D01*
X81855714Y-67348152D02*
X81903333Y-67395771D01*
X81903333Y-67395771D02*
X81998571Y-67443390D01*
X81998571Y-67443390D02*
X82189047Y-67443390D01*
X82189047Y-67443390D02*
X82284285Y-67491009D01*
X82284285Y-67491009D02*
X82331904Y-67538628D01*
X82331904Y-67538628D02*
X82379523Y-67633866D01*
X82379523Y-67633866D02*
X82379523Y-67824342D01*
X82379523Y-67824342D02*
X82331904Y-67919580D01*
X82331904Y-67919580D02*
X82284285Y-67967200D01*
X82284285Y-67967200D02*
X82189047Y-68014819D01*
X82189047Y-68014819D02*
X81998571Y-68014819D01*
X81998571Y-68014819D02*
X81903333Y-67967200D01*
X81903333Y-67967200D02*
X81855714Y-67919580D01*
X81855714Y-67919580D02*
X81808095Y-67824342D01*
X81808095Y-67824342D02*
X81808095Y-67633866D01*
X81808095Y-67633866D02*
X81855714Y-67538628D01*
X81855714Y-67538628D02*
X81903333Y-67491009D01*
X81903333Y-67491009D02*
X81998571Y-67443390D01*
X85771904Y-84314819D02*
X85771904Y-85124342D01*
X85771904Y-85124342D02*
X85724285Y-85219580D01*
X85724285Y-85219580D02*
X85676666Y-85267200D01*
X85676666Y-85267200D02*
X85581428Y-85314819D01*
X85581428Y-85314819D02*
X85390952Y-85314819D01*
X85390952Y-85314819D02*
X85295714Y-85267200D01*
X85295714Y-85267200D02*
X85248095Y-85219580D01*
X85248095Y-85219580D02*
X85200476Y-85124342D01*
X85200476Y-85124342D02*
X85200476Y-84314819D01*
X84581428Y-84743390D02*
X84676666Y-84695771D01*
X84676666Y-84695771D02*
X84724285Y-84648152D01*
X84724285Y-84648152D02*
X84771904Y-84552914D01*
X84771904Y-84552914D02*
X84771904Y-84505295D01*
X84771904Y-84505295D02*
X84724285Y-84410057D01*
X84724285Y-84410057D02*
X84676666Y-84362438D01*
X84676666Y-84362438D02*
X84581428Y-84314819D01*
X84581428Y-84314819D02*
X84390952Y-84314819D01*
X84390952Y-84314819D02*
X84295714Y-84362438D01*
X84295714Y-84362438D02*
X84248095Y-84410057D01*
X84248095Y-84410057D02*
X84200476Y-84505295D01*
X84200476Y-84505295D02*
X84200476Y-84552914D01*
X84200476Y-84552914D02*
X84248095Y-84648152D01*
X84248095Y-84648152D02*
X84295714Y-84695771D01*
X84295714Y-84695771D02*
X84390952Y-84743390D01*
X84390952Y-84743390D02*
X84581428Y-84743390D01*
X84581428Y-84743390D02*
X84676666Y-84791009D01*
X84676666Y-84791009D02*
X84724285Y-84838628D01*
X84724285Y-84838628D02*
X84771904Y-84933866D01*
X84771904Y-84933866D02*
X84771904Y-85124342D01*
X84771904Y-85124342D02*
X84724285Y-85219580D01*
X84724285Y-85219580D02*
X84676666Y-85267200D01*
X84676666Y-85267200D02*
X84581428Y-85314819D01*
X84581428Y-85314819D02*
X84390952Y-85314819D01*
X84390952Y-85314819D02*
X84295714Y-85267200D01*
X84295714Y-85267200D02*
X84248095Y-85219580D01*
X84248095Y-85219580D02*
X84200476Y-85124342D01*
X84200476Y-85124342D02*
X84200476Y-84933866D01*
X84200476Y-84933866D02*
X84248095Y-84838628D01*
X84248095Y-84838628D02*
X84295714Y-84791009D01*
X84295714Y-84791009D02*
X84390952Y-84743390D01*
X91936666Y-69679580D02*
X91984285Y-69727200D01*
X91984285Y-69727200D02*
X92127142Y-69774819D01*
X92127142Y-69774819D02*
X92222380Y-69774819D01*
X92222380Y-69774819D02*
X92365237Y-69727200D01*
X92365237Y-69727200D02*
X92460475Y-69631961D01*
X92460475Y-69631961D02*
X92508094Y-69536723D01*
X92508094Y-69536723D02*
X92555713Y-69346247D01*
X92555713Y-69346247D02*
X92555713Y-69203390D01*
X92555713Y-69203390D02*
X92508094Y-69012914D01*
X92508094Y-69012914D02*
X92460475Y-68917676D01*
X92460475Y-68917676D02*
X92365237Y-68822438D01*
X92365237Y-68822438D02*
X92222380Y-68774819D01*
X92222380Y-68774819D02*
X92127142Y-68774819D01*
X92127142Y-68774819D02*
X91984285Y-68822438D01*
X91984285Y-68822438D02*
X91936666Y-68870057D01*
X90984285Y-69774819D02*
X91555713Y-69774819D01*
X91269999Y-69774819D02*
X91269999Y-68774819D01*
X91269999Y-68774819D02*
X91365237Y-68917676D01*
X91365237Y-68917676D02*
X91460475Y-69012914D01*
X91460475Y-69012914D02*
X91555713Y-69060533D01*
X147316666Y-81909580D02*
X147364285Y-81957200D01*
X147364285Y-81957200D02*
X147507142Y-82004819D01*
X147507142Y-82004819D02*
X147602380Y-82004819D01*
X147602380Y-82004819D02*
X147745237Y-81957200D01*
X147745237Y-81957200D02*
X147840475Y-81861961D01*
X147840475Y-81861961D02*
X147888094Y-81766723D01*
X147888094Y-81766723D02*
X147935713Y-81576247D01*
X147935713Y-81576247D02*
X147935713Y-81433390D01*
X147935713Y-81433390D02*
X147888094Y-81242914D01*
X147888094Y-81242914D02*
X147840475Y-81147676D01*
X147840475Y-81147676D02*
X147745237Y-81052438D01*
X147745237Y-81052438D02*
X147602380Y-81004819D01*
X147602380Y-81004819D02*
X147507142Y-81004819D01*
X147507142Y-81004819D02*
X147364285Y-81052438D01*
X147364285Y-81052438D02*
X147316666Y-81100057D01*
X146745237Y-81433390D02*
X146840475Y-81385771D01*
X146840475Y-81385771D02*
X146888094Y-81338152D01*
X146888094Y-81338152D02*
X146935713Y-81242914D01*
X146935713Y-81242914D02*
X146935713Y-81195295D01*
X146935713Y-81195295D02*
X146888094Y-81100057D01*
X146888094Y-81100057D02*
X146840475Y-81052438D01*
X146840475Y-81052438D02*
X146745237Y-81004819D01*
X146745237Y-81004819D02*
X146554761Y-81004819D01*
X146554761Y-81004819D02*
X146459523Y-81052438D01*
X146459523Y-81052438D02*
X146411904Y-81100057D01*
X146411904Y-81100057D02*
X146364285Y-81195295D01*
X146364285Y-81195295D02*
X146364285Y-81242914D01*
X146364285Y-81242914D02*
X146411904Y-81338152D01*
X146411904Y-81338152D02*
X146459523Y-81385771D01*
X146459523Y-81385771D02*
X146554761Y-81433390D01*
X146554761Y-81433390D02*
X146745237Y-81433390D01*
X146745237Y-81433390D02*
X146840475Y-81481009D01*
X146840475Y-81481009D02*
X146888094Y-81528628D01*
X146888094Y-81528628D02*
X146935713Y-81623866D01*
X146935713Y-81623866D02*
X146935713Y-81814342D01*
X146935713Y-81814342D02*
X146888094Y-81909580D01*
X146888094Y-81909580D02*
X146840475Y-81957200D01*
X146840475Y-81957200D02*
X146745237Y-82004819D01*
X146745237Y-82004819D02*
X146554761Y-82004819D01*
X146554761Y-82004819D02*
X146459523Y-81957200D01*
X146459523Y-81957200D02*
X146411904Y-81909580D01*
X146411904Y-81909580D02*
X146364285Y-81814342D01*
X146364285Y-81814342D02*
X146364285Y-81623866D01*
X146364285Y-81623866D02*
X146411904Y-81528628D01*
X146411904Y-81528628D02*
X146459523Y-81481009D01*
X146459523Y-81481009D02*
X146554761Y-81433390D01*
X198802857Y-95950819D02*
X199136190Y-95474628D01*
X199374285Y-95950819D02*
X199374285Y-94950819D01*
X199374285Y-94950819D02*
X198993333Y-94950819D01*
X198993333Y-94950819D02*
X198898095Y-94998438D01*
X198898095Y-94998438D02*
X198850476Y-95046057D01*
X198850476Y-95046057D02*
X198802857Y-95141295D01*
X198802857Y-95141295D02*
X198802857Y-95284152D01*
X198802857Y-95284152D02*
X198850476Y-95379390D01*
X198850476Y-95379390D02*
X198898095Y-95427009D01*
X198898095Y-95427009D02*
X198993333Y-95474628D01*
X198993333Y-95474628D02*
X199374285Y-95474628D01*
X198421904Y-95046057D02*
X198374285Y-94998438D01*
X198374285Y-94998438D02*
X198279047Y-94950819D01*
X198279047Y-94950819D02*
X198040952Y-94950819D01*
X198040952Y-94950819D02*
X197945714Y-94998438D01*
X197945714Y-94998438D02*
X197898095Y-95046057D01*
X197898095Y-95046057D02*
X197850476Y-95141295D01*
X197850476Y-95141295D02*
X197850476Y-95236533D01*
X197850476Y-95236533D02*
X197898095Y-95379390D01*
X197898095Y-95379390D02*
X198469523Y-95950819D01*
X198469523Y-95950819D02*
X197850476Y-95950819D01*
X197374285Y-95950819D02*
X197183809Y-95950819D01*
X197183809Y-95950819D02*
X197088571Y-95903200D01*
X197088571Y-95903200D02*
X197040952Y-95855580D01*
X197040952Y-95855580D02*
X196945714Y-95712723D01*
X196945714Y-95712723D02*
X196898095Y-95522247D01*
X196898095Y-95522247D02*
X196898095Y-95141295D01*
X196898095Y-95141295D02*
X196945714Y-95046057D01*
X196945714Y-95046057D02*
X196993333Y-94998438D01*
X196993333Y-94998438D02*
X197088571Y-94950819D01*
X197088571Y-94950819D02*
X197279047Y-94950819D01*
X197279047Y-94950819D02*
X197374285Y-94998438D01*
X197374285Y-94998438D02*
X197421904Y-95046057D01*
X197421904Y-95046057D02*
X197469523Y-95141295D01*
X197469523Y-95141295D02*
X197469523Y-95379390D01*
X197469523Y-95379390D02*
X197421904Y-95474628D01*
X197421904Y-95474628D02*
X197374285Y-95522247D01*
X197374285Y-95522247D02*
X197279047Y-95569866D01*
X197279047Y-95569866D02*
X197088571Y-95569866D01*
X197088571Y-95569866D02*
X196993333Y-95522247D01*
X196993333Y-95522247D02*
X196945714Y-95474628D01*
X196945714Y-95474628D02*
X196898095Y-95379390D01*
X75318857Y-101993580D02*
X75366476Y-102041200D01*
X75366476Y-102041200D02*
X75509333Y-102088819D01*
X75509333Y-102088819D02*
X75604571Y-102088819D01*
X75604571Y-102088819D02*
X75747428Y-102041200D01*
X75747428Y-102041200D02*
X75842666Y-101945961D01*
X75842666Y-101945961D02*
X75890285Y-101850723D01*
X75890285Y-101850723D02*
X75937904Y-101660247D01*
X75937904Y-101660247D02*
X75937904Y-101517390D01*
X75937904Y-101517390D02*
X75890285Y-101326914D01*
X75890285Y-101326914D02*
X75842666Y-101231676D01*
X75842666Y-101231676D02*
X75747428Y-101136438D01*
X75747428Y-101136438D02*
X75604571Y-101088819D01*
X75604571Y-101088819D02*
X75509333Y-101088819D01*
X75509333Y-101088819D02*
X75366476Y-101136438D01*
X75366476Y-101136438D02*
X75318857Y-101184057D01*
X74366476Y-102088819D02*
X74937904Y-102088819D01*
X74652190Y-102088819D02*
X74652190Y-101088819D01*
X74652190Y-101088819D02*
X74747428Y-101231676D01*
X74747428Y-101231676D02*
X74842666Y-101326914D01*
X74842666Y-101326914D02*
X74937904Y-101374533D01*
X73461714Y-101088819D02*
X73937904Y-101088819D01*
X73937904Y-101088819D02*
X73985523Y-101565009D01*
X73985523Y-101565009D02*
X73937904Y-101517390D01*
X73937904Y-101517390D02*
X73842666Y-101469771D01*
X73842666Y-101469771D02*
X73604571Y-101469771D01*
X73604571Y-101469771D02*
X73509333Y-101517390D01*
X73509333Y-101517390D02*
X73461714Y-101565009D01*
X73461714Y-101565009D02*
X73414095Y-101660247D01*
X73414095Y-101660247D02*
X73414095Y-101898342D01*
X73414095Y-101898342D02*
X73461714Y-101993580D01*
X73461714Y-101993580D02*
X73509333Y-102041200D01*
X73509333Y-102041200D02*
X73604571Y-102088819D01*
X73604571Y-102088819D02*
X73842666Y-102088819D01*
X73842666Y-102088819D02*
X73937904Y-102041200D01*
X73937904Y-102041200D02*
X73985523Y-101993580D01*
X115016666Y-58369580D02*
X115064285Y-58417200D01*
X115064285Y-58417200D02*
X115207142Y-58464819D01*
X115207142Y-58464819D02*
X115302380Y-58464819D01*
X115302380Y-58464819D02*
X115445237Y-58417200D01*
X115445237Y-58417200D02*
X115540475Y-58321961D01*
X115540475Y-58321961D02*
X115588094Y-58226723D01*
X115588094Y-58226723D02*
X115635713Y-58036247D01*
X115635713Y-58036247D02*
X115635713Y-57893390D01*
X115635713Y-57893390D02*
X115588094Y-57702914D01*
X115588094Y-57702914D02*
X115540475Y-57607676D01*
X115540475Y-57607676D02*
X115445237Y-57512438D01*
X115445237Y-57512438D02*
X115302380Y-57464819D01*
X115302380Y-57464819D02*
X115207142Y-57464819D01*
X115207142Y-57464819D02*
X115064285Y-57512438D01*
X115064285Y-57512438D02*
X115016666Y-57560057D01*
X114635713Y-57560057D02*
X114588094Y-57512438D01*
X114588094Y-57512438D02*
X114492856Y-57464819D01*
X114492856Y-57464819D02*
X114254761Y-57464819D01*
X114254761Y-57464819D02*
X114159523Y-57512438D01*
X114159523Y-57512438D02*
X114111904Y-57560057D01*
X114111904Y-57560057D02*
X114064285Y-57655295D01*
X114064285Y-57655295D02*
X114064285Y-57750533D01*
X114064285Y-57750533D02*
X114111904Y-57893390D01*
X114111904Y-57893390D02*
X114683332Y-58464819D01*
X114683332Y-58464819D02*
X114064285Y-58464819D01*
X113433332Y-47627200D02*
X113290475Y-47674819D01*
X113290475Y-47674819D02*
X113052380Y-47674819D01*
X113052380Y-47674819D02*
X112957142Y-47627200D01*
X112957142Y-47627200D02*
X112909523Y-47579580D01*
X112909523Y-47579580D02*
X112861904Y-47484342D01*
X112861904Y-47484342D02*
X112861904Y-47389104D01*
X112861904Y-47389104D02*
X112909523Y-47293866D01*
X112909523Y-47293866D02*
X112957142Y-47246247D01*
X112957142Y-47246247D02*
X113052380Y-47198628D01*
X113052380Y-47198628D02*
X113242856Y-47151009D01*
X113242856Y-47151009D02*
X113338094Y-47103390D01*
X113338094Y-47103390D02*
X113385713Y-47055771D01*
X113385713Y-47055771D02*
X113433332Y-46960533D01*
X113433332Y-46960533D02*
X113433332Y-46865295D01*
X113433332Y-46865295D02*
X113385713Y-46770057D01*
X113385713Y-46770057D02*
X113338094Y-46722438D01*
X113338094Y-46722438D02*
X113242856Y-46674819D01*
X113242856Y-46674819D02*
X113004761Y-46674819D01*
X113004761Y-46674819D02*
X112861904Y-46722438D01*
X112528570Y-46674819D02*
X112290475Y-47674819D01*
X112290475Y-47674819D02*
X112099999Y-46960533D01*
X112099999Y-46960533D02*
X111909523Y-47674819D01*
X111909523Y-47674819D02*
X111671428Y-46674819D01*
X111338094Y-46770057D02*
X111290475Y-46722438D01*
X111290475Y-46722438D02*
X111195237Y-46674819D01*
X111195237Y-46674819D02*
X110957142Y-46674819D01*
X110957142Y-46674819D02*
X110861904Y-46722438D01*
X110861904Y-46722438D02*
X110814285Y-46770057D01*
X110814285Y-46770057D02*
X110766666Y-46865295D01*
X110766666Y-46865295D02*
X110766666Y-46960533D01*
X110766666Y-46960533D02*
X110814285Y-47103390D01*
X110814285Y-47103390D02*
X111385713Y-47674819D01*
X111385713Y-47674819D02*
X110766666Y-47674819D01*
X198326666Y-59500819D02*
X198659999Y-59024628D01*
X198898094Y-59500819D02*
X198898094Y-58500819D01*
X198898094Y-58500819D02*
X198517142Y-58500819D01*
X198517142Y-58500819D02*
X198421904Y-58548438D01*
X198421904Y-58548438D02*
X198374285Y-58596057D01*
X198374285Y-58596057D02*
X198326666Y-58691295D01*
X198326666Y-58691295D02*
X198326666Y-58834152D01*
X198326666Y-58834152D02*
X198374285Y-58929390D01*
X198374285Y-58929390D02*
X198421904Y-58977009D01*
X198421904Y-58977009D02*
X198517142Y-59024628D01*
X198517142Y-59024628D02*
X198898094Y-59024628D01*
X197469523Y-58834152D02*
X197469523Y-59500819D01*
X197707618Y-58453200D02*
X197945713Y-59167485D01*
X197945713Y-59167485D02*
X197326666Y-59167485D01*
X198326666Y-63550819D02*
X198659999Y-63074628D01*
X198898094Y-63550819D02*
X198898094Y-62550819D01*
X198898094Y-62550819D02*
X198517142Y-62550819D01*
X198517142Y-62550819D02*
X198421904Y-62598438D01*
X198421904Y-62598438D02*
X198374285Y-62646057D01*
X198374285Y-62646057D02*
X198326666Y-62741295D01*
X198326666Y-62741295D02*
X198326666Y-62884152D01*
X198326666Y-62884152D02*
X198374285Y-62979390D01*
X198374285Y-62979390D02*
X198421904Y-63027009D01*
X198421904Y-63027009D02*
X198517142Y-63074628D01*
X198517142Y-63074628D02*
X198898094Y-63074628D01*
X197421904Y-62550819D02*
X197898094Y-62550819D01*
X197898094Y-62550819D02*
X197945713Y-63027009D01*
X197945713Y-63027009D02*
X197898094Y-62979390D01*
X197898094Y-62979390D02*
X197802856Y-62931771D01*
X197802856Y-62931771D02*
X197564761Y-62931771D01*
X197564761Y-62931771D02*
X197469523Y-62979390D01*
X197469523Y-62979390D02*
X197421904Y-63027009D01*
X197421904Y-63027009D02*
X197374285Y-63122247D01*
X197374285Y-63122247D02*
X197374285Y-63360342D01*
X197374285Y-63360342D02*
X197421904Y-63455580D01*
X197421904Y-63455580D02*
X197469523Y-63503200D01*
X197469523Y-63503200D02*
X197564761Y-63550819D01*
X197564761Y-63550819D02*
X197802856Y-63550819D01*
X197802856Y-63550819D02*
X197898094Y-63503200D01*
X197898094Y-63503200D02*
X197945713Y-63455580D01*
X128944666Y-110595580D02*
X128992285Y-110643200D01*
X128992285Y-110643200D02*
X129135142Y-110690819D01*
X129135142Y-110690819D02*
X129230380Y-110690819D01*
X129230380Y-110690819D02*
X129373237Y-110643200D01*
X129373237Y-110643200D02*
X129468475Y-110547961D01*
X129468475Y-110547961D02*
X129516094Y-110452723D01*
X129516094Y-110452723D02*
X129563713Y-110262247D01*
X129563713Y-110262247D02*
X129563713Y-110119390D01*
X129563713Y-110119390D02*
X129516094Y-109928914D01*
X129516094Y-109928914D02*
X129468475Y-109833676D01*
X129468475Y-109833676D02*
X129373237Y-109738438D01*
X129373237Y-109738438D02*
X129230380Y-109690819D01*
X129230380Y-109690819D02*
X129135142Y-109690819D01*
X129135142Y-109690819D02*
X128992285Y-109738438D01*
X128992285Y-109738438D02*
X128944666Y-109786057D01*
X128039904Y-109690819D02*
X128516094Y-109690819D01*
X128516094Y-109690819D02*
X128563713Y-110167009D01*
X128563713Y-110167009D02*
X128516094Y-110119390D01*
X128516094Y-110119390D02*
X128420856Y-110071771D01*
X128420856Y-110071771D02*
X128182761Y-110071771D01*
X128182761Y-110071771D02*
X128087523Y-110119390D01*
X128087523Y-110119390D02*
X128039904Y-110167009D01*
X128039904Y-110167009D02*
X127992285Y-110262247D01*
X127992285Y-110262247D02*
X127992285Y-110500342D01*
X127992285Y-110500342D02*
X128039904Y-110595580D01*
X128039904Y-110595580D02*
X128087523Y-110643200D01*
X128087523Y-110643200D02*
X128182761Y-110690819D01*
X128182761Y-110690819D02*
X128420856Y-110690819D01*
X128420856Y-110690819D02*
X128516094Y-110643200D01*
X128516094Y-110643200D02*
X128563713Y-110595580D01*
X84374794Y-116214819D02*
X84374794Y-117024342D01*
X84374794Y-117024342D02*
X84327175Y-117119580D01*
X84327175Y-117119580D02*
X84279556Y-117167200D01*
X84279556Y-117167200D02*
X84184318Y-117214819D01*
X84184318Y-117214819D02*
X83993842Y-117214819D01*
X83993842Y-117214819D02*
X83898604Y-117167200D01*
X83898604Y-117167200D02*
X83850985Y-117119580D01*
X83850985Y-117119580D02*
X83803366Y-117024342D01*
X83803366Y-117024342D02*
X83803366Y-116214819D01*
X83422413Y-116214819D02*
X82803366Y-116214819D01*
X82803366Y-116214819D02*
X83136699Y-116595771D01*
X83136699Y-116595771D02*
X82993842Y-116595771D01*
X82993842Y-116595771D02*
X82898604Y-116643390D01*
X82898604Y-116643390D02*
X82850985Y-116691009D01*
X82850985Y-116691009D02*
X82803366Y-116786247D01*
X82803366Y-116786247D02*
X82803366Y-117024342D01*
X82803366Y-117024342D02*
X82850985Y-117119580D01*
X82850985Y-117119580D02*
X82898604Y-117167200D01*
X82898604Y-117167200D02*
X82993842Y-117214819D01*
X82993842Y-117214819D02*
X83279556Y-117214819D01*
X83279556Y-117214819D02*
X83374794Y-117167200D01*
X83374794Y-117167200D02*
X83422413Y-117119580D01*
X82470032Y-116214819D02*
X81850985Y-116214819D01*
X81850985Y-116214819D02*
X82184318Y-116595771D01*
X82184318Y-116595771D02*
X82041461Y-116595771D01*
X82041461Y-116595771D02*
X81946223Y-116643390D01*
X81946223Y-116643390D02*
X81898604Y-116691009D01*
X81898604Y-116691009D02*
X81850985Y-116786247D01*
X81850985Y-116786247D02*
X81850985Y-117024342D01*
X81850985Y-117024342D02*
X81898604Y-117119580D01*
X81898604Y-117119580D02*
X81946223Y-117167200D01*
X81946223Y-117167200D02*
X82041461Y-117214819D01*
X82041461Y-117214819D02*
X82327175Y-117214819D01*
X82327175Y-117214819D02*
X82422413Y-117167200D01*
X82422413Y-117167200D02*
X82470032Y-117119580D01*
X165606666Y-117139580D02*
X165654285Y-117187200D01*
X165654285Y-117187200D02*
X165797142Y-117234819D01*
X165797142Y-117234819D02*
X165892380Y-117234819D01*
X165892380Y-117234819D02*
X166035237Y-117187200D01*
X166035237Y-117187200D02*
X166130475Y-117091961D01*
X166130475Y-117091961D02*
X166178094Y-116996723D01*
X166178094Y-116996723D02*
X166225713Y-116806247D01*
X166225713Y-116806247D02*
X166225713Y-116663390D01*
X166225713Y-116663390D02*
X166178094Y-116472914D01*
X166178094Y-116472914D02*
X166130475Y-116377676D01*
X166130475Y-116377676D02*
X166035237Y-116282438D01*
X166035237Y-116282438D02*
X165892380Y-116234819D01*
X165892380Y-116234819D02*
X165797142Y-116234819D01*
X165797142Y-116234819D02*
X165654285Y-116282438D01*
X165654285Y-116282438D02*
X165606666Y-116330057D01*
X165130475Y-117234819D02*
X164939999Y-117234819D01*
X164939999Y-117234819D02*
X164844761Y-117187200D01*
X164844761Y-117187200D02*
X164797142Y-117139580D01*
X164797142Y-117139580D02*
X164701904Y-116996723D01*
X164701904Y-116996723D02*
X164654285Y-116806247D01*
X164654285Y-116806247D02*
X164654285Y-116425295D01*
X164654285Y-116425295D02*
X164701904Y-116330057D01*
X164701904Y-116330057D02*
X164749523Y-116282438D01*
X164749523Y-116282438D02*
X164844761Y-116234819D01*
X164844761Y-116234819D02*
X165035237Y-116234819D01*
X165035237Y-116234819D02*
X165130475Y-116282438D01*
X165130475Y-116282438D02*
X165178094Y-116330057D01*
X165178094Y-116330057D02*
X165225713Y-116425295D01*
X165225713Y-116425295D02*
X165225713Y-116663390D01*
X165225713Y-116663390D02*
X165178094Y-116758628D01*
X165178094Y-116758628D02*
X165130475Y-116806247D01*
X165130475Y-116806247D02*
X165035237Y-116853866D01*
X165035237Y-116853866D02*
X164844761Y-116853866D01*
X164844761Y-116853866D02*
X164749523Y-116806247D01*
X164749523Y-116806247D02*
X164701904Y-116758628D01*
X164701904Y-116758628D02*
X164654285Y-116663390D01*
X159968857Y-83123580D02*
X160016476Y-83171200D01*
X160016476Y-83171200D02*
X160159333Y-83218819D01*
X160159333Y-83218819D02*
X160254571Y-83218819D01*
X160254571Y-83218819D02*
X160397428Y-83171200D01*
X160397428Y-83171200D02*
X160492666Y-83075961D01*
X160492666Y-83075961D02*
X160540285Y-82980723D01*
X160540285Y-82980723D02*
X160587904Y-82790247D01*
X160587904Y-82790247D02*
X160587904Y-82647390D01*
X160587904Y-82647390D02*
X160540285Y-82456914D01*
X160540285Y-82456914D02*
X160492666Y-82361676D01*
X160492666Y-82361676D02*
X160397428Y-82266438D01*
X160397428Y-82266438D02*
X160254571Y-82218819D01*
X160254571Y-82218819D02*
X160159333Y-82218819D01*
X160159333Y-82218819D02*
X160016476Y-82266438D01*
X160016476Y-82266438D02*
X159968857Y-82314057D01*
X159016476Y-83218819D02*
X159587904Y-83218819D01*
X159302190Y-83218819D02*
X159302190Y-82218819D01*
X159302190Y-82218819D02*
X159397428Y-82361676D01*
X159397428Y-82361676D02*
X159492666Y-82456914D01*
X159492666Y-82456914D02*
X159587904Y-82504533D01*
X158064095Y-83218819D02*
X158635523Y-83218819D01*
X158349809Y-83218819D02*
X158349809Y-82218819D01*
X158349809Y-82218819D02*
X158445047Y-82361676D01*
X158445047Y-82361676D02*
X158540285Y-82456914D01*
X158540285Y-82456914D02*
X158635523Y-82504533D01*
M02*
