%TF.GenerationSoftware,KiCad,Pcbnew,9.0.2*%
%TF.CreationDate,2026-03-22T12:44:51-05:00*%
%TF.ProjectId,SOUND,534f554e-442e-46b6-9963-61645f706362,V0.9*%
%TF.SameCoordinates,Original*%
%TF.FileFunction,Soldermask,Top*%
%TF.FilePolarity,Negative*%
%FSLAX46Y46*%
G04 Gerber Fmt 4.6, Leading zero omitted, Abs format (unit mm)*
G04 Created by KiCad (PCBNEW 9.0.2) date 2026-03-22 12:44:51*
%MOMM*%
%LPD*%
G01*
G04 APERTURE LIST*
G04 Aperture macros list*
%AMRoundRect*
0 Rectangle with rounded corners*
0 $1 Rounding radius*
0 $2 $3 $4 $5 $6 $7 $8 $9 X,Y pos of 4 corners*
0 Add a 4 corners polygon primitive as box body*
4,1,4,$2,$3,$4,$5,$6,$7,$8,$9,$2,$3,0*
0 Add four circle primitives for the rounded corners*
1,1,$1+$1,$2,$3*
1,1,$1+$1,$4,$5*
1,1,$1+$1,$6,$7*
1,1,$1+$1,$8,$9*
0 Add four rect primitives between the rounded corners*
20,1,$1+$1,$2,$3,$4,$5,0*
20,1,$1+$1,$4,$5,$6,$7,0*
20,1,$1+$1,$6,$7,$8,$9,0*
20,1,$1+$1,$8,$9,$2,$3,0*%
G04 Aperture macros list end*
%ADD10R,2.400000X1.600000*%
%ADD11O,2.400000X1.600000*%
%ADD12RoundRect,0.250000X-0.950000X-0.550000X0.950000X-0.550000X0.950000X0.550000X-0.950000X0.550000X0*%
%ADD13C,2.340000*%
%ADD14C,1.400000*%
%ADD15R,1.700000X1.700000*%
%ADD16C,1.700000*%
%ADD17R,1.600000X1.600000*%
%ADD18C,1.600000*%
%ADD19C,2.800000*%
%ADD20O,1.600000X1.600000*%
%ADD21R,1.780000X7.620000*%
%ADD22O,1.700000X1.700000*%
G04 APERTURE END LIST*
D10*
%TO.C,U25*%
X247200000Y-44150000D03*
D11*
X247200000Y-46690000D03*
X247200000Y-49230000D03*
X247200000Y-51770000D03*
X247200000Y-54310000D03*
X247200000Y-56850000D03*
X247200000Y-59390000D03*
X247200000Y-61930000D03*
X247200000Y-64470000D03*
X247200000Y-67010000D03*
X247200000Y-69550000D03*
X247200000Y-72090000D03*
X247200000Y-74630000D03*
X247200000Y-77170000D03*
X247200000Y-79710000D03*
X247200000Y-82250000D03*
X247200000Y-84790000D03*
X247200000Y-87330000D03*
X247200000Y-89870000D03*
X247200000Y-92410000D03*
X262440000Y-92410000D03*
X262440000Y-89870000D03*
X262440000Y-87330000D03*
X262440000Y-84790000D03*
X262440000Y-82250000D03*
X262440000Y-79710000D03*
X262440000Y-77170000D03*
X262440000Y-74630000D03*
X262440000Y-72090000D03*
X262440000Y-69550000D03*
X262440000Y-67010000D03*
X262440000Y-64470000D03*
X262440000Y-61930000D03*
X262440000Y-59390000D03*
X262440000Y-56850000D03*
X262440000Y-54310000D03*
X262440000Y-51770000D03*
X262440000Y-49230000D03*
X262440000Y-46690000D03*
X262440000Y-44150000D03*
%TD*%
%TO.C,U6*%
X238140000Y-106880000D03*
X238140000Y-109420000D03*
X238140000Y-111960000D03*
X238140000Y-114500000D03*
X238140000Y-117040000D03*
X238140000Y-119580000D03*
X238140000Y-122120000D03*
X238140000Y-124660000D03*
X238140000Y-127200000D03*
X238140000Y-129740000D03*
X230520000Y-129740000D03*
X230520000Y-127200000D03*
X230520000Y-124660000D03*
X230520000Y-122120000D03*
X230520000Y-119580000D03*
X230520000Y-117040000D03*
X230520000Y-114500000D03*
X230520000Y-111960000D03*
X230520000Y-109420000D03*
D10*
X230520000Y-106880000D03*
%TD*%
D11*
%TO.C,U4*%
X222310000Y-107110000D03*
X222310000Y-109650000D03*
X222310000Y-112190000D03*
X222310000Y-114730000D03*
X222310000Y-117270000D03*
X222310000Y-119810000D03*
X222310000Y-122350000D03*
X222310000Y-124890000D03*
X222310000Y-127430000D03*
X222310000Y-129970000D03*
X214690000Y-129970000D03*
X214690000Y-127430000D03*
X214690000Y-124890000D03*
X214690000Y-122350000D03*
X214690000Y-119810000D03*
X214690000Y-117270000D03*
X214690000Y-114730000D03*
X214690000Y-112190000D03*
X214690000Y-109650000D03*
D10*
X214690000Y-107110000D03*
%TD*%
%TO.C,U2*%
X213335000Y-44365000D03*
D11*
X213335000Y-46905000D03*
X213335000Y-49445000D03*
X213335000Y-51985000D03*
X213335000Y-54525000D03*
X213335000Y-57065000D03*
X213335000Y-59605000D03*
X213335000Y-62145000D03*
X213335000Y-64685000D03*
X213335000Y-67225000D03*
X213335000Y-69765000D03*
X213335000Y-72305000D03*
X213335000Y-74845000D03*
X213335000Y-77385000D03*
X213335000Y-79925000D03*
X213335000Y-82465000D03*
X213335000Y-85005000D03*
X213335000Y-87545000D03*
X213335000Y-90085000D03*
X213335000Y-92625000D03*
X228575000Y-92625000D03*
X228575000Y-90085000D03*
X228575000Y-87545000D03*
X228575000Y-85005000D03*
X228575000Y-82465000D03*
X228575000Y-79925000D03*
X228575000Y-77385000D03*
X228575000Y-74845000D03*
X228575000Y-72305000D03*
X228575000Y-69765000D03*
X228575000Y-67225000D03*
X228575000Y-64685000D03*
X228575000Y-62145000D03*
X228575000Y-59605000D03*
X228575000Y-57065000D03*
X228575000Y-54525000D03*
X228575000Y-51985000D03*
X228575000Y-49445000D03*
X228575000Y-46905000D03*
X228575000Y-44365000D03*
%TD*%
D12*
%TO.C,SW2*%
X165390000Y-116170000D03*
D11*
X165390000Y-118710000D03*
X165390000Y-121250000D03*
X165390000Y-123790000D03*
X165390000Y-126330000D03*
X165390000Y-128870000D03*
X173010000Y-128870000D03*
X173010000Y-126330000D03*
X173010000Y-123790000D03*
X173010000Y-121250000D03*
X173010000Y-118710000D03*
X173010000Y-116170000D03*
%TD*%
D13*
%TO.C,RV2*%
X282560000Y-90435000D03*
X292560000Y-87935000D03*
X282560000Y-85435000D03*
%TD*%
%TO.C,RV1*%
X282250000Y-76050000D03*
X292250000Y-73550000D03*
X282250000Y-71050000D03*
%TD*%
D14*
%TO.C,R14*%
X273920000Y-85230000D03*
X279000000Y-85230000D03*
%TD*%
%TO.C,R13*%
X274030000Y-70990000D03*
X279110000Y-70990000D03*
%TD*%
%TO.C,R12*%
X271320000Y-85230000D03*
X266240000Y-85230000D03*
%TD*%
%TO.C,R11*%
X279040000Y-76230000D03*
X273960000Y-76230000D03*
%TD*%
%TO.C,R10*%
X279030000Y-91290000D03*
X273950000Y-91290000D03*
%TD*%
%TO.C,R9*%
X271490000Y-79480000D03*
X266410000Y-79480000D03*
%TD*%
%TO.C,R8*%
X275610000Y-59610000D03*
X270530000Y-59610000D03*
%TD*%
D15*
%TO.C,P2*%
X271810000Y-50640000D03*
D16*
X274350000Y-50640000D03*
X271810000Y-53180000D03*
X274350000Y-53180000D03*
%TD*%
D17*
%TO.C,J10*%
X312844700Y-117740000D03*
D18*
X312844700Y-114970000D03*
X312844700Y-112200000D03*
X312844700Y-109430000D03*
X312844700Y-106660000D03*
X315384700Y-116355000D03*
X315384700Y-113585000D03*
X315384700Y-110815000D03*
X315384700Y-108045000D03*
%TD*%
D17*
%TO.C,J9*%
X312714700Y-70070000D03*
D18*
X312714700Y-67300000D03*
X312714700Y-64530000D03*
X312714700Y-61760000D03*
X312714700Y-58990000D03*
X315254700Y-68685000D03*
X315254700Y-65915000D03*
X315254700Y-63145000D03*
X315254700Y-60375000D03*
%TD*%
D19*
%TO.C,J8*%
X314350000Y-86280000D03*
X311950000Y-88280000D03*
X319850000Y-86280000D03*
%TD*%
D17*
%TO.C,C47*%
X299560000Y-86400000D03*
D18*
X302060000Y-86400000D03*
%TD*%
D17*
%TO.C,C46*%
X299347000Y-74753000D03*
D18*
X301847000Y-74753000D03*
%TD*%
%TO.C,C45*%
X306460000Y-80920000D03*
X311460000Y-80920000D03*
%TD*%
%TO.C,C44*%
X306240000Y-74820000D03*
X311240000Y-74820000D03*
%TD*%
%TO.C,C2*%
X203158000Y-92702000D03*
X208158000Y-92702000D03*
%TD*%
D17*
%TO.C,RN2*%
X159140000Y-109780000D03*
D20*
X159140000Y-112320000D03*
X159140000Y-114860000D03*
X159140000Y-117400000D03*
X159140000Y-119940000D03*
X159140000Y-122480000D03*
X159140000Y-125020000D03*
X159140000Y-127560000D03*
X159140000Y-130100000D03*
%TD*%
D17*
%TO.C,C19*%
X313207000Y-133123000D03*
D18*
X315707000Y-133123000D03*
%TD*%
%TO.C,C15*%
X198410000Y-107120000D03*
X203410000Y-107120000D03*
%TD*%
%TO.C,C16*%
X186390000Y-99790000D03*
X181390000Y-99790000D03*
%TD*%
%TO.C,C4*%
X208036000Y-43964000D03*
X203036000Y-43964000D03*
%TD*%
D20*
%TO.C,RN3*%
X238200000Y-92040000D03*
X238200000Y-89500000D03*
X238200000Y-86960000D03*
X238200000Y-84420000D03*
X238200000Y-81880000D03*
X238200000Y-79340000D03*
X238200000Y-76800000D03*
X238200000Y-74260000D03*
D17*
X238200000Y-71720000D03*
%TD*%
D18*
%TO.C,C17*%
X158290000Y-96910000D03*
D17*
X155790000Y-96910000D03*
%TD*%
D21*
%TO.C,J1*%
X299534900Y-146144300D03*
X296994900Y-146144300D03*
X294454900Y-146144300D03*
X291914900Y-146144300D03*
X289374900Y-146144300D03*
X286834900Y-146144300D03*
X284294900Y-146144300D03*
X281754900Y-146144300D03*
X279214900Y-146144300D03*
X276674900Y-146144300D03*
X274134900Y-146144300D03*
X271594900Y-146144300D03*
X269054900Y-146144300D03*
X266514900Y-146144300D03*
X263974900Y-146144300D03*
X261434900Y-146144300D03*
X258894900Y-146144300D03*
X256354900Y-146144300D03*
X253814900Y-146144300D03*
X251274900Y-146144300D03*
X248734900Y-146144300D03*
X246194900Y-146144300D03*
X243654900Y-146144300D03*
X241114900Y-146144300D03*
X238574900Y-146144300D03*
X236034900Y-146144300D03*
X233494900Y-146144300D03*
X230954900Y-146144300D03*
X228414900Y-146144300D03*
X225874900Y-146144300D03*
X223334900Y-146144300D03*
%TD*%
D18*
%TO.C,C10*%
X166470000Y-109480000D03*
X171470000Y-109480000D03*
%TD*%
D10*
%TO.C,U7*%
X179980000Y-106700000D03*
D11*
X179980000Y-109240000D03*
X179980000Y-111780000D03*
X179980000Y-114320000D03*
X179980000Y-116860000D03*
X179980000Y-119400000D03*
X179980000Y-121940000D03*
X179980000Y-124480000D03*
X179980000Y-127020000D03*
X179980000Y-129560000D03*
X187600000Y-129560000D03*
X187600000Y-127020000D03*
X187600000Y-124480000D03*
X187600000Y-121940000D03*
X187600000Y-119400000D03*
X187600000Y-116860000D03*
X187600000Y-114320000D03*
X187600000Y-111780000D03*
X187600000Y-109240000D03*
X187600000Y-106700000D03*
%TD*%
D18*
%TO.C,C1*%
X271170000Y-44230000D03*
X266170000Y-44230000D03*
%TD*%
%TO.C,C5*%
X243830000Y-43990000D03*
X238830000Y-43990000D03*
%TD*%
%TO.C,C18*%
X315284900Y-45520000D03*
D17*
X312784900Y-45520000D03*
%TD*%
%TO.C,RN1*%
X299310000Y-64310000D03*
D20*
X299310000Y-61770000D03*
X299310000Y-59230000D03*
X299310000Y-56690000D03*
X299310000Y-54150000D03*
X299310000Y-51610000D03*
X299310000Y-49070000D03*
X299310000Y-46530000D03*
X299310000Y-43990000D03*
%TD*%
D11*
%TO.C,U5*%
X288720000Y-44140000D03*
X288720000Y-46680000D03*
X288720000Y-49220000D03*
X288720000Y-51760000D03*
X288720000Y-54300000D03*
X288720000Y-56840000D03*
X288720000Y-59380000D03*
X281100000Y-59380000D03*
X281100000Y-56840000D03*
X281100000Y-54300000D03*
X281100000Y-51760000D03*
X281100000Y-49220000D03*
X281100000Y-46680000D03*
D10*
X281100000Y-44140000D03*
%TD*%
%TO.C,U1*%
X197230000Y-114510000D03*
D11*
X197230000Y-117050000D03*
X197230000Y-119590000D03*
X197230000Y-122130000D03*
X197230000Y-124670000D03*
X197230000Y-127210000D03*
X197230000Y-129750000D03*
X204850000Y-129750000D03*
X204850000Y-127210000D03*
X204850000Y-124670000D03*
X204850000Y-122130000D03*
X204850000Y-119590000D03*
X204850000Y-117050000D03*
X204850000Y-114510000D03*
%TD*%
D15*
%TO.C,J2*%
X250570000Y-117310000D03*
D22*
X253110000Y-117310000D03*
X250570000Y-119850000D03*
X253110000Y-119850000D03*
X250570000Y-122390000D03*
X253110000Y-122390000D03*
X250570000Y-124930000D03*
X253110000Y-124930000D03*
X250570000Y-127470000D03*
X253110000Y-127470000D03*
X250570000Y-130010000D03*
X253110000Y-130010000D03*
%TD*%
D17*
%TO.C,C20*%
X236160000Y-57360000D03*
D18*
X238660000Y-57360000D03*
%TD*%
%TO.C,C11*%
X216030000Y-100130000D03*
X221030000Y-100130000D03*
%TD*%
%TO.C,C8*%
X236590000Y-99610000D03*
X231590000Y-99610000D03*
%TD*%
M02*
