%TF.GenerationSoftware,KiCad,Pcbnew,9.0.2*%
%TF.CreationDate,2026-06-07T12:57:07-05:00*%
%TF.ProjectId,SOUND,534f554e-442e-46b6-9963-61645f706362,V0.96*%
%TF.SameCoordinates,Original*%
%TF.FileFunction,Legend,Bot*%
%TF.FilePolarity,Positive*%
%FSLAX46Y46*%
G04 Gerber Fmt 4.6, Leading zero omitted, Abs format (unit mm)*
G04 Created by KiCad (PCBNEW 9.0.2) date 2026-06-07 12:57:07*
%MOMM*%
%LPD*%
G01*
G04 APERTURE LIST*
%ADD10C,0.150000*%
G04 APERTURE END LIST*
D10*
X277056666Y-113260819D02*
X277389999Y-112784628D01*
X277628094Y-113260819D02*
X277628094Y-112260819D01*
X277628094Y-112260819D02*
X277247142Y-112260819D01*
X277247142Y-112260819D02*
X277151904Y-112308438D01*
X277151904Y-112308438D02*
X277104285Y-112356057D01*
X277104285Y-112356057D02*
X277056666Y-112451295D01*
X277056666Y-112451295D02*
X277056666Y-112594152D01*
X277056666Y-112594152D02*
X277104285Y-112689390D01*
X277104285Y-112689390D02*
X277151904Y-112737009D01*
X277151904Y-112737009D02*
X277247142Y-112784628D01*
X277247142Y-112784628D02*
X277628094Y-112784628D01*
X276104285Y-113260819D02*
X276675713Y-113260819D01*
X276389999Y-113260819D02*
X276389999Y-112260819D01*
X276389999Y-112260819D02*
X276485237Y-112403676D01*
X276485237Y-112403676D02*
X276580475Y-112498914D01*
X276580475Y-112498914D02*
X276675713Y-112546533D01*
X202100666Y-73715580D02*
X202148285Y-73763200D01*
X202148285Y-73763200D02*
X202291142Y-73810819D01*
X202291142Y-73810819D02*
X202386380Y-73810819D01*
X202386380Y-73810819D02*
X202529237Y-73763200D01*
X202529237Y-73763200D02*
X202624475Y-73667961D01*
X202624475Y-73667961D02*
X202672094Y-73572723D01*
X202672094Y-73572723D02*
X202719713Y-73382247D01*
X202719713Y-73382247D02*
X202719713Y-73239390D01*
X202719713Y-73239390D02*
X202672094Y-73048914D01*
X202672094Y-73048914D02*
X202624475Y-72953676D01*
X202624475Y-72953676D02*
X202529237Y-72858438D01*
X202529237Y-72858438D02*
X202386380Y-72810819D01*
X202386380Y-72810819D02*
X202291142Y-72810819D01*
X202291142Y-72810819D02*
X202148285Y-72858438D01*
X202148285Y-72858438D02*
X202100666Y-72906057D01*
X201719713Y-72906057D02*
X201672094Y-72858438D01*
X201672094Y-72858438D02*
X201576856Y-72810819D01*
X201576856Y-72810819D02*
X201338761Y-72810819D01*
X201338761Y-72810819D02*
X201243523Y-72858438D01*
X201243523Y-72858438D02*
X201195904Y-72906057D01*
X201195904Y-72906057D02*
X201148285Y-73001295D01*
X201148285Y-73001295D02*
X201148285Y-73096533D01*
X201148285Y-73096533D02*
X201195904Y-73239390D01*
X201195904Y-73239390D02*
X201767332Y-73810819D01*
X201767332Y-73810819D02*
X201148285Y-73810819D01*
X156255180Y-121670476D02*
X156731371Y-122003809D01*
X156255180Y-122241904D02*
X157255180Y-122241904D01*
X157255180Y-122241904D02*
X157255180Y-121860952D01*
X157255180Y-121860952D02*
X157207561Y-121765714D01*
X157207561Y-121765714D02*
X157159942Y-121718095D01*
X157159942Y-121718095D02*
X157064704Y-121670476D01*
X157064704Y-121670476D02*
X156921847Y-121670476D01*
X156921847Y-121670476D02*
X156826609Y-121718095D01*
X156826609Y-121718095D02*
X156778990Y-121765714D01*
X156778990Y-121765714D02*
X156731371Y-121860952D01*
X156731371Y-121860952D02*
X156731371Y-122241904D01*
X156255180Y-121241904D02*
X157255180Y-121241904D01*
X157255180Y-121241904D02*
X156255180Y-120670476D01*
X156255180Y-120670476D02*
X157255180Y-120670476D01*
X157159942Y-120241904D02*
X157207561Y-120194285D01*
X157207561Y-120194285D02*
X157255180Y-120099047D01*
X157255180Y-120099047D02*
X157255180Y-119860952D01*
X157255180Y-119860952D02*
X157207561Y-119765714D01*
X157207561Y-119765714D02*
X157159942Y-119718095D01*
X157159942Y-119718095D02*
X157064704Y-119670476D01*
X157064704Y-119670476D02*
X156969466Y-119670476D01*
X156969466Y-119670476D02*
X156826609Y-119718095D01*
X156826609Y-119718095D02*
X156255180Y-120289523D01*
X156255180Y-120289523D02*
X156255180Y-119670476D01*
X274624666Y-59850819D02*
X274957999Y-59374628D01*
X275196094Y-59850819D02*
X275196094Y-58850819D01*
X275196094Y-58850819D02*
X274815142Y-58850819D01*
X274815142Y-58850819D02*
X274719904Y-58898438D01*
X274719904Y-58898438D02*
X274672285Y-58946057D01*
X274672285Y-58946057D02*
X274624666Y-59041295D01*
X274624666Y-59041295D02*
X274624666Y-59184152D01*
X274624666Y-59184152D02*
X274672285Y-59279390D01*
X274672285Y-59279390D02*
X274719904Y-59327009D01*
X274719904Y-59327009D02*
X274815142Y-59374628D01*
X274815142Y-59374628D02*
X275196094Y-59374628D01*
X274053237Y-59279390D02*
X274148475Y-59231771D01*
X274148475Y-59231771D02*
X274196094Y-59184152D01*
X274196094Y-59184152D02*
X274243713Y-59088914D01*
X274243713Y-59088914D02*
X274243713Y-59041295D01*
X274243713Y-59041295D02*
X274196094Y-58946057D01*
X274196094Y-58946057D02*
X274148475Y-58898438D01*
X274148475Y-58898438D02*
X274053237Y-58850819D01*
X274053237Y-58850819D02*
X273862761Y-58850819D01*
X273862761Y-58850819D02*
X273767523Y-58898438D01*
X273767523Y-58898438D02*
X273719904Y-58946057D01*
X273719904Y-58946057D02*
X273672285Y-59041295D01*
X273672285Y-59041295D02*
X273672285Y-59088914D01*
X273672285Y-59088914D02*
X273719904Y-59184152D01*
X273719904Y-59184152D02*
X273767523Y-59231771D01*
X273767523Y-59231771D02*
X273862761Y-59279390D01*
X273862761Y-59279390D02*
X274053237Y-59279390D01*
X274053237Y-59279390D02*
X274148475Y-59327009D01*
X274148475Y-59327009D02*
X274196094Y-59374628D01*
X274196094Y-59374628D02*
X274243713Y-59469866D01*
X274243713Y-59469866D02*
X274243713Y-59660342D01*
X274243713Y-59660342D02*
X274196094Y-59755580D01*
X274196094Y-59755580D02*
X274148475Y-59803200D01*
X274148475Y-59803200D02*
X274053237Y-59850819D01*
X274053237Y-59850819D02*
X273862761Y-59850819D01*
X273862761Y-59850819D02*
X273767523Y-59803200D01*
X273767523Y-59803200D02*
X273719904Y-59755580D01*
X273719904Y-59755580D02*
X273672285Y-59660342D01*
X273672285Y-59660342D02*
X273672285Y-59469866D01*
X273672285Y-59469866D02*
X273719904Y-59374628D01*
X273719904Y-59374628D02*
X273767523Y-59327009D01*
X273767523Y-59327009D02*
X273862761Y-59279390D01*
X315089082Y-129681580D02*
X315136701Y-129729200D01*
X315136701Y-129729200D02*
X315279558Y-129776819D01*
X315279558Y-129776819D02*
X315374796Y-129776819D01*
X315374796Y-129776819D02*
X315517653Y-129729200D01*
X315517653Y-129729200D02*
X315612891Y-129633961D01*
X315612891Y-129633961D02*
X315660510Y-129538723D01*
X315660510Y-129538723D02*
X315708129Y-129348247D01*
X315708129Y-129348247D02*
X315708129Y-129205390D01*
X315708129Y-129205390D02*
X315660510Y-129014914D01*
X315660510Y-129014914D02*
X315612891Y-128919676D01*
X315612891Y-128919676D02*
X315517653Y-128824438D01*
X315517653Y-128824438D02*
X315374796Y-128776819D01*
X315374796Y-128776819D02*
X315279558Y-128776819D01*
X315279558Y-128776819D02*
X315136701Y-128824438D01*
X315136701Y-128824438D02*
X315089082Y-128872057D01*
X314136701Y-129776819D02*
X314708129Y-129776819D01*
X314422415Y-129776819D02*
X314422415Y-128776819D01*
X314422415Y-128776819D02*
X314517653Y-128919676D01*
X314517653Y-128919676D02*
X314612891Y-129014914D01*
X314612891Y-129014914D02*
X314708129Y-129062533D01*
X313660510Y-129776819D02*
X313470034Y-129776819D01*
X313470034Y-129776819D02*
X313374796Y-129729200D01*
X313374796Y-129729200D02*
X313327177Y-129681580D01*
X313327177Y-129681580D02*
X313231939Y-129538723D01*
X313231939Y-129538723D02*
X313184320Y-129348247D01*
X313184320Y-129348247D02*
X313184320Y-128967295D01*
X313184320Y-128967295D02*
X313231939Y-128872057D01*
X313231939Y-128872057D02*
X313279558Y-128824438D01*
X313279558Y-128824438D02*
X313374796Y-128776819D01*
X313374796Y-128776819D02*
X313565272Y-128776819D01*
X313565272Y-128776819D02*
X313660510Y-128824438D01*
X313660510Y-128824438D02*
X313708129Y-128872057D01*
X313708129Y-128872057D02*
X313755748Y-128967295D01*
X313755748Y-128967295D02*
X313755748Y-129205390D01*
X313755748Y-129205390D02*
X313708129Y-129300628D01*
X313708129Y-129300628D02*
X313660510Y-129348247D01*
X313660510Y-129348247D02*
X313565272Y-129395866D01*
X313565272Y-129395866D02*
X313374796Y-129395866D01*
X313374796Y-129395866D02*
X313279558Y-129348247D01*
X313279558Y-129348247D02*
X313231939Y-129300628D01*
X313231939Y-129300628D02*
X313184320Y-129205390D01*
X274856857Y-76430819D02*
X275190190Y-75954628D01*
X275428285Y-76430819D02*
X275428285Y-75430819D01*
X275428285Y-75430819D02*
X275047333Y-75430819D01*
X275047333Y-75430819D02*
X274952095Y-75478438D01*
X274952095Y-75478438D02*
X274904476Y-75526057D01*
X274904476Y-75526057D02*
X274856857Y-75621295D01*
X274856857Y-75621295D02*
X274856857Y-75764152D01*
X274856857Y-75764152D02*
X274904476Y-75859390D01*
X274904476Y-75859390D02*
X274952095Y-75907009D01*
X274952095Y-75907009D02*
X275047333Y-75954628D01*
X275047333Y-75954628D02*
X275428285Y-75954628D01*
X273904476Y-76430819D02*
X274475904Y-76430819D01*
X274190190Y-76430819D02*
X274190190Y-75430819D01*
X274190190Y-75430819D02*
X274285428Y-75573676D01*
X274285428Y-75573676D02*
X274380666Y-75668914D01*
X274380666Y-75668914D02*
X274475904Y-75716533D01*
X272952095Y-76430819D02*
X273523523Y-76430819D01*
X273237809Y-76430819D02*
X273237809Y-75430819D01*
X273237809Y-75430819D02*
X273333047Y-75573676D01*
X273333047Y-75573676D02*
X273428285Y-75668914D01*
X273428285Y-75668914D02*
X273523523Y-75716533D01*
X301442082Y-82958580D02*
X301489701Y-83006200D01*
X301489701Y-83006200D02*
X301632558Y-83053819D01*
X301632558Y-83053819D02*
X301727796Y-83053819D01*
X301727796Y-83053819D02*
X301870653Y-83006200D01*
X301870653Y-83006200D02*
X301965891Y-82910961D01*
X301965891Y-82910961D02*
X302013510Y-82815723D01*
X302013510Y-82815723D02*
X302061129Y-82625247D01*
X302061129Y-82625247D02*
X302061129Y-82482390D01*
X302061129Y-82482390D02*
X302013510Y-82291914D01*
X302013510Y-82291914D02*
X301965891Y-82196676D01*
X301965891Y-82196676D02*
X301870653Y-82101438D01*
X301870653Y-82101438D02*
X301727796Y-82053819D01*
X301727796Y-82053819D02*
X301632558Y-82053819D01*
X301632558Y-82053819D02*
X301489701Y-82101438D01*
X301489701Y-82101438D02*
X301442082Y-82149057D01*
X300584939Y-82387152D02*
X300584939Y-83053819D01*
X300823034Y-82006200D02*
X301061129Y-82720485D01*
X301061129Y-82720485D02*
X300442082Y-82720485D01*
X300156367Y-82053819D02*
X299489701Y-82053819D01*
X299489701Y-82053819D02*
X299918272Y-83053819D01*
X201292857Y-107709580D02*
X201340476Y-107757200D01*
X201340476Y-107757200D02*
X201483333Y-107804819D01*
X201483333Y-107804819D02*
X201578571Y-107804819D01*
X201578571Y-107804819D02*
X201721428Y-107757200D01*
X201721428Y-107757200D02*
X201816666Y-107661961D01*
X201816666Y-107661961D02*
X201864285Y-107566723D01*
X201864285Y-107566723D02*
X201911904Y-107376247D01*
X201911904Y-107376247D02*
X201911904Y-107233390D01*
X201911904Y-107233390D02*
X201864285Y-107042914D01*
X201864285Y-107042914D02*
X201816666Y-106947676D01*
X201816666Y-106947676D02*
X201721428Y-106852438D01*
X201721428Y-106852438D02*
X201578571Y-106804819D01*
X201578571Y-106804819D02*
X201483333Y-106804819D01*
X201483333Y-106804819D02*
X201340476Y-106852438D01*
X201340476Y-106852438D02*
X201292857Y-106900057D01*
X200340476Y-107804819D02*
X200911904Y-107804819D01*
X200626190Y-107804819D02*
X200626190Y-106804819D01*
X200626190Y-106804819D02*
X200721428Y-106947676D01*
X200721428Y-106947676D02*
X200816666Y-107042914D01*
X200816666Y-107042914D02*
X200911904Y-107090533D01*
X199435714Y-106804819D02*
X199911904Y-106804819D01*
X199911904Y-106804819D02*
X199959523Y-107281009D01*
X199959523Y-107281009D02*
X199911904Y-107233390D01*
X199911904Y-107233390D02*
X199816666Y-107185771D01*
X199816666Y-107185771D02*
X199578571Y-107185771D01*
X199578571Y-107185771D02*
X199483333Y-107233390D01*
X199483333Y-107233390D02*
X199435714Y-107281009D01*
X199435714Y-107281009D02*
X199388095Y-107376247D01*
X199388095Y-107376247D02*
X199388095Y-107614342D01*
X199388095Y-107614342D02*
X199435714Y-107709580D01*
X199435714Y-107709580D02*
X199483333Y-107757200D01*
X199483333Y-107757200D02*
X199578571Y-107804819D01*
X199578571Y-107804819D02*
X199816666Y-107804819D01*
X199816666Y-107804819D02*
X199911904Y-107757200D01*
X199911904Y-107757200D02*
X199959523Y-107709580D01*
X301238857Y-95513580D02*
X301286476Y-95561200D01*
X301286476Y-95561200D02*
X301429333Y-95608819D01*
X301429333Y-95608819D02*
X301524571Y-95608819D01*
X301524571Y-95608819D02*
X301667428Y-95561200D01*
X301667428Y-95561200D02*
X301762666Y-95465961D01*
X301762666Y-95465961D02*
X301810285Y-95370723D01*
X301810285Y-95370723D02*
X301857904Y-95180247D01*
X301857904Y-95180247D02*
X301857904Y-95037390D01*
X301857904Y-95037390D02*
X301810285Y-94846914D01*
X301810285Y-94846914D02*
X301762666Y-94751676D01*
X301762666Y-94751676D02*
X301667428Y-94656438D01*
X301667428Y-94656438D02*
X301524571Y-94608819D01*
X301524571Y-94608819D02*
X301429333Y-94608819D01*
X301429333Y-94608819D02*
X301286476Y-94656438D01*
X301286476Y-94656438D02*
X301238857Y-94704057D01*
X300381714Y-94942152D02*
X300381714Y-95608819D01*
X300619809Y-94561200D02*
X300857904Y-95275485D01*
X300857904Y-95275485D02*
X300238857Y-95275485D01*
X299381714Y-94608819D02*
X299857904Y-94608819D01*
X299857904Y-94608819D02*
X299905523Y-95085009D01*
X299905523Y-95085009D02*
X299857904Y-95037390D01*
X299857904Y-95037390D02*
X299762666Y-94989771D01*
X299762666Y-94989771D02*
X299524571Y-94989771D01*
X299524571Y-94989771D02*
X299429333Y-95037390D01*
X299429333Y-95037390D02*
X299381714Y-95085009D01*
X299381714Y-95085009D02*
X299334095Y-95180247D01*
X299334095Y-95180247D02*
X299334095Y-95418342D01*
X299334095Y-95418342D02*
X299381714Y-95513580D01*
X299381714Y-95513580D02*
X299429333Y-95561200D01*
X299429333Y-95561200D02*
X299524571Y-95608819D01*
X299524571Y-95608819D02*
X299762666Y-95608819D01*
X299762666Y-95608819D02*
X299857904Y-95561200D01*
X299857904Y-95561200D02*
X299905523Y-95513580D01*
X184272857Y-100379580D02*
X184320476Y-100427200D01*
X184320476Y-100427200D02*
X184463333Y-100474819D01*
X184463333Y-100474819D02*
X184558571Y-100474819D01*
X184558571Y-100474819D02*
X184701428Y-100427200D01*
X184701428Y-100427200D02*
X184796666Y-100331961D01*
X184796666Y-100331961D02*
X184844285Y-100236723D01*
X184844285Y-100236723D02*
X184891904Y-100046247D01*
X184891904Y-100046247D02*
X184891904Y-99903390D01*
X184891904Y-99903390D02*
X184844285Y-99712914D01*
X184844285Y-99712914D02*
X184796666Y-99617676D01*
X184796666Y-99617676D02*
X184701428Y-99522438D01*
X184701428Y-99522438D02*
X184558571Y-99474819D01*
X184558571Y-99474819D02*
X184463333Y-99474819D01*
X184463333Y-99474819D02*
X184320476Y-99522438D01*
X184320476Y-99522438D02*
X184272857Y-99570057D01*
X183320476Y-100474819D02*
X183891904Y-100474819D01*
X183606190Y-100474819D02*
X183606190Y-99474819D01*
X183606190Y-99474819D02*
X183701428Y-99617676D01*
X183701428Y-99617676D02*
X183796666Y-99712914D01*
X183796666Y-99712914D02*
X183891904Y-99760533D01*
X182463333Y-99474819D02*
X182653809Y-99474819D01*
X182653809Y-99474819D02*
X182749047Y-99522438D01*
X182749047Y-99522438D02*
X182796666Y-99570057D01*
X182796666Y-99570057D02*
X182891904Y-99712914D01*
X182891904Y-99712914D02*
X182939523Y-99903390D01*
X182939523Y-99903390D02*
X182939523Y-100284342D01*
X182939523Y-100284342D02*
X182891904Y-100379580D01*
X182891904Y-100379580D02*
X182844285Y-100427200D01*
X182844285Y-100427200D02*
X182749047Y-100474819D01*
X182749047Y-100474819D02*
X182558571Y-100474819D01*
X182558571Y-100474819D02*
X182463333Y-100427200D01*
X182463333Y-100427200D02*
X182415714Y-100379580D01*
X182415714Y-100379580D02*
X182368095Y-100284342D01*
X182368095Y-100284342D02*
X182368095Y-100046247D01*
X182368095Y-100046247D02*
X182415714Y-99951009D01*
X182415714Y-99951009D02*
X182463333Y-99903390D01*
X182463333Y-99903390D02*
X182558571Y-99855771D01*
X182558571Y-99855771D02*
X182749047Y-99855771D01*
X182749047Y-99855771D02*
X182844285Y-99903390D01*
X182844285Y-99903390D02*
X182891904Y-99951009D01*
X182891904Y-99951009D02*
X182939523Y-100046247D01*
X205442666Y-44553580D02*
X205490285Y-44601200D01*
X205490285Y-44601200D02*
X205633142Y-44648819D01*
X205633142Y-44648819D02*
X205728380Y-44648819D01*
X205728380Y-44648819D02*
X205871237Y-44601200D01*
X205871237Y-44601200D02*
X205966475Y-44505961D01*
X205966475Y-44505961D02*
X206014094Y-44410723D01*
X206014094Y-44410723D02*
X206061713Y-44220247D01*
X206061713Y-44220247D02*
X206061713Y-44077390D01*
X206061713Y-44077390D02*
X206014094Y-43886914D01*
X206014094Y-43886914D02*
X205966475Y-43791676D01*
X205966475Y-43791676D02*
X205871237Y-43696438D01*
X205871237Y-43696438D02*
X205728380Y-43648819D01*
X205728380Y-43648819D02*
X205633142Y-43648819D01*
X205633142Y-43648819D02*
X205490285Y-43696438D01*
X205490285Y-43696438D02*
X205442666Y-43744057D01*
X204585523Y-43982152D02*
X204585523Y-44648819D01*
X204823618Y-43601200D02*
X205061713Y-44315485D01*
X205061713Y-44315485D02*
X204442666Y-44315485D01*
X240159180Y-81760476D02*
X240635371Y-82093809D01*
X240159180Y-82331904D02*
X241159180Y-82331904D01*
X241159180Y-82331904D02*
X241159180Y-81950952D01*
X241159180Y-81950952D02*
X241111561Y-81855714D01*
X241111561Y-81855714D02*
X241063942Y-81808095D01*
X241063942Y-81808095D02*
X240968704Y-81760476D01*
X240968704Y-81760476D02*
X240825847Y-81760476D01*
X240825847Y-81760476D02*
X240730609Y-81808095D01*
X240730609Y-81808095D02*
X240682990Y-81855714D01*
X240682990Y-81855714D02*
X240635371Y-81950952D01*
X240635371Y-81950952D02*
X240635371Y-82331904D01*
X240159180Y-81331904D02*
X241159180Y-81331904D01*
X241159180Y-81331904D02*
X240159180Y-80760476D01*
X240159180Y-80760476D02*
X241159180Y-80760476D01*
X241159180Y-80379523D02*
X241159180Y-79760476D01*
X241159180Y-79760476D02*
X240778228Y-80093809D01*
X240778228Y-80093809D02*
X240778228Y-79950952D01*
X240778228Y-79950952D02*
X240730609Y-79855714D01*
X240730609Y-79855714D02*
X240682990Y-79808095D01*
X240682990Y-79808095D02*
X240587752Y-79760476D01*
X240587752Y-79760476D02*
X240349657Y-79760476D01*
X240349657Y-79760476D02*
X240254419Y-79808095D01*
X240254419Y-79808095D02*
X240206800Y-79855714D01*
X240206800Y-79855714D02*
X240159180Y-79950952D01*
X240159180Y-79950952D02*
X240159180Y-80236666D01*
X240159180Y-80236666D02*
X240206800Y-80331904D01*
X240206800Y-80331904D02*
X240254419Y-80379523D01*
X274926857Y-71190819D02*
X275260190Y-70714628D01*
X275498285Y-71190819D02*
X275498285Y-70190819D01*
X275498285Y-70190819D02*
X275117333Y-70190819D01*
X275117333Y-70190819D02*
X275022095Y-70238438D01*
X275022095Y-70238438D02*
X274974476Y-70286057D01*
X274974476Y-70286057D02*
X274926857Y-70381295D01*
X274926857Y-70381295D02*
X274926857Y-70524152D01*
X274926857Y-70524152D02*
X274974476Y-70619390D01*
X274974476Y-70619390D02*
X275022095Y-70667009D01*
X275022095Y-70667009D02*
X275117333Y-70714628D01*
X275117333Y-70714628D02*
X275498285Y-70714628D01*
X273974476Y-71190819D02*
X274545904Y-71190819D01*
X274260190Y-71190819D02*
X274260190Y-70190819D01*
X274260190Y-70190819D02*
X274355428Y-70333676D01*
X274355428Y-70333676D02*
X274450666Y-70428914D01*
X274450666Y-70428914D02*
X274545904Y-70476533D01*
X273641142Y-70190819D02*
X273022095Y-70190819D01*
X273022095Y-70190819D02*
X273355428Y-70571771D01*
X273355428Y-70571771D02*
X273212571Y-70571771D01*
X273212571Y-70571771D02*
X273117333Y-70619390D01*
X273117333Y-70619390D02*
X273069714Y-70667009D01*
X273069714Y-70667009D02*
X273022095Y-70762247D01*
X273022095Y-70762247D02*
X273022095Y-71000342D01*
X273022095Y-71000342D02*
X273069714Y-71095580D01*
X273069714Y-71095580D02*
X273117333Y-71143200D01*
X273117333Y-71143200D02*
X273212571Y-71190819D01*
X273212571Y-71190819D02*
X273498285Y-71190819D01*
X273498285Y-71190819D02*
X273593523Y-71143200D01*
X273593523Y-71143200D02*
X273641142Y-71095580D01*
X157672082Y-93468580D02*
X157719701Y-93516200D01*
X157719701Y-93516200D02*
X157862558Y-93563819D01*
X157862558Y-93563819D02*
X157957796Y-93563819D01*
X157957796Y-93563819D02*
X158100653Y-93516200D01*
X158100653Y-93516200D02*
X158195891Y-93420961D01*
X158195891Y-93420961D02*
X158243510Y-93325723D01*
X158243510Y-93325723D02*
X158291129Y-93135247D01*
X158291129Y-93135247D02*
X158291129Y-92992390D01*
X158291129Y-92992390D02*
X158243510Y-92801914D01*
X158243510Y-92801914D02*
X158195891Y-92706676D01*
X158195891Y-92706676D02*
X158100653Y-92611438D01*
X158100653Y-92611438D02*
X157957796Y-92563819D01*
X157957796Y-92563819D02*
X157862558Y-92563819D01*
X157862558Y-92563819D02*
X157719701Y-92611438D01*
X157719701Y-92611438D02*
X157672082Y-92659057D01*
X156719701Y-93563819D02*
X157291129Y-93563819D01*
X157005415Y-93563819D02*
X157005415Y-92563819D01*
X157005415Y-92563819D02*
X157100653Y-92706676D01*
X157100653Y-92706676D02*
X157195891Y-92801914D01*
X157195891Y-92801914D02*
X157291129Y-92849533D01*
X156386367Y-92563819D02*
X155719701Y-92563819D01*
X155719701Y-92563819D02*
X156148272Y-93563819D01*
X235091904Y-117764819D02*
X235091904Y-118574342D01*
X235091904Y-118574342D02*
X235044285Y-118669580D01*
X235044285Y-118669580D02*
X234996666Y-118717200D01*
X234996666Y-118717200D02*
X234901428Y-118764819D01*
X234901428Y-118764819D02*
X234710952Y-118764819D01*
X234710952Y-118764819D02*
X234615714Y-118717200D01*
X234615714Y-118717200D02*
X234568095Y-118669580D01*
X234568095Y-118669580D02*
X234520476Y-118574342D01*
X234520476Y-118574342D02*
X234520476Y-117764819D01*
X233615714Y-117764819D02*
X233806190Y-117764819D01*
X233806190Y-117764819D02*
X233901428Y-117812438D01*
X233901428Y-117812438D02*
X233949047Y-117860057D01*
X233949047Y-117860057D02*
X234044285Y-118002914D01*
X234044285Y-118002914D02*
X234091904Y-118193390D01*
X234091904Y-118193390D02*
X234091904Y-118574342D01*
X234091904Y-118574342D02*
X234044285Y-118669580D01*
X234044285Y-118669580D02*
X233996666Y-118717200D01*
X233996666Y-118717200D02*
X233901428Y-118764819D01*
X233901428Y-118764819D02*
X233710952Y-118764819D01*
X233710952Y-118764819D02*
X233615714Y-118717200D01*
X233615714Y-118717200D02*
X233568095Y-118669580D01*
X233568095Y-118669580D02*
X233520476Y-118574342D01*
X233520476Y-118574342D02*
X233520476Y-118336247D01*
X233520476Y-118336247D02*
X233568095Y-118241009D01*
X233568095Y-118241009D02*
X233615714Y-118193390D01*
X233615714Y-118193390D02*
X233710952Y-118145771D01*
X233710952Y-118145771D02*
X233901428Y-118145771D01*
X233901428Y-118145771D02*
X233996666Y-118193390D01*
X233996666Y-118193390D02*
X234044285Y-118241009D01*
X234044285Y-118241009D02*
X234091904Y-118336247D01*
X300682857Y-68509580D02*
X300730476Y-68557200D01*
X300730476Y-68557200D02*
X300873333Y-68604819D01*
X300873333Y-68604819D02*
X300968571Y-68604819D01*
X300968571Y-68604819D02*
X301111428Y-68557200D01*
X301111428Y-68557200D02*
X301206666Y-68461961D01*
X301206666Y-68461961D02*
X301254285Y-68366723D01*
X301254285Y-68366723D02*
X301301904Y-68176247D01*
X301301904Y-68176247D02*
X301301904Y-68033390D01*
X301301904Y-68033390D02*
X301254285Y-67842914D01*
X301254285Y-67842914D02*
X301206666Y-67747676D01*
X301206666Y-67747676D02*
X301111428Y-67652438D01*
X301111428Y-67652438D02*
X300968571Y-67604819D01*
X300968571Y-67604819D02*
X300873333Y-67604819D01*
X300873333Y-67604819D02*
X300730476Y-67652438D01*
X300730476Y-67652438D02*
X300682857Y-67700057D01*
X299825714Y-67938152D02*
X299825714Y-68604819D01*
X300063809Y-67557200D02*
X300301904Y-68271485D01*
X300301904Y-68271485D02*
X299682857Y-68271485D01*
X298873333Y-67938152D02*
X298873333Y-68604819D01*
X299111428Y-67557200D02*
X299349523Y-68271485D01*
X299349523Y-68271485D02*
X298730476Y-68271485D01*
X260302367Y-139713653D02*
X260302367Y-140427938D01*
X260302367Y-140427938D02*
X260349986Y-140570795D01*
X260349986Y-140570795D02*
X260445224Y-140666034D01*
X260445224Y-140666034D02*
X260588081Y-140713653D01*
X260588081Y-140713653D02*
X260683319Y-140713653D01*
X259302367Y-140713653D02*
X259873795Y-140713653D01*
X259588081Y-140713653D02*
X259588081Y-139713653D01*
X259588081Y-139713653D02*
X259683319Y-139856510D01*
X259683319Y-139856510D02*
X259778557Y-139951748D01*
X259778557Y-139951748D02*
X259873795Y-139999367D01*
X221791904Y-67044819D02*
X221791904Y-67854342D01*
X221791904Y-67854342D02*
X221744285Y-67949580D01*
X221744285Y-67949580D02*
X221696666Y-67997200D01*
X221696666Y-67997200D02*
X221601428Y-68044819D01*
X221601428Y-68044819D02*
X221410952Y-68044819D01*
X221410952Y-68044819D02*
X221315714Y-67997200D01*
X221315714Y-67997200D02*
X221268095Y-67949580D01*
X221268095Y-67949580D02*
X221220476Y-67854342D01*
X221220476Y-67854342D02*
X221220476Y-67044819D01*
X220601428Y-67473390D02*
X220696666Y-67425771D01*
X220696666Y-67425771D02*
X220744285Y-67378152D01*
X220744285Y-67378152D02*
X220791904Y-67282914D01*
X220791904Y-67282914D02*
X220791904Y-67235295D01*
X220791904Y-67235295D02*
X220744285Y-67140057D01*
X220744285Y-67140057D02*
X220696666Y-67092438D01*
X220696666Y-67092438D02*
X220601428Y-67044819D01*
X220601428Y-67044819D02*
X220410952Y-67044819D01*
X220410952Y-67044819D02*
X220315714Y-67092438D01*
X220315714Y-67092438D02*
X220268095Y-67140057D01*
X220268095Y-67140057D02*
X220220476Y-67235295D01*
X220220476Y-67235295D02*
X220220476Y-67282914D01*
X220220476Y-67282914D02*
X220268095Y-67378152D01*
X220268095Y-67378152D02*
X220315714Y-67425771D01*
X220315714Y-67425771D02*
X220410952Y-67473390D01*
X220410952Y-67473390D02*
X220601428Y-67473390D01*
X220601428Y-67473390D02*
X220696666Y-67521009D01*
X220696666Y-67521009D02*
X220744285Y-67568628D01*
X220744285Y-67568628D02*
X220791904Y-67663866D01*
X220791904Y-67663866D02*
X220791904Y-67854342D01*
X220791904Y-67854342D02*
X220744285Y-67949580D01*
X220744285Y-67949580D02*
X220696666Y-67997200D01*
X220696666Y-67997200D02*
X220601428Y-68044819D01*
X220601428Y-68044819D02*
X220410952Y-68044819D01*
X220410952Y-68044819D02*
X220315714Y-67997200D01*
X220315714Y-67997200D02*
X220268095Y-67949580D01*
X220268095Y-67949580D02*
X220220476Y-67854342D01*
X220220476Y-67854342D02*
X220220476Y-67663866D01*
X220220476Y-67663866D02*
X220268095Y-67568628D01*
X220268095Y-67568628D02*
X220315714Y-67521009D01*
X220315714Y-67521009D02*
X220410952Y-67473390D01*
X274496666Y-66520819D02*
X274829999Y-66044628D01*
X275068094Y-66520819D02*
X275068094Y-65520819D01*
X275068094Y-65520819D02*
X274687142Y-65520819D01*
X274687142Y-65520819D02*
X274591904Y-65568438D01*
X274591904Y-65568438D02*
X274544285Y-65616057D01*
X274544285Y-65616057D02*
X274496666Y-65711295D01*
X274496666Y-65711295D02*
X274496666Y-65854152D01*
X274496666Y-65854152D02*
X274544285Y-65949390D01*
X274544285Y-65949390D02*
X274591904Y-65997009D01*
X274591904Y-65997009D02*
X274687142Y-66044628D01*
X274687142Y-66044628D02*
X275068094Y-66044628D01*
X274020475Y-66520819D02*
X273829999Y-66520819D01*
X273829999Y-66520819D02*
X273734761Y-66473200D01*
X273734761Y-66473200D02*
X273687142Y-66425580D01*
X273687142Y-66425580D02*
X273591904Y-66282723D01*
X273591904Y-66282723D02*
X273544285Y-66092247D01*
X273544285Y-66092247D02*
X273544285Y-65711295D01*
X273544285Y-65711295D02*
X273591904Y-65616057D01*
X273591904Y-65616057D02*
X273639523Y-65568438D01*
X273639523Y-65568438D02*
X273734761Y-65520819D01*
X273734761Y-65520819D02*
X273925237Y-65520819D01*
X273925237Y-65520819D02*
X274020475Y-65568438D01*
X274020475Y-65568438D02*
X274068094Y-65616057D01*
X274068094Y-65616057D02*
X274115713Y-65711295D01*
X274115713Y-65711295D02*
X274115713Y-65949390D01*
X274115713Y-65949390D02*
X274068094Y-66044628D01*
X274068094Y-66044628D02*
X274020475Y-66092247D01*
X274020475Y-66092247D02*
X273925237Y-66139866D01*
X273925237Y-66139866D02*
X273734761Y-66139866D01*
X273734761Y-66139866D02*
X273639523Y-66092247D01*
X273639523Y-66092247D02*
X273591904Y-66044628D01*
X273591904Y-66044628D02*
X273544285Y-65949390D01*
X169352857Y-110069580D02*
X169400476Y-110117200D01*
X169400476Y-110117200D02*
X169543333Y-110164819D01*
X169543333Y-110164819D02*
X169638571Y-110164819D01*
X169638571Y-110164819D02*
X169781428Y-110117200D01*
X169781428Y-110117200D02*
X169876666Y-110021961D01*
X169876666Y-110021961D02*
X169924285Y-109926723D01*
X169924285Y-109926723D02*
X169971904Y-109736247D01*
X169971904Y-109736247D02*
X169971904Y-109593390D01*
X169971904Y-109593390D02*
X169924285Y-109402914D01*
X169924285Y-109402914D02*
X169876666Y-109307676D01*
X169876666Y-109307676D02*
X169781428Y-109212438D01*
X169781428Y-109212438D02*
X169638571Y-109164819D01*
X169638571Y-109164819D02*
X169543333Y-109164819D01*
X169543333Y-109164819D02*
X169400476Y-109212438D01*
X169400476Y-109212438D02*
X169352857Y-109260057D01*
X168400476Y-110164819D02*
X168971904Y-110164819D01*
X168686190Y-110164819D02*
X168686190Y-109164819D01*
X168686190Y-109164819D02*
X168781428Y-109307676D01*
X168781428Y-109307676D02*
X168876666Y-109402914D01*
X168876666Y-109402914D02*
X168971904Y-109450533D01*
X167781428Y-109164819D02*
X167686190Y-109164819D01*
X167686190Y-109164819D02*
X167590952Y-109212438D01*
X167590952Y-109212438D02*
X167543333Y-109260057D01*
X167543333Y-109260057D02*
X167495714Y-109355295D01*
X167495714Y-109355295D02*
X167448095Y-109545771D01*
X167448095Y-109545771D02*
X167448095Y-109783866D01*
X167448095Y-109783866D02*
X167495714Y-109974342D01*
X167495714Y-109974342D02*
X167543333Y-110069580D01*
X167543333Y-110069580D02*
X167590952Y-110117200D01*
X167590952Y-110117200D02*
X167686190Y-110164819D01*
X167686190Y-110164819D02*
X167781428Y-110164819D01*
X167781428Y-110164819D02*
X167876666Y-110117200D01*
X167876666Y-110117200D02*
X167924285Y-110069580D01*
X167924285Y-110069580D02*
X167971904Y-109974342D01*
X167971904Y-109974342D02*
X168019523Y-109783866D01*
X168019523Y-109783866D02*
X168019523Y-109545771D01*
X168019523Y-109545771D02*
X167971904Y-109355295D01*
X167971904Y-109355295D02*
X167924285Y-109260057D01*
X167924285Y-109260057D02*
X167876666Y-109212438D01*
X167876666Y-109212438D02*
X167781428Y-109164819D01*
X184551904Y-117584819D02*
X184551904Y-118394342D01*
X184551904Y-118394342D02*
X184504285Y-118489580D01*
X184504285Y-118489580D02*
X184456666Y-118537200D01*
X184456666Y-118537200D02*
X184361428Y-118584819D01*
X184361428Y-118584819D02*
X184170952Y-118584819D01*
X184170952Y-118584819D02*
X184075714Y-118537200D01*
X184075714Y-118537200D02*
X184028095Y-118489580D01*
X184028095Y-118489580D02*
X183980476Y-118394342D01*
X183980476Y-118394342D02*
X183980476Y-117584819D01*
X183599523Y-117584819D02*
X182932857Y-117584819D01*
X182932857Y-117584819D02*
X183361428Y-118584819D01*
X268576666Y-44819580D02*
X268624285Y-44867200D01*
X268624285Y-44867200D02*
X268767142Y-44914819D01*
X268767142Y-44914819D02*
X268862380Y-44914819D01*
X268862380Y-44914819D02*
X269005237Y-44867200D01*
X269005237Y-44867200D02*
X269100475Y-44771961D01*
X269100475Y-44771961D02*
X269148094Y-44676723D01*
X269148094Y-44676723D02*
X269195713Y-44486247D01*
X269195713Y-44486247D02*
X269195713Y-44343390D01*
X269195713Y-44343390D02*
X269148094Y-44152914D01*
X269148094Y-44152914D02*
X269100475Y-44057676D01*
X269100475Y-44057676D02*
X269005237Y-43962438D01*
X269005237Y-43962438D02*
X268862380Y-43914819D01*
X268862380Y-43914819D02*
X268767142Y-43914819D01*
X268767142Y-43914819D02*
X268624285Y-43962438D01*
X268624285Y-43962438D02*
X268576666Y-44010057D01*
X267624285Y-44914819D02*
X268195713Y-44914819D01*
X267909999Y-44914819D02*
X267909999Y-43914819D01*
X267909999Y-43914819D02*
X268005237Y-44057676D01*
X268005237Y-44057676D02*
X268100475Y-44152914D01*
X268100475Y-44152914D02*
X268195713Y-44200533D01*
X241236666Y-44579580D02*
X241284285Y-44627200D01*
X241284285Y-44627200D02*
X241427142Y-44674819D01*
X241427142Y-44674819D02*
X241522380Y-44674819D01*
X241522380Y-44674819D02*
X241665237Y-44627200D01*
X241665237Y-44627200D02*
X241760475Y-44531961D01*
X241760475Y-44531961D02*
X241808094Y-44436723D01*
X241808094Y-44436723D02*
X241855713Y-44246247D01*
X241855713Y-44246247D02*
X241855713Y-44103390D01*
X241855713Y-44103390D02*
X241808094Y-43912914D01*
X241808094Y-43912914D02*
X241760475Y-43817676D01*
X241760475Y-43817676D02*
X241665237Y-43722438D01*
X241665237Y-43722438D02*
X241522380Y-43674819D01*
X241522380Y-43674819D02*
X241427142Y-43674819D01*
X241427142Y-43674819D02*
X241284285Y-43722438D01*
X241284285Y-43722438D02*
X241236666Y-43770057D01*
X240331904Y-43674819D02*
X240808094Y-43674819D01*
X240808094Y-43674819D02*
X240855713Y-44151009D01*
X240855713Y-44151009D02*
X240808094Y-44103390D01*
X240808094Y-44103390D02*
X240712856Y-44055771D01*
X240712856Y-44055771D02*
X240474761Y-44055771D01*
X240474761Y-44055771D02*
X240379523Y-44103390D01*
X240379523Y-44103390D02*
X240331904Y-44151009D01*
X240331904Y-44151009D02*
X240284285Y-44246247D01*
X240284285Y-44246247D02*
X240284285Y-44484342D01*
X240284285Y-44484342D02*
X240331904Y-44579580D01*
X240331904Y-44579580D02*
X240379523Y-44627200D01*
X240379523Y-44627200D02*
X240474761Y-44674819D01*
X240474761Y-44674819D02*
X240712856Y-44674819D01*
X240712856Y-44674819D02*
X240808094Y-44627200D01*
X240808094Y-44627200D02*
X240855713Y-44579580D01*
X311812082Y-42118580D02*
X311859701Y-42166200D01*
X311859701Y-42166200D02*
X312002558Y-42213819D01*
X312002558Y-42213819D02*
X312097796Y-42213819D01*
X312097796Y-42213819D02*
X312240653Y-42166200D01*
X312240653Y-42166200D02*
X312335891Y-42070961D01*
X312335891Y-42070961D02*
X312383510Y-41975723D01*
X312383510Y-41975723D02*
X312431129Y-41785247D01*
X312431129Y-41785247D02*
X312431129Y-41642390D01*
X312431129Y-41642390D02*
X312383510Y-41451914D01*
X312383510Y-41451914D02*
X312335891Y-41356676D01*
X312335891Y-41356676D02*
X312240653Y-41261438D01*
X312240653Y-41261438D02*
X312097796Y-41213819D01*
X312097796Y-41213819D02*
X312002558Y-41213819D01*
X312002558Y-41213819D02*
X311859701Y-41261438D01*
X311859701Y-41261438D02*
X311812082Y-41309057D01*
X310859701Y-42213819D02*
X311431129Y-42213819D01*
X311145415Y-42213819D02*
X311145415Y-41213819D01*
X311145415Y-41213819D02*
X311240653Y-41356676D01*
X311240653Y-41356676D02*
X311335891Y-41451914D01*
X311335891Y-41451914D02*
X311431129Y-41499533D01*
X310288272Y-41642390D02*
X310383510Y-41594771D01*
X310383510Y-41594771D02*
X310431129Y-41547152D01*
X310431129Y-41547152D02*
X310478748Y-41451914D01*
X310478748Y-41451914D02*
X310478748Y-41404295D01*
X310478748Y-41404295D02*
X310431129Y-41309057D01*
X310431129Y-41309057D02*
X310383510Y-41261438D01*
X310383510Y-41261438D02*
X310288272Y-41213819D01*
X310288272Y-41213819D02*
X310097796Y-41213819D01*
X310097796Y-41213819D02*
X310002558Y-41261438D01*
X310002558Y-41261438D02*
X309954939Y-41309057D01*
X309954939Y-41309057D02*
X309907320Y-41404295D01*
X309907320Y-41404295D02*
X309907320Y-41451914D01*
X309907320Y-41451914D02*
X309954939Y-41547152D01*
X309954939Y-41547152D02*
X310002558Y-41594771D01*
X310002558Y-41594771D02*
X310097796Y-41642390D01*
X310097796Y-41642390D02*
X310288272Y-41642390D01*
X310288272Y-41642390D02*
X310383510Y-41690009D01*
X310383510Y-41690009D02*
X310431129Y-41737628D01*
X310431129Y-41737628D02*
X310478748Y-41832866D01*
X310478748Y-41832866D02*
X310478748Y-42023342D01*
X310478748Y-42023342D02*
X310431129Y-42118580D01*
X310431129Y-42118580D02*
X310383510Y-42166200D01*
X310383510Y-42166200D02*
X310288272Y-42213819D01*
X310288272Y-42213819D02*
X310097796Y-42213819D01*
X310097796Y-42213819D02*
X310002558Y-42166200D01*
X310002558Y-42166200D02*
X309954939Y-42118580D01*
X309954939Y-42118580D02*
X309907320Y-42023342D01*
X309907320Y-42023342D02*
X309907320Y-41832866D01*
X309907320Y-41832866D02*
X309954939Y-41737628D01*
X309954939Y-41737628D02*
X310002558Y-41690009D01*
X310002558Y-41690009D02*
X310097796Y-41642390D01*
X274846857Y-91490819D02*
X275180190Y-91014628D01*
X275418285Y-91490819D02*
X275418285Y-90490819D01*
X275418285Y-90490819D02*
X275037333Y-90490819D01*
X275037333Y-90490819D02*
X274942095Y-90538438D01*
X274942095Y-90538438D02*
X274894476Y-90586057D01*
X274894476Y-90586057D02*
X274846857Y-90681295D01*
X274846857Y-90681295D02*
X274846857Y-90824152D01*
X274846857Y-90824152D02*
X274894476Y-90919390D01*
X274894476Y-90919390D02*
X274942095Y-90967009D01*
X274942095Y-90967009D02*
X275037333Y-91014628D01*
X275037333Y-91014628D02*
X275418285Y-91014628D01*
X273894476Y-91490819D02*
X274465904Y-91490819D01*
X274180190Y-91490819D02*
X274180190Y-90490819D01*
X274180190Y-90490819D02*
X274275428Y-90633676D01*
X274275428Y-90633676D02*
X274370666Y-90728914D01*
X274370666Y-90728914D02*
X274465904Y-90776533D01*
X273275428Y-90490819D02*
X273180190Y-90490819D01*
X273180190Y-90490819D02*
X273084952Y-90538438D01*
X273084952Y-90538438D02*
X273037333Y-90586057D01*
X273037333Y-90586057D02*
X272989714Y-90681295D01*
X272989714Y-90681295D02*
X272942095Y-90871771D01*
X272942095Y-90871771D02*
X272942095Y-91109866D01*
X272942095Y-91109866D02*
X272989714Y-91300342D01*
X272989714Y-91300342D02*
X273037333Y-91395580D01*
X273037333Y-91395580D02*
X273084952Y-91443200D01*
X273084952Y-91443200D02*
X273180190Y-91490819D01*
X273180190Y-91490819D02*
X273275428Y-91490819D01*
X273275428Y-91490819D02*
X273370666Y-91443200D01*
X273370666Y-91443200D02*
X273418285Y-91395580D01*
X273418285Y-91395580D02*
X273465904Y-91300342D01*
X273465904Y-91300342D02*
X273513523Y-91109866D01*
X273513523Y-91109866D02*
X273513523Y-90871771D01*
X273513523Y-90871771D02*
X273465904Y-90681295D01*
X273465904Y-90681295D02*
X273418285Y-90586057D01*
X273418285Y-90586057D02*
X273370666Y-90538438D01*
X273370666Y-90538438D02*
X273275428Y-90490819D01*
X274816857Y-85430819D02*
X275150190Y-84954628D01*
X275388285Y-85430819D02*
X275388285Y-84430819D01*
X275388285Y-84430819D02*
X275007333Y-84430819D01*
X275007333Y-84430819D02*
X274912095Y-84478438D01*
X274912095Y-84478438D02*
X274864476Y-84526057D01*
X274864476Y-84526057D02*
X274816857Y-84621295D01*
X274816857Y-84621295D02*
X274816857Y-84764152D01*
X274816857Y-84764152D02*
X274864476Y-84859390D01*
X274864476Y-84859390D02*
X274912095Y-84907009D01*
X274912095Y-84907009D02*
X275007333Y-84954628D01*
X275007333Y-84954628D02*
X275388285Y-84954628D01*
X273864476Y-85430819D02*
X274435904Y-85430819D01*
X274150190Y-85430819D02*
X274150190Y-84430819D01*
X274150190Y-84430819D02*
X274245428Y-84573676D01*
X274245428Y-84573676D02*
X274340666Y-84668914D01*
X274340666Y-84668914D02*
X274435904Y-84716533D01*
X273007333Y-84764152D02*
X273007333Y-85430819D01*
X273245428Y-84383200D02*
X273483523Y-85097485D01*
X273483523Y-85097485D02*
X272864476Y-85097485D01*
X256058094Y-67734819D02*
X256058094Y-68544342D01*
X256058094Y-68544342D02*
X256010475Y-68639580D01*
X256010475Y-68639580D02*
X255962856Y-68687200D01*
X255962856Y-68687200D02*
X255867618Y-68734819D01*
X255867618Y-68734819D02*
X255677142Y-68734819D01*
X255677142Y-68734819D02*
X255581904Y-68687200D01*
X255581904Y-68687200D02*
X255534285Y-68639580D01*
X255534285Y-68639580D02*
X255486666Y-68544342D01*
X255486666Y-68544342D02*
X255486666Y-67734819D01*
X255058094Y-67830057D02*
X255010475Y-67782438D01*
X255010475Y-67782438D02*
X254915237Y-67734819D01*
X254915237Y-67734819D02*
X254677142Y-67734819D01*
X254677142Y-67734819D02*
X254581904Y-67782438D01*
X254581904Y-67782438D02*
X254534285Y-67830057D01*
X254534285Y-67830057D02*
X254486666Y-67925295D01*
X254486666Y-67925295D02*
X254486666Y-68020533D01*
X254486666Y-68020533D02*
X254534285Y-68163390D01*
X254534285Y-68163390D02*
X255105713Y-68734819D01*
X255105713Y-68734819D02*
X254486666Y-68734819D01*
X253581904Y-67734819D02*
X254058094Y-67734819D01*
X254058094Y-67734819D02*
X254105713Y-68211009D01*
X254105713Y-68211009D02*
X254058094Y-68163390D01*
X254058094Y-68163390D02*
X253962856Y-68115771D01*
X253962856Y-68115771D02*
X253724761Y-68115771D01*
X253724761Y-68115771D02*
X253629523Y-68163390D01*
X253629523Y-68163390D02*
X253581904Y-68211009D01*
X253581904Y-68211009D02*
X253534285Y-68306247D01*
X253534285Y-68306247D02*
X253534285Y-68544342D01*
X253534285Y-68544342D02*
X253581904Y-68639580D01*
X253581904Y-68639580D02*
X253629523Y-68687200D01*
X253629523Y-68687200D02*
X253724761Y-68734819D01*
X253724761Y-68734819D02*
X253962856Y-68734819D01*
X253962856Y-68734819D02*
X254058094Y-68687200D01*
X254058094Y-68687200D02*
X254105713Y-68639580D01*
X294160819Y-53779523D02*
X293684628Y-53446190D01*
X294160819Y-53208095D02*
X293160819Y-53208095D01*
X293160819Y-53208095D02*
X293160819Y-53589047D01*
X293160819Y-53589047D02*
X293208438Y-53684285D01*
X293208438Y-53684285D02*
X293256057Y-53731904D01*
X293256057Y-53731904D02*
X293351295Y-53779523D01*
X293351295Y-53779523D02*
X293494152Y-53779523D01*
X293494152Y-53779523D02*
X293589390Y-53731904D01*
X293589390Y-53731904D02*
X293637009Y-53684285D01*
X293637009Y-53684285D02*
X293684628Y-53589047D01*
X293684628Y-53589047D02*
X293684628Y-53208095D01*
X294160819Y-54208095D02*
X293160819Y-54208095D01*
X293160819Y-54208095D02*
X294160819Y-54779523D01*
X294160819Y-54779523D02*
X293160819Y-54779523D01*
X294160819Y-55779523D02*
X294160819Y-55208095D01*
X294160819Y-55493809D02*
X293160819Y-55493809D01*
X293160819Y-55493809D02*
X293303676Y-55398571D01*
X293303676Y-55398571D02*
X293398914Y-55303333D01*
X293398914Y-55303333D02*
X293446533Y-55208095D01*
X285671904Y-51214819D02*
X285671904Y-52024342D01*
X285671904Y-52024342D02*
X285624285Y-52119580D01*
X285624285Y-52119580D02*
X285576666Y-52167200D01*
X285576666Y-52167200D02*
X285481428Y-52214819D01*
X285481428Y-52214819D02*
X285290952Y-52214819D01*
X285290952Y-52214819D02*
X285195714Y-52167200D01*
X285195714Y-52167200D02*
X285148095Y-52119580D01*
X285148095Y-52119580D02*
X285100476Y-52024342D01*
X285100476Y-52024342D02*
X285100476Y-51214819D01*
X284148095Y-51214819D02*
X284624285Y-51214819D01*
X284624285Y-51214819D02*
X284671904Y-51691009D01*
X284671904Y-51691009D02*
X284624285Y-51643390D01*
X284624285Y-51643390D02*
X284529047Y-51595771D01*
X284529047Y-51595771D02*
X284290952Y-51595771D01*
X284290952Y-51595771D02*
X284195714Y-51643390D01*
X284195714Y-51643390D02*
X284148095Y-51691009D01*
X284148095Y-51691009D02*
X284100476Y-51786247D01*
X284100476Y-51786247D02*
X284100476Y-52024342D01*
X284100476Y-52024342D02*
X284148095Y-52119580D01*
X284148095Y-52119580D02*
X284195714Y-52167200D01*
X284195714Y-52167200D02*
X284290952Y-52214819D01*
X284290952Y-52214819D02*
X284529047Y-52214819D01*
X284529047Y-52214819D02*
X284624285Y-52167200D01*
X284624285Y-52167200D02*
X284671904Y-52119580D01*
X201991904Y-87814819D02*
X201991904Y-88624342D01*
X201991904Y-88624342D02*
X201944285Y-88719580D01*
X201944285Y-88719580D02*
X201896666Y-88767200D01*
X201896666Y-88767200D02*
X201801428Y-88814819D01*
X201801428Y-88814819D02*
X201610952Y-88814819D01*
X201610952Y-88814819D02*
X201515714Y-88767200D01*
X201515714Y-88767200D02*
X201468095Y-88719580D01*
X201468095Y-88719580D02*
X201420476Y-88624342D01*
X201420476Y-88624342D02*
X201420476Y-87814819D01*
X201039523Y-87814819D02*
X200420476Y-87814819D01*
X200420476Y-87814819D02*
X200753809Y-88195771D01*
X200753809Y-88195771D02*
X200610952Y-88195771D01*
X200610952Y-88195771D02*
X200515714Y-88243390D01*
X200515714Y-88243390D02*
X200468095Y-88291009D01*
X200468095Y-88291009D02*
X200420476Y-88386247D01*
X200420476Y-88386247D02*
X200420476Y-88624342D01*
X200420476Y-88624342D02*
X200468095Y-88719580D01*
X200468095Y-88719580D02*
X200515714Y-88767200D01*
X200515714Y-88767200D02*
X200610952Y-88814819D01*
X200610952Y-88814819D02*
X200896666Y-88814819D01*
X200896666Y-88814819D02*
X200991904Y-88767200D01*
X200991904Y-88767200D02*
X201039523Y-88719580D01*
X201801904Y-121584819D02*
X201801904Y-122394342D01*
X201801904Y-122394342D02*
X201754285Y-122489580D01*
X201754285Y-122489580D02*
X201706666Y-122537200D01*
X201706666Y-122537200D02*
X201611428Y-122584819D01*
X201611428Y-122584819D02*
X201420952Y-122584819D01*
X201420952Y-122584819D02*
X201325714Y-122537200D01*
X201325714Y-122537200D02*
X201278095Y-122489580D01*
X201278095Y-122489580D02*
X201230476Y-122394342D01*
X201230476Y-122394342D02*
X201230476Y-121584819D01*
X200230476Y-122584819D02*
X200801904Y-122584819D01*
X200516190Y-122584819D02*
X200516190Y-121584819D01*
X200516190Y-121584819D02*
X200611428Y-121727676D01*
X200611428Y-121727676D02*
X200706666Y-121822914D01*
X200706666Y-121822914D02*
X200801904Y-121870533D01*
X251294819Y-123326666D02*
X252009104Y-123326666D01*
X252009104Y-123326666D02*
X252151961Y-123279047D01*
X252151961Y-123279047D02*
X252247200Y-123183809D01*
X252247200Y-123183809D02*
X252294819Y-123040952D01*
X252294819Y-123040952D02*
X252294819Y-122945714D01*
X251390057Y-123755238D02*
X251342438Y-123802857D01*
X251342438Y-123802857D02*
X251294819Y-123898095D01*
X251294819Y-123898095D02*
X251294819Y-124136190D01*
X251294819Y-124136190D02*
X251342438Y-124231428D01*
X251342438Y-124231428D02*
X251390057Y-124279047D01*
X251390057Y-124279047D02*
X251485295Y-124326666D01*
X251485295Y-124326666D02*
X251580533Y-124326666D01*
X251580533Y-124326666D02*
X251723390Y-124279047D01*
X251723390Y-124279047D02*
X252294819Y-123707619D01*
X252294819Y-123707619D02*
X252294819Y-124326666D01*
X238042082Y-53918580D02*
X238089701Y-53966200D01*
X238089701Y-53966200D02*
X238232558Y-54013819D01*
X238232558Y-54013819D02*
X238327796Y-54013819D01*
X238327796Y-54013819D02*
X238470653Y-53966200D01*
X238470653Y-53966200D02*
X238565891Y-53870961D01*
X238565891Y-53870961D02*
X238613510Y-53775723D01*
X238613510Y-53775723D02*
X238661129Y-53585247D01*
X238661129Y-53585247D02*
X238661129Y-53442390D01*
X238661129Y-53442390D02*
X238613510Y-53251914D01*
X238613510Y-53251914D02*
X238565891Y-53156676D01*
X238565891Y-53156676D02*
X238470653Y-53061438D01*
X238470653Y-53061438D02*
X238327796Y-53013819D01*
X238327796Y-53013819D02*
X238232558Y-53013819D01*
X238232558Y-53013819D02*
X238089701Y-53061438D01*
X238089701Y-53061438D02*
X238042082Y-53109057D01*
X237661129Y-53109057D02*
X237613510Y-53061438D01*
X237613510Y-53061438D02*
X237518272Y-53013819D01*
X237518272Y-53013819D02*
X237280177Y-53013819D01*
X237280177Y-53013819D02*
X237184939Y-53061438D01*
X237184939Y-53061438D02*
X237137320Y-53109057D01*
X237137320Y-53109057D02*
X237089701Y-53204295D01*
X237089701Y-53204295D02*
X237089701Y-53299533D01*
X237089701Y-53299533D02*
X237137320Y-53442390D01*
X237137320Y-53442390D02*
X237708748Y-54013819D01*
X237708748Y-54013819D02*
X237089701Y-54013819D01*
X236470653Y-53013819D02*
X236375415Y-53013819D01*
X236375415Y-53013819D02*
X236280177Y-53061438D01*
X236280177Y-53061438D02*
X236232558Y-53109057D01*
X236232558Y-53109057D02*
X236184939Y-53204295D01*
X236184939Y-53204295D02*
X236137320Y-53394771D01*
X236137320Y-53394771D02*
X236137320Y-53632866D01*
X236137320Y-53632866D02*
X236184939Y-53823342D01*
X236184939Y-53823342D02*
X236232558Y-53918580D01*
X236232558Y-53918580D02*
X236280177Y-53966200D01*
X236280177Y-53966200D02*
X236375415Y-54013819D01*
X236375415Y-54013819D02*
X236470653Y-54013819D01*
X236470653Y-54013819D02*
X236565891Y-53966200D01*
X236565891Y-53966200D02*
X236613510Y-53918580D01*
X236613510Y-53918580D02*
X236661129Y-53823342D01*
X236661129Y-53823342D02*
X236708748Y-53632866D01*
X236708748Y-53632866D02*
X236708748Y-53394771D01*
X236708748Y-53394771D02*
X236661129Y-53204295D01*
X236661129Y-53204295D02*
X236613510Y-53109057D01*
X236613510Y-53109057D02*
X236565891Y-53061438D01*
X236565891Y-53061438D02*
X236470653Y-53013819D01*
X219261904Y-117994819D02*
X219261904Y-118804342D01*
X219261904Y-118804342D02*
X219214285Y-118899580D01*
X219214285Y-118899580D02*
X219166666Y-118947200D01*
X219166666Y-118947200D02*
X219071428Y-118994819D01*
X219071428Y-118994819D02*
X218880952Y-118994819D01*
X218880952Y-118994819D02*
X218785714Y-118947200D01*
X218785714Y-118947200D02*
X218738095Y-118899580D01*
X218738095Y-118899580D02*
X218690476Y-118804342D01*
X218690476Y-118804342D02*
X218690476Y-117994819D01*
X217785714Y-118328152D02*
X217785714Y-118994819D01*
X218023809Y-117947200D02*
X218261904Y-118661485D01*
X218261904Y-118661485D02*
X217642857Y-118661485D01*
X301229082Y-71311580D02*
X301276701Y-71359200D01*
X301276701Y-71359200D02*
X301419558Y-71406819D01*
X301419558Y-71406819D02*
X301514796Y-71406819D01*
X301514796Y-71406819D02*
X301657653Y-71359200D01*
X301657653Y-71359200D02*
X301752891Y-71263961D01*
X301752891Y-71263961D02*
X301800510Y-71168723D01*
X301800510Y-71168723D02*
X301848129Y-70978247D01*
X301848129Y-70978247D02*
X301848129Y-70835390D01*
X301848129Y-70835390D02*
X301800510Y-70644914D01*
X301800510Y-70644914D02*
X301752891Y-70549676D01*
X301752891Y-70549676D02*
X301657653Y-70454438D01*
X301657653Y-70454438D02*
X301514796Y-70406819D01*
X301514796Y-70406819D02*
X301419558Y-70406819D01*
X301419558Y-70406819D02*
X301276701Y-70454438D01*
X301276701Y-70454438D02*
X301229082Y-70502057D01*
X300371939Y-70740152D02*
X300371939Y-71406819D01*
X300610034Y-70359200D02*
X300848129Y-71073485D01*
X300848129Y-71073485D02*
X300229082Y-71073485D01*
X299419558Y-70406819D02*
X299610034Y-70406819D01*
X299610034Y-70406819D02*
X299705272Y-70454438D01*
X299705272Y-70454438D02*
X299752891Y-70502057D01*
X299752891Y-70502057D02*
X299848129Y-70644914D01*
X299848129Y-70644914D02*
X299895748Y-70835390D01*
X299895748Y-70835390D02*
X299895748Y-71216342D01*
X299895748Y-71216342D02*
X299848129Y-71311580D01*
X299848129Y-71311580D02*
X299800510Y-71359200D01*
X299800510Y-71359200D02*
X299705272Y-71406819D01*
X299705272Y-71406819D02*
X299514796Y-71406819D01*
X299514796Y-71406819D02*
X299419558Y-71359200D01*
X299419558Y-71359200D02*
X299371939Y-71311580D01*
X299371939Y-71311580D02*
X299324320Y-71216342D01*
X299324320Y-71216342D02*
X299324320Y-70978247D01*
X299324320Y-70978247D02*
X299371939Y-70883009D01*
X299371939Y-70883009D02*
X299419558Y-70835390D01*
X299419558Y-70835390D02*
X299514796Y-70787771D01*
X299514796Y-70787771D02*
X299705272Y-70787771D01*
X299705272Y-70787771D02*
X299800510Y-70835390D01*
X299800510Y-70835390D02*
X299848129Y-70883009D01*
X299848129Y-70883009D02*
X299895748Y-70978247D01*
X274736857Y-96220819D02*
X275070190Y-95744628D01*
X275308285Y-96220819D02*
X275308285Y-95220819D01*
X275308285Y-95220819D02*
X274927333Y-95220819D01*
X274927333Y-95220819D02*
X274832095Y-95268438D01*
X274832095Y-95268438D02*
X274784476Y-95316057D01*
X274784476Y-95316057D02*
X274736857Y-95411295D01*
X274736857Y-95411295D02*
X274736857Y-95554152D01*
X274736857Y-95554152D02*
X274784476Y-95649390D01*
X274784476Y-95649390D02*
X274832095Y-95697009D01*
X274832095Y-95697009D02*
X274927333Y-95744628D01*
X274927333Y-95744628D02*
X275308285Y-95744628D01*
X273784476Y-96220819D02*
X274355904Y-96220819D01*
X274070190Y-96220819D02*
X274070190Y-95220819D01*
X274070190Y-95220819D02*
X274165428Y-95363676D01*
X274165428Y-95363676D02*
X274260666Y-95458914D01*
X274260666Y-95458914D02*
X274355904Y-95506533D01*
X273403523Y-95316057D02*
X273355904Y-95268438D01*
X273355904Y-95268438D02*
X273260666Y-95220819D01*
X273260666Y-95220819D02*
X273022571Y-95220819D01*
X273022571Y-95220819D02*
X272927333Y-95268438D01*
X272927333Y-95268438D02*
X272879714Y-95316057D01*
X272879714Y-95316057D02*
X272832095Y-95411295D01*
X272832095Y-95411295D02*
X272832095Y-95506533D01*
X272832095Y-95506533D02*
X272879714Y-95649390D01*
X272879714Y-95649390D02*
X273451142Y-96220819D01*
X273451142Y-96220819D02*
X272832095Y-96220819D01*
X218912857Y-100719580D02*
X218960476Y-100767200D01*
X218960476Y-100767200D02*
X219103333Y-100814819D01*
X219103333Y-100814819D02*
X219198571Y-100814819D01*
X219198571Y-100814819D02*
X219341428Y-100767200D01*
X219341428Y-100767200D02*
X219436666Y-100671961D01*
X219436666Y-100671961D02*
X219484285Y-100576723D01*
X219484285Y-100576723D02*
X219531904Y-100386247D01*
X219531904Y-100386247D02*
X219531904Y-100243390D01*
X219531904Y-100243390D02*
X219484285Y-100052914D01*
X219484285Y-100052914D02*
X219436666Y-99957676D01*
X219436666Y-99957676D02*
X219341428Y-99862438D01*
X219341428Y-99862438D02*
X219198571Y-99814819D01*
X219198571Y-99814819D02*
X219103333Y-99814819D01*
X219103333Y-99814819D02*
X218960476Y-99862438D01*
X218960476Y-99862438D02*
X218912857Y-99910057D01*
X217960476Y-100814819D02*
X218531904Y-100814819D01*
X218246190Y-100814819D02*
X218246190Y-99814819D01*
X218246190Y-99814819D02*
X218341428Y-99957676D01*
X218341428Y-99957676D02*
X218436666Y-100052914D01*
X218436666Y-100052914D02*
X218531904Y-100100533D01*
X217008095Y-100814819D02*
X217579523Y-100814819D01*
X217293809Y-100814819D02*
X217293809Y-99814819D01*
X217293809Y-99814819D02*
X217389047Y-99957676D01*
X217389047Y-99957676D02*
X217484285Y-100052914D01*
X217484285Y-100052914D02*
X217579523Y-100100533D01*
X233996666Y-100199580D02*
X234044285Y-100247200D01*
X234044285Y-100247200D02*
X234187142Y-100294819D01*
X234187142Y-100294819D02*
X234282380Y-100294819D01*
X234282380Y-100294819D02*
X234425237Y-100247200D01*
X234425237Y-100247200D02*
X234520475Y-100151961D01*
X234520475Y-100151961D02*
X234568094Y-100056723D01*
X234568094Y-100056723D02*
X234615713Y-99866247D01*
X234615713Y-99866247D02*
X234615713Y-99723390D01*
X234615713Y-99723390D02*
X234568094Y-99532914D01*
X234568094Y-99532914D02*
X234520475Y-99437676D01*
X234520475Y-99437676D02*
X234425237Y-99342438D01*
X234425237Y-99342438D02*
X234282380Y-99294819D01*
X234282380Y-99294819D02*
X234187142Y-99294819D01*
X234187142Y-99294819D02*
X234044285Y-99342438D01*
X234044285Y-99342438D02*
X233996666Y-99390057D01*
X233425237Y-99723390D02*
X233520475Y-99675771D01*
X233520475Y-99675771D02*
X233568094Y-99628152D01*
X233568094Y-99628152D02*
X233615713Y-99532914D01*
X233615713Y-99532914D02*
X233615713Y-99485295D01*
X233615713Y-99485295D02*
X233568094Y-99390057D01*
X233568094Y-99390057D02*
X233520475Y-99342438D01*
X233520475Y-99342438D02*
X233425237Y-99294819D01*
X233425237Y-99294819D02*
X233234761Y-99294819D01*
X233234761Y-99294819D02*
X233139523Y-99342438D01*
X233139523Y-99342438D02*
X233091904Y-99390057D01*
X233091904Y-99390057D02*
X233044285Y-99485295D01*
X233044285Y-99485295D02*
X233044285Y-99532914D01*
X233044285Y-99532914D02*
X233091904Y-99628152D01*
X233091904Y-99628152D02*
X233139523Y-99675771D01*
X233139523Y-99675771D02*
X233234761Y-99723390D01*
X233234761Y-99723390D02*
X233425237Y-99723390D01*
X233425237Y-99723390D02*
X233520475Y-99771009D01*
X233520475Y-99771009D02*
X233568094Y-99818628D01*
X233568094Y-99818628D02*
X233615713Y-99913866D01*
X233615713Y-99913866D02*
X233615713Y-100104342D01*
X233615713Y-100104342D02*
X233568094Y-100199580D01*
X233568094Y-100199580D02*
X233520475Y-100247200D01*
X233520475Y-100247200D02*
X233425237Y-100294819D01*
X233425237Y-100294819D02*
X233234761Y-100294819D01*
X233234761Y-100294819D02*
X233139523Y-100247200D01*
X233139523Y-100247200D02*
X233091904Y-100199580D01*
X233091904Y-100199580D02*
X233044285Y-100104342D01*
X233044285Y-100104342D02*
X233044285Y-99913866D01*
X233044285Y-99913866D02*
X233091904Y-99818628D01*
X233091904Y-99818628D02*
X233139523Y-99771009D01*
X233139523Y-99771009D02*
X233234761Y-99723390D01*
M02*
