%TF.GenerationSoftware,KiCad,Pcbnew,9.0.2*%
%TF.CreationDate,2026-06-07T12:57:07-05:00*%
%TF.ProjectId,SOUND,534f554e-442e-46b6-9963-61645f706362,V0.96*%
%TF.SameCoordinates,Original*%
%TF.FileFunction,Soldermask,Top*%
%TF.FilePolarity,Negative*%
%FSLAX46Y46*%
G04 Gerber Fmt 4.6, Leading zero omitted, Abs format (unit mm)*
G04 Created by KiCad (PCBNEW 9.0.2) date 2026-06-07 12:57:07*
%MOMM*%
%LPD*%
G01*
G04 APERTURE LIST*
G04 Aperture macros list*
%AMRoundRect*
0 Rectangle with rounded corners*
0 $1 Rounding radius*
0 $2 $3 $4 $5 $6 $7 $8 $9 X,Y pos of 4 corners*
0 Add a 4 corners polygon primitive as box body*
4,1,4,$2,$3,$4,$5,$6,$7,$8,$9,$2,$3,0*
0 Add four circle primitives for the rounded corners*
1,1,$1+$1,$2,$3*
1,1,$1+$1,$4,$5*
1,1,$1+$1,$6,$7*
1,1,$1+$1,$8,$9*
0 Add four rect primitives between the rounded corners*
20,1,$1+$1,$2,$3,$4,$5,0*
20,1,$1+$1,$4,$5,$6,$7,0*
20,1,$1+$1,$6,$7,$8,$9,0*
20,1,$1+$1,$8,$9,$2,$3,0*%
G04 Aperture macros list end*
%ADD10C,1.600000*%
%ADD11O,1.600000X1.600000*%
%ADD12R,1.600000X1.600000*%
%ADD13R,1.700000X1.700000*%
%ADD14C,1.700000*%
%ADD15C,1.200000*%
%ADD16O,2.200000X1.200000*%
%ADD17O,2.300000X1.600000*%
%ADD18O,1.200000X2.200000*%
%ADD19O,2.500000X1.600000*%
%ADD20R,2.400000X1.600000*%
%ADD21O,2.400000X1.600000*%
%ADD22R,1.780000X7.620000*%
%ADD23C,2.340000*%
%ADD24C,4.000000*%
%ADD25RoundRect,0.250000X-0.950000X-0.550000X0.950000X-0.550000X0.950000X0.550000X-0.950000X0.550000X0*%
%ADD26O,1.700000X1.700000*%
G04 APERTURE END LIST*
D10*
%TO.C,R1*%
X272860000Y-112830000D03*
D11*
X280480000Y-112830000D03*
%TD*%
D10*
%TO.C,C2*%
X204174000Y-73586000D03*
X199174000Y-73586000D03*
%TD*%
D12*
%TO.C,RN2*%
X159140000Y-109780000D03*
D11*
X159140000Y-112320000D03*
X159140000Y-114860000D03*
X159140000Y-117400000D03*
X159140000Y-119940000D03*
X159140000Y-122480000D03*
X159140000Y-125020000D03*
X159140000Y-127560000D03*
X159140000Y-130100000D03*
%TD*%
D10*
%TO.C,R8*%
X270428000Y-59420000D03*
D11*
X278048000Y-59420000D03*
%TD*%
D12*
%TO.C,C19*%
X313207000Y-133123000D03*
D10*
X315707000Y-133123000D03*
%TD*%
D13*
%TO.C,P2*%
X271810000Y-50640000D03*
D14*
X274350000Y-50640000D03*
X271810000Y-53180000D03*
X274350000Y-53180000D03*
%TD*%
D10*
%TO.C,R11*%
X270184000Y-76000000D03*
D11*
X277804000Y-76000000D03*
%TD*%
D12*
%TO.C,C47*%
X299560000Y-86400000D03*
D10*
X302060000Y-86400000D03*
%TD*%
D15*
%TO.C,J8*%
X320380000Y-93730000D03*
X322880000Y-93730000D03*
X315380000Y-88730000D03*
X320380000Y-83730000D03*
X322880000Y-83730000D03*
D16*
X315380000Y-93730000D03*
D17*
X315380000Y-91230000D03*
D18*
X320380000Y-88730000D03*
D16*
X315380000Y-83730000D03*
D19*
X315380000Y-86230000D03*
%TD*%
D10*
%TO.C,C15*%
X198410000Y-107120000D03*
X203410000Y-107120000D03*
%TD*%
%TO.C,C45*%
X298356000Y-94924000D03*
X303356000Y-94924000D03*
%TD*%
%TO.C,C16*%
X181390000Y-99790000D03*
X186390000Y-99790000D03*
%TD*%
%TO.C,C4*%
X203036000Y-43964000D03*
X208036000Y-43964000D03*
%TD*%
D12*
%TO.C,RN3*%
X238200000Y-71720000D03*
D11*
X238200000Y-74260000D03*
X238200000Y-76800000D03*
X238200000Y-79340000D03*
X238200000Y-81880000D03*
X238200000Y-84420000D03*
X238200000Y-86960000D03*
X238200000Y-89500000D03*
X238200000Y-92040000D03*
%TD*%
D10*
%TO.C,R13*%
X270254000Y-70760000D03*
D11*
X277874000Y-70760000D03*
%TD*%
D12*
%TO.C,C17*%
X155790000Y-96910000D03*
D10*
X158290000Y-96910000D03*
%TD*%
D20*
%TO.C,U6*%
X230520000Y-106880000D03*
D21*
X230520000Y-109420000D03*
X230520000Y-111960000D03*
X230520000Y-114500000D03*
X230520000Y-117040000D03*
X230520000Y-119580000D03*
X230520000Y-122120000D03*
X230520000Y-124660000D03*
X230520000Y-127200000D03*
X230520000Y-129740000D03*
X238140000Y-129740000D03*
X238140000Y-127200000D03*
X238140000Y-124660000D03*
X238140000Y-122120000D03*
X238140000Y-119580000D03*
X238140000Y-117040000D03*
X238140000Y-114500000D03*
X238140000Y-111960000D03*
X238140000Y-109420000D03*
X238140000Y-106880000D03*
%TD*%
D10*
%TO.C,C44*%
X297800000Y-67920000D03*
X302800000Y-67920000D03*
%TD*%
D22*
%TO.C,J1*%
X299534900Y-146144300D03*
X296994900Y-146144300D03*
X294454900Y-146144300D03*
X291914900Y-146144300D03*
X289374900Y-146144300D03*
X286834900Y-146144300D03*
X284294900Y-146144300D03*
X281754900Y-146144300D03*
X279214900Y-146144300D03*
X276674900Y-146144300D03*
X274134900Y-146144300D03*
X271594900Y-146144300D03*
X269054900Y-146144300D03*
X266514900Y-146144300D03*
X263974900Y-146144300D03*
X261434900Y-146144300D03*
X258894900Y-146144300D03*
X256354900Y-146144300D03*
X253814900Y-146144300D03*
X251274900Y-146144300D03*
X248734900Y-146144300D03*
X246194900Y-146144300D03*
X243654900Y-146144300D03*
X241114900Y-146144300D03*
X238574900Y-146144300D03*
X236034900Y-146144300D03*
X233494900Y-146144300D03*
X230954900Y-146144300D03*
X228414900Y-146144300D03*
X225874900Y-146144300D03*
X223334900Y-146144300D03*
%TD*%
D20*
%TO.C,U8*%
X213410000Y-43460000D03*
D21*
X213410000Y-46000000D03*
X213410000Y-48540000D03*
X213410000Y-51080000D03*
X213410000Y-53620000D03*
X213410000Y-56160000D03*
X213410000Y-58700000D03*
X213410000Y-61240000D03*
X213410000Y-63780000D03*
X213410000Y-66320000D03*
X213410000Y-68860000D03*
X213410000Y-71400000D03*
X213410000Y-73940000D03*
X213410000Y-76480000D03*
X213410000Y-79020000D03*
X213410000Y-81560000D03*
X213410000Y-84100000D03*
X213410000Y-86640000D03*
X213410000Y-89180000D03*
X213410000Y-91720000D03*
X228650000Y-91720000D03*
X228650000Y-89180000D03*
X228650000Y-86640000D03*
X228650000Y-84100000D03*
X228650000Y-81560000D03*
X228650000Y-79020000D03*
X228650000Y-76480000D03*
X228650000Y-73940000D03*
X228650000Y-71400000D03*
X228650000Y-68860000D03*
X228650000Y-66320000D03*
X228650000Y-63780000D03*
X228650000Y-61240000D03*
X228650000Y-58700000D03*
X228650000Y-56160000D03*
X228650000Y-53620000D03*
X228650000Y-51080000D03*
X228650000Y-48540000D03*
X228650000Y-46000000D03*
X228650000Y-43460000D03*
%TD*%
D10*
%TO.C,R9*%
X270300000Y-66090000D03*
D11*
X277920000Y-66090000D03*
%TD*%
D10*
%TO.C,C10*%
X166470000Y-109480000D03*
X171470000Y-109480000D03*
%TD*%
D20*
%TO.C,U7*%
X179980000Y-106700000D03*
D21*
X179980000Y-109240000D03*
X179980000Y-111780000D03*
X179980000Y-114320000D03*
X179980000Y-116860000D03*
X179980000Y-119400000D03*
X179980000Y-121940000D03*
X179980000Y-124480000D03*
X179980000Y-127020000D03*
X179980000Y-129560000D03*
X187600000Y-129560000D03*
X187600000Y-127020000D03*
X187600000Y-124480000D03*
X187600000Y-121940000D03*
X187600000Y-119400000D03*
X187600000Y-116860000D03*
X187600000Y-114320000D03*
X187600000Y-111780000D03*
X187600000Y-109240000D03*
X187600000Y-106700000D03*
%TD*%
D10*
%TO.C,C1*%
X266170000Y-44230000D03*
X271170000Y-44230000D03*
%TD*%
%TO.C,C5*%
X238830000Y-43990000D03*
X243830000Y-43990000D03*
%TD*%
D23*
%TO.C,RV1*%
X282250000Y-76050000D03*
X292250000Y-73550000D03*
X282250000Y-71050000D03*
%TD*%
D12*
%TO.C,C18*%
X309930000Y-45560000D03*
D10*
X312430000Y-45560000D03*
%TD*%
D24*
%TO.C,J10*%
X319810000Y-125250000D03*
X319810000Y-100250000D03*
D12*
X316970000Y-118290000D03*
D10*
X316970000Y-115520000D03*
X316970000Y-112750000D03*
X316970000Y-109980000D03*
X316970000Y-107210000D03*
X319810000Y-116905000D03*
X319810000Y-114135000D03*
X319810000Y-111365000D03*
X319810000Y-108595000D03*
%TD*%
%TO.C,R10*%
X270174000Y-91060000D03*
D11*
X277794000Y-91060000D03*
%TD*%
D10*
%TO.C,R14*%
X270144000Y-85000000D03*
D11*
X277764000Y-85000000D03*
%TD*%
D25*
%TO.C,SW2*%
X165390000Y-116170000D03*
D21*
X165390000Y-118710000D03*
X165390000Y-121250000D03*
X165390000Y-123790000D03*
X165390000Y-126330000D03*
X165390000Y-128870000D03*
X173010000Y-128870000D03*
X173010000Y-126330000D03*
X173010000Y-123790000D03*
X173010000Y-121250000D03*
X173010000Y-118710000D03*
X173010000Y-116170000D03*
%TD*%
D20*
%TO.C,U25*%
X247200000Y-44150000D03*
D21*
X247200000Y-46690000D03*
X247200000Y-49230000D03*
X247200000Y-51770000D03*
X247200000Y-54310000D03*
X247200000Y-56850000D03*
X247200000Y-59390000D03*
X247200000Y-61930000D03*
X247200000Y-64470000D03*
X247200000Y-67010000D03*
X247200000Y-69550000D03*
X247200000Y-72090000D03*
X247200000Y-74630000D03*
X247200000Y-77170000D03*
X247200000Y-79710000D03*
X247200000Y-82250000D03*
X247200000Y-84790000D03*
X247200000Y-87330000D03*
X247200000Y-89870000D03*
X247200000Y-92410000D03*
X262440000Y-92410000D03*
X262440000Y-89870000D03*
X262440000Y-87330000D03*
X262440000Y-84790000D03*
X262440000Y-82250000D03*
X262440000Y-79710000D03*
X262440000Y-77170000D03*
X262440000Y-74630000D03*
X262440000Y-72090000D03*
X262440000Y-69550000D03*
X262440000Y-67010000D03*
X262440000Y-64470000D03*
X262440000Y-61930000D03*
X262440000Y-59390000D03*
X262440000Y-56850000D03*
X262440000Y-54310000D03*
X262440000Y-51770000D03*
X262440000Y-49230000D03*
X262440000Y-46690000D03*
X262440000Y-44150000D03*
%TD*%
D12*
%TO.C,RN1*%
X296120000Y-63820000D03*
D11*
X296120000Y-61280000D03*
X296120000Y-58740000D03*
X296120000Y-56200000D03*
X296120000Y-53660000D03*
X296120000Y-51120000D03*
X296120000Y-48580000D03*
X296120000Y-46040000D03*
X296120000Y-43500000D03*
%TD*%
D20*
%TO.C,U5*%
X281100000Y-44140000D03*
D21*
X281100000Y-46680000D03*
X281100000Y-49220000D03*
X281100000Y-51760000D03*
X281100000Y-54300000D03*
X281100000Y-56840000D03*
X281100000Y-59380000D03*
X288720000Y-59380000D03*
X288720000Y-56840000D03*
X288720000Y-54300000D03*
X288720000Y-51760000D03*
X288720000Y-49220000D03*
X288720000Y-46680000D03*
X288720000Y-44140000D03*
%TD*%
D20*
%TO.C,U3*%
X197420000Y-80740000D03*
D21*
X197420000Y-83280000D03*
X197420000Y-85820000D03*
X197420000Y-88360000D03*
X197420000Y-90900000D03*
X197420000Y-93440000D03*
X197420000Y-95980000D03*
X205040000Y-95980000D03*
X205040000Y-93440000D03*
X205040000Y-90900000D03*
X205040000Y-88360000D03*
X205040000Y-85820000D03*
X205040000Y-83280000D03*
X205040000Y-80740000D03*
%TD*%
D20*
%TO.C,U1*%
X197230000Y-114510000D03*
D21*
X197230000Y-117050000D03*
X197230000Y-119590000D03*
X197230000Y-122130000D03*
X197230000Y-124670000D03*
X197230000Y-127210000D03*
X197230000Y-129750000D03*
X204850000Y-129750000D03*
X204850000Y-127210000D03*
X204850000Y-124670000D03*
X204850000Y-122130000D03*
X204850000Y-119590000D03*
X204850000Y-117050000D03*
X204850000Y-114510000D03*
%TD*%
D13*
%TO.C,J2*%
X250570000Y-117310000D03*
D26*
X253110000Y-117310000D03*
X250570000Y-119850000D03*
X253110000Y-119850000D03*
X250570000Y-122390000D03*
X253110000Y-122390000D03*
X250570000Y-124930000D03*
X253110000Y-124930000D03*
X250570000Y-127470000D03*
X253110000Y-127470000D03*
X250570000Y-130010000D03*
X253110000Y-130010000D03*
%TD*%
D12*
%TO.C,C20*%
X236160000Y-57360000D03*
D10*
X238660000Y-57360000D03*
%TD*%
D20*
%TO.C,U4*%
X214690000Y-107110000D03*
D21*
X214690000Y-109650000D03*
X214690000Y-112190000D03*
X214690000Y-114730000D03*
X214690000Y-117270000D03*
X214690000Y-119810000D03*
X214690000Y-122350000D03*
X214690000Y-124890000D03*
X214690000Y-127430000D03*
X214690000Y-129970000D03*
X222310000Y-129970000D03*
X222310000Y-127430000D03*
X222310000Y-124890000D03*
X222310000Y-122350000D03*
X222310000Y-119810000D03*
X222310000Y-117270000D03*
X222310000Y-114730000D03*
X222310000Y-112190000D03*
X222310000Y-109650000D03*
X222310000Y-107110000D03*
%TD*%
D12*
%TO.C,C46*%
X299347000Y-74753000D03*
D10*
X301847000Y-74753000D03*
%TD*%
D24*
%TO.C,J9*%
X319810000Y-77000000D03*
X319810000Y-52000000D03*
D12*
X316970000Y-70040000D03*
D10*
X316970000Y-67270000D03*
X316970000Y-64500000D03*
X316970000Y-61730000D03*
X316970000Y-58960000D03*
X319810000Y-68655000D03*
X319810000Y-65885000D03*
X319810000Y-63115000D03*
X319810000Y-60345000D03*
%TD*%
%TO.C,R12*%
X270064000Y-95790000D03*
D11*
X277684000Y-95790000D03*
%TD*%
D10*
%TO.C,C11*%
X216030000Y-100130000D03*
X221030000Y-100130000D03*
%TD*%
D23*
%TO.C,RV2*%
X282560000Y-90435000D03*
X292560000Y-87935000D03*
X282560000Y-85435000D03*
%TD*%
D10*
%TO.C,C8*%
X231590000Y-99610000D03*
X236590000Y-99610000D03*
%TD*%
M02*
