%TF.GenerationSoftware,KiCad,Pcbnew,9.0.2*%
%TF.CreationDate,2026-03-22T12:44:50-05:00*%
%TF.ProjectId,SOUND,534f554e-442e-46b6-9963-61645f706362,V0.9*%
%TF.SameCoordinates,Original*%
%TF.FileFunction,Legend,Bot*%
%TF.FilePolarity,Positive*%
%FSLAX46Y46*%
G04 Gerber Fmt 4.6, Leading zero omitted, Abs format (unit mm)*
G04 Created by KiCad (PCBNEW 9.0.2) date 2026-03-22 12:44:50*
%MOMM*%
%LPD*%
G01*
G04 APERTURE LIST*
%ADD10C,0.150000*%
G04 APERTURE END LIST*
D10*
X256058094Y-67734819D02*
X256058094Y-68544342D01*
X256058094Y-68544342D02*
X256010475Y-68639580D01*
X256010475Y-68639580D02*
X255962856Y-68687200D01*
X255962856Y-68687200D02*
X255867618Y-68734819D01*
X255867618Y-68734819D02*
X255677142Y-68734819D01*
X255677142Y-68734819D02*
X255581904Y-68687200D01*
X255581904Y-68687200D02*
X255534285Y-68639580D01*
X255534285Y-68639580D02*
X255486666Y-68544342D01*
X255486666Y-68544342D02*
X255486666Y-67734819D01*
X255058094Y-67830057D02*
X255010475Y-67782438D01*
X255010475Y-67782438D02*
X254915237Y-67734819D01*
X254915237Y-67734819D02*
X254677142Y-67734819D01*
X254677142Y-67734819D02*
X254581904Y-67782438D01*
X254581904Y-67782438D02*
X254534285Y-67830057D01*
X254534285Y-67830057D02*
X254486666Y-67925295D01*
X254486666Y-67925295D02*
X254486666Y-68020533D01*
X254486666Y-68020533D02*
X254534285Y-68163390D01*
X254534285Y-68163390D02*
X255105713Y-68734819D01*
X255105713Y-68734819D02*
X254486666Y-68734819D01*
X253581904Y-67734819D02*
X254058094Y-67734819D01*
X254058094Y-67734819D02*
X254105713Y-68211009D01*
X254105713Y-68211009D02*
X254058094Y-68163390D01*
X254058094Y-68163390D02*
X253962856Y-68115771D01*
X253962856Y-68115771D02*
X253724761Y-68115771D01*
X253724761Y-68115771D02*
X253629523Y-68163390D01*
X253629523Y-68163390D02*
X253581904Y-68211009D01*
X253581904Y-68211009D02*
X253534285Y-68306247D01*
X253534285Y-68306247D02*
X253534285Y-68544342D01*
X253534285Y-68544342D02*
X253581904Y-68639580D01*
X253581904Y-68639580D02*
X253629523Y-68687200D01*
X253629523Y-68687200D02*
X253724761Y-68734819D01*
X253724761Y-68734819D02*
X253962856Y-68734819D01*
X253962856Y-68734819D02*
X254058094Y-68687200D01*
X254058094Y-68687200D02*
X254105713Y-68639580D01*
X235091904Y-117764819D02*
X235091904Y-118574342D01*
X235091904Y-118574342D02*
X235044285Y-118669580D01*
X235044285Y-118669580D02*
X234996666Y-118717200D01*
X234996666Y-118717200D02*
X234901428Y-118764819D01*
X234901428Y-118764819D02*
X234710952Y-118764819D01*
X234710952Y-118764819D02*
X234615714Y-118717200D01*
X234615714Y-118717200D02*
X234568095Y-118669580D01*
X234568095Y-118669580D02*
X234520476Y-118574342D01*
X234520476Y-118574342D02*
X234520476Y-117764819D01*
X233615714Y-117764819D02*
X233806190Y-117764819D01*
X233806190Y-117764819D02*
X233901428Y-117812438D01*
X233901428Y-117812438D02*
X233949047Y-117860057D01*
X233949047Y-117860057D02*
X234044285Y-118002914D01*
X234044285Y-118002914D02*
X234091904Y-118193390D01*
X234091904Y-118193390D02*
X234091904Y-118574342D01*
X234091904Y-118574342D02*
X234044285Y-118669580D01*
X234044285Y-118669580D02*
X233996666Y-118717200D01*
X233996666Y-118717200D02*
X233901428Y-118764819D01*
X233901428Y-118764819D02*
X233710952Y-118764819D01*
X233710952Y-118764819D02*
X233615714Y-118717200D01*
X233615714Y-118717200D02*
X233568095Y-118669580D01*
X233568095Y-118669580D02*
X233520476Y-118574342D01*
X233520476Y-118574342D02*
X233520476Y-118336247D01*
X233520476Y-118336247D02*
X233568095Y-118241009D01*
X233568095Y-118241009D02*
X233615714Y-118193390D01*
X233615714Y-118193390D02*
X233710952Y-118145771D01*
X233710952Y-118145771D02*
X233901428Y-118145771D01*
X233901428Y-118145771D02*
X233996666Y-118193390D01*
X233996666Y-118193390D02*
X234044285Y-118241009D01*
X234044285Y-118241009D02*
X234091904Y-118336247D01*
X219261904Y-117994819D02*
X219261904Y-118804342D01*
X219261904Y-118804342D02*
X219214285Y-118899580D01*
X219214285Y-118899580D02*
X219166666Y-118947200D01*
X219166666Y-118947200D02*
X219071428Y-118994819D01*
X219071428Y-118994819D02*
X218880952Y-118994819D01*
X218880952Y-118994819D02*
X218785714Y-118947200D01*
X218785714Y-118947200D02*
X218738095Y-118899580D01*
X218738095Y-118899580D02*
X218690476Y-118804342D01*
X218690476Y-118804342D02*
X218690476Y-117994819D01*
X217785714Y-118328152D02*
X217785714Y-118994819D01*
X218023809Y-117947200D02*
X218261904Y-118661485D01*
X218261904Y-118661485D02*
X217642857Y-118661485D01*
X221716904Y-67949819D02*
X221716904Y-68759342D01*
X221716904Y-68759342D02*
X221669285Y-68854580D01*
X221669285Y-68854580D02*
X221621666Y-68902200D01*
X221621666Y-68902200D02*
X221526428Y-68949819D01*
X221526428Y-68949819D02*
X221335952Y-68949819D01*
X221335952Y-68949819D02*
X221240714Y-68902200D01*
X221240714Y-68902200D02*
X221193095Y-68854580D01*
X221193095Y-68854580D02*
X221145476Y-68759342D01*
X221145476Y-68759342D02*
X221145476Y-67949819D01*
X220716904Y-68045057D02*
X220669285Y-67997438D01*
X220669285Y-67997438D02*
X220574047Y-67949819D01*
X220574047Y-67949819D02*
X220335952Y-67949819D01*
X220335952Y-67949819D02*
X220240714Y-67997438D01*
X220240714Y-67997438D02*
X220193095Y-68045057D01*
X220193095Y-68045057D02*
X220145476Y-68140295D01*
X220145476Y-68140295D02*
X220145476Y-68235533D01*
X220145476Y-68235533D02*
X220193095Y-68378390D01*
X220193095Y-68378390D02*
X220764523Y-68949819D01*
X220764523Y-68949819D02*
X220145476Y-68949819D01*
X301442082Y-82958580D02*
X301489701Y-83006200D01*
X301489701Y-83006200D02*
X301632558Y-83053819D01*
X301632558Y-83053819D02*
X301727796Y-83053819D01*
X301727796Y-83053819D02*
X301870653Y-83006200D01*
X301870653Y-83006200D02*
X301965891Y-82910961D01*
X301965891Y-82910961D02*
X302013510Y-82815723D01*
X302013510Y-82815723D02*
X302061129Y-82625247D01*
X302061129Y-82625247D02*
X302061129Y-82482390D01*
X302061129Y-82482390D02*
X302013510Y-82291914D01*
X302013510Y-82291914D02*
X301965891Y-82196676D01*
X301965891Y-82196676D02*
X301870653Y-82101438D01*
X301870653Y-82101438D02*
X301727796Y-82053819D01*
X301727796Y-82053819D02*
X301632558Y-82053819D01*
X301632558Y-82053819D02*
X301489701Y-82101438D01*
X301489701Y-82101438D02*
X301442082Y-82149057D01*
X300584939Y-82387152D02*
X300584939Y-83053819D01*
X300823034Y-82006200D02*
X301061129Y-82720485D01*
X301061129Y-82720485D02*
X300442082Y-82720485D01*
X300156367Y-82053819D02*
X299489701Y-82053819D01*
X299489701Y-82053819D02*
X299918272Y-83053819D01*
X301229082Y-71311580D02*
X301276701Y-71359200D01*
X301276701Y-71359200D02*
X301419558Y-71406819D01*
X301419558Y-71406819D02*
X301514796Y-71406819D01*
X301514796Y-71406819D02*
X301657653Y-71359200D01*
X301657653Y-71359200D02*
X301752891Y-71263961D01*
X301752891Y-71263961D02*
X301800510Y-71168723D01*
X301800510Y-71168723D02*
X301848129Y-70978247D01*
X301848129Y-70978247D02*
X301848129Y-70835390D01*
X301848129Y-70835390D02*
X301800510Y-70644914D01*
X301800510Y-70644914D02*
X301752891Y-70549676D01*
X301752891Y-70549676D02*
X301657653Y-70454438D01*
X301657653Y-70454438D02*
X301514796Y-70406819D01*
X301514796Y-70406819D02*
X301419558Y-70406819D01*
X301419558Y-70406819D02*
X301276701Y-70454438D01*
X301276701Y-70454438D02*
X301229082Y-70502057D01*
X300371939Y-70740152D02*
X300371939Y-71406819D01*
X300610034Y-70359200D02*
X300848129Y-71073485D01*
X300848129Y-71073485D02*
X300229082Y-71073485D01*
X299419558Y-70406819D02*
X299610034Y-70406819D01*
X299610034Y-70406819D02*
X299705272Y-70454438D01*
X299705272Y-70454438D02*
X299752891Y-70502057D01*
X299752891Y-70502057D02*
X299848129Y-70644914D01*
X299848129Y-70644914D02*
X299895748Y-70835390D01*
X299895748Y-70835390D02*
X299895748Y-71216342D01*
X299895748Y-71216342D02*
X299848129Y-71311580D01*
X299848129Y-71311580D02*
X299800510Y-71359200D01*
X299800510Y-71359200D02*
X299705272Y-71406819D01*
X299705272Y-71406819D02*
X299514796Y-71406819D01*
X299514796Y-71406819D02*
X299419558Y-71359200D01*
X299419558Y-71359200D02*
X299371939Y-71311580D01*
X299371939Y-71311580D02*
X299324320Y-71216342D01*
X299324320Y-71216342D02*
X299324320Y-70978247D01*
X299324320Y-70978247D02*
X299371939Y-70883009D01*
X299371939Y-70883009D02*
X299419558Y-70835390D01*
X299419558Y-70835390D02*
X299514796Y-70787771D01*
X299514796Y-70787771D02*
X299705272Y-70787771D01*
X299705272Y-70787771D02*
X299800510Y-70835390D01*
X299800510Y-70835390D02*
X299848129Y-70883009D01*
X299848129Y-70883009D02*
X299895748Y-70978247D01*
X309342857Y-81509580D02*
X309390476Y-81557200D01*
X309390476Y-81557200D02*
X309533333Y-81604819D01*
X309533333Y-81604819D02*
X309628571Y-81604819D01*
X309628571Y-81604819D02*
X309771428Y-81557200D01*
X309771428Y-81557200D02*
X309866666Y-81461961D01*
X309866666Y-81461961D02*
X309914285Y-81366723D01*
X309914285Y-81366723D02*
X309961904Y-81176247D01*
X309961904Y-81176247D02*
X309961904Y-81033390D01*
X309961904Y-81033390D02*
X309914285Y-80842914D01*
X309914285Y-80842914D02*
X309866666Y-80747676D01*
X309866666Y-80747676D02*
X309771428Y-80652438D01*
X309771428Y-80652438D02*
X309628571Y-80604819D01*
X309628571Y-80604819D02*
X309533333Y-80604819D01*
X309533333Y-80604819D02*
X309390476Y-80652438D01*
X309390476Y-80652438D02*
X309342857Y-80700057D01*
X308485714Y-80938152D02*
X308485714Y-81604819D01*
X308723809Y-80557200D02*
X308961904Y-81271485D01*
X308961904Y-81271485D02*
X308342857Y-81271485D01*
X307485714Y-80604819D02*
X307961904Y-80604819D01*
X307961904Y-80604819D02*
X308009523Y-81081009D01*
X308009523Y-81081009D02*
X307961904Y-81033390D01*
X307961904Y-81033390D02*
X307866666Y-80985771D01*
X307866666Y-80985771D02*
X307628571Y-80985771D01*
X307628571Y-80985771D02*
X307533333Y-81033390D01*
X307533333Y-81033390D02*
X307485714Y-81081009D01*
X307485714Y-81081009D02*
X307438095Y-81176247D01*
X307438095Y-81176247D02*
X307438095Y-81414342D01*
X307438095Y-81414342D02*
X307485714Y-81509580D01*
X307485714Y-81509580D02*
X307533333Y-81557200D01*
X307533333Y-81557200D02*
X307628571Y-81604819D01*
X307628571Y-81604819D02*
X307866666Y-81604819D01*
X307866666Y-81604819D02*
X307961904Y-81557200D01*
X307961904Y-81557200D02*
X308009523Y-81509580D01*
X309122857Y-75409580D02*
X309170476Y-75457200D01*
X309170476Y-75457200D02*
X309313333Y-75504819D01*
X309313333Y-75504819D02*
X309408571Y-75504819D01*
X309408571Y-75504819D02*
X309551428Y-75457200D01*
X309551428Y-75457200D02*
X309646666Y-75361961D01*
X309646666Y-75361961D02*
X309694285Y-75266723D01*
X309694285Y-75266723D02*
X309741904Y-75076247D01*
X309741904Y-75076247D02*
X309741904Y-74933390D01*
X309741904Y-74933390D02*
X309694285Y-74742914D01*
X309694285Y-74742914D02*
X309646666Y-74647676D01*
X309646666Y-74647676D02*
X309551428Y-74552438D01*
X309551428Y-74552438D02*
X309408571Y-74504819D01*
X309408571Y-74504819D02*
X309313333Y-74504819D01*
X309313333Y-74504819D02*
X309170476Y-74552438D01*
X309170476Y-74552438D02*
X309122857Y-74600057D01*
X308265714Y-74838152D02*
X308265714Y-75504819D01*
X308503809Y-74457200D02*
X308741904Y-75171485D01*
X308741904Y-75171485D02*
X308122857Y-75171485D01*
X307313333Y-74838152D02*
X307313333Y-75504819D01*
X307551428Y-74457200D02*
X307789523Y-75171485D01*
X307789523Y-75171485D02*
X307170476Y-75171485D01*
X206084666Y-92831580D02*
X206132285Y-92879200D01*
X206132285Y-92879200D02*
X206275142Y-92926819D01*
X206275142Y-92926819D02*
X206370380Y-92926819D01*
X206370380Y-92926819D02*
X206513237Y-92879200D01*
X206513237Y-92879200D02*
X206608475Y-92783961D01*
X206608475Y-92783961D02*
X206656094Y-92688723D01*
X206656094Y-92688723D02*
X206703713Y-92498247D01*
X206703713Y-92498247D02*
X206703713Y-92355390D01*
X206703713Y-92355390D02*
X206656094Y-92164914D01*
X206656094Y-92164914D02*
X206608475Y-92069676D01*
X206608475Y-92069676D02*
X206513237Y-91974438D01*
X206513237Y-91974438D02*
X206370380Y-91926819D01*
X206370380Y-91926819D02*
X206275142Y-91926819D01*
X206275142Y-91926819D02*
X206132285Y-91974438D01*
X206132285Y-91974438D02*
X206084666Y-92022057D01*
X205703713Y-92022057D02*
X205656094Y-91974438D01*
X205656094Y-91974438D02*
X205560856Y-91926819D01*
X205560856Y-91926819D02*
X205322761Y-91926819D01*
X205322761Y-91926819D02*
X205227523Y-91974438D01*
X205227523Y-91974438D02*
X205179904Y-92022057D01*
X205179904Y-92022057D02*
X205132285Y-92117295D01*
X205132285Y-92117295D02*
X205132285Y-92212533D01*
X205132285Y-92212533D02*
X205179904Y-92355390D01*
X205179904Y-92355390D02*
X205751332Y-92926819D01*
X205751332Y-92926819D02*
X205132285Y-92926819D01*
X156255180Y-121670476D02*
X156731371Y-122003809D01*
X156255180Y-122241904D02*
X157255180Y-122241904D01*
X157255180Y-122241904D02*
X157255180Y-121860952D01*
X157255180Y-121860952D02*
X157207561Y-121765714D01*
X157207561Y-121765714D02*
X157159942Y-121718095D01*
X157159942Y-121718095D02*
X157064704Y-121670476D01*
X157064704Y-121670476D02*
X156921847Y-121670476D01*
X156921847Y-121670476D02*
X156826609Y-121718095D01*
X156826609Y-121718095D02*
X156778990Y-121765714D01*
X156778990Y-121765714D02*
X156731371Y-121860952D01*
X156731371Y-121860952D02*
X156731371Y-122241904D01*
X156255180Y-121241904D02*
X157255180Y-121241904D01*
X157255180Y-121241904D02*
X156255180Y-120670476D01*
X156255180Y-120670476D02*
X157255180Y-120670476D01*
X157159942Y-120241904D02*
X157207561Y-120194285D01*
X157207561Y-120194285D02*
X157255180Y-120099047D01*
X157255180Y-120099047D02*
X157255180Y-119860952D01*
X157255180Y-119860952D02*
X157207561Y-119765714D01*
X157207561Y-119765714D02*
X157159942Y-119718095D01*
X157159942Y-119718095D02*
X157064704Y-119670476D01*
X157064704Y-119670476D02*
X156969466Y-119670476D01*
X156969466Y-119670476D02*
X156826609Y-119718095D01*
X156826609Y-119718095D02*
X156255180Y-120289523D01*
X156255180Y-120289523D02*
X156255180Y-119670476D01*
X315089082Y-129681580D02*
X315136701Y-129729200D01*
X315136701Y-129729200D02*
X315279558Y-129776819D01*
X315279558Y-129776819D02*
X315374796Y-129776819D01*
X315374796Y-129776819D02*
X315517653Y-129729200D01*
X315517653Y-129729200D02*
X315612891Y-129633961D01*
X315612891Y-129633961D02*
X315660510Y-129538723D01*
X315660510Y-129538723D02*
X315708129Y-129348247D01*
X315708129Y-129348247D02*
X315708129Y-129205390D01*
X315708129Y-129205390D02*
X315660510Y-129014914D01*
X315660510Y-129014914D02*
X315612891Y-128919676D01*
X315612891Y-128919676D02*
X315517653Y-128824438D01*
X315517653Y-128824438D02*
X315374796Y-128776819D01*
X315374796Y-128776819D02*
X315279558Y-128776819D01*
X315279558Y-128776819D02*
X315136701Y-128824438D01*
X315136701Y-128824438D02*
X315089082Y-128872057D01*
X314136701Y-129776819D02*
X314708129Y-129776819D01*
X314422415Y-129776819D02*
X314422415Y-128776819D01*
X314422415Y-128776819D02*
X314517653Y-128919676D01*
X314517653Y-128919676D02*
X314612891Y-129014914D01*
X314612891Y-129014914D02*
X314708129Y-129062533D01*
X313660510Y-129776819D02*
X313470034Y-129776819D01*
X313470034Y-129776819D02*
X313374796Y-129729200D01*
X313374796Y-129729200D02*
X313327177Y-129681580D01*
X313327177Y-129681580D02*
X313231939Y-129538723D01*
X313231939Y-129538723D02*
X313184320Y-129348247D01*
X313184320Y-129348247D02*
X313184320Y-128967295D01*
X313184320Y-128967295D02*
X313231939Y-128872057D01*
X313231939Y-128872057D02*
X313279558Y-128824438D01*
X313279558Y-128824438D02*
X313374796Y-128776819D01*
X313374796Y-128776819D02*
X313565272Y-128776819D01*
X313565272Y-128776819D02*
X313660510Y-128824438D01*
X313660510Y-128824438D02*
X313708129Y-128872057D01*
X313708129Y-128872057D02*
X313755748Y-128967295D01*
X313755748Y-128967295D02*
X313755748Y-129205390D01*
X313755748Y-129205390D02*
X313708129Y-129300628D01*
X313708129Y-129300628D02*
X313660510Y-129348247D01*
X313660510Y-129348247D02*
X313565272Y-129395866D01*
X313565272Y-129395866D02*
X313374796Y-129395866D01*
X313374796Y-129395866D02*
X313279558Y-129348247D01*
X313279558Y-129348247D02*
X313231939Y-129300628D01*
X313231939Y-129300628D02*
X313184320Y-129205390D01*
X201292857Y-107709580D02*
X201340476Y-107757200D01*
X201340476Y-107757200D02*
X201483333Y-107804819D01*
X201483333Y-107804819D02*
X201578571Y-107804819D01*
X201578571Y-107804819D02*
X201721428Y-107757200D01*
X201721428Y-107757200D02*
X201816666Y-107661961D01*
X201816666Y-107661961D02*
X201864285Y-107566723D01*
X201864285Y-107566723D02*
X201911904Y-107376247D01*
X201911904Y-107376247D02*
X201911904Y-107233390D01*
X201911904Y-107233390D02*
X201864285Y-107042914D01*
X201864285Y-107042914D02*
X201816666Y-106947676D01*
X201816666Y-106947676D02*
X201721428Y-106852438D01*
X201721428Y-106852438D02*
X201578571Y-106804819D01*
X201578571Y-106804819D02*
X201483333Y-106804819D01*
X201483333Y-106804819D02*
X201340476Y-106852438D01*
X201340476Y-106852438D02*
X201292857Y-106900057D01*
X200340476Y-107804819D02*
X200911904Y-107804819D01*
X200626190Y-107804819D02*
X200626190Y-106804819D01*
X200626190Y-106804819D02*
X200721428Y-106947676D01*
X200721428Y-106947676D02*
X200816666Y-107042914D01*
X200816666Y-107042914D02*
X200911904Y-107090533D01*
X199435714Y-106804819D02*
X199911904Y-106804819D01*
X199911904Y-106804819D02*
X199959523Y-107281009D01*
X199959523Y-107281009D02*
X199911904Y-107233390D01*
X199911904Y-107233390D02*
X199816666Y-107185771D01*
X199816666Y-107185771D02*
X199578571Y-107185771D01*
X199578571Y-107185771D02*
X199483333Y-107233390D01*
X199483333Y-107233390D02*
X199435714Y-107281009D01*
X199435714Y-107281009D02*
X199388095Y-107376247D01*
X199388095Y-107376247D02*
X199388095Y-107614342D01*
X199388095Y-107614342D02*
X199435714Y-107709580D01*
X199435714Y-107709580D02*
X199483333Y-107757200D01*
X199483333Y-107757200D02*
X199578571Y-107804819D01*
X199578571Y-107804819D02*
X199816666Y-107804819D01*
X199816666Y-107804819D02*
X199911904Y-107757200D01*
X199911904Y-107757200D02*
X199959523Y-107709580D01*
X184272857Y-100379580D02*
X184320476Y-100427200D01*
X184320476Y-100427200D02*
X184463333Y-100474819D01*
X184463333Y-100474819D02*
X184558571Y-100474819D01*
X184558571Y-100474819D02*
X184701428Y-100427200D01*
X184701428Y-100427200D02*
X184796666Y-100331961D01*
X184796666Y-100331961D02*
X184844285Y-100236723D01*
X184844285Y-100236723D02*
X184891904Y-100046247D01*
X184891904Y-100046247D02*
X184891904Y-99903390D01*
X184891904Y-99903390D02*
X184844285Y-99712914D01*
X184844285Y-99712914D02*
X184796666Y-99617676D01*
X184796666Y-99617676D02*
X184701428Y-99522438D01*
X184701428Y-99522438D02*
X184558571Y-99474819D01*
X184558571Y-99474819D02*
X184463333Y-99474819D01*
X184463333Y-99474819D02*
X184320476Y-99522438D01*
X184320476Y-99522438D02*
X184272857Y-99570057D01*
X183320476Y-100474819D02*
X183891904Y-100474819D01*
X183606190Y-100474819D02*
X183606190Y-99474819D01*
X183606190Y-99474819D02*
X183701428Y-99617676D01*
X183701428Y-99617676D02*
X183796666Y-99712914D01*
X183796666Y-99712914D02*
X183891904Y-99760533D01*
X182463333Y-99474819D02*
X182653809Y-99474819D01*
X182653809Y-99474819D02*
X182749047Y-99522438D01*
X182749047Y-99522438D02*
X182796666Y-99570057D01*
X182796666Y-99570057D02*
X182891904Y-99712914D01*
X182891904Y-99712914D02*
X182939523Y-99903390D01*
X182939523Y-99903390D02*
X182939523Y-100284342D01*
X182939523Y-100284342D02*
X182891904Y-100379580D01*
X182891904Y-100379580D02*
X182844285Y-100427200D01*
X182844285Y-100427200D02*
X182749047Y-100474819D01*
X182749047Y-100474819D02*
X182558571Y-100474819D01*
X182558571Y-100474819D02*
X182463333Y-100427200D01*
X182463333Y-100427200D02*
X182415714Y-100379580D01*
X182415714Y-100379580D02*
X182368095Y-100284342D01*
X182368095Y-100284342D02*
X182368095Y-100046247D01*
X182368095Y-100046247D02*
X182415714Y-99951009D01*
X182415714Y-99951009D02*
X182463333Y-99903390D01*
X182463333Y-99903390D02*
X182558571Y-99855771D01*
X182558571Y-99855771D02*
X182749047Y-99855771D01*
X182749047Y-99855771D02*
X182844285Y-99903390D01*
X182844285Y-99903390D02*
X182891904Y-99951009D01*
X182891904Y-99951009D02*
X182939523Y-100046247D01*
X205442666Y-44553580D02*
X205490285Y-44601200D01*
X205490285Y-44601200D02*
X205633142Y-44648819D01*
X205633142Y-44648819D02*
X205728380Y-44648819D01*
X205728380Y-44648819D02*
X205871237Y-44601200D01*
X205871237Y-44601200D02*
X205966475Y-44505961D01*
X205966475Y-44505961D02*
X206014094Y-44410723D01*
X206014094Y-44410723D02*
X206061713Y-44220247D01*
X206061713Y-44220247D02*
X206061713Y-44077390D01*
X206061713Y-44077390D02*
X206014094Y-43886914D01*
X206014094Y-43886914D02*
X205966475Y-43791676D01*
X205966475Y-43791676D02*
X205871237Y-43696438D01*
X205871237Y-43696438D02*
X205728380Y-43648819D01*
X205728380Y-43648819D02*
X205633142Y-43648819D01*
X205633142Y-43648819D02*
X205490285Y-43696438D01*
X205490285Y-43696438D02*
X205442666Y-43744057D01*
X204585523Y-43982152D02*
X204585523Y-44648819D01*
X204823618Y-43601200D02*
X205061713Y-44315485D01*
X205061713Y-44315485D02*
X204442666Y-44315485D01*
X240159180Y-81760476D02*
X240635371Y-82093809D01*
X240159180Y-82331904D02*
X241159180Y-82331904D01*
X241159180Y-82331904D02*
X241159180Y-81950952D01*
X241159180Y-81950952D02*
X241111561Y-81855714D01*
X241111561Y-81855714D02*
X241063942Y-81808095D01*
X241063942Y-81808095D02*
X240968704Y-81760476D01*
X240968704Y-81760476D02*
X240825847Y-81760476D01*
X240825847Y-81760476D02*
X240730609Y-81808095D01*
X240730609Y-81808095D02*
X240682990Y-81855714D01*
X240682990Y-81855714D02*
X240635371Y-81950952D01*
X240635371Y-81950952D02*
X240635371Y-82331904D01*
X240159180Y-81331904D02*
X241159180Y-81331904D01*
X241159180Y-81331904D02*
X240159180Y-80760476D01*
X240159180Y-80760476D02*
X241159180Y-80760476D01*
X241159180Y-80379523D02*
X241159180Y-79760476D01*
X241159180Y-79760476D02*
X240778228Y-80093809D01*
X240778228Y-80093809D02*
X240778228Y-79950952D01*
X240778228Y-79950952D02*
X240730609Y-79855714D01*
X240730609Y-79855714D02*
X240682990Y-79808095D01*
X240682990Y-79808095D02*
X240587752Y-79760476D01*
X240587752Y-79760476D02*
X240349657Y-79760476D01*
X240349657Y-79760476D02*
X240254419Y-79808095D01*
X240254419Y-79808095D02*
X240206800Y-79855714D01*
X240206800Y-79855714D02*
X240159180Y-79950952D01*
X240159180Y-79950952D02*
X240159180Y-80236666D01*
X240159180Y-80236666D02*
X240206800Y-80331904D01*
X240206800Y-80331904D02*
X240254419Y-80379523D01*
X157672082Y-93468580D02*
X157719701Y-93516200D01*
X157719701Y-93516200D02*
X157862558Y-93563819D01*
X157862558Y-93563819D02*
X157957796Y-93563819D01*
X157957796Y-93563819D02*
X158100653Y-93516200D01*
X158100653Y-93516200D02*
X158195891Y-93420961D01*
X158195891Y-93420961D02*
X158243510Y-93325723D01*
X158243510Y-93325723D02*
X158291129Y-93135247D01*
X158291129Y-93135247D02*
X158291129Y-92992390D01*
X158291129Y-92992390D02*
X158243510Y-92801914D01*
X158243510Y-92801914D02*
X158195891Y-92706676D01*
X158195891Y-92706676D02*
X158100653Y-92611438D01*
X158100653Y-92611438D02*
X157957796Y-92563819D01*
X157957796Y-92563819D02*
X157862558Y-92563819D01*
X157862558Y-92563819D02*
X157719701Y-92611438D01*
X157719701Y-92611438D02*
X157672082Y-92659057D01*
X156719701Y-93563819D02*
X157291129Y-93563819D01*
X157005415Y-93563819D02*
X157005415Y-92563819D01*
X157005415Y-92563819D02*
X157100653Y-92706676D01*
X157100653Y-92706676D02*
X157195891Y-92801914D01*
X157195891Y-92801914D02*
X157291129Y-92849533D01*
X156386367Y-92563819D02*
X155719701Y-92563819D01*
X155719701Y-92563819D02*
X156148272Y-93563819D01*
X260302367Y-139713653D02*
X260302367Y-140427938D01*
X260302367Y-140427938D02*
X260349986Y-140570795D01*
X260349986Y-140570795D02*
X260445224Y-140666034D01*
X260445224Y-140666034D02*
X260588081Y-140713653D01*
X260588081Y-140713653D02*
X260683319Y-140713653D01*
X259302367Y-140713653D02*
X259873795Y-140713653D01*
X259588081Y-140713653D02*
X259588081Y-139713653D01*
X259588081Y-139713653D02*
X259683319Y-139856510D01*
X259683319Y-139856510D02*
X259778557Y-139951748D01*
X259778557Y-139951748D02*
X259873795Y-139999367D01*
X169352857Y-110069580D02*
X169400476Y-110117200D01*
X169400476Y-110117200D02*
X169543333Y-110164819D01*
X169543333Y-110164819D02*
X169638571Y-110164819D01*
X169638571Y-110164819D02*
X169781428Y-110117200D01*
X169781428Y-110117200D02*
X169876666Y-110021961D01*
X169876666Y-110021961D02*
X169924285Y-109926723D01*
X169924285Y-109926723D02*
X169971904Y-109736247D01*
X169971904Y-109736247D02*
X169971904Y-109593390D01*
X169971904Y-109593390D02*
X169924285Y-109402914D01*
X169924285Y-109402914D02*
X169876666Y-109307676D01*
X169876666Y-109307676D02*
X169781428Y-109212438D01*
X169781428Y-109212438D02*
X169638571Y-109164819D01*
X169638571Y-109164819D02*
X169543333Y-109164819D01*
X169543333Y-109164819D02*
X169400476Y-109212438D01*
X169400476Y-109212438D02*
X169352857Y-109260057D01*
X168400476Y-110164819D02*
X168971904Y-110164819D01*
X168686190Y-110164819D02*
X168686190Y-109164819D01*
X168686190Y-109164819D02*
X168781428Y-109307676D01*
X168781428Y-109307676D02*
X168876666Y-109402914D01*
X168876666Y-109402914D02*
X168971904Y-109450533D01*
X167781428Y-109164819D02*
X167686190Y-109164819D01*
X167686190Y-109164819D02*
X167590952Y-109212438D01*
X167590952Y-109212438D02*
X167543333Y-109260057D01*
X167543333Y-109260057D02*
X167495714Y-109355295D01*
X167495714Y-109355295D02*
X167448095Y-109545771D01*
X167448095Y-109545771D02*
X167448095Y-109783866D01*
X167448095Y-109783866D02*
X167495714Y-109974342D01*
X167495714Y-109974342D02*
X167543333Y-110069580D01*
X167543333Y-110069580D02*
X167590952Y-110117200D01*
X167590952Y-110117200D02*
X167686190Y-110164819D01*
X167686190Y-110164819D02*
X167781428Y-110164819D01*
X167781428Y-110164819D02*
X167876666Y-110117200D01*
X167876666Y-110117200D02*
X167924285Y-110069580D01*
X167924285Y-110069580D02*
X167971904Y-109974342D01*
X167971904Y-109974342D02*
X168019523Y-109783866D01*
X168019523Y-109783866D02*
X168019523Y-109545771D01*
X168019523Y-109545771D02*
X167971904Y-109355295D01*
X167971904Y-109355295D02*
X167924285Y-109260057D01*
X167924285Y-109260057D02*
X167876666Y-109212438D01*
X167876666Y-109212438D02*
X167781428Y-109164819D01*
X184551904Y-117584819D02*
X184551904Y-118394342D01*
X184551904Y-118394342D02*
X184504285Y-118489580D01*
X184504285Y-118489580D02*
X184456666Y-118537200D01*
X184456666Y-118537200D02*
X184361428Y-118584819D01*
X184361428Y-118584819D02*
X184170952Y-118584819D01*
X184170952Y-118584819D02*
X184075714Y-118537200D01*
X184075714Y-118537200D02*
X184028095Y-118489580D01*
X184028095Y-118489580D02*
X183980476Y-118394342D01*
X183980476Y-118394342D02*
X183980476Y-117584819D01*
X183599523Y-117584819D02*
X182932857Y-117584819D01*
X182932857Y-117584819D02*
X183361428Y-118584819D01*
X268576666Y-44819580D02*
X268624285Y-44867200D01*
X268624285Y-44867200D02*
X268767142Y-44914819D01*
X268767142Y-44914819D02*
X268862380Y-44914819D01*
X268862380Y-44914819D02*
X269005237Y-44867200D01*
X269005237Y-44867200D02*
X269100475Y-44771961D01*
X269100475Y-44771961D02*
X269148094Y-44676723D01*
X269148094Y-44676723D02*
X269195713Y-44486247D01*
X269195713Y-44486247D02*
X269195713Y-44343390D01*
X269195713Y-44343390D02*
X269148094Y-44152914D01*
X269148094Y-44152914D02*
X269100475Y-44057676D01*
X269100475Y-44057676D02*
X269005237Y-43962438D01*
X269005237Y-43962438D02*
X268862380Y-43914819D01*
X268862380Y-43914819D02*
X268767142Y-43914819D01*
X268767142Y-43914819D02*
X268624285Y-43962438D01*
X268624285Y-43962438D02*
X268576666Y-44010057D01*
X267624285Y-44914819D02*
X268195713Y-44914819D01*
X267909999Y-44914819D02*
X267909999Y-43914819D01*
X267909999Y-43914819D02*
X268005237Y-44057676D01*
X268005237Y-44057676D02*
X268100475Y-44152914D01*
X268100475Y-44152914D02*
X268195713Y-44200533D01*
X241236666Y-44579580D02*
X241284285Y-44627200D01*
X241284285Y-44627200D02*
X241427142Y-44674819D01*
X241427142Y-44674819D02*
X241522380Y-44674819D01*
X241522380Y-44674819D02*
X241665237Y-44627200D01*
X241665237Y-44627200D02*
X241760475Y-44531961D01*
X241760475Y-44531961D02*
X241808094Y-44436723D01*
X241808094Y-44436723D02*
X241855713Y-44246247D01*
X241855713Y-44246247D02*
X241855713Y-44103390D01*
X241855713Y-44103390D02*
X241808094Y-43912914D01*
X241808094Y-43912914D02*
X241760475Y-43817676D01*
X241760475Y-43817676D02*
X241665237Y-43722438D01*
X241665237Y-43722438D02*
X241522380Y-43674819D01*
X241522380Y-43674819D02*
X241427142Y-43674819D01*
X241427142Y-43674819D02*
X241284285Y-43722438D01*
X241284285Y-43722438D02*
X241236666Y-43770057D01*
X240331904Y-43674819D02*
X240808094Y-43674819D01*
X240808094Y-43674819D02*
X240855713Y-44151009D01*
X240855713Y-44151009D02*
X240808094Y-44103390D01*
X240808094Y-44103390D02*
X240712856Y-44055771D01*
X240712856Y-44055771D02*
X240474761Y-44055771D01*
X240474761Y-44055771D02*
X240379523Y-44103390D01*
X240379523Y-44103390D02*
X240331904Y-44151009D01*
X240331904Y-44151009D02*
X240284285Y-44246247D01*
X240284285Y-44246247D02*
X240284285Y-44484342D01*
X240284285Y-44484342D02*
X240331904Y-44579580D01*
X240331904Y-44579580D02*
X240379523Y-44627200D01*
X240379523Y-44627200D02*
X240474761Y-44674819D01*
X240474761Y-44674819D02*
X240712856Y-44674819D01*
X240712856Y-44674819D02*
X240808094Y-44627200D01*
X240808094Y-44627200D02*
X240855713Y-44579580D01*
X314666982Y-42078580D02*
X314714601Y-42126200D01*
X314714601Y-42126200D02*
X314857458Y-42173819D01*
X314857458Y-42173819D02*
X314952696Y-42173819D01*
X314952696Y-42173819D02*
X315095553Y-42126200D01*
X315095553Y-42126200D02*
X315190791Y-42030961D01*
X315190791Y-42030961D02*
X315238410Y-41935723D01*
X315238410Y-41935723D02*
X315286029Y-41745247D01*
X315286029Y-41745247D02*
X315286029Y-41602390D01*
X315286029Y-41602390D02*
X315238410Y-41411914D01*
X315238410Y-41411914D02*
X315190791Y-41316676D01*
X315190791Y-41316676D02*
X315095553Y-41221438D01*
X315095553Y-41221438D02*
X314952696Y-41173819D01*
X314952696Y-41173819D02*
X314857458Y-41173819D01*
X314857458Y-41173819D02*
X314714601Y-41221438D01*
X314714601Y-41221438D02*
X314666982Y-41269057D01*
X313714601Y-42173819D02*
X314286029Y-42173819D01*
X314000315Y-42173819D02*
X314000315Y-41173819D01*
X314000315Y-41173819D02*
X314095553Y-41316676D01*
X314095553Y-41316676D02*
X314190791Y-41411914D01*
X314190791Y-41411914D02*
X314286029Y-41459533D01*
X313143172Y-41602390D02*
X313238410Y-41554771D01*
X313238410Y-41554771D02*
X313286029Y-41507152D01*
X313286029Y-41507152D02*
X313333648Y-41411914D01*
X313333648Y-41411914D02*
X313333648Y-41364295D01*
X313333648Y-41364295D02*
X313286029Y-41269057D01*
X313286029Y-41269057D02*
X313238410Y-41221438D01*
X313238410Y-41221438D02*
X313143172Y-41173819D01*
X313143172Y-41173819D02*
X312952696Y-41173819D01*
X312952696Y-41173819D02*
X312857458Y-41221438D01*
X312857458Y-41221438D02*
X312809839Y-41269057D01*
X312809839Y-41269057D02*
X312762220Y-41364295D01*
X312762220Y-41364295D02*
X312762220Y-41411914D01*
X312762220Y-41411914D02*
X312809839Y-41507152D01*
X312809839Y-41507152D02*
X312857458Y-41554771D01*
X312857458Y-41554771D02*
X312952696Y-41602390D01*
X312952696Y-41602390D02*
X313143172Y-41602390D01*
X313143172Y-41602390D02*
X313238410Y-41650009D01*
X313238410Y-41650009D02*
X313286029Y-41697628D01*
X313286029Y-41697628D02*
X313333648Y-41792866D01*
X313333648Y-41792866D02*
X313333648Y-41983342D01*
X313333648Y-41983342D02*
X313286029Y-42078580D01*
X313286029Y-42078580D02*
X313238410Y-42126200D01*
X313238410Y-42126200D02*
X313143172Y-42173819D01*
X313143172Y-42173819D02*
X312952696Y-42173819D01*
X312952696Y-42173819D02*
X312857458Y-42126200D01*
X312857458Y-42126200D02*
X312809839Y-42078580D01*
X312809839Y-42078580D02*
X312762220Y-41983342D01*
X312762220Y-41983342D02*
X312762220Y-41792866D01*
X312762220Y-41792866D02*
X312809839Y-41697628D01*
X312809839Y-41697628D02*
X312857458Y-41650009D01*
X312857458Y-41650009D02*
X312952696Y-41602390D01*
X297350819Y-54269523D02*
X296874628Y-53936190D01*
X297350819Y-53698095D02*
X296350819Y-53698095D01*
X296350819Y-53698095D02*
X296350819Y-54079047D01*
X296350819Y-54079047D02*
X296398438Y-54174285D01*
X296398438Y-54174285D02*
X296446057Y-54221904D01*
X296446057Y-54221904D02*
X296541295Y-54269523D01*
X296541295Y-54269523D02*
X296684152Y-54269523D01*
X296684152Y-54269523D02*
X296779390Y-54221904D01*
X296779390Y-54221904D02*
X296827009Y-54174285D01*
X296827009Y-54174285D02*
X296874628Y-54079047D01*
X296874628Y-54079047D02*
X296874628Y-53698095D01*
X297350819Y-54698095D02*
X296350819Y-54698095D01*
X296350819Y-54698095D02*
X297350819Y-55269523D01*
X297350819Y-55269523D02*
X296350819Y-55269523D01*
X297350819Y-56269523D02*
X297350819Y-55698095D01*
X297350819Y-55983809D02*
X296350819Y-55983809D01*
X296350819Y-55983809D02*
X296493676Y-55888571D01*
X296493676Y-55888571D02*
X296588914Y-55793333D01*
X296588914Y-55793333D02*
X296636533Y-55698095D01*
X285671904Y-51214819D02*
X285671904Y-52024342D01*
X285671904Y-52024342D02*
X285624285Y-52119580D01*
X285624285Y-52119580D02*
X285576666Y-52167200D01*
X285576666Y-52167200D02*
X285481428Y-52214819D01*
X285481428Y-52214819D02*
X285290952Y-52214819D01*
X285290952Y-52214819D02*
X285195714Y-52167200D01*
X285195714Y-52167200D02*
X285148095Y-52119580D01*
X285148095Y-52119580D02*
X285100476Y-52024342D01*
X285100476Y-52024342D02*
X285100476Y-51214819D01*
X284148095Y-51214819D02*
X284624285Y-51214819D01*
X284624285Y-51214819D02*
X284671904Y-51691009D01*
X284671904Y-51691009D02*
X284624285Y-51643390D01*
X284624285Y-51643390D02*
X284529047Y-51595771D01*
X284529047Y-51595771D02*
X284290952Y-51595771D01*
X284290952Y-51595771D02*
X284195714Y-51643390D01*
X284195714Y-51643390D02*
X284148095Y-51691009D01*
X284148095Y-51691009D02*
X284100476Y-51786247D01*
X284100476Y-51786247D02*
X284100476Y-52024342D01*
X284100476Y-52024342D02*
X284148095Y-52119580D01*
X284148095Y-52119580D02*
X284195714Y-52167200D01*
X284195714Y-52167200D02*
X284290952Y-52214819D01*
X284290952Y-52214819D02*
X284529047Y-52214819D01*
X284529047Y-52214819D02*
X284624285Y-52167200D01*
X284624285Y-52167200D02*
X284671904Y-52119580D01*
X201801904Y-121584819D02*
X201801904Y-122394342D01*
X201801904Y-122394342D02*
X201754285Y-122489580D01*
X201754285Y-122489580D02*
X201706666Y-122537200D01*
X201706666Y-122537200D02*
X201611428Y-122584819D01*
X201611428Y-122584819D02*
X201420952Y-122584819D01*
X201420952Y-122584819D02*
X201325714Y-122537200D01*
X201325714Y-122537200D02*
X201278095Y-122489580D01*
X201278095Y-122489580D02*
X201230476Y-122394342D01*
X201230476Y-122394342D02*
X201230476Y-121584819D01*
X200230476Y-122584819D02*
X200801904Y-122584819D01*
X200516190Y-122584819D02*
X200516190Y-121584819D01*
X200516190Y-121584819D02*
X200611428Y-121727676D01*
X200611428Y-121727676D02*
X200706666Y-121822914D01*
X200706666Y-121822914D02*
X200801904Y-121870533D01*
X251294819Y-123326666D02*
X252009104Y-123326666D01*
X252009104Y-123326666D02*
X252151961Y-123279047D01*
X252151961Y-123279047D02*
X252247200Y-123183809D01*
X252247200Y-123183809D02*
X252294819Y-123040952D01*
X252294819Y-123040952D02*
X252294819Y-122945714D01*
X251390057Y-123755238D02*
X251342438Y-123802857D01*
X251342438Y-123802857D02*
X251294819Y-123898095D01*
X251294819Y-123898095D02*
X251294819Y-124136190D01*
X251294819Y-124136190D02*
X251342438Y-124231428D01*
X251342438Y-124231428D02*
X251390057Y-124279047D01*
X251390057Y-124279047D02*
X251485295Y-124326666D01*
X251485295Y-124326666D02*
X251580533Y-124326666D01*
X251580533Y-124326666D02*
X251723390Y-124279047D01*
X251723390Y-124279047D02*
X252294819Y-123707619D01*
X252294819Y-123707619D02*
X252294819Y-124326666D01*
X238042082Y-53918580D02*
X238089701Y-53966200D01*
X238089701Y-53966200D02*
X238232558Y-54013819D01*
X238232558Y-54013819D02*
X238327796Y-54013819D01*
X238327796Y-54013819D02*
X238470653Y-53966200D01*
X238470653Y-53966200D02*
X238565891Y-53870961D01*
X238565891Y-53870961D02*
X238613510Y-53775723D01*
X238613510Y-53775723D02*
X238661129Y-53585247D01*
X238661129Y-53585247D02*
X238661129Y-53442390D01*
X238661129Y-53442390D02*
X238613510Y-53251914D01*
X238613510Y-53251914D02*
X238565891Y-53156676D01*
X238565891Y-53156676D02*
X238470653Y-53061438D01*
X238470653Y-53061438D02*
X238327796Y-53013819D01*
X238327796Y-53013819D02*
X238232558Y-53013819D01*
X238232558Y-53013819D02*
X238089701Y-53061438D01*
X238089701Y-53061438D02*
X238042082Y-53109057D01*
X237661129Y-53109057D02*
X237613510Y-53061438D01*
X237613510Y-53061438D02*
X237518272Y-53013819D01*
X237518272Y-53013819D02*
X237280177Y-53013819D01*
X237280177Y-53013819D02*
X237184939Y-53061438D01*
X237184939Y-53061438D02*
X237137320Y-53109057D01*
X237137320Y-53109057D02*
X237089701Y-53204295D01*
X237089701Y-53204295D02*
X237089701Y-53299533D01*
X237089701Y-53299533D02*
X237137320Y-53442390D01*
X237137320Y-53442390D02*
X237708748Y-54013819D01*
X237708748Y-54013819D02*
X237089701Y-54013819D01*
X236470653Y-53013819D02*
X236375415Y-53013819D01*
X236375415Y-53013819D02*
X236280177Y-53061438D01*
X236280177Y-53061438D02*
X236232558Y-53109057D01*
X236232558Y-53109057D02*
X236184939Y-53204295D01*
X236184939Y-53204295D02*
X236137320Y-53394771D01*
X236137320Y-53394771D02*
X236137320Y-53632866D01*
X236137320Y-53632866D02*
X236184939Y-53823342D01*
X236184939Y-53823342D02*
X236232558Y-53918580D01*
X236232558Y-53918580D02*
X236280177Y-53966200D01*
X236280177Y-53966200D02*
X236375415Y-54013819D01*
X236375415Y-54013819D02*
X236470653Y-54013819D01*
X236470653Y-54013819D02*
X236565891Y-53966200D01*
X236565891Y-53966200D02*
X236613510Y-53918580D01*
X236613510Y-53918580D02*
X236661129Y-53823342D01*
X236661129Y-53823342D02*
X236708748Y-53632866D01*
X236708748Y-53632866D02*
X236708748Y-53394771D01*
X236708748Y-53394771D02*
X236661129Y-53204295D01*
X236661129Y-53204295D02*
X236613510Y-53109057D01*
X236613510Y-53109057D02*
X236565891Y-53061438D01*
X236565891Y-53061438D02*
X236470653Y-53013819D01*
X218912857Y-100719580D02*
X218960476Y-100767200D01*
X218960476Y-100767200D02*
X219103333Y-100814819D01*
X219103333Y-100814819D02*
X219198571Y-100814819D01*
X219198571Y-100814819D02*
X219341428Y-100767200D01*
X219341428Y-100767200D02*
X219436666Y-100671961D01*
X219436666Y-100671961D02*
X219484285Y-100576723D01*
X219484285Y-100576723D02*
X219531904Y-100386247D01*
X219531904Y-100386247D02*
X219531904Y-100243390D01*
X219531904Y-100243390D02*
X219484285Y-100052914D01*
X219484285Y-100052914D02*
X219436666Y-99957676D01*
X219436666Y-99957676D02*
X219341428Y-99862438D01*
X219341428Y-99862438D02*
X219198571Y-99814819D01*
X219198571Y-99814819D02*
X219103333Y-99814819D01*
X219103333Y-99814819D02*
X218960476Y-99862438D01*
X218960476Y-99862438D02*
X218912857Y-99910057D01*
X217960476Y-100814819D02*
X218531904Y-100814819D01*
X218246190Y-100814819D02*
X218246190Y-99814819D01*
X218246190Y-99814819D02*
X218341428Y-99957676D01*
X218341428Y-99957676D02*
X218436666Y-100052914D01*
X218436666Y-100052914D02*
X218531904Y-100100533D01*
X217008095Y-100814819D02*
X217579523Y-100814819D01*
X217293809Y-100814819D02*
X217293809Y-99814819D01*
X217293809Y-99814819D02*
X217389047Y-99957676D01*
X217389047Y-99957676D02*
X217484285Y-100052914D01*
X217484285Y-100052914D02*
X217579523Y-100100533D01*
X233996666Y-100199580D02*
X234044285Y-100247200D01*
X234044285Y-100247200D02*
X234187142Y-100294819D01*
X234187142Y-100294819D02*
X234282380Y-100294819D01*
X234282380Y-100294819D02*
X234425237Y-100247200D01*
X234425237Y-100247200D02*
X234520475Y-100151961D01*
X234520475Y-100151961D02*
X234568094Y-100056723D01*
X234568094Y-100056723D02*
X234615713Y-99866247D01*
X234615713Y-99866247D02*
X234615713Y-99723390D01*
X234615713Y-99723390D02*
X234568094Y-99532914D01*
X234568094Y-99532914D02*
X234520475Y-99437676D01*
X234520475Y-99437676D02*
X234425237Y-99342438D01*
X234425237Y-99342438D02*
X234282380Y-99294819D01*
X234282380Y-99294819D02*
X234187142Y-99294819D01*
X234187142Y-99294819D02*
X234044285Y-99342438D01*
X234044285Y-99342438D02*
X233996666Y-99390057D01*
X233425237Y-99723390D02*
X233520475Y-99675771D01*
X233520475Y-99675771D02*
X233568094Y-99628152D01*
X233568094Y-99628152D02*
X233615713Y-99532914D01*
X233615713Y-99532914D02*
X233615713Y-99485295D01*
X233615713Y-99485295D02*
X233568094Y-99390057D01*
X233568094Y-99390057D02*
X233520475Y-99342438D01*
X233520475Y-99342438D02*
X233425237Y-99294819D01*
X233425237Y-99294819D02*
X233234761Y-99294819D01*
X233234761Y-99294819D02*
X233139523Y-99342438D01*
X233139523Y-99342438D02*
X233091904Y-99390057D01*
X233091904Y-99390057D02*
X233044285Y-99485295D01*
X233044285Y-99485295D02*
X233044285Y-99532914D01*
X233044285Y-99532914D02*
X233091904Y-99628152D01*
X233091904Y-99628152D02*
X233139523Y-99675771D01*
X233139523Y-99675771D02*
X233234761Y-99723390D01*
X233234761Y-99723390D02*
X233425237Y-99723390D01*
X233425237Y-99723390D02*
X233520475Y-99771009D01*
X233520475Y-99771009D02*
X233568094Y-99818628D01*
X233568094Y-99818628D02*
X233615713Y-99913866D01*
X233615713Y-99913866D02*
X233615713Y-100104342D01*
X233615713Y-100104342D02*
X233568094Y-100199580D01*
X233568094Y-100199580D02*
X233520475Y-100247200D01*
X233520475Y-100247200D02*
X233425237Y-100294819D01*
X233425237Y-100294819D02*
X233234761Y-100294819D01*
X233234761Y-100294819D02*
X233139523Y-100247200D01*
X233139523Y-100247200D02*
X233091904Y-100199580D01*
X233091904Y-100199580D02*
X233044285Y-100104342D01*
X233044285Y-100104342D02*
X233044285Y-99913866D01*
X233044285Y-99913866D02*
X233091904Y-99818628D01*
X233091904Y-99818628D02*
X233139523Y-99771009D01*
X233139523Y-99771009D02*
X233234761Y-99723390D01*
M02*
