M48
; DRILL file {KiCad 9.0.2} date 2026-03-22T12:44:49-0500
; FORMAT={-:-/ absolute / inch / decimal}
; #@! TF.CreationDate,2026-03-22T12:44:49-05:00
; #@! TF.GenerationSoftware,Kicad,Pcbnew,9.0.2
; #@! TF.FileFunction,Plated,1,2,PTH
FMAT,2
INCH
; #@! TA.AperFunction,Plated,PTH,ViaDrill
T1C0.0118
; #@! TA.AperFunction,Plated,PTH,ComponentDrill
T2C0.0276
; #@! TA.AperFunction,Plated,PTH,ComponentDrill
T3C0.0315
; #@! TA.AperFunction,Plated,PTH,ComponentDrill
T4C0.0394
; #@! TA.AperFunction,Plated,PTH,ComponentDrill
T5C0.0512
; #@! TA.AperFunction,Plated,PTH,ComponentDrill
T6C0.0787
%
G90
G05
T1
X7.7928Y-5.3078
X8.1909Y-5.3542
X8.2795Y-5.401
X8.5827Y-5.5319
X8.5948Y-5.502
X8.5961Y-5.4679
X8.6437Y-4.465
X8.7379Y-5.5571
X8.7743Y-2.8913
X8.7804Y-3.8625
X9.2985Y-3.2123
X9.3922Y-2.0223
X9.7438Y-5.0798
X9.7576Y-5.007
X9.7951Y-4.8185
X10.0118Y-4.4173
X10.0382Y-4.4652
X10.1501Y-2.8382
X10.2103Y-3.0009
X10.3327Y-5.4907
X10.4408Y-5.5143
X11.4361Y-5.5065
X11.6004Y-5.4674
T2
X10.4819Y-3.3555
X10.4886Y-3.1291
X10.6508Y-2.3469
X10.6819Y-3.3555
X10.6886Y-3.1291
X10.7843Y-3.3555
X10.7854Y-3.5941
X10.7858Y-3.0012
X10.7886Y-2.7949
X10.8508Y-2.3469
X10.9843Y-3.3555
X10.9854Y-3.5941
X10.9858Y-3.0012
X10.9886Y-2.7949
T3
X6.1335Y-3.8154
X6.2319Y-3.8154
X6.2654Y-4.322
X6.2654Y-4.422
X6.2654Y-4.522
X6.2654Y-4.622
X6.2654Y-4.722
X6.2654Y-4.822
X6.2654Y-4.922
X6.2654Y-5.022
X6.2654Y-5.122
X6.5114Y-4.5736
X6.5114Y-4.6736
X6.5114Y-4.7736
X6.5114Y-4.8736
X6.5114Y-4.9736
X6.5114Y-5.0736
X6.5539Y-4.3102
X6.7508Y-4.3102
X6.8114Y-4.5736
X6.8114Y-4.6736
X6.8114Y-4.7736
X6.8114Y-4.8736
X6.8114Y-4.9736
X6.8114Y-5.0736
X7.0858Y-4.2008
X7.0858Y-4.3008
X7.0858Y-4.4008
X7.0858Y-4.5008
X7.0858Y-4.6008
X7.0858Y-4.7008
X7.0858Y-4.8008
X7.0858Y-4.9008
X7.0858Y-5.0008
X7.0858Y-5.1008
X7.1413Y-3.9287
X7.3382Y-3.9287
X7.3858Y-4.2008
X7.3858Y-4.3008
X7.3858Y-4.4008
X7.3858Y-4.5008
X7.3858Y-4.6008
X7.3858Y-4.7008
X7.3858Y-4.8008
X7.3858Y-4.9008
X7.3858Y-5.0008
X7.3858Y-5.1008
X7.765Y-4.5083
X7.765Y-4.6083
X7.765Y-4.7083
X7.765Y-4.8083
X7.765Y-4.9083
X7.765Y-5.0083
X7.765Y-5.1083
X7.8114Y-4.2173
X7.9935Y-1.7309
X7.9983Y-3.6497
X8.0083Y-4.2173
X8.065Y-4.5083
X8.065Y-4.6083
X8.065Y-4.7083
X8.065Y-4.8083
X8.065Y-4.9083
X8.065Y-5.0083
X8.065Y-5.1083
X8.1904Y-1.7309
X8.1952Y-3.6497
X8.399Y-1.7467
X8.399Y-1.8467
X8.399Y-1.9467
X8.399Y-2.0467
X8.399Y-2.1467
X8.399Y-2.2467
X8.399Y-2.3467
X8.399Y-2.4467
X8.399Y-2.5467
X8.399Y-2.6467
X8.399Y-2.7467
X8.399Y-2.8467
X8.399Y-2.9467
X8.399Y-3.0467
X8.399Y-3.1467
X8.399Y-3.2467
X8.399Y-3.3467
X8.399Y-3.4467
X8.399Y-3.5467
X8.399Y-3.6467
X8.4524Y-4.2169
X8.4524Y-4.3169
X8.4524Y-4.4169
X8.4524Y-4.5169
X8.4524Y-4.6169
X8.4524Y-4.7169
X8.4524Y-4.8169
X8.4524Y-4.9169
X8.4524Y-5.0169
X8.4524Y-5.1169
X8.5051Y-3.9421
X8.702Y-3.9421
X8.7524Y-4.2169
X8.7524Y-4.3169
X8.7524Y-4.4169
X8.7524Y-4.5169
X8.7524Y-4.6169
X8.7524Y-4.7169
X8.7524Y-4.8169
X8.7524Y-4.9169
X8.7524Y-5.0169
X8.7524Y-5.1169
X8.999Y-1.7467
X8.999Y-1.8467
X8.999Y-1.9467
X8.999Y-2.0467
X8.999Y-2.1467
X8.999Y-2.2467
X8.999Y-2.3467
X8.999Y-2.4467
X8.999Y-2.5467
X8.999Y-2.6467
X8.999Y-2.7467
X8.999Y-2.8467
X8.999Y-2.9467
X8.999Y-3.0467
X8.999Y-3.1467
X8.999Y-3.2467
X8.999Y-3.3467
X8.999Y-3.4467
X8.999Y-3.5467
X8.999Y-3.6467
X9.0756Y-4.2079
X9.0756Y-4.3079
X9.0756Y-4.4079
X9.0756Y-4.5079
X9.0756Y-4.6079
X9.0756Y-4.7079
X9.0756Y-4.8079
X9.0756Y-4.9079
X9.0756Y-5.0079
X9.0756Y-5.1079
X9.1177Y-3.9217
X9.2976Y-2.2583
X9.3146Y-3.9217
X9.3756Y-4.2079
X9.3756Y-4.3079
X9.3756Y-4.4079
X9.3756Y-4.5079
X9.3756Y-4.6079
X9.3756Y-4.7079
X9.3756Y-4.8079
X9.3756Y-4.9079
X9.3756Y-5.0079
X9.3756Y-5.1079
X9.378Y-2.8236
X9.378Y-2.9236
X9.378Y-3.0236
X9.378Y-3.1236
X9.378Y-3.2236
X9.378Y-3.3236
X9.378Y-3.4236
X9.378Y-3.5236
X9.378Y-3.6236
X9.3961Y-2.2583
X9.4028Y-1.7319
X9.5996Y-1.7319
X9.7323Y-1.7382
X9.7323Y-1.8382
X9.7323Y-1.9382
X9.7323Y-2.0382
X9.7323Y-2.1382
X9.7323Y-2.2382
X9.7323Y-2.3382
X9.7323Y-2.4382
X9.7323Y-2.5382
X9.7323Y-2.6382
X9.7323Y-2.7382
X9.7323Y-2.8382
X9.7323Y-2.9382
X9.7323Y-3.0382
X9.7323Y-3.1382
X9.7323Y-3.2382
X9.7323Y-3.3382
X9.7323Y-3.4382
X9.7323Y-3.5382
X9.7323Y-3.6382
X10.3323Y-1.7382
X10.3323Y-1.8382
X10.3323Y-1.9382
X10.3323Y-2.0382
X10.3323Y-2.1382
X10.3323Y-2.2382
X10.3323Y-2.3382
X10.3323Y-2.4382
X10.3323Y-2.5382
X10.3323Y-2.6382
X10.3323Y-2.7382
X10.3323Y-2.8382
X10.3323Y-2.9382
X10.3323Y-3.0382
X10.3323Y-3.1382
X10.3323Y-3.2382
X10.3323Y-3.3382
X10.3323Y-3.4382
X10.3323Y-3.5382
X10.3323Y-3.6382
X10.4791Y-1.7413
X10.676Y-1.7413
X11.0669Y-1.7378
X11.0669Y-1.8378
X11.0669Y-1.9378
X11.0669Y-2.0378
X11.0669Y-2.1378
X11.0669Y-2.2378
X11.0669Y-2.3378
X11.3669Y-1.7378
X11.3669Y-1.8378
X11.3669Y-1.9378
X11.3669Y-2.0378
X11.3669Y-2.1378
X11.3669Y-2.2378
X11.3669Y-2.3378
X11.7839Y-1.7319
X11.7839Y-1.8319
X11.7839Y-1.9319
X11.7839Y-2.0319
X11.7839Y-2.1319
X11.7839Y-2.2319
X11.7839Y-2.3319
X11.7839Y-2.4319
X11.7839Y-2.5319
X11.7853Y-2.943
X11.7937Y-3.4016
X11.8837Y-2.943
X11.8921Y-3.4016
X12.0567Y-2.9457
X12.0654Y-3.1858
X12.2535Y-2.9457
X12.2622Y-3.1858
X12.3144Y-1.7921
X12.331Y-5.2411
X12.4128Y-1.7921
X12.4294Y-5.2411
T4
X9.1028Y-3.5472
X9.2051Y-3.5472
X9.865Y-4.6185
X9.865Y-4.7185
X9.865Y-4.8185
X9.865Y-4.9185
X9.865Y-5.0185
X9.865Y-5.1185
X9.965Y-4.6185
X9.965Y-4.7185
X9.965Y-4.8185
X9.965Y-4.9185
X9.965Y-5.0185
X9.965Y-5.1185
X10.7012Y-1.9937
X10.7012Y-2.0937
X10.8012Y-1.9937
X10.8012Y-2.0937
X12.3116Y-2.3224
X12.3116Y-2.4315
X12.3116Y-2.5406
X12.3116Y-2.6496
X12.3116Y-2.7587
X12.3167Y-4.1992
X12.3167Y-4.3083
X12.3167Y-4.4173
X12.3167Y-4.5264
X12.3167Y-4.6354
X12.4116Y-2.377
X12.4116Y-2.486
X12.4116Y-2.5951
X12.4116Y-2.7041
X12.4167Y-4.2537
X12.4167Y-4.3628
X12.4167Y-4.4719
X12.4167Y-4.5809
T5
X11.1122Y-2.7972
X11.1122Y-2.9941
X11.1244Y-3.3636
X11.1244Y-3.5604
X11.5059Y-2.8957
X11.5181Y-3.462
T6
X12.2815Y-3.4756
X12.376Y-3.3969
X12.5925Y-3.3969
M30
