M48
; DRILL file {KiCad 9.0.2} date 2026-06-07T12:57:10-0500
; FORMAT={-:-/ absolute / inch / decimal}
; #@! TF.CreationDate,2026-06-07T12:57:10-05:00
; #@! TF.GenerationSoftware,Kicad,Pcbnew,9.0.2
; #@! TF.FileFunction,Plated,1,2,PTH
FMAT,2
INCH
; #@! TA.AperFunction,Plated,PTH,ViaDrill
T1C0.0118
; #@! TA.AperFunction,Plated,PTH,ComponentDrill
T2C0.0157
; #@! TA.AperFunction,Plated,PTH,ComponentDrill
T3C0.0315
; #@! TA.AperFunction,Plated,PTH,ComponentDrill
T4C0.0394
; #@! TA.AperFunction,Plated,PTH,ComponentDrill
T5C0.0512
; #@! TA.AperFunction,Plated,PTH,ComponentDrill
T6C0.1260
%
G90
G05
T1
X7.8517Y-5.3105
X7.9885Y-5.4117
X8.3128Y-5.4363
X8.8262Y-5.5138
X8.8538Y-5.4601
X8.8562Y-2.7626
X8.9268Y-2.6555
X9.0894Y-2.7307
X9.3004Y-5.2376
X9.4361Y-3.3784
X9.4467Y-3.3209
X9.4851Y-3.2997
X9.8952Y-5.2034
X9.9652Y-3.1593
X10.0272Y-3.348
X10.0284Y-3.0632
X10.1921Y-3.1646
X10.3143Y-5.4135
X10.3729Y-5.4371
X10.4354Y-2.2593
X10.4846Y-2.8398
X10.4882Y-2.2267
X10.5535Y-2.194
X10.7663Y-2.7437
X11.1818Y-5.1638
X11.5941Y-5.5079
T3
X6.1335Y-3.8154
X6.2319Y-3.8154
X6.2654Y-4.322
X6.2654Y-4.422
X6.2654Y-4.522
X6.2654Y-4.622
X6.2654Y-4.722
X6.2654Y-4.822
X6.2654Y-4.922
X6.2654Y-5.022
X6.2654Y-5.122
X6.5114Y-4.5736
X6.5114Y-4.6736
X6.5114Y-4.7736
X6.5114Y-4.8736
X6.5114Y-4.9736
X6.5114Y-5.0736
X6.5539Y-4.3102
X6.7508Y-4.3102
X6.8114Y-4.5736
X6.8114Y-4.6736
X6.8114Y-4.7736
X6.8114Y-4.8736
X6.8114Y-4.9736
X6.8114Y-5.0736
X7.0858Y-4.2008
X7.0858Y-4.3008
X7.0858Y-4.4008
X7.0858Y-4.5008
X7.0858Y-4.6008
X7.0858Y-4.7008
X7.0858Y-4.8008
X7.0858Y-4.9008
X7.0858Y-5.0008
X7.0858Y-5.1008
X7.1413Y-3.9287
X7.3382Y-3.9287
X7.3858Y-4.2008
X7.3858Y-4.3008
X7.3858Y-4.4008
X7.3858Y-4.5008
X7.3858Y-4.6008
X7.3858Y-4.7008
X7.3858Y-4.8008
X7.3858Y-4.9008
X7.3858Y-5.0008
X7.3858Y-5.1008
X7.765Y-4.5083
X7.765Y-4.6083
X7.765Y-4.7083
X7.765Y-4.8083
X7.765Y-4.9083
X7.765Y-5.0083
X7.765Y-5.1083
X7.7724Y-3.1787
X7.7724Y-3.2787
X7.7724Y-3.3787
X7.7724Y-3.4787
X7.7724Y-3.5787
X7.7724Y-3.6787
X7.7724Y-3.7787
X7.8114Y-4.2173
X7.8415Y-2.8971
X7.9935Y-1.7309
X8.0083Y-4.2173
X8.0383Y-2.8971
X8.065Y-4.5083
X8.065Y-4.6083
X8.065Y-4.7083
X8.065Y-4.8083
X8.065Y-4.9083
X8.065Y-5.0083
X8.065Y-5.1083
X8.0724Y-3.1787
X8.0724Y-3.2787
X8.0724Y-3.3787
X8.0724Y-3.4787
X8.0724Y-3.5787
X8.0724Y-3.6787
X8.0724Y-3.7787
X8.1904Y-1.7309
X8.402Y-1.711
X8.402Y-1.811
X8.402Y-1.911
X8.402Y-2.011
X8.402Y-2.111
X8.402Y-2.211
X8.402Y-2.311
X8.402Y-2.411
X8.402Y-2.511
X8.402Y-2.611
X8.402Y-2.711
X8.402Y-2.811
X8.402Y-2.911
X8.402Y-3.011
X8.402Y-3.111
X8.402Y-3.211
X8.402Y-3.311
X8.402Y-3.411
X8.402Y-3.511
X8.402Y-3.611
X8.4524Y-4.2169
X8.4524Y-4.3169
X8.4524Y-4.4169
X8.4524Y-4.5169
X8.4524Y-4.6169
X8.4524Y-4.7169
X8.4524Y-4.8169
X8.4524Y-4.9169
X8.4524Y-5.0169
X8.4524Y-5.1169
X8.5051Y-3.9421
X8.702Y-3.9421
X8.7524Y-4.2169
X8.7524Y-4.3169
X8.7524Y-4.4169
X8.7524Y-4.5169
X8.7524Y-4.6169
X8.7524Y-4.7169
X8.7524Y-4.8169
X8.7524Y-4.9169
X8.7524Y-5.0169
X8.7524Y-5.1169
X9.002Y-1.711
X9.002Y-1.811
X9.002Y-1.911
X9.002Y-2.011
X9.002Y-2.111
X9.002Y-2.211
X9.002Y-2.311
X9.002Y-2.411
X9.002Y-2.511
X9.002Y-2.611
X9.002Y-2.711
X9.002Y-2.811
X9.002Y-2.911
X9.002Y-3.011
X9.002Y-3.111
X9.002Y-3.211
X9.002Y-3.311
X9.002Y-3.411
X9.002Y-3.511
X9.002Y-3.611
X9.0756Y-4.2079
X9.0756Y-4.3079
X9.0756Y-4.4079
X9.0756Y-4.5079
X9.0756Y-4.6079
X9.0756Y-4.7079
X9.0756Y-4.8079
X9.0756Y-4.9079
X9.0756Y-5.0079
X9.0756Y-5.1079
X9.1177Y-3.9217
X9.2976Y-2.2583
X9.3146Y-3.9217
X9.3756Y-4.2079
X9.3756Y-4.3079
X9.3756Y-4.4079
X9.3756Y-4.5079
X9.3756Y-4.6079
X9.3756Y-4.7079
X9.3756Y-4.8079
X9.3756Y-4.9079
X9.3756Y-5.0079
X9.3756Y-5.1079
X9.378Y-2.8236
X9.378Y-2.9236
X9.378Y-3.0236
X9.378Y-3.1236
X9.378Y-3.2236
X9.378Y-3.3236
X9.378Y-3.4236
X9.378Y-3.5236
X9.378Y-3.6236
X9.3961Y-2.2583
X9.4028Y-1.7319
X9.5996Y-1.7319
X9.7323Y-1.7382
X9.7323Y-1.8382
X9.7323Y-1.9382
X9.7323Y-2.0382
X9.7323Y-2.1382
X9.7323Y-2.2382
X9.7323Y-2.3382
X9.7323Y-2.4382
X9.7323Y-2.5382
X9.7323Y-2.6382
X9.7323Y-2.7382
X9.7323Y-2.8382
X9.7323Y-2.9382
X9.7323Y-3.0382
X9.7323Y-3.1382
X9.7323Y-3.2382
X9.7323Y-3.3382
X9.7323Y-3.4382
X9.7323Y-3.5382
X9.7323Y-3.6382
X10.3323Y-1.7382
X10.3323Y-1.8382
X10.3323Y-1.9382
X10.3323Y-2.0382
X10.3323Y-2.1382
X10.3323Y-2.2382
X10.3323Y-2.3382
X10.3323Y-2.4382
X10.3323Y-2.5382
X10.3323Y-2.6382
X10.3323Y-2.7382
X10.3323Y-2.8382
X10.3323Y-2.9382
X10.3323Y-3.0382
X10.3323Y-3.1382
X10.3323Y-3.2382
X10.3323Y-3.3382
X10.3323Y-3.4382
X10.3323Y-3.5382
X10.3323Y-3.6382
X10.4791Y-1.7413
X10.6324Y-3.7713
X10.6356Y-3.3465
X10.6368Y-3.585
X10.6372Y-2.9921
X10.6399Y-2.7858
X10.6417Y-2.602
X10.6468Y-2.3394
X10.676Y-1.7413
X10.7425Y-4.4421
X10.9324Y-3.7713
X10.9356Y-3.3465
X10.9368Y-3.585
X10.9372Y-2.9921
X10.9399Y-2.7858
X10.9417Y-2.602
X10.9468Y-2.3394
X11.0425Y-4.4421
X11.0669Y-1.7378
X11.0669Y-1.8378
X11.0669Y-1.9378
X11.0669Y-2.0378
X11.0669Y-2.1378
X11.0669Y-2.2378
X11.0669Y-2.3378
X11.3669Y-1.7378
X11.3669Y-1.8378
X11.3669Y-1.9378
X11.3669Y-2.0378
X11.3669Y-2.1378
X11.3669Y-2.2378
X11.3669Y-2.3378
X11.6583Y-1.7126
X11.6583Y-1.8126
X11.6583Y-1.9126
X11.6583Y-2.0126
X11.6583Y-2.1126
X11.6583Y-2.2126
X11.6583Y-2.3126
X11.6583Y-2.4126
X11.6583Y-2.5126
X11.7244Y-2.674
X11.7463Y-3.7372
X11.7853Y-2.943
X11.7937Y-3.4016
X11.8837Y-2.943
X11.8921Y-3.4016
X11.9213Y-2.674
X11.9431Y-3.7372
X12.202Y-1.7937
X12.3004Y-1.7937
X12.331Y-5.2411
X12.4294Y-5.2411
T4
X9.865Y-4.6185
X9.865Y-4.7185
X9.865Y-4.8185
X9.865Y-4.9185
X9.865Y-5.0185
X9.865Y-5.1185
X9.965Y-4.6185
X9.965Y-4.7185
X9.965Y-4.8185
X9.965Y-4.9185
X9.965Y-5.0185
X9.965Y-5.1185
X10.7012Y-1.9937
X10.7012Y-2.0937
X10.8012Y-1.9937
X10.8012Y-2.0937
X12.4791Y-2.3213
X12.4791Y-2.4303
X12.4791Y-2.5394
X12.4791Y-2.6484
X12.4791Y-2.7575
X12.4791Y-4.2209
X12.4791Y-4.3299
X12.4791Y-4.439
X12.4791Y-4.548
X12.4791Y-4.6571
X12.5909Y-2.3758
X12.5909Y-2.4848
X12.5909Y-2.5939
X12.5909Y-2.703
X12.5909Y-4.2754
X12.5909Y-4.3844
X12.5909Y-4.4935
X12.5909Y-4.6026
T5
X11.1122Y-2.7972
X11.1122Y-2.9941
X11.1244Y-3.3636
X11.1244Y-3.5604
X11.5059Y-2.8957
X11.5181Y-3.462
T6
X12.5909Y-2.0472
X12.5909Y-3.0315
X12.5909Y-3.9469
X12.5909Y-4.9311
T2
G00X12.4362Y-3.2965
M15
G01X12.3969Y-3.2965
M16
G05
G00X12.3969Y-3.6902
M15
G01X12.4362Y-3.6902
M16
G05
G00X12.6134Y-3.513
M15
G01X12.6134Y-3.4736
M16
G05
T3
G00X12.4303Y-3.3949
M15
G01X12.4028Y-3.3949
M16
G05
G00X12.4028Y-3.5917
M15
G01X12.4303Y-3.5917
M16
G05
M30
