%TF.GenerationSoftware,KiCad,Pcbnew,9.0.2*%
%TF.CreationDate,2025-06-28T19:43:49-05:00*%
%TF.ProjectId,DUALESP,4455414c-4553-4502-9e6b-696361645f70,V1.2*%
%TF.SameCoordinates,Original*%
%TF.FileFunction,Profile,NP*%
%FSLAX46Y46*%
G04 Gerber Fmt 4.6, Leading zero omitted, Abs format (unit mm)*
G04 Created by KiCad (PCBNEW 9.0.2) date 2025-06-28 19:43:49*
%MOMM*%
%LPD*%
G01*
G04 APERTURE LIST*
%TA.AperFunction,Profile*%
%ADD10C,0.381000*%
%TD*%
%TA.AperFunction,Profile*%
%ADD11C,0.010000*%
%TD*%
G04 APERTURE END LIST*
D10*
X215638666Y-37203666D02*
X215638666Y-136263666D01*
X192778666Y-145864866D02*
G75*
G02*
X192143666Y-146499866I-634966J-34D01*
G01*
X41452800Y-34747200D02*
X213073266Y-34612866D01*
X111371666Y-138727466D02*
X111388830Y-145873073D01*
X38963228Y-37279856D02*
G75*
G02*
X41452800Y-34747200I2532972J56D01*
G01*
X106545666Y-138727466D02*
X111371666Y-138727466D01*
X112023830Y-146508073D02*
G75*
G02*
X111388827Y-145873073I70J635073D01*
G01*
X41554400Y-138760200D02*
X106545666Y-138727466D01*
X215638718Y-136263666D02*
G75*
G02*
X213124066Y-138803665I-2532618J-7434D01*
G01*
X41554400Y-138760200D02*
G75*
G02*
X39014400Y-136220200I0J2540000D01*
G01*
X112023830Y-146508073D02*
X192143666Y-146499866D01*
X192804066Y-138790966D02*
X213124066Y-138803666D01*
X213073260Y-34612377D02*
G75*
G02*
X215638666Y-37203666I32840J-2533023D01*
G01*
X39014400Y-136220200D02*
X38956256Y-37279856D01*
X192804066Y-138790966D02*
X192778666Y-145864866D01*
D11*
%TO.C,J9*%
X214296000Y-42451500D02*
X214296000Y-44251500D01*
X214296000Y-44251500D02*
X215996000Y-44251500D01*
X214296000Y-50951500D02*
X214296000Y-52751500D01*
X214296000Y-52751500D02*
X215996000Y-52751500D01*
X215996000Y-42451500D02*
X214296000Y-42451500D01*
X215996000Y-44251500D02*
X215996000Y-42451500D01*
X215996000Y-50951500D02*
X214296000Y-50951500D01*
X215996000Y-52751500D02*
X215996000Y-50951500D01*
%TD*%
M02*
