%TF.GenerationSoftware,KiCad,Pcbnew,8.0.6*%
%TF.CreationDate,2025-06-14T16:57:26-05:00*%
%TF.ProjectId,DUALESP,4455414c-4553-4502-9e6b-696361645f70,V1*%
%TF.SameCoordinates,Original*%
%TF.FileFunction,AssemblyDrawing,Top*%
%FSLAX46Y46*%
G04 Gerber Fmt 4.6, Leading zero omitted, Abs format (unit mm)*
G04 Created by KiCad (PCBNEW 8.0.6) date 2025-06-14 16:57:26*
%MOMM*%
%LPD*%
G01*
G04 APERTURE LIST*
%ADD10C,0.150000*%
%ADD11C,0.100000*%
%ADD12C,0.127000*%
%ADD13C,0.200000*%
G04 APERTURE END LIST*
D10*
X87519142Y-89030819D02*
X86947714Y-89030819D01*
X87233428Y-89030819D02*
X87233428Y-88030819D01*
X87233428Y-88030819D02*
X87138190Y-88173676D01*
X87138190Y-88173676D02*
X87042952Y-88268914D01*
X87042952Y-88268914D02*
X86947714Y-88316533D01*
X87947714Y-89030819D02*
X87947714Y-88030819D01*
X87947714Y-88030819D02*
X88519142Y-89030819D01*
X88519142Y-89030819D02*
X88519142Y-88030819D01*
X89423904Y-88364152D02*
X89423904Y-89030819D01*
X89185809Y-87983200D02*
X88947714Y-88697485D01*
X88947714Y-88697485D02*
X89566761Y-88697485D01*
X90138190Y-88030819D02*
X90233428Y-88030819D01*
X90233428Y-88030819D02*
X90328666Y-88078438D01*
X90328666Y-88078438D02*
X90376285Y-88126057D01*
X90376285Y-88126057D02*
X90423904Y-88221295D01*
X90423904Y-88221295D02*
X90471523Y-88411771D01*
X90471523Y-88411771D02*
X90471523Y-88649866D01*
X90471523Y-88649866D02*
X90423904Y-88840342D01*
X90423904Y-88840342D02*
X90376285Y-88935580D01*
X90376285Y-88935580D02*
X90328666Y-88983200D01*
X90328666Y-88983200D02*
X90233428Y-89030819D01*
X90233428Y-89030819D02*
X90138190Y-89030819D01*
X90138190Y-89030819D02*
X90042952Y-88983200D01*
X90042952Y-88983200D02*
X89995333Y-88935580D01*
X89995333Y-88935580D02*
X89947714Y-88840342D01*
X89947714Y-88840342D02*
X89900095Y-88649866D01*
X89900095Y-88649866D02*
X89900095Y-88411771D01*
X89900095Y-88411771D02*
X89947714Y-88221295D01*
X89947714Y-88221295D02*
X89995333Y-88126057D01*
X89995333Y-88126057D02*
X90042952Y-88078438D01*
X90042952Y-88078438D02*
X90138190Y-88030819D01*
X91090571Y-88030819D02*
X91185809Y-88030819D01*
X91185809Y-88030819D02*
X91281047Y-88078438D01*
X91281047Y-88078438D02*
X91328666Y-88126057D01*
X91328666Y-88126057D02*
X91376285Y-88221295D01*
X91376285Y-88221295D02*
X91423904Y-88411771D01*
X91423904Y-88411771D02*
X91423904Y-88649866D01*
X91423904Y-88649866D02*
X91376285Y-88840342D01*
X91376285Y-88840342D02*
X91328666Y-88935580D01*
X91328666Y-88935580D02*
X91281047Y-88983200D01*
X91281047Y-88983200D02*
X91185809Y-89030819D01*
X91185809Y-89030819D02*
X91090571Y-89030819D01*
X91090571Y-89030819D02*
X90995333Y-88983200D01*
X90995333Y-88983200D02*
X90947714Y-88935580D01*
X90947714Y-88935580D02*
X90900095Y-88840342D01*
X90900095Y-88840342D02*
X90852476Y-88649866D01*
X90852476Y-88649866D02*
X90852476Y-88411771D01*
X90852476Y-88411771D02*
X90900095Y-88221295D01*
X90900095Y-88221295D02*
X90947714Y-88126057D01*
X90947714Y-88126057D02*
X90995333Y-88078438D01*
X90995333Y-88078438D02*
X91090571Y-88030819D01*
X92376285Y-89030819D02*
X91804857Y-89030819D01*
X92090571Y-89030819D02*
X92090571Y-88030819D01*
X92090571Y-88030819D02*
X91995333Y-88173676D01*
X91995333Y-88173676D02*
X91900095Y-88268914D01*
X91900095Y-88268914D02*
X91804857Y-88316533D01*
X84320095Y-84460819D02*
X84320095Y-83460819D01*
X84891523Y-84460819D02*
X84462952Y-83889390D01*
X84891523Y-83460819D02*
X84320095Y-84032247D01*
X89313905Y-86560819D02*
X89313905Y-85560819D01*
X89313905Y-85560819D02*
X89552000Y-85560819D01*
X89552000Y-85560819D02*
X89694857Y-85608438D01*
X89694857Y-85608438D02*
X89790095Y-85703676D01*
X89790095Y-85703676D02*
X89837714Y-85798914D01*
X89837714Y-85798914D02*
X89885333Y-85989390D01*
X89885333Y-85989390D02*
X89885333Y-86132247D01*
X89885333Y-86132247D02*
X89837714Y-86322723D01*
X89837714Y-86322723D02*
X89790095Y-86417961D01*
X89790095Y-86417961D02*
X89694857Y-86513200D01*
X89694857Y-86513200D02*
X89552000Y-86560819D01*
X89552000Y-86560819D02*
X89313905Y-86560819D01*
X90218667Y-85560819D02*
X90837714Y-85560819D01*
X90837714Y-85560819D02*
X90504381Y-85941771D01*
X90504381Y-85941771D02*
X90647238Y-85941771D01*
X90647238Y-85941771D02*
X90742476Y-85989390D01*
X90742476Y-85989390D02*
X90790095Y-86037009D01*
X90790095Y-86037009D02*
X90837714Y-86132247D01*
X90837714Y-86132247D02*
X90837714Y-86370342D01*
X90837714Y-86370342D02*
X90790095Y-86465580D01*
X90790095Y-86465580D02*
X90742476Y-86513200D01*
X90742476Y-86513200D02*
X90647238Y-86560819D01*
X90647238Y-86560819D02*
X90361524Y-86560819D01*
X90361524Y-86560819D02*
X90266286Y-86513200D01*
X90266286Y-86513200D02*
X90218667Y-86465580D01*
X86757142Y-133734819D02*
X86185714Y-133734819D01*
X86471428Y-133734819D02*
X86471428Y-132734819D01*
X86471428Y-132734819D02*
X86376190Y-132877676D01*
X86376190Y-132877676D02*
X86280952Y-132972914D01*
X86280952Y-132972914D02*
X86185714Y-133020533D01*
X87185714Y-133734819D02*
X87185714Y-132734819D01*
X87185714Y-132734819D02*
X87757142Y-133734819D01*
X87757142Y-133734819D02*
X87757142Y-132734819D01*
X88661904Y-133068152D02*
X88661904Y-133734819D01*
X88423809Y-132687200D02*
X88185714Y-133401485D01*
X88185714Y-133401485D02*
X88804761Y-133401485D01*
X89376190Y-132734819D02*
X89471428Y-132734819D01*
X89471428Y-132734819D02*
X89566666Y-132782438D01*
X89566666Y-132782438D02*
X89614285Y-132830057D01*
X89614285Y-132830057D02*
X89661904Y-132925295D01*
X89661904Y-132925295D02*
X89709523Y-133115771D01*
X89709523Y-133115771D02*
X89709523Y-133353866D01*
X89709523Y-133353866D02*
X89661904Y-133544342D01*
X89661904Y-133544342D02*
X89614285Y-133639580D01*
X89614285Y-133639580D02*
X89566666Y-133687200D01*
X89566666Y-133687200D02*
X89471428Y-133734819D01*
X89471428Y-133734819D02*
X89376190Y-133734819D01*
X89376190Y-133734819D02*
X89280952Y-133687200D01*
X89280952Y-133687200D02*
X89233333Y-133639580D01*
X89233333Y-133639580D02*
X89185714Y-133544342D01*
X89185714Y-133544342D02*
X89138095Y-133353866D01*
X89138095Y-133353866D02*
X89138095Y-133115771D01*
X89138095Y-133115771D02*
X89185714Y-132925295D01*
X89185714Y-132925295D02*
X89233333Y-132830057D01*
X89233333Y-132830057D02*
X89280952Y-132782438D01*
X89280952Y-132782438D02*
X89376190Y-132734819D01*
X90328571Y-132734819D02*
X90423809Y-132734819D01*
X90423809Y-132734819D02*
X90519047Y-132782438D01*
X90519047Y-132782438D02*
X90566666Y-132830057D01*
X90566666Y-132830057D02*
X90614285Y-132925295D01*
X90614285Y-132925295D02*
X90661904Y-133115771D01*
X90661904Y-133115771D02*
X90661904Y-133353866D01*
X90661904Y-133353866D02*
X90614285Y-133544342D01*
X90614285Y-133544342D02*
X90566666Y-133639580D01*
X90566666Y-133639580D02*
X90519047Y-133687200D01*
X90519047Y-133687200D02*
X90423809Y-133734819D01*
X90423809Y-133734819D02*
X90328571Y-133734819D01*
X90328571Y-133734819D02*
X90233333Y-133687200D01*
X90233333Y-133687200D02*
X90185714Y-133639580D01*
X90185714Y-133639580D02*
X90138095Y-133544342D01*
X90138095Y-133544342D02*
X90090476Y-133353866D01*
X90090476Y-133353866D02*
X90090476Y-133115771D01*
X90090476Y-133115771D02*
X90138095Y-132925295D01*
X90138095Y-132925295D02*
X90185714Y-132830057D01*
X90185714Y-132830057D02*
X90233333Y-132782438D01*
X90233333Y-132782438D02*
X90328571Y-132734819D01*
X91614285Y-133734819D02*
X91042857Y-133734819D01*
X91328571Y-133734819D02*
X91328571Y-132734819D01*
X91328571Y-132734819D02*
X91233333Y-132877676D01*
X91233333Y-132877676D02*
X91138095Y-132972914D01*
X91138095Y-132972914D02*
X91042857Y-133020533D01*
X83558095Y-129164819D02*
X83558095Y-128164819D01*
X84129523Y-129164819D02*
X83700952Y-128593390D01*
X84129523Y-128164819D02*
X83558095Y-128736247D01*
X88551905Y-131264819D02*
X88551905Y-130264819D01*
X88551905Y-130264819D02*
X88790000Y-130264819D01*
X88790000Y-130264819D02*
X88932857Y-130312438D01*
X88932857Y-130312438D02*
X89028095Y-130407676D01*
X89028095Y-130407676D02*
X89075714Y-130502914D01*
X89075714Y-130502914D02*
X89123333Y-130693390D01*
X89123333Y-130693390D02*
X89123333Y-130836247D01*
X89123333Y-130836247D02*
X89075714Y-131026723D01*
X89075714Y-131026723D02*
X89028095Y-131121961D01*
X89028095Y-131121961D02*
X88932857Y-131217200D01*
X88932857Y-131217200D02*
X88790000Y-131264819D01*
X88790000Y-131264819D02*
X88551905Y-131264819D01*
X89504286Y-130360057D02*
X89551905Y-130312438D01*
X89551905Y-130312438D02*
X89647143Y-130264819D01*
X89647143Y-130264819D02*
X89885238Y-130264819D01*
X89885238Y-130264819D02*
X89980476Y-130312438D01*
X89980476Y-130312438D02*
X90028095Y-130360057D01*
X90028095Y-130360057D02*
X90075714Y-130455295D01*
X90075714Y-130455295D02*
X90075714Y-130550533D01*
X90075714Y-130550533D02*
X90028095Y-130693390D01*
X90028095Y-130693390D02*
X89456667Y-131264819D01*
X89456667Y-131264819D02*
X90075714Y-131264819D01*
X204356819Y-111504904D02*
X205356819Y-111171571D01*
X205356819Y-111171571D02*
X204356819Y-110838238D01*
X204404438Y-109981095D02*
X204356819Y-110076333D01*
X204356819Y-110076333D02*
X204356819Y-110219190D01*
X204356819Y-110219190D02*
X204404438Y-110362047D01*
X204404438Y-110362047D02*
X204499676Y-110457285D01*
X204499676Y-110457285D02*
X204594914Y-110504904D01*
X204594914Y-110504904D02*
X204785390Y-110552523D01*
X204785390Y-110552523D02*
X204928247Y-110552523D01*
X204928247Y-110552523D02*
X205118723Y-110504904D01*
X205118723Y-110504904D02*
X205213961Y-110457285D01*
X205213961Y-110457285D02*
X205309200Y-110362047D01*
X205309200Y-110362047D02*
X205356819Y-110219190D01*
X205356819Y-110219190D02*
X205356819Y-110123952D01*
X205356819Y-110123952D02*
X205309200Y-109981095D01*
X205309200Y-109981095D02*
X205261580Y-109933476D01*
X205261580Y-109933476D02*
X204928247Y-109933476D01*
X204928247Y-109933476D02*
X204928247Y-110123952D01*
X205071104Y-109552523D02*
X205071104Y-109076333D01*
X205356819Y-109647761D02*
X204356819Y-109314428D01*
X204356819Y-109314428D02*
X205356819Y-108981095D01*
X143092599Y-132956209D02*
X143235456Y-133003828D01*
X143235456Y-133003828D02*
X143283075Y-133051447D01*
X143283075Y-133051447D02*
X143330694Y-133146685D01*
X143330694Y-133146685D02*
X143330694Y-133289542D01*
X143330694Y-133289542D02*
X143283075Y-133384780D01*
X143283075Y-133384780D02*
X143235456Y-133432400D01*
X143235456Y-133432400D02*
X143140218Y-133480019D01*
X143140218Y-133480019D02*
X142759266Y-133480019D01*
X142759266Y-133480019D02*
X142759266Y-132480019D01*
X142759266Y-132480019D02*
X143092599Y-132480019D01*
X143092599Y-132480019D02*
X143187837Y-132527638D01*
X143187837Y-132527638D02*
X143235456Y-132575257D01*
X143235456Y-132575257D02*
X143283075Y-132670495D01*
X143283075Y-132670495D02*
X143283075Y-132765733D01*
X143283075Y-132765733D02*
X143235456Y-132860971D01*
X143235456Y-132860971D02*
X143187837Y-132908590D01*
X143187837Y-132908590D02*
X143092599Y-132956209D01*
X143092599Y-132956209D02*
X142759266Y-132956209D01*
X144187837Y-132813352D02*
X144187837Y-133480019D01*
X143759266Y-132813352D02*
X143759266Y-133337161D01*
X143759266Y-133337161D02*
X143806885Y-133432400D01*
X143806885Y-133432400D02*
X143902123Y-133480019D01*
X143902123Y-133480019D02*
X144044980Y-133480019D01*
X144044980Y-133480019D02*
X144140218Y-133432400D01*
X144140218Y-133432400D02*
X144187837Y-133384780D01*
X144616409Y-133432400D02*
X144711647Y-133480019D01*
X144711647Y-133480019D02*
X144902123Y-133480019D01*
X144902123Y-133480019D02*
X144997361Y-133432400D01*
X144997361Y-133432400D02*
X145044980Y-133337161D01*
X145044980Y-133337161D02*
X145044980Y-133289542D01*
X145044980Y-133289542D02*
X144997361Y-133194304D01*
X144997361Y-133194304D02*
X144902123Y-133146685D01*
X144902123Y-133146685D02*
X144759266Y-133146685D01*
X144759266Y-133146685D02*
X144664028Y-133099066D01*
X144664028Y-133099066D02*
X144616409Y-133003828D01*
X144616409Y-133003828D02*
X144616409Y-132956209D01*
X144616409Y-132956209D02*
X144664028Y-132860971D01*
X144664028Y-132860971D02*
X144759266Y-132813352D01*
X144759266Y-132813352D02*
X144902123Y-132813352D01*
X144902123Y-132813352D02*
X144997361Y-132860971D01*
X145235457Y-133575257D02*
X145997361Y-133575257D01*
X146235457Y-133480019D02*
X146235457Y-132480019D01*
X146664028Y-133432400D02*
X146806885Y-133480019D01*
X146806885Y-133480019D02*
X147044980Y-133480019D01*
X147044980Y-133480019D02*
X147140218Y-133432400D01*
X147140218Y-133432400D02*
X147187837Y-133384780D01*
X147187837Y-133384780D02*
X147235456Y-133289542D01*
X147235456Y-133289542D02*
X147235456Y-133194304D01*
X147235456Y-133194304D02*
X147187837Y-133099066D01*
X147187837Y-133099066D02*
X147140218Y-133051447D01*
X147140218Y-133051447D02*
X147044980Y-133003828D01*
X147044980Y-133003828D02*
X146854504Y-132956209D01*
X146854504Y-132956209D02*
X146759266Y-132908590D01*
X146759266Y-132908590D02*
X146711647Y-132860971D01*
X146711647Y-132860971D02*
X146664028Y-132765733D01*
X146664028Y-132765733D02*
X146664028Y-132670495D01*
X146664028Y-132670495D02*
X146711647Y-132575257D01*
X146711647Y-132575257D02*
X146759266Y-132527638D01*
X146759266Y-132527638D02*
X146854504Y-132480019D01*
X146854504Y-132480019D02*
X147092599Y-132480019D01*
X147092599Y-132480019D02*
X147235456Y-132527638D01*
X147616409Y-133194304D02*
X148092599Y-133194304D01*
X147521171Y-133480019D02*
X147854504Y-132480019D01*
X147854504Y-132480019D02*
X148187837Y-133480019D01*
X148283076Y-133575257D02*
X149044980Y-133575257D01*
X149425933Y-132908590D02*
X149330695Y-132860971D01*
X149330695Y-132860971D02*
X149283076Y-132813352D01*
X149283076Y-132813352D02*
X149235457Y-132718114D01*
X149235457Y-132718114D02*
X149235457Y-132670495D01*
X149235457Y-132670495D02*
X149283076Y-132575257D01*
X149283076Y-132575257D02*
X149330695Y-132527638D01*
X149330695Y-132527638D02*
X149425933Y-132480019D01*
X149425933Y-132480019D02*
X149616409Y-132480019D01*
X149616409Y-132480019D02*
X149711647Y-132527638D01*
X149711647Y-132527638D02*
X149759266Y-132575257D01*
X149759266Y-132575257D02*
X149806885Y-132670495D01*
X149806885Y-132670495D02*
X149806885Y-132718114D01*
X149806885Y-132718114D02*
X149759266Y-132813352D01*
X149759266Y-132813352D02*
X149711647Y-132860971D01*
X149711647Y-132860971D02*
X149616409Y-132908590D01*
X149616409Y-132908590D02*
X149425933Y-132908590D01*
X149425933Y-132908590D02*
X149330695Y-132956209D01*
X149330695Y-132956209D02*
X149283076Y-133003828D01*
X149283076Y-133003828D02*
X149235457Y-133099066D01*
X149235457Y-133099066D02*
X149235457Y-133289542D01*
X149235457Y-133289542D02*
X149283076Y-133384780D01*
X149283076Y-133384780D02*
X149330695Y-133432400D01*
X149330695Y-133432400D02*
X149425933Y-133480019D01*
X149425933Y-133480019D02*
X149616409Y-133480019D01*
X149616409Y-133480019D02*
X149711647Y-133432400D01*
X149711647Y-133432400D02*
X149759266Y-133384780D01*
X149759266Y-133384780D02*
X149806885Y-133289542D01*
X149806885Y-133289542D02*
X149806885Y-133099066D01*
X149806885Y-133099066D02*
X149759266Y-133003828D01*
X149759266Y-133003828D02*
X149711647Y-132956209D01*
X149711647Y-132956209D02*
X149616409Y-132908590D01*
X150235457Y-133480019D02*
X150235457Y-132480019D01*
X150235457Y-132860971D02*
X150330695Y-132813352D01*
X150330695Y-132813352D02*
X150521171Y-132813352D01*
X150521171Y-132813352D02*
X150616409Y-132860971D01*
X150616409Y-132860971D02*
X150664028Y-132908590D01*
X150664028Y-132908590D02*
X150711647Y-133003828D01*
X150711647Y-133003828D02*
X150711647Y-133289542D01*
X150711647Y-133289542D02*
X150664028Y-133384780D01*
X150664028Y-133384780D02*
X150616409Y-133432400D01*
X150616409Y-133432400D02*
X150521171Y-133480019D01*
X150521171Y-133480019D02*
X150330695Y-133480019D01*
X150330695Y-133480019D02*
X150235457Y-133432400D01*
X151140219Y-133480019D02*
X151140219Y-132813352D01*
X151140219Y-132480019D02*
X151092600Y-132527638D01*
X151092600Y-132527638D02*
X151140219Y-132575257D01*
X151140219Y-132575257D02*
X151187838Y-132527638D01*
X151187838Y-132527638D02*
X151140219Y-132480019D01*
X151140219Y-132480019D02*
X151140219Y-132575257D01*
X151473552Y-132813352D02*
X151854504Y-132813352D01*
X151616409Y-132480019D02*
X151616409Y-133337161D01*
X151616409Y-133337161D02*
X151664028Y-133432400D01*
X151664028Y-133432400D02*
X151759266Y-133480019D01*
X151759266Y-133480019D02*
X151854504Y-133480019D01*
X151949743Y-133575257D02*
X152711647Y-133575257D01*
X153521171Y-133384780D02*
X153473552Y-133432400D01*
X153473552Y-133432400D02*
X153330695Y-133480019D01*
X153330695Y-133480019D02*
X153235457Y-133480019D01*
X153235457Y-133480019D02*
X153092600Y-133432400D01*
X153092600Y-133432400D02*
X152997362Y-133337161D01*
X152997362Y-133337161D02*
X152949743Y-133241923D01*
X152949743Y-133241923D02*
X152902124Y-133051447D01*
X152902124Y-133051447D02*
X152902124Y-132908590D01*
X152902124Y-132908590D02*
X152949743Y-132718114D01*
X152949743Y-132718114D02*
X152997362Y-132622876D01*
X152997362Y-132622876D02*
X153092600Y-132527638D01*
X153092600Y-132527638D02*
X153235457Y-132480019D01*
X153235457Y-132480019D02*
X153330695Y-132480019D01*
X153330695Y-132480019D02*
X153473552Y-132527638D01*
X153473552Y-132527638D02*
X153521171Y-132575257D01*
X153949743Y-132480019D02*
X153949743Y-133289542D01*
X153949743Y-133289542D02*
X153997362Y-133384780D01*
X153997362Y-133384780D02*
X154044981Y-133432400D01*
X154044981Y-133432400D02*
X154140219Y-133480019D01*
X154140219Y-133480019D02*
X154330695Y-133480019D01*
X154330695Y-133480019D02*
X154425933Y-133432400D01*
X154425933Y-133432400D02*
X154473552Y-133384780D01*
X154473552Y-133384780D02*
X154521171Y-133289542D01*
X154521171Y-133289542D02*
X154521171Y-132480019D01*
X154949743Y-133432400D02*
X155092600Y-133480019D01*
X155092600Y-133480019D02*
X155330695Y-133480019D01*
X155330695Y-133480019D02*
X155425933Y-133432400D01*
X155425933Y-133432400D02*
X155473552Y-133384780D01*
X155473552Y-133384780D02*
X155521171Y-133289542D01*
X155521171Y-133289542D02*
X155521171Y-133194304D01*
X155521171Y-133194304D02*
X155473552Y-133099066D01*
X155473552Y-133099066D02*
X155425933Y-133051447D01*
X155425933Y-133051447D02*
X155330695Y-133003828D01*
X155330695Y-133003828D02*
X155140219Y-132956209D01*
X155140219Y-132956209D02*
X155044981Y-132908590D01*
X155044981Y-132908590D02*
X154997362Y-132860971D01*
X154997362Y-132860971D02*
X154949743Y-132765733D01*
X154949743Y-132765733D02*
X154949743Y-132670495D01*
X154949743Y-132670495D02*
X154997362Y-132575257D01*
X154997362Y-132575257D02*
X155044981Y-132527638D01*
X155044981Y-132527638D02*
X155140219Y-132480019D01*
X155140219Y-132480019D02*
X155378314Y-132480019D01*
X155378314Y-132480019D02*
X155521171Y-132527638D01*
X155806886Y-132480019D02*
X156378314Y-132480019D01*
X156092600Y-133480019D02*
X156092600Y-132480019D01*
X156902124Y-132480019D02*
X157092600Y-132480019D01*
X157092600Y-132480019D02*
X157187838Y-132527638D01*
X157187838Y-132527638D02*
X157283076Y-132622876D01*
X157283076Y-132622876D02*
X157330695Y-132813352D01*
X157330695Y-132813352D02*
X157330695Y-133146685D01*
X157330695Y-133146685D02*
X157283076Y-133337161D01*
X157283076Y-133337161D02*
X157187838Y-133432400D01*
X157187838Y-133432400D02*
X157092600Y-133480019D01*
X157092600Y-133480019D02*
X156902124Y-133480019D01*
X156902124Y-133480019D02*
X156806886Y-133432400D01*
X156806886Y-133432400D02*
X156711648Y-133337161D01*
X156711648Y-133337161D02*
X156664029Y-133146685D01*
X156664029Y-133146685D02*
X156664029Y-132813352D01*
X156664029Y-132813352D02*
X156711648Y-132622876D01*
X156711648Y-132622876D02*
X156806886Y-132527638D01*
X156806886Y-132527638D02*
X156902124Y-132480019D01*
X157759267Y-133480019D02*
X157759267Y-132480019D01*
X157759267Y-132480019D02*
X158092600Y-133194304D01*
X158092600Y-133194304D02*
X158425933Y-132480019D01*
X158425933Y-132480019D02*
X158425933Y-133480019D01*
X125117266Y-141263019D02*
X125117266Y-141977304D01*
X125117266Y-141977304D02*
X125069647Y-142120161D01*
X125069647Y-142120161D02*
X124974409Y-142215400D01*
X124974409Y-142215400D02*
X124831552Y-142263019D01*
X124831552Y-142263019D02*
X124736314Y-142263019D01*
X126022028Y-141263019D02*
X125831552Y-141263019D01*
X125831552Y-141263019D02*
X125736314Y-141310638D01*
X125736314Y-141310638D02*
X125688695Y-141358257D01*
X125688695Y-141358257D02*
X125593457Y-141501114D01*
X125593457Y-141501114D02*
X125545838Y-141691590D01*
X125545838Y-141691590D02*
X125545838Y-142072542D01*
X125545838Y-142072542D02*
X125593457Y-142167780D01*
X125593457Y-142167780D02*
X125641076Y-142215400D01*
X125641076Y-142215400D02*
X125736314Y-142263019D01*
X125736314Y-142263019D02*
X125926790Y-142263019D01*
X125926790Y-142263019D02*
X126022028Y-142215400D01*
X126022028Y-142215400D02*
X126069647Y-142167780D01*
X126069647Y-142167780D02*
X126117266Y-142072542D01*
X126117266Y-142072542D02*
X126117266Y-141834447D01*
X126117266Y-141834447D02*
X126069647Y-141739209D01*
X126069647Y-141739209D02*
X126022028Y-141691590D01*
X126022028Y-141691590D02*
X125926790Y-141643971D01*
X125926790Y-141643971D02*
X125736314Y-141643971D01*
X125736314Y-141643971D02*
X125641076Y-141691590D01*
X125641076Y-141691590D02*
X125593457Y-141739209D01*
X125593457Y-141739209D02*
X125545838Y-141834447D01*
D11*
%TO.C,U9*%
X143510000Y-116110000D02*
X143510000Y-126270000D01*
X143510000Y-126270000D02*
X169030000Y-126270000D01*
X143570000Y-118015000D02*
X168970000Y-118015000D01*
X143570000Y-123365000D02*
X143570000Y-118015000D01*
X144570000Y-124365000D02*
X143570000Y-123365000D01*
X168970000Y-118015000D02*
X168970000Y-124365000D01*
X168970000Y-124365000D02*
X144570000Y-124365000D01*
X169030000Y-116110000D02*
X143510000Y-116110000D01*
X169030000Y-126270000D02*
X169030000Y-116110000D01*
%TO.C,U16*%
X57429400Y-51355800D02*
X95529400Y-51355800D01*
X57429400Y-78790800D02*
X57429400Y-51355800D01*
X58064400Y-79425800D02*
X57429400Y-78790800D01*
X95529400Y-51355800D02*
X95529400Y-79425800D01*
X95529400Y-79425800D02*
X58064400Y-79425800D01*
%TO.C,R6*%
X100279200Y-101193600D02*
X100939200Y-101193600D01*
X100939200Y-99943600D02*
X100939200Y-102443600D01*
X100939200Y-102443600D02*
X107239200Y-102443600D01*
X107239200Y-99943600D02*
X100939200Y-99943600D01*
X107239200Y-102443600D02*
X107239200Y-99943600D01*
X107899200Y-101193600D02*
X107239200Y-101193600D01*
%TO.C,R20*%
X69088000Y-87884000D02*
X69748000Y-87884000D01*
X69748000Y-86634000D02*
X69748000Y-89134000D01*
X69748000Y-89134000D02*
X76048000Y-89134000D01*
X76048000Y-86634000D02*
X69748000Y-86634000D01*
X76048000Y-89134000D02*
X76048000Y-86634000D01*
X76708000Y-87884000D02*
X76048000Y-87884000D01*
%TO.C,U12*%
X113730000Y-48590000D02*
X113730000Y-74110000D01*
X113730000Y-74110000D02*
X123890000Y-74110000D01*
X115635000Y-49650000D02*
X116635000Y-48650000D01*
X115635000Y-74050000D02*
X115635000Y-49650000D01*
X116635000Y-48650000D02*
X121985000Y-48650000D01*
X121985000Y-48650000D02*
X121985000Y-74050000D01*
X121985000Y-74050000D02*
X115635000Y-74050000D01*
X123890000Y-48590000D02*
X113730000Y-48590000D01*
X123890000Y-74110000D02*
X123890000Y-48590000D01*
%TO.C,U7*%
X173730000Y-75890000D02*
X173730000Y-93790000D01*
X173730000Y-93790000D02*
X183890000Y-93790000D01*
X175635000Y-76950000D02*
X176635000Y-75950000D01*
X175635000Y-93730000D02*
X175635000Y-76950000D01*
X176635000Y-75950000D02*
X181985000Y-75950000D01*
X181985000Y-75950000D02*
X181985000Y-93730000D01*
X181985000Y-93730000D02*
X175635000Y-93730000D01*
X183890000Y-75890000D02*
X173730000Y-75890000D01*
X183890000Y-93790000D02*
X183890000Y-75890000D01*
%TO.C,U14*%
X143730000Y-48590000D02*
X143730000Y-69030000D01*
X143730000Y-69030000D02*
X153890000Y-69030000D01*
X145635000Y-49650000D02*
X146635000Y-48650000D01*
X145635000Y-68970000D02*
X145635000Y-49650000D01*
X146635000Y-48650000D02*
X151985000Y-48650000D01*
X151985000Y-48650000D02*
X151985000Y-68970000D01*
X151985000Y-68970000D02*
X145635000Y-68970000D01*
X153890000Y-48590000D02*
X143730000Y-48590000D01*
X153890000Y-69030000D02*
X153890000Y-48590000D01*
%TO.C,C14*%
X102534395Y-129214500D02*
X103034395Y-129214500D01*
X102784395Y-128964500D02*
X102784395Y-129464500D01*
X107168000Y-130302000D02*
G75*
G02*
X102168000Y-130302000I-2500000J0D01*
G01*
X102168000Y-130302000D02*
G75*
G02*
X107168000Y-130302000I2500000J0D01*
G01*
%TO.C,J4*%
X154432000Y-37084000D02*
X161417000Y-37084000D01*
X154432000Y-39624000D02*
X154432000Y-37084000D01*
X161417000Y-37084000D02*
X162052000Y-37719000D01*
X162052000Y-37719000D02*
X162052000Y-39624000D01*
X162052000Y-39624000D02*
X154432000Y-39624000D01*
%TO.C,C4*%
X143510000Y-108986000D02*
X143510000Y-111486000D01*
X143510000Y-111486000D02*
X148510000Y-111486000D01*
X148510000Y-108986000D02*
X143510000Y-108986000D01*
X148510000Y-111486000D02*
X148510000Y-108986000D01*
%TO.C,R7*%
X100313200Y-104291000D02*
X100973200Y-104291000D01*
X100973200Y-103041000D02*
X100973200Y-105541000D01*
X100973200Y-105541000D02*
X107273200Y-105541000D01*
X107273200Y-103041000D02*
X100973200Y-103041000D01*
X107273200Y-105541000D02*
X107273200Y-103041000D01*
X107933200Y-104291000D02*
X107273200Y-104291000D01*
%TO.C,R13*%
X186436000Y-134874000D02*
X187096000Y-134874000D01*
X187096000Y-133624000D02*
X187096000Y-136124000D01*
X187096000Y-136124000D02*
X193396000Y-136124000D01*
X193396000Y-133624000D02*
X187096000Y-133624000D01*
X193396000Y-136124000D02*
X193396000Y-133624000D01*
X194056000Y-134874000D02*
X193396000Y-134874000D01*
%TO.C,U3*%
X113730000Y-85970000D02*
X113730000Y-111490000D01*
X113730000Y-111490000D02*
X123890000Y-111490000D01*
X115635000Y-87030000D02*
X116635000Y-86030000D01*
X115635000Y-111430000D02*
X115635000Y-87030000D01*
X116635000Y-86030000D02*
X121985000Y-86030000D01*
X121985000Y-86030000D02*
X121985000Y-111430000D01*
X121985000Y-111430000D02*
X115635000Y-111430000D01*
X123890000Y-85970000D02*
X113730000Y-85970000D01*
X123890000Y-111490000D02*
X123890000Y-85970000D01*
%TO.C,R15*%
X186436000Y-128778000D02*
X187096000Y-128778000D01*
X187096000Y-127528000D02*
X187096000Y-130028000D01*
X187096000Y-130028000D02*
X193396000Y-130028000D01*
X193396000Y-127528000D02*
X187096000Y-127528000D01*
X193396000Y-130028000D02*
X193396000Y-127528000D01*
X194056000Y-128778000D02*
X193396000Y-128778000D01*
%TO.C,J3*%
X127246000Y-37062000D02*
X134231000Y-37062000D01*
X127246000Y-39602000D02*
X127246000Y-37062000D01*
X134231000Y-37062000D02*
X134866000Y-37697000D01*
X134866000Y-37697000D02*
X134866000Y-39602000D01*
X134866000Y-39602000D02*
X127246000Y-39602000D01*
%TO.C,D3*%
X84582000Y-86106000D02*
X87062000Y-86106000D01*
X87062000Y-84756000D02*
X87062000Y-87456000D01*
X87062000Y-87456000D02*
X92262000Y-87456000D01*
X87742000Y-84756000D02*
X87742000Y-87456000D01*
X87842000Y-84756000D02*
X87842000Y-87456000D01*
X87942000Y-84756000D02*
X87942000Y-87456000D01*
X92262000Y-84756000D02*
X87062000Y-84756000D01*
X92262000Y-87456000D02*
X92262000Y-84756000D01*
X94742000Y-86106000D02*
X92262000Y-86106000D01*
%TO.C,D2*%
X83820000Y-130810000D02*
X86300000Y-130810000D01*
X86300000Y-129460000D02*
X86300000Y-132160000D01*
X86300000Y-132160000D02*
X91500000Y-132160000D01*
X86980000Y-129460000D02*
X86980000Y-132160000D01*
X87080000Y-129460000D02*
X87080000Y-132160000D01*
X87180000Y-129460000D02*
X87180000Y-132160000D01*
X91500000Y-129460000D02*
X86300000Y-129460000D01*
X91500000Y-132160000D02*
X91500000Y-129460000D01*
X93980000Y-130810000D02*
X91500000Y-130810000D01*
D12*
%TO.C,J9*%
X206000000Y-42500000D02*
X216000000Y-42500000D01*
X206000000Y-45500000D02*
X206000000Y-42500000D01*
X206000000Y-49500000D02*
X206400000Y-49500000D01*
X206000000Y-52500000D02*
X206000000Y-49500000D01*
X206400000Y-45500000D02*
X206000000Y-45500000D01*
X206400000Y-49500000D02*
X206400000Y-45500000D01*
X216000000Y-42500000D02*
X216000000Y-43350000D01*
X216000000Y-43350000D02*
X216000000Y-51650000D01*
X216000000Y-43350000D02*
X224910000Y-43350000D01*
X216000000Y-51650000D02*
X216000000Y-52500000D01*
X216000000Y-52500000D02*
X206000000Y-52500000D01*
X225110000Y-51650000D02*
X216000000Y-51650000D01*
X225500000Y-43940000D02*
X225500000Y-51260000D01*
X224910000Y-43350000D02*
G75*
G02*
X225500000Y-43940000I0J-590000D01*
G01*
X225500000Y-51260000D02*
G75*
G02*
X225110000Y-51650000I-390000J0D01*
G01*
D13*
X212110000Y-50600000D02*
G75*
G02*
X211910000Y-50600000I-100000J0D01*
G01*
X211910000Y-50600000D02*
G75*
G02*
X212110000Y-50600000I100000J0D01*
G01*
D11*
%TO.C,RR1*%
X167874000Y-41168000D02*
X167874000Y-43668000D01*
X167874000Y-43668000D02*
X190774000Y-43668000D01*
X170434000Y-41168000D02*
X170434000Y-43668000D01*
X190774000Y-41168000D02*
X167874000Y-41168000D01*
X190774000Y-43668000D02*
X190774000Y-41168000D01*
%TO.C,J5*%
X206410000Y-95035000D02*
X206410000Y-125885000D01*
X206410000Y-125885000D02*
X215010000Y-125885000D01*
X215010000Y-95035000D02*
X206410000Y-95035000D01*
X215010000Y-95035000D02*
X215010000Y-125885000D01*
X215010000Y-96360000D02*
X210070000Y-96360000D01*
X215010000Y-99560000D02*
X210070000Y-99560000D01*
X215010000Y-121360000D02*
X210070000Y-121360000D01*
X215010000Y-124560000D02*
X210070000Y-124560000D01*
X215010000Y-125885000D02*
X215010000Y-95035000D01*
X215010000Y-125885000D02*
X215410000Y-125885000D01*
X215410000Y-95035000D02*
X215010000Y-95035000D01*
X215410000Y-95460000D02*
X215410000Y-100460000D01*
X215410000Y-100460000D02*
X220410000Y-100460000D01*
X215410000Y-102310000D02*
X215410000Y-118610000D01*
X215410000Y-118610000D02*
X221410000Y-118610000D01*
X215410000Y-120460000D02*
X215410000Y-125460000D01*
X215410000Y-125460000D02*
X220410000Y-125460000D01*
X215410000Y-125885000D02*
X215410000Y-95035000D01*
X220410000Y-95460000D02*
X215410000Y-95460000D01*
X220410000Y-100460000D02*
X220410000Y-95460000D01*
X220410000Y-120460000D02*
X215410000Y-120460000D01*
X220410000Y-125460000D02*
X220410000Y-120460000D01*
X221410000Y-102310000D02*
X215410000Y-102310000D01*
X221410000Y-118610000D02*
X221410000Y-102310000D01*
X210070000Y-99560000D02*
G75*
G02*
X210070000Y-96360000I0J1600000D01*
G01*
X210070000Y-124560000D02*
G75*
G02*
X210070000Y-121360000I0J1600000D01*
G01*
%TO.C,R1*%
X141478000Y-43942000D02*
X142138000Y-43942000D01*
X142138000Y-42692000D02*
X142138000Y-45192000D01*
X142138000Y-45192000D02*
X148438000Y-45192000D01*
X148438000Y-42692000D02*
X142138000Y-42692000D01*
X148438000Y-45192000D02*
X148438000Y-42692000D01*
X149098000Y-43942000D02*
X148438000Y-43942000D01*
%TO.C,R9*%
X100330000Y-110490000D02*
X100990000Y-110490000D01*
X100990000Y-109240000D02*
X100990000Y-111740000D01*
X100990000Y-111740000D02*
X107290000Y-111740000D01*
X107290000Y-109240000D02*
X100990000Y-109240000D01*
X107290000Y-111740000D02*
X107290000Y-109240000D01*
X107950000Y-110490000D02*
X107290000Y-110490000D01*
%TO.C,C3*%
X155748000Y-69640000D02*
X155748000Y-72140000D01*
X155748000Y-72140000D02*
X160748000Y-72140000D01*
X160748000Y-69640000D02*
X155748000Y-69640000D01*
X160748000Y-72140000D02*
X160748000Y-69640000D01*
%TO.C,R14*%
X186470000Y-131850000D02*
X187130000Y-131850000D01*
X187130000Y-130600000D02*
X187130000Y-133100000D01*
X187130000Y-133100000D02*
X193430000Y-133100000D01*
X193430000Y-130600000D02*
X187130000Y-130600000D01*
X193430000Y-133100000D02*
X193430000Y-130600000D01*
X194090000Y-131850000D02*
X193430000Y-131850000D01*
%TO.C,C7*%
X139526000Y-70378000D02*
X139526000Y-72878000D01*
X139526000Y-72878000D02*
X144526000Y-72878000D01*
X144526000Y-70378000D02*
X139526000Y-70378000D01*
X144526000Y-72878000D02*
X144526000Y-70378000D01*
%TO.C,U10*%
X158944000Y-100838000D02*
X158944000Y-110998000D01*
X158944000Y-110998000D02*
X179384000Y-110998000D01*
X159004000Y-102743000D02*
X179324000Y-102743000D01*
X159004000Y-108093000D02*
X159004000Y-102743000D01*
X160004000Y-109093000D02*
X159004000Y-108093000D01*
X179324000Y-102743000D02*
X179324000Y-109093000D01*
X179324000Y-109093000D02*
X160004000Y-109093000D01*
X179384000Y-100838000D02*
X158944000Y-100838000D01*
X179384000Y-110998000D02*
X179384000Y-100838000D01*
%TO.C,J6*%
X111476600Y-137359200D02*
X192760600Y-137363200D01*
X111480600Y-146253200D02*
X111476600Y-137359200D01*
X192760600Y-137363200D02*
X192760600Y-146253200D01*
X192760600Y-146253200D02*
X111480600Y-146253200D01*
%TO.C,R10*%
X189992000Y-107188000D02*
X190652000Y-107188000D01*
X190652000Y-105938000D02*
X190652000Y-108438000D01*
X190652000Y-108438000D02*
X196952000Y-108438000D01*
X196952000Y-105938000D02*
X190652000Y-105938000D01*
X196952000Y-108438000D02*
X196952000Y-105938000D01*
X197612000Y-107188000D02*
X196952000Y-107188000D01*
%TO.C,U2*%
X173430000Y-116110000D02*
X173430000Y-126270000D01*
X173430000Y-126270000D02*
X198950000Y-126270000D01*
X173490000Y-118015000D02*
X198890000Y-118015000D01*
X173490000Y-123365000D02*
X173490000Y-118015000D01*
X174490000Y-124365000D02*
X173490000Y-123365000D01*
X198890000Y-118015000D02*
X198890000Y-124365000D01*
X198890000Y-124365000D02*
X174490000Y-124365000D01*
X198950000Y-116110000D02*
X173430000Y-116110000D01*
X198950000Y-126270000D02*
X198950000Y-116110000D01*
%TO.C,C15*%
X203500000Y-37128000D02*
X203500000Y-39628000D01*
X203500000Y-39628000D02*
X208500000Y-39628000D01*
X208500000Y-37128000D02*
X203500000Y-37128000D01*
X208500000Y-39628000D02*
X208500000Y-37128000D01*
%TO.C,C16*%
X196220395Y-40314500D02*
X196720395Y-40314500D01*
X196470395Y-40064500D02*
X196470395Y-40564500D01*
X200854000Y-41402000D02*
G75*
G02*
X195854000Y-41402000I-2500000J0D01*
G01*
X195854000Y-41402000D02*
G75*
G02*
X200854000Y-41402000I2500000J0D01*
G01*
%TO.C,C10*%
X181944000Y-96032000D02*
X181944000Y-98532000D01*
X181944000Y-98532000D02*
X186944000Y-98532000D01*
X186944000Y-96032000D02*
X181944000Y-96032000D01*
X186944000Y-98532000D02*
X186944000Y-96032000D01*
%TO.C,C12*%
X168990000Y-129052000D02*
X168990000Y-131552000D01*
X168990000Y-131552000D02*
X173990000Y-131552000D01*
X173990000Y-129052000D02*
X168990000Y-129052000D01*
X173990000Y-131552000D02*
X173990000Y-129052000D01*
%TO.C,R16*%
X189992000Y-113284000D02*
X190652000Y-113284000D01*
X190652000Y-112034000D02*
X190652000Y-114534000D01*
X190652000Y-114534000D02*
X196952000Y-114534000D01*
X196952000Y-112034000D02*
X190652000Y-112034000D01*
X196952000Y-114534000D02*
X196952000Y-112034000D01*
X197612000Y-113284000D02*
X196952000Y-113284000D01*
%TO.C,RR2*%
X131044000Y-76474000D02*
X131044000Y-78974000D01*
X131044000Y-78974000D02*
X153944000Y-78974000D01*
X133604000Y-76474000D02*
X133604000Y-78974000D01*
X153944000Y-76474000D02*
X131044000Y-76474000D01*
X153944000Y-78974000D02*
X153944000Y-76474000D01*
%TO.C,C6*%
X166958000Y-69616000D02*
X166958000Y-72116000D01*
X166958000Y-72116000D02*
X171958000Y-72116000D01*
X171958000Y-69616000D02*
X166958000Y-69616000D01*
X171958000Y-72116000D02*
X171958000Y-69616000D01*
%TO.C,U17*%
X143730000Y-85970000D02*
X143730000Y-103870000D01*
X143730000Y-103870000D02*
X153890000Y-103870000D01*
X145635000Y-87030000D02*
X146635000Y-86030000D01*
X145635000Y-103810000D02*
X145635000Y-87030000D01*
X146635000Y-86030000D02*
X151985000Y-86030000D01*
X151985000Y-86030000D02*
X151985000Y-103810000D01*
X151985000Y-103810000D02*
X145635000Y-103810000D01*
X153890000Y-85970000D02*
X143730000Y-85970000D01*
X153890000Y-103870000D02*
X153890000Y-85970000D01*
%TO.C,U1*%
X110810000Y-116110000D02*
X110810000Y-126270000D01*
X110810000Y-126270000D02*
X136330000Y-126270000D01*
X110870000Y-118015000D02*
X136270000Y-118015000D01*
X110870000Y-123365000D02*
X110870000Y-118015000D01*
X111870000Y-124365000D02*
X110870000Y-123365000D01*
X136270000Y-118015000D02*
X136270000Y-124365000D01*
X136270000Y-124365000D02*
X111870000Y-124365000D01*
X136330000Y-116110000D02*
X110810000Y-116110000D01*
X136330000Y-126270000D02*
X136330000Y-116110000D01*
%TO.C,R17*%
X189992000Y-110236000D02*
X190652000Y-110236000D01*
X190652000Y-108986000D02*
X190652000Y-111486000D01*
X190652000Y-111486000D02*
X196952000Y-111486000D01*
X196952000Y-108986000D02*
X190652000Y-108986000D01*
X196952000Y-111486000D02*
X196952000Y-108986000D01*
X197612000Y-110236000D02*
X196952000Y-110236000D01*
%TO.C,R8*%
X100313200Y-107389800D02*
X100973200Y-107389800D01*
X100973200Y-106139800D02*
X100973200Y-108639800D01*
X100973200Y-108639800D02*
X107273200Y-108639800D01*
X107273200Y-106139800D02*
X100973200Y-106139800D01*
X107273200Y-108639800D02*
X107273200Y-106139800D01*
X107933200Y-107389800D02*
X107273200Y-107389800D01*
%TO.C,C13*%
X204265395Y-131747500D02*
X204765395Y-131747500D01*
X204515395Y-131497500D02*
X204515395Y-131997500D01*
X208899000Y-132835000D02*
G75*
G02*
X203899000Y-132835000I-2500000J0D01*
G01*
X203899000Y-132835000D02*
G75*
G02*
X208899000Y-132835000I2500000J0D01*
G01*
%TO.C,R12*%
X190026000Y-101116000D02*
X190686000Y-101116000D01*
X190686000Y-99866000D02*
X190686000Y-102366000D01*
X190686000Y-102366000D02*
X196986000Y-102366000D01*
X196986000Y-99866000D02*
X190686000Y-99866000D01*
X196986000Y-102366000D02*
X196986000Y-99866000D01*
X197646000Y-101116000D02*
X196986000Y-101116000D01*
%TO.C,U15*%
X58420000Y-95628000D02*
X96520000Y-95628000D01*
X58420000Y-123063000D02*
X58420000Y-95628000D01*
X59055000Y-123698000D02*
X58420000Y-123063000D01*
X96520000Y-95628000D02*
X96520000Y-123698000D01*
X96520000Y-123698000D02*
X59055000Y-123698000D01*
%TO.C,R18*%
X51850000Y-87654000D02*
X52510000Y-87654000D01*
X52510000Y-86404000D02*
X52510000Y-88904000D01*
X52510000Y-88904000D02*
X58810000Y-88904000D01*
X58810000Y-86404000D02*
X52510000Y-86404000D01*
X58810000Y-88904000D02*
X58810000Y-86404000D01*
X59470000Y-87654000D02*
X58810000Y-87654000D01*
%TO.C,U5*%
X128730000Y-48590000D02*
X128730000Y-66490000D01*
X128730000Y-66490000D02*
X138890000Y-66490000D01*
X130635000Y-49650000D02*
X131635000Y-48650000D01*
X130635000Y-66430000D02*
X130635000Y-49650000D01*
X131635000Y-48650000D02*
X136985000Y-48650000D01*
X136985000Y-48650000D02*
X136985000Y-66430000D01*
X136985000Y-66430000D02*
X130635000Y-66430000D01*
X138890000Y-48590000D02*
X128730000Y-48590000D01*
X138890000Y-66490000D02*
X138890000Y-48590000D01*
%TO.C,U13*%
X173730000Y-48590000D02*
X173730000Y-69030000D01*
X173730000Y-69030000D02*
X183890000Y-69030000D01*
X175635000Y-49650000D02*
X176635000Y-48650000D01*
X175635000Y-68970000D02*
X175635000Y-49650000D01*
X176635000Y-48650000D02*
X181985000Y-48650000D01*
X181985000Y-48650000D02*
X181985000Y-68970000D01*
X181985000Y-68970000D02*
X175635000Y-68970000D01*
X183890000Y-48590000D02*
X173730000Y-48590000D01*
X183890000Y-69030000D02*
X183890000Y-48590000D01*
%TO.C,C1*%
X109748000Y-68072000D02*
X109748000Y-73072000D01*
X109748000Y-73072000D02*
X112248000Y-73072000D01*
X112248000Y-68072000D02*
X109748000Y-68072000D01*
X112248000Y-73072000D02*
X112248000Y-68072000D01*
%TO.C,R21*%
X69088000Y-84328000D02*
X69748000Y-84328000D01*
X69748000Y-83078000D02*
X69748000Y-85578000D01*
X69748000Y-85578000D02*
X76048000Y-85578000D01*
X76048000Y-83078000D02*
X69748000Y-83078000D01*
X76048000Y-85578000D02*
X76048000Y-83078000D01*
X76708000Y-84328000D02*
X76048000Y-84328000D01*
%TO.C,D1*%
X143067400Y-37341506D02*
X143067400Y-40280894D01*
X143067400Y-37341506D02*
G75*
G02*
X143067384Y-40280866I2500000J-1469694D01*
G01*
X148067400Y-38811200D02*
G75*
G02*
X143067400Y-38811200I-2500000J0D01*
G01*
X143067400Y-38811200D02*
G75*
G02*
X148067400Y-38811200I2500000J0D01*
G01*
%TO.C,C8*%
X108284000Y-82316000D02*
X108284000Y-84816000D01*
X108284000Y-84816000D02*
X113284000Y-84816000D01*
X113284000Y-82316000D02*
X108284000Y-82316000D01*
X113284000Y-84816000D02*
X113284000Y-82316000D01*
%TO.C,U6*%
X158730000Y-48590000D02*
X158730000Y-66490000D01*
X158730000Y-66490000D02*
X168890000Y-66490000D01*
X160635000Y-49650000D02*
X161635000Y-48650000D01*
X160635000Y-66430000D02*
X160635000Y-49650000D01*
X161635000Y-48650000D02*
X166985000Y-48650000D01*
X166985000Y-48650000D02*
X166985000Y-66430000D01*
X166985000Y-66430000D02*
X160635000Y-66430000D01*
X168890000Y-48590000D02*
X158730000Y-48590000D01*
X168890000Y-66490000D02*
X168890000Y-48590000D01*
%TO.C,C2*%
X131618000Y-70402000D02*
X131618000Y-72902000D01*
X131618000Y-72902000D02*
X136618000Y-72902000D01*
X136618000Y-70402000D02*
X131618000Y-70402000D01*
X136618000Y-72902000D02*
X136618000Y-70402000D01*
%TO.C,U11*%
X188730000Y-75890000D02*
X188730000Y-96330000D01*
X188730000Y-96330000D02*
X198890000Y-96330000D01*
X190635000Y-76950000D02*
X191635000Y-75950000D01*
X190635000Y-96270000D02*
X190635000Y-76950000D01*
X191635000Y-75950000D02*
X196985000Y-75950000D01*
X196985000Y-75950000D02*
X196985000Y-96270000D01*
X196985000Y-96270000D02*
X190635000Y-96270000D01*
X198890000Y-75890000D02*
X188730000Y-75890000D01*
X198890000Y-96330000D02*
X198890000Y-75890000D01*
%TO.C,U8*%
X158730000Y-75890000D02*
X158730000Y-93790000D01*
X158730000Y-93790000D02*
X168890000Y-93790000D01*
X160635000Y-76950000D02*
X161635000Y-75950000D01*
X160635000Y-93730000D02*
X160635000Y-76950000D01*
X161635000Y-75950000D02*
X166985000Y-75950000D01*
X166985000Y-75950000D02*
X166985000Y-93730000D01*
X166985000Y-93730000D02*
X160635000Y-93730000D01*
X168890000Y-75890000D02*
X158730000Y-75890000D01*
X168890000Y-93790000D02*
X168890000Y-75890000D01*
%TO.C,R19*%
X51816000Y-84328000D02*
X52476000Y-84328000D01*
X52476000Y-83078000D02*
X52476000Y-85578000D01*
X52476000Y-85578000D02*
X58776000Y-85578000D01*
X58776000Y-83078000D02*
X52476000Y-83078000D01*
X58776000Y-85578000D02*
X58776000Y-83078000D01*
X59436000Y-84328000D02*
X58776000Y-84328000D01*
%TO.C,U4*%
X128730000Y-85970000D02*
X128730000Y-103870000D01*
X128730000Y-103870000D02*
X138890000Y-103870000D01*
X130635000Y-87030000D02*
X131635000Y-86030000D01*
X130635000Y-103810000D02*
X130635000Y-87030000D01*
X131635000Y-86030000D02*
X136985000Y-86030000D01*
X136985000Y-86030000D02*
X136985000Y-103810000D01*
X136985000Y-103810000D02*
X130635000Y-103810000D01*
X138890000Y-85970000D02*
X128730000Y-85970000D01*
X138890000Y-103870000D02*
X138890000Y-85970000D01*
%TO.C,SW1*%
X188730000Y-48590000D02*
X188730000Y-69030000D01*
X188730000Y-69030000D02*
X198890000Y-69030000D01*
X190635000Y-49650000D02*
X191635000Y-48650000D01*
X190635000Y-68970000D02*
X190635000Y-49650000D01*
X191635000Y-48650000D02*
X196985000Y-48650000D01*
X196985000Y-48650000D02*
X196985000Y-68970000D01*
X196985000Y-68970000D02*
X190635000Y-68970000D01*
X198890000Y-48590000D02*
X188730000Y-48590000D01*
X198890000Y-69030000D02*
X198890000Y-48590000D01*
%TO.C,C5*%
X126538000Y-108756000D02*
X126538000Y-111256000D01*
X126538000Y-111256000D02*
X131538000Y-111256000D01*
X131538000Y-108756000D02*
X126538000Y-108756000D01*
X131538000Y-111256000D02*
X131538000Y-108756000D01*
%TO.C,C9*%
X159592000Y-96794000D02*
X159592000Y-99294000D01*
X159592000Y-99294000D02*
X164592000Y-99294000D01*
X164592000Y-96794000D02*
X159592000Y-96794000D01*
X164592000Y-99294000D02*
X164592000Y-96794000D01*
%TO.C,C11*%
X183214000Y-71394000D02*
X183214000Y-73894000D01*
X183214000Y-73894000D02*
X188214000Y-73894000D01*
X188214000Y-71394000D02*
X183214000Y-71394000D01*
X188214000Y-73894000D02*
X188214000Y-71394000D01*
%TO.C,R11*%
X189992000Y-104140000D02*
X190652000Y-104140000D01*
X190652000Y-102890000D02*
X190652000Y-105390000D01*
X190652000Y-105390000D02*
X196952000Y-105390000D01*
X196952000Y-102890000D02*
X190652000Y-102890000D01*
X196952000Y-105390000D02*
X196952000Y-102890000D01*
X197612000Y-104140000D02*
X196952000Y-104140000D01*
%TD*%
M02*
