%TF.GenerationSoftware,KiCad,Pcbnew,8.0.6*%
%TF.CreationDate,2025-06-14T16:57:24-05:00*%
%TF.ProjectId,DUALESP,4455414c-4553-4502-9e6b-696361645f70,V1*%
%TF.SameCoordinates,Original*%
%TF.FileFunction,Drillmap*%
%TF.FilePolarity,Positive*%
%FSLAX45Y45*%
G04 Gerber Fmt 4.5, Leading zero omitted, Abs format (unit mm)*
G04 Created by KiCad (PCBNEW 8.0.6) date 2025-06-14 16:57:24*
%MOMM*%
%LPD*%
G01*
G04 APERTURE LIST*
%ADD10C,0.381000*%
%ADD11C,0.010000*%
%ADD12C,0.200000*%
G04 APERTURE END LIST*
D10*
X21563867Y-3720367D02*
X21563867Y-13626367D01*
X19277867Y-14586487D02*
G75*
G02*
X19214367Y-14649987I-63497J-3D01*
G01*
X4145280Y-3474720D02*
X21307327Y-3461287D01*
X11137167Y-13872747D02*
X11138883Y-14587307D01*
X3896323Y-3727986D02*
G75*
G02*
X4145280Y-3474720I253297J6D01*
G01*
X10654567Y-13872747D02*
X11137167Y-13872747D01*
X11202383Y-14650807D02*
G75*
G02*
X11138883Y-14587307I7J63507D01*
G01*
X4155440Y-13876020D02*
X10654567Y-13872747D01*
X21563872Y-13626367D02*
G75*
G02*
X21312407Y-13880366I-253262J-743D01*
G01*
X4155440Y-13876020D02*
G75*
G02*
X3901440Y-13622020I0J254000D01*
G01*
X11202383Y-14650807D02*
X19214367Y-14649987D01*
X19280407Y-13879097D02*
X21312407Y-13880367D01*
X21307326Y-3461238D02*
G75*
G02*
X21563867Y-3720367I3284J-253302D01*
G01*
X3901440Y-13622020D02*
X3895626Y-3727986D01*
X19280407Y-13879097D02*
X19277867Y-14586487D01*
D11*
X21430000Y-4235000D02*
X21430000Y-4415000D01*
X21430000Y-4415000D02*
X21600000Y-4415000D01*
X21430000Y-5085000D02*
X21430000Y-5265000D01*
X21430000Y-5265000D02*
X21600000Y-5265000D01*
X21600000Y-4235000D02*
X21430000Y-4235000D01*
X21600000Y-4415000D02*
X21600000Y-4235000D01*
X21600000Y-5085000D02*
X21430000Y-5085000D01*
X21600000Y-5265000D02*
X21600000Y-5085000D01*
D12*
X4137352Y-14981341D02*
X4137352Y-14781341D01*
X4137352Y-14781341D02*
X4184971Y-14781341D01*
X4184971Y-14781341D02*
X4213543Y-14790865D01*
X4213543Y-14790865D02*
X4232591Y-14809912D01*
X4232591Y-14809912D02*
X4242114Y-14828960D01*
X4242114Y-14828960D02*
X4251638Y-14867055D01*
X4251638Y-14867055D02*
X4251638Y-14895627D01*
X4251638Y-14895627D02*
X4242114Y-14933722D01*
X4242114Y-14933722D02*
X4232591Y-14952770D01*
X4232591Y-14952770D02*
X4213543Y-14971817D01*
X4213543Y-14971817D02*
X4184971Y-14981341D01*
X4184971Y-14981341D02*
X4137352Y-14981341D01*
X4337352Y-14981341D02*
X4337352Y-14848008D01*
X4337352Y-14886103D02*
X4346876Y-14867055D01*
X4346876Y-14867055D02*
X4356400Y-14857531D01*
X4356400Y-14857531D02*
X4375448Y-14848008D01*
X4375448Y-14848008D02*
X4394495Y-14848008D01*
X4461162Y-14981341D02*
X4461162Y-14848008D01*
X4461162Y-14781341D02*
X4451638Y-14790865D01*
X4451638Y-14790865D02*
X4461162Y-14800389D01*
X4461162Y-14800389D02*
X4470686Y-14790865D01*
X4470686Y-14790865D02*
X4461162Y-14781341D01*
X4461162Y-14781341D02*
X4461162Y-14800389D01*
X4584971Y-14981341D02*
X4565924Y-14971817D01*
X4565924Y-14971817D02*
X4556400Y-14952770D01*
X4556400Y-14952770D02*
X4556400Y-14781341D01*
X4689733Y-14981341D02*
X4670686Y-14971817D01*
X4670686Y-14971817D02*
X4661162Y-14952770D01*
X4661162Y-14952770D02*
X4661162Y-14781341D01*
X4918305Y-14981341D02*
X4918305Y-14781341D01*
X4918305Y-14781341D02*
X4984972Y-14924198D01*
X4984972Y-14924198D02*
X5051638Y-14781341D01*
X5051638Y-14781341D02*
X5051638Y-14981341D01*
X5232591Y-14981341D02*
X5232591Y-14876579D01*
X5232591Y-14876579D02*
X5223067Y-14857531D01*
X5223067Y-14857531D02*
X5204019Y-14848008D01*
X5204019Y-14848008D02*
X5165924Y-14848008D01*
X5165924Y-14848008D02*
X5146876Y-14857531D01*
X5232591Y-14971817D02*
X5213543Y-14981341D01*
X5213543Y-14981341D02*
X5165924Y-14981341D01*
X5165924Y-14981341D02*
X5146876Y-14971817D01*
X5146876Y-14971817D02*
X5137352Y-14952770D01*
X5137352Y-14952770D02*
X5137352Y-14933722D01*
X5137352Y-14933722D02*
X5146876Y-14914674D01*
X5146876Y-14914674D02*
X5165924Y-14905151D01*
X5165924Y-14905151D02*
X5213543Y-14905151D01*
X5213543Y-14905151D02*
X5232591Y-14895627D01*
X5327829Y-14848008D02*
X5327829Y-15048008D01*
X5327829Y-14857531D02*
X5346876Y-14848008D01*
X5346876Y-14848008D02*
X5384972Y-14848008D01*
X5384972Y-14848008D02*
X5404019Y-14857531D01*
X5404019Y-14857531D02*
X5413543Y-14867055D01*
X5413543Y-14867055D02*
X5423067Y-14886103D01*
X5423067Y-14886103D02*
X5423067Y-14943246D01*
X5423067Y-14943246D02*
X5413543Y-14962293D01*
X5413543Y-14962293D02*
X5404019Y-14971817D01*
X5404019Y-14971817D02*
X5384972Y-14981341D01*
X5384972Y-14981341D02*
X5346876Y-14981341D01*
X5346876Y-14981341D02*
X5327829Y-14971817D01*
X5508781Y-14962293D02*
X5518305Y-14971817D01*
X5518305Y-14971817D02*
X5508781Y-14981341D01*
X5508781Y-14981341D02*
X5499257Y-14971817D01*
X5499257Y-14971817D02*
X5508781Y-14962293D01*
X5508781Y-14962293D02*
X5508781Y-14981341D01*
X5508781Y-14857531D02*
X5518305Y-14867055D01*
X5518305Y-14867055D02*
X5508781Y-14876579D01*
X5508781Y-14876579D02*
X5499257Y-14867055D01*
X5499257Y-14867055D02*
X5508781Y-14857531D01*
X5508781Y-14857531D02*
X5508781Y-14876579D01*
M02*
