M48
; DRILL file {KiCad 8.0.6} date 2025-06-14T16:57:23-0500
; FORMAT={-:-/ absolute / inch / decimal}
; #@! TF.CreationDate,2025-06-14T16:57:23-05:00
; #@! TF.GenerationSoftware,Kicad,Pcbnew,8.0.6
; #@! TF.FileFunction,Plated,1,2,PTH
FMAT,2
INCH
; #@! TA.AperFunction,Plated,PTH,ViaDrill
T1C0.0157
; #@! TA.AperFunction,Plated,PTH,ComponentDrill
T2C0.0315
; #@! TA.AperFunction,Plated,PTH,ComponentDrill
T3C0.0354
; #@! TA.AperFunction,Plated,PTH,ComponentDrill
T4C0.0354
; #@! TA.AperFunction,Plated,PTH,ComponentDrill
T5C0.0394
; #@! TA.AperFunction,Plated,PTH,ComponentDrill
T6C0.0433
; #@! TA.AperFunction,Plated,PTH,ComponentDrill
T7C0.0512
; #@! TA.AperFunction,Plated,PTH,ComponentDrill
T8C0.0905
; #@! TA.AperFunction,Plated,PTH,ComponentDrill
T9C0.1260
%
G90
G05
T1
X3.0584Y-4.0144
X3.3415Y-2.5374
X3.3583Y-4.1579
X3.3595Y-3.5073
X3.4115Y-4.0587
X3.4584Y-1.9102
X3.5463Y-3.1371
X3.5565Y-3.9643
X3.6742Y-4.2925
X3.7774Y-4.3303
X4.1825Y-3.2436
X4.2872Y-4.7983
X4.3006Y-3.0116
X4.4706Y-4.7984
X4.6745Y-4.3563
X4.7409Y-2.0506
X4.8437Y-4.8612
X4.8598Y-3.2856
X4.8958Y-4.8364
X4.8994Y-2.6106
X4.9318Y-3.1785
X4.9508Y-4.8171
X4.9853Y-2.4518
X5.0315Y-4.7979
X5.0855Y-2.9128
X5.1501Y-4.2196
X5.3442Y-3.8561
X5.348Y-3.2551
X5.4636Y-4.901
X5.5289Y-3.6745
X5.5661Y-4.1927
X5.6353Y-2.6344
X5.6455Y-3.1342
X5.6964Y-3.2568
X5.7063Y-1.9036
X5.7858Y-4.5258
X5.9699Y-2.91
X6.0395Y-1.8786
X6.0533Y-2.9127
X6.1067Y-2.431
X6.1565Y-2.0843
X6.1694Y-2.6411
X6.1713Y-3.1209
X6.1745Y-2.351
X6.2377Y-5.4408
X6.4123Y-3.0545
X6.4173Y-2.9758
X6.4544Y-2.6331
X6.4936Y-3.5783
X6.564Y-2.9601
X6.5747Y-2.8898
X6.6854Y-3.2436
X6.6926Y-4.1194
X6.7741Y-2.5097
X6.7749Y-3.3902
X6.8518Y-4.0948
X6.8949Y-3.7817
X6.9897Y-4.5336
X7.0344Y-3.1459
X7.0389Y-3.3778
X7.0582Y-5.0154
X7.1005Y-4.1774
X7.2202Y-2.7183
X7.2857Y-2.8472
X7.3471Y-3.3133
X7.3686Y-4.3029
X7.3917Y-4.3824
X7.3981Y-4.4439
X7.4138Y-3.5073
X7.5619Y-3.6312
X7.7501Y-4.4034
T2
X2.04Y-3.32
X2.0413Y-3.4509
X2.34Y-3.32
X2.3413Y-3.4509
X2.72Y-3.32
X2.72Y-3.46
X3.02Y-3.32
X3.02Y-3.46
X3.948Y-3.984
X3.9493Y-4.1059
X3.9493Y-4.2279
X3.95Y-4.35
X4.0716Y-5.13
X4.17Y-5.13
X4.248Y-3.984
X4.2493Y-4.1059
X4.2493Y-4.2279
X4.25Y-4.35
X4.2631Y-3.29
X4.37Y-2.68
X4.37Y-2.8769
X4.415Y-4.6213
X4.415Y-4.9213
X4.46Y-3.29
X4.515Y-4.6213
X4.515Y-4.9213
X4.5276Y-1.9654
X4.5276Y-2.0654
X4.5276Y-2.1654
X4.5276Y-2.2654
X4.5276Y-2.3654
X4.5276Y-2.4654
X4.5276Y-2.5654
X4.5276Y-2.6654
X4.5276Y-2.7654
X4.5276Y-2.8654
X4.5276Y-3.437
X4.5276Y-3.537
X4.5276Y-3.637
X4.5276Y-3.737
X4.5276Y-3.837
X4.5276Y-3.937
X4.5276Y-4.037
X4.5276Y-4.137
X4.5276Y-4.237
X4.5276Y-4.337
X4.615Y-4.6213
X4.615Y-4.9213
X4.715Y-4.6213
X4.715Y-4.9213
X4.815Y-4.6213
X4.815Y-4.9213
X4.8276Y-1.9654
X4.8276Y-2.0654
X4.8276Y-2.1654
X4.8276Y-2.2654
X4.8276Y-2.3654
X4.8276Y-2.4654
X4.8276Y-2.5654
X4.8276Y-2.6654
X4.8276Y-2.7654
X4.8276Y-2.8654
X4.8276Y-3.437
X4.8276Y-3.537
X4.8276Y-3.637
X4.8276Y-3.737
X4.8276Y-3.837
X4.8276Y-3.937
X4.8276Y-4.037
X4.8276Y-4.137
X4.8276Y-4.237
X4.8276Y-4.337
X4.915Y-4.6213
X4.915Y-4.9213
X4.9818Y-4.3309
X5.015Y-4.6213
X5.015Y-4.9213
X5.115Y-4.6213
X5.115Y-4.9213
X5.1181Y-1.9654
X5.1181Y-2.0654
X5.1181Y-2.1654
X5.1181Y-2.2654
X5.1181Y-2.3654
X5.1181Y-2.4654
X5.1181Y-2.5654
X5.1181Y-3.437
X5.1181Y-3.537
X5.1181Y-3.637
X5.1181Y-3.737
X5.1181Y-3.837
X5.1181Y-3.937
X5.1181Y-4.037
X5.1787Y-4.3309
X5.1818Y-2.8209
X5.21Y-3.06
X5.215Y-4.6213
X5.215Y-4.9213
X5.31Y-3.06
X5.315Y-4.6213
X5.315Y-4.9213
X5.3787Y-2.8209
X5.41Y-3.06
X5.4181Y-1.9654
X5.4181Y-2.0654
X5.4181Y-2.1654
X5.4181Y-2.2654
X5.4181Y-2.3654
X5.4181Y-2.4654
X5.4181Y-2.5654
X5.4181Y-3.437
X5.4181Y-3.537
X5.4181Y-3.637
X5.4181Y-3.737
X5.4181Y-3.837
X5.4181Y-3.937
X5.4181Y-4.037
X5.4931Y-2.82
X5.51Y-3.06
X5.57Y-1.73
X5.61Y-3.06
X5.65Y-4.34
X5.69Y-2.82
X5.7024Y-4.6213
X5.7024Y-4.9213
X5.7087Y-1.9654
X5.7087Y-2.0654
X5.7087Y-2.1654
X5.7087Y-2.2654
X5.7087Y-2.3654
X5.7087Y-2.4654
X5.7087Y-2.5654
X5.7087Y-2.6654
X5.7087Y-3.437
X5.7087Y-3.537
X5.7087Y-3.637
X5.7087Y-3.737
X5.7087Y-3.837
X5.7087Y-3.937
X5.7087Y-4.037
X5.71Y-3.06
X5.8024Y-4.6213
X5.8024Y-4.9213
X5.81Y-3.06
X5.8469Y-4.34
X5.87Y-1.73
X5.9024Y-4.6213
X5.9024Y-4.9213
X5.91Y-3.06
X6.0024Y-4.6213
X6.0024Y-4.9213
X6.0087Y-1.9654
X6.0087Y-2.0654
X6.0087Y-2.1654
X6.0087Y-2.2654
X6.0087Y-2.3654
X6.0087Y-2.4654
X6.0087Y-2.5654
X6.0087Y-2.6654
X6.0087Y-3.437
X6.0087Y-3.537
X6.0087Y-3.637
X6.0087Y-3.737
X6.0087Y-3.837
X6.0087Y-3.937
X6.0087Y-4.037
X6.01Y-3.06
X6.1024Y-4.6213
X6.1024Y-4.9213
X6.1318Y-2.7909
X6.2024Y-4.6213
X6.2024Y-4.9213
X6.2831Y-3.86
X6.2992Y-1.9654
X6.2992Y-2.0654
X6.2992Y-2.1654
X6.2992Y-2.2654
X6.2992Y-2.3654
X6.2992Y-2.4654
X6.2992Y-2.5654
X6.2992Y-3.0402
X6.2992Y-3.1402
X6.2992Y-3.2402
X6.2992Y-3.3402
X6.2992Y-3.4402
X6.2992Y-3.5402
X6.2992Y-3.6402
X6.3024Y-4.6213
X6.3024Y-4.9213
X6.31Y-4.02
X6.31Y-4.32
X6.3287Y-2.7909
X6.4024Y-4.6213
X6.4024Y-4.9213
X6.41Y-4.02
X6.41Y-4.32
X6.48Y-3.86
X6.5024Y-4.6213
X6.5024Y-4.9213
X6.51Y-4.02
X6.51Y-4.32
X6.5731Y-2.79
X6.5992Y-1.9654
X6.5992Y-2.0654
X6.5992Y-2.1654
X6.5992Y-2.2654
X6.5992Y-2.3654
X6.5992Y-2.4654
X6.5992Y-2.5654
X6.5992Y-3.0402
X6.5992Y-3.1402
X6.5992Y-3.2402
X6.5992Y-3.3402
X6.5992Y-3.4402
X6.5992Y-3.5402
X6.5992Y-3.6402
X6.6024Y-4.6213
X6.6024Y-4.9213
X6.61Y-4.02
X6.61Y-4.32
X6.6531Y-5.13
X6.66Y-1.67
X6.71Y-4.02
X6.71Y-4.32
X6.76Y-1.67
X6.77Y-2.79
X6.81Y-4.02
X6.81Y-4.32
X6.85Y-5.13
X6.86Y-1.67
X6.8803Y-4.6213
X6.8803Y-4.9213
X6.8898Y-1.9654
X6.8898Y-2.0654
X6.8898Y-2.1654
X6.8898Y-2.2654
X6.8898Y-2.3654
X6.8898Y-2.4654
X6.8898Y-2.5654
X6.8898Y-2.6654
X6.8898Y-3.0402
X6.8898Y-3.1402
X6.8898Y-3.2402
X6.8898Y-3.3402
X6.8898Y-3.4402
X6.8898Y-3.5402
X6.8898Y-3.6402
X6.91Y-4.02
X6.91Y-4.32
X6.96Y-1.67
X6.9803Y-4.6213
X6.9803Y-4.9213
X7.01Y-4.02
X7.01Y-4.32
X7.06Y-1.67
X7.0803Y-4.6213
X7.0803Y-4.9213
X7.16Y-1.67
X7.1631Y-3.83
X7.1803Y-4.6213
X7.1803Y-4.9213
X7.1898Y-1.9654
X7.1898Y-2.0654
X7.1898Y-2.1654
X7.1898Y-2.2654
X7.1898Y-2.3654
X7.1898Y-2.4654
X7.1898Y-2.5654
X7.1898Y-2.6654
X7.1898Y-3.0402
X7.1898Y-3.1402
X7.1898Y-3.2402
X7.1898Y-3.3402
X7.1898Y-3.4402
X7.1898Y-3.5402
X7.1898Y-3.6402
X7.2131Y-2.86
X7.26Y-1.67
X7.2803Y-4.6213
X7.2803Y-4.9213
X7.34Y-5.07
X7.34Y-5.31
X7.3413Y-5.1909
X7.36Y-1.67
X7.36Y-3.83
X7.3803Y-4.6213
X7.3803Y-4.9213
X7.41Y-2.86
X7.46Y-1.67
X7.48Y-4.1
X7.48Y-4.22
X7.48Y-4.34
X7.48Y-4.46
X7.4803Y-1.9654
X7.4803Y-2.0654
X7.4803Y-2.1654
X7.4803Y-2.2654
X7.4803Y-2.3654
X7.4803Y-2.4654
X7.4803Y-2.5654
X7.4803Y-2.6654
X7.4803Y-3.0402
X7.4803Y-3.1402
X7.4803Y-3.2402
X7.4803Y-3.3402
X7.4803Y-3.4402
X7.4803Y-3.5402
X7.4803Y-3.6402
X7.4803Y-3.7402
X7.4803Y-4.6213
X7.4803Y-4.9213
X7.4813Y-3.9809
X7.5803Y-4.6213
X7.5803Y-4.9213
X7.64Y-5.07
X7.64Y-5.31
X7.6413Y-5.1909
X7.6803Y-4.6213
X7.6803Y-4.9213
X7.76Y-1.63
X7.78Y-4.1
X7.78Y-4.22
X7.78Y-4.34
X7.78Y-4.46
X7.7803Y-1.9654
X7.7803Y-2.0654
X7.7803Y-2.1654
X7.7803Y-2.2654
X7.7803Y-2.3654
X7.7803Y-2.4654
X7.7803Y-2.5654
X7.7803Y-2.6654
X7.7803Y-3.0402
X7.7803Y-3.1402
X7.7803Y-3.2402
X7.7803Y-3.3402
X7.7803Y-3.4402
X7.7803Y-3.5402
X7.7803Y-3.6402
X7.7803Y-3.7402
X7.7803Y-4.6213
X7.7803Y-4.9213
X7.7813Y-3.9809
X7.8584Y-1.63
X8.0118Y-1.5109
X8.0767Y-5.2297
X8.1752Y-5.2297
X8.2087Y-1.5109
T3
X8.1693Y-2.6575
X8.1693Y-3.4172
X8.1713Y-2.3899
X8.1713Y-3.1496
X8.2677Y-2.3899
X8.2677Y-2.4726
X8.2677Y-2.5748
X8.2677Y-2.6575
X8.2677Y-3.1496
X8.2677Y-3.2323
X8.2677Y-3.3345
X8.2677Y-3.4172
T4
X5.681Y-1.528
X5.781Y-1.528
T5
X2.311Y-2.0754
X2.311Y-3.077
X2.35Y-3.8184
X2.35Y-4.82
X2.411Y-2.0754
X2.411Y-3.077
X2.45Y-3.8184
X2.45Y-4.82
X2.511Y-2.0754
X2.511Y-3.077
X2.55Y-3.8184
X2.55Y-4.82
X2.611Y-2.0754
X2.611Y-3.077
X2.65Y-3.8184
X2.65Y-4.82
X2.711Y-2.0754
X2.711Y-3.077
X2.75Y-3.8184
X2.75Y-4.82
X2.811Y-2.0754
X2.811Y-3.077
X2.85Y-3.8184
X2.85Y-4.82
X2.911Y-2.0754
X2.911Y-3.077
X2.95Y-3.8184
X2.95Y-4.82
X3.011Y-2.0754
X3.011Y-3.077
X3.05Y-3.8184
X3.05Y-4.82
X3.111Y-2.0754
X3.111Y-3.077
X3.15Y-3.8184
X3.15Y-4.82
X3.211Y-2.0754
X3.211Y-3.077
X3.25Y-3.8184
X3.25Y-4.82
X3.311Y-2.0754
X3.311Y-3.077
X3.35Y-3.8184
X3.35Y-4.82
X3.411Y-2.0754
X3.411Y-3.077
X3.45Y-3.8184
X3.45Y-4.82
X3.511Y-2.0754
X3.511Y-3.077
X3.55Y-3.8184
X3.55Y-4.82
X3.611Y-2.0754
X3.611Y-3.077
X3.65Y-3.8184
X3.65Y-4.82
X3.711Y-2.0754
X3.711Y-3.077
X3.75Y-3.8184
X3.75Y-4.82
X5.0597Y-1.5091
X5.1597Y-1.5091
X5.2597Y-1.5091
X6.13Y-1.51
X6.23Y-1.51
X6.33Y-1.51
X8.1898Y-4.1789
X8.1898Y-4.2691
X8.1898Y-4.3593
X8.1898Y-4.4494
X8.1898Y-4.5396
X8.2677Y-4.1339
X8.2677Y-4.224
X8.2677Y-4.3142
X8.2677Y-4.4043
X8.2677Y-4.4945
X8.3457Y-4.1789
X8.3457Y-4.2691
X8.3457Y-4.3593
X8.3457Y-4.4494
X8.3457Y-4.5396
T6
X3.3Y-5.15
X3.33Y-3.39
X3.7Y-5.15
X3.73Y-3.39
T8
X8.3858Y-2.258
X8.3858Y-2.7914
X8.3858Y-3.0177
X8.3858Y-3.5511
X8.4172Y-2.5237
X8.4172Y-3.2834
T9
X8.2705Y-3.8567
X8.2705Y-4.8409
T5
G00X8.1437Y-1.8701
M15
G01X8.1949Y-1.8701
M16
G05
T7
G00X8.3465Y-1.8287
M15
G01X8.3465Y-1.9114
M16
G05
M30
