M48
; DRILL file {KiCad 9.0.2} date 2025-12-28T20:05:52-0600
; FORMAT={-:-/ absolute / inch / decimal}
; #@! TF.CreationDate,2025-12-28T20:05:52-06:00
; #@! TF.GenerationSoftware,Kicad,Pcbnew,9.0.2
; #@! TF.FileFunction,Plated,1,2,PTH
FMAT,2
INCH
; #@! TA.AperFunction,Plated,PTH,ViaDrill
T1C0.0157
; #@! TA.AperFunction,Plated,PTH,ComponentDrill
T2C0.0315
; #@! TA.AperFunction,Plated,PTH,ComponentDrill
T3C0.0354
; #@! TA.AperFunction,Plated,PTH,ComponentDrill
T4C0.0394
; #@! TA.AperFunction,Plated,PTH,ComponentDrill
T5C0.0433
; #@! TA.AperFunction,Plated,PTH,ComponentDrill
T6C0.0512
; #@! TA.AperFunction,Plated,PTH,ComponentDrill
T7C0.0905
; #@! TA.AperFunction,Plated,PTH,ComponentDrill
T8C0.1260
%
G90
G05
T1
X2.1008Y-3.4246
X2.5331Y-1.5329
X2.5355Y-5.2537
X2.539Y-2.1358
X2.5824Y-3.1975
X2.7691Y-3.6233
X3.0052Y-2.5782
X3.0052Y-5.1332
X3.1233Y-1.7584
X3.2299Y-3.0141
X3.2405Y-4.9151
X3.3459Y-3.7292
X3.4325Y-5.0893
X3.4445Y-2.4287
X3.4549Y-3.8828
X3.4774Y-1.7653
X3.4938Y-2.4757
X3.5924Y-4.8863
X3.7134Y-1.9907
X3.7211Y-3.3063
X3.8018Y-4.6983
X3.9415Y-3.1757
X3.9891Y-3.2269
X4.185Y-2.927
X4.1856Y-2.2161
X4.3894Y-4.335
X4.4036Y-4.7811
X4.4293Y-5.2721
X4.5798Y-2.1084
X4.6211Y-3.5914
X4.6339Y-2.9391
X4.636Y-5.3552
X4.6453Y-5.4303
X4.6653Y-3.9718
X4.69Y-3.8414
X4.7127Y-5.3482
X4.7758Y-5.3655
X4.8077Y-5.271
X4.8143Y-5.4022
X4.8766Y-5.3985
X4.915Y-4.1205
X4.9245Y-5.3594
X4.9262Y-2.3095
X4.929Y-2.5497
X4.9373Y-5.4419
X4.9852Y-3.7129
X5.0109Y-4.4739
X5.0118Y-3.2009
X5.0128Y-5.3939
X5.0426Y-3.4656
X5.0453Y-3.7539
X5.0571Y-2.0379
X5.0623Y-3.1376
X5.101Y-2.8236
X5.1034Y-5.4011
X5.1299Y-5.4377
X5.1452Y-5.4065
X5.1742Y-4.8669
X5.2234Y-3.6273
X5.256Y-4.4445
X5.2826Y-5.3251
X5.2859Y-5.1306
X5.2942Y-3.5847
X5.2978Y-3.504
X5.3267Y-3.3857
X5.3389Y-2.5626
X5.3427Y-3.5248
X5.3513Y-4.1975
X5.401Y-2.9245
X5.4468Y-3.0167
X5.4742Y-2.9258
X5.539Y-2.9768
X5.57Y-1.73
X5.5701Y-1.8648
X5.5882Y-4.0995
X5.602Y-4.9063
X5.602Y-5.1383
X5.607Y-4.1956
X5.6355Y-2.683
X5.6368Y-2.7145
X5.6525Y-2.6256
X5.6803Y-1.528
X5.7227Y-4.3202
X5.7473Y-2.8374
X5.7606Y-2.61
X5.7653Y-4.7421
X5.8123Y-4.5354
X5.8133Y-3.377
X5.8181Y-2.3292
X5.8186Y-2.6924
X5.8231Y-1.6256
X5.8301Y-2.5478
X5.8389Y-2.9663
X5.8886Y-2.2541
X5.8979Y-2.1591
X5.9298Y-2.4392
X5.9473Y-1.8808
X6.0524Y-4.9815
X6.0835Y-3.2511
X6.0857Y-3.9475
X6.0955Y-4.7377
X6.1071Y-2.7191
X6.1226Y-2.6483
X6.138Y-2.1654
X6.1526Y-2.7286
X6.1718Y-4.025
X6.174Y-2.6437
X6.1744Y-2.926
X6.177Y-2.0737
X6.184Y-2.7446
X6.1869Y-3.1346
X6.1884Y-3.5407
X6.3706Y-2.9174
X6.3941Y-3.3191
X6.4138Y-2.6479
X6.4181Y-2.9173
X6.4282Y-1.9777
X6.4501Y-2.6262
X6.4552Y-3.523
X6.4671Y-3.001
X6.5002Y-3.4362
X6.5031Y-4.4164
X6.5083Y-2.5835
X6.5107Y-3.2451
X6.5731Y-2.9382
X6.6367Y-3.7444
X6.6367Y-3.8817
X6.6771Y-4.1191
X6.7538Y-2.5727
X6.7807Y-5.3638
X6.8081Y-2.3188
X6.8627Y-5.3956
X6.8699Y-2.7683
X6.8811Y-5.2145
X6.8924Y-3.7189
X6.9004Y-5.3655
X6.9417Y-5.4408
X6.9662Y-2.4877
X6.9839Y-2.3112
X6.9926Y-4.5282
X7.0085Y-3.835
X7.0092Y-2.9078
X7.0121Y-3.2342
X7.0124Y-1.9922
X7.027Y-2.5692
X7.03Y-1.8364
X7.0402Y-2.36
X7.0474Y-2.2411
X7.0622Y-2.146
X7.0745Y-3.4765
X7.1081Y-3.2782
X7.1198Y-1.8982
X7.1265Y-3.1812
X7.1295Y-4.4597
X7.1318Y-3.602
X7.1495Y-3.964
X7.1936Y-3.9265
X7.1982Y-5.4007
X7.2071Y-3.96
X7.2249Y-5.431
X7.2324Y-2.0154
X7.2509Y-3.5902
X7.252Y-5.2816
X7.2842Y-2.5657
X7.3234Y-3.3911
X7.3284Y-5.4266
X7.339Y-3.6383
X7.36Y-4.0114
X7.3643Y-3.7424
X7.3669Y-5.4067
X7.3718Y-4.3245
X7.3725Y-2.7068
X7.4056Y-4.1806
X7.4201Y-5.4376
X7.5335Y-2.421
X7.5404Y-4.4103
X7.5957Y-4.505
X7.6017Y-2.1303
X7.6166Y-2.2169
X7.6404Y-2.7235
X7.722Y-2.922
X7.7266Y-1.7652
X7.9284Y-4.1213
X7.9498Y-2.9137
X7.959Y-3.9681
X8.0016Y-5.3743
X8.0814Y-3.3069
X8.1864Y-3.7371
X8.1888Y-3.266
T2
X2.04Y-3.32
X2.0413Y-3.4509
X2.34Y-3.32
X2.3413Y-3.4509
X2.72Y-3.32
X2.72Y-3.46
X3.02Y-3.32
X3.02Y-3.46
X3.948Y-3.984
X3.9493Y-4.1059
X3.9493Y-4.2279
X3.95Y-4.35
X4.0716Y-5.13
X4.17Y-5.13
X4.248Y-3.984
X4.2493Y-4.1059
X4.2493Y-4.2279
X4.25Y-4.35
X4.2631Y-3.29
X4.37Y-2.68
X4.37Y-2.8769
X4.41Y-4.63
X4.41Y-4.93
X4.46Y-3.29
X4.51Y-4.63
X4.51Y-4.93
X4.5276Y-1.9654
X4.5276Y-2.0654
X4.5276Y-2.1654
X4.5276Y-2.2654
X4.5276Y-2.3654
X4.5276Y-2.4654
X4.5276Y-2.5654
X4.5276Y-2.6654
X4.5276Y-2.7654
X4.5276Y-2.8654
X4.53Y-3.44
X4.53Y-3.54
X4.53Y-3.64
X4.53Y-3.74
X4.53Y-3.84
X4.53Y-3.94
X4.53Y-4.04
X4.53Y-4.14
X4.53Y-4.24
X4.53Y-4.34
X4.61Y-4.63
X4.61Y-4.93
X4.71Y-4.63
X4.71Y-4.93
X4.81Y-4.63
X4.81Y-4.93
X4.8276Y-1.9654
X4.8276Y-2.0654
X4.8276Y-2.1654
X4.8276Y-2.2654
X4.8276Y-2.3654
X4.8276Y-2.4654
X4.8276Y-2.5654
X4.8276Y-2.6654
X4.8276Y-2.7654
X4.8276Y-2.8654
X4.83Y-3.44
X4.83Y-3.54
X4.83Y-3.64
X4.83Y-3.74
X4.83Y-3.84
X4.83Y-3.94
X4.83Y-4.04
X4.83Y-4.14
X4.83Y-4.24
X4.83Y-4.34
X4.91Y-4.63
X4.91Y-4.93
X4.9818Y-4.3309
X5.01Y-4.63
X5.01Y-4.93
X5.11Y-4.63
X5.11Y-4.93
X5.1181Y-1.9654
X5.1181Y-2.0654
X5.1181Y-2.1654
X5.1181Y-2.2654
X5.1181Y-2.3654
X5.1181Y-2.4654
X5.1181Y-2.5654
X5.1181Y-3.437
X5.1181Y-3.537
X5.1181Y-3.637
X5.1181Y-3.737
X5.1181Y-3.837
X5.1181Y-3.937
X5.1181Y-4.037
X5.1787Y-4.3309
X5.1818Y-2.8209
X5.21Y-3.06
X5.21Y-4.63
X5.21Y-4.93
X5.31Y-3.06
X5.31Y-4.63
X5.31Y-4.93
X5.3787Y-2.8209
X5.41Y-3.06
X5.4181Y-1.9654
X5.4181Y-2.0654
X5.4181Y-2.1654
X5.4181Y-2.2654
X5.4181Y-2.3654
X5.4181Y-2.4654
X5.4181Y-2.5654
X5.4181Y-3.437
X5.4181Y-3.537
X5.4181Y-3.637
X5.4181Y-3.737
X5.4181Y-3.837
X5.4181Y-3.937
X5.4181Y-4.037
X5.4931Y-2.82
X5.51Y-3.06
X5.61Y-3.06
X5.65Y-4.34
X5.69Y-2.82
X5.7024Y-4.6213
X5.7024Y-4.9213
X5.7087Y-1.9654
X5.7087Y-2.0654
X5.7087Y-2.1654
X5.7087Y-2.2654
X5.7087Y-2.3654
X5.7087Y-2.4654
X5.7087Y-2.5654
X5.7087Y-2.6654
X5.7087Y-3.437
X5.7087Y-3.537
X5.7087Y-3.637
X5.7087Y-3.737
X5.7087Y-3.837
X5.7087Y-3.937
X5.7087Y-4.037
X5.71Y-3.06
X5.8024Y-4.6213
X5.8024Y-4.9213
X5.81Y-3.06
X5.8469Y-4.34
X5.9024Y-4.6213
X5.9024Y-4.9213
X5.91Y-3.06
X6.0024Y-4.6213
X6.0024Y-4.9213
X6.0087Y-1.9654
X6.0087Y-2.0654
X6.0087Y-2.1654
X6.0087Y-2.2654
X6.0087Y-2.3654
X6.0087Y-2.4654
X6.0087Y-2.5654
X6.0087Y-2.6654
X6.0087Y-3.437
X6.0087Y-3.537
X6.0087Y-3.637
X6.0087Y-3.737
X6.0087Y-3.837
X6.0087Y-3.937
X6.0087Y-4.037
X6.01Y-3.06
X6.1024Y-4.6213
X6.1024Y-4.9213
X6.1318Y-2.7909
X6.2024Y-4.6213
X6.2024Y-4.9213
X6.2831Y-3.86
X6.2992Y-1.9654
X6.2992Y-2.0654
X6.2992Y-2.1654
X6.2992Y-2.2654
X6.2992Y-2.3654
X6.2992Y-2.4654
X6.2992Y-2.5654
X6.2992Y-3.0402
X6.2992Y-3.1402
X6.2992Y-3.2402
X6.2992Y-3.3402
X6.2992Y-3.4402
X6.2992Y-3.5402
X6.2992Y-3.6402
X6.3024Y-4.6213
X6.3024Y-4.9213
X6.31Y-4.02
X6.31Y-4.32
X6.3287Y-2.7909
X6.4024Y-4.6213
X6.4024Y-4.9213
X6.41Y-4.02
X6.41Y-4.32
X6.48Y-3.86
X6.5024Y-4.6213
X6.5024Y-4.9213
X6.51Y-4.02
X6.51Y-4.32
X6.5731Y-2.79
X6.5992Y-1.9654
X6.5992Y-2.0654
X6.5992Y-2.1654
X6.5992Y-2.2654
X6.5992Y-2.3654
X6.5992Y-2.4654
X6.5992Y-2.5654
X6.5992Y-3.0402
X6.5992Y-3.1402
X6.5992Y-3.2402
X6.5992Y-3.3402
X6.5992Y-3.4402
X6.5992Y-3.5402
X6.5992Y-3.6402
X6.6024Y-4.6213
X6.6024Y-4.9213
X6.61Y-4.02
X6.61Y-4.32
X6.6531Y-5.13
X6.66Y-1.67
X6.71Y-4.02
X6.71Y-4.32
X6.76Y-1.67
X6.77Y-2.79
X6.81Y-4.02
X6.81Y-4.32
X6.85Y-5.13
X6.86Y-1.67
X6.8803Y-4.6213
X6.8803Y-4.9213
X6.8898Y-1.9654
X6.8898Y-2.0654
X6.8898Y-2.1654
X6.8898Y-2.2654
X6.8898Y-2.3654
X6.8898Y-2.4654
X6.8898Y-2.5654
X6.8898Y-2.6654
X6.8898Y-3.0402
X6.8898Y-3.1402
X6.8898Y-3.2402
X6.8898Y-3.3402
X6.8898Y-3.4402
X6.8898Y-3.5402
X6.8898Y-3.6402
X6.91Y-4.02
X6.91Y-4.32
X6.96Y-1.67
X6.9803Y-4.6213
X6.9803Y-4.9213
X7.01Y-4.02
X7.01Y-4.32
X7.06Y-1.67
X7.0803Y-4.6213
X7.0803Y-4.9213
X7.16Y-1.67
X7.1631Y-3.83
X7.1803Y-4.6213
X7.1803Y-4.9213
X7.1898Y-1.9654
X7.1898Y-2.0654
X7.1898Y-2.1654
X7.1898Y-2.2654
X7.1898Y-2.3654
X7.1898Y-2.4654
X7.1898Y-2.5654
X7.1898Y-2.6654
X7.1898Y-3.0402
X7.1898Y-3.1402
X7.1898Y-3.2402
X7.1898Y-3.3402
X7.1898Y-3.4402
X7.1898Y-3.5402
X7.1898Y-3.6402
X7.2131Y-2.86
X7.26Y-1.67
X7.2803Y-4.6213
X7.2803Y-4.9213
X7.34Y-5.07
X7.34Y-5.31
X7.3413Y-5.1909
X7.36Y-1.67
X7.36Y-3.83
X7.3803Y-4.6213
X7.3803Y-4.9213
X7.41Y-2.86
X7.46Y-1.67
X7.48Y-4.1
X7.48Y-4.22
X7.48Y-4.34
X7.48Y-4.46
X7.4803Y-1.9654
X7.4803Y-2.0654
X7.4803Y-2.1654
X7.4803Y-2.2654
X7.4803Y-2.3654
X7.4803Y-2.4654
X7.4803Y-2.5654
X7.4803Y-2.6654
X7.4803Y-3.0402
X7.4803Y-3.1402
X7.4803Y-3.2402
X7.4803Y-3.3402
X7.4803Y-3.4402
X7.4803Y-3.5402
X7.4803Y-3.6402
X7.4803Y-3.7402
X7.4803Y-4.6213
X7.4803Y-4.9213
X7.4813Y-3.9809
X7.5803Y-4.6213
X7.5803Y-4.9213
X7.64Y-5.07
X7.64Y-5.31
X7.6413Y-5.1909
X7.6803Y-4.6213
X7.6803Y-4.9213
X7.76Y-1.63
X7.78Y-4.1
X7.78Y-4.22
X7.78Y-4.34
X7.78Y-4.46
X7.7803Y-1.9654
X7.7803Y-2.0654
X7.7803Y-2.1654
X7.7803Y-2.2654
X7.7803Y-2.3654
X7.7803Y-2.4654
X7.7803Y-2.5654
X7.7803Y-2.6654
X7.7803Y-3.0402
X7.7803Y-3.1402
X7.7803Y-3.2402
X7.7803Y-3.3402
X7.7803Y-3.4402
X7.7803Y-3.5402
X7.7803Y-3.6402
X7.7803Y-3.7402
X7.7803Y-4.6213
X7.7803Y-4.9213
X7.7813Y-3.9809
X7.8584Y-1.63
X8.0118Y-1.5109
X8.0767Y-5.2297
X8.1752Y-5.2297
X8.2087Y-1.5109
T3
X8.1693Y-2.6575
X8.1693Y-3.4172
X8.1713Y-2.3899
X8.1713Y-3.1496
X8.2677Y-2.3899
X8.2677Y-2.4726
X8.2677Y-2.5748
X8.2677Y-2.6575
X8.2677Y-3.1496
X8.2677Y-3.2323
X8.2677Y-3.3345
X8.2677Y-3.4172
T4
X2.311Y-2.0754
X2.311Y-3.077
X2.35Y-3.8184
X2.35Y-4.82
X2.411Y-2.0754
X2.411Y-3.077
X2.45Y-3.8184
X2.45Y-4.82
X2.511Y-2.0754
X2.511Y-3.077
X2.55Y-3.8184
X2.55Y-4.82
X2.611Y-2.0754
X2.611Y-3.077
X2.65Y-3.8184
X2.65Y-4.82
X2.711Y-2.0754
X2.711Y-3.077
X2.75Y-3.8184
X2.75Y-4.82
X2.811Y-2.0754
X2.811Y-3.077
X2.85Y-3.8184
X2.85Y-4.82
X2.911Y-2.0754
X2.911Y-3.077
X2.95Y-3.8184
X2.95Y-4.82
X3.011Y-2.0754
X3.011Y-3.077
X3.05Y-3.8184
X3.05Y-4.82
X3.111Y-2.0754
X3.111Y-3.077
X3.15Y-3.8184
X3.15Y-4.82
X3.211Y-2.0754
X3.211Y-3.077
X3.25Y-3.8184
X3.25Y-4.82
X3.311Y-2.0754
X3.311Y-3.077
X3.35Y-3.8184
X3.35Y-4.82
X3.411Y-2.0754
X3.411Y-3.077
X3.45Y-3.8184
X3.45Y-4.82
X3.511Y-2.0754
X3.511Y-3.077
X3.55Y-3.8184
X3.55Y-4.82
X3.611Y-2.0754
X3.611Y-3.077
X3.65Y-3.8184
X3.65Y-4.82
X3.711Y-2.0754
X3.711Y-3.077
X3.75Y-3.8184
X3.75Y-4.82
X5.0597Y-1.5091
X5.1597Y-1.5091
X5.2597Y-1.5091
X6.13Y-1.51
X6.23Y-1.51
X6.33Y-1.51
X8.1898Y-4.1789
X8.1898Y-4.2691
X8.1898Y-4.3593
X8.1898Y-4.4494
X8.1898Y-4.5396
X8.2677Y-4.1339
X8.2677Y-4.224
X8.2677Y-4.3142
X8.2677Y-4.4043
X8.2677Y-4.4945
X8.3457Y-4.1789
X8.3457Y-4.2691
X8.3457Y-4.3593
X8.3457Y-4.4494
X8.3457Y-4.5396
T5
X3.3Y-5.15
X3.33Y-3.39
X3.7Y-5.15
X3.73Y-3.39
T7
X8.3858Y-2.258
X8.3858Y-2.7914
X8.3858Y-3.0177
X8.3858Y-3.5511
X8.4172Y-2.5237
X8.4172Y-3.2834
T8
X8.2705Y-3.8567
X8.2705Y-4.8409
T4
G00X8.1435Y-1.8741
M15
G01X8.1947Y-1.8741
M16
G05
T6
G00X8.3463Y-1.8327
M15
G01X8.3463Y-1.9154
M16
G05
M30
