M48
; DRILL file {KiCad 8.0.6} date 2025-06-21T16:23:55-0500
; FORMAT={-:-/ absolute / inch / decimal}
; #@! TF.CreationDate,2025-06-21T16:23:55-05:00
; #@! TF.GenerationSoftware,Kicad,Pcbnew,8.0.6
; #@! TF.FileFunction,Plated,1,2,PTH
FMAT,2
INCH
; #@! TA.AperFunction,Plated,PTH,ViaDrill
T1C0.0157
; #@! TA.AperFunction,Plated,PTH,ComponentDrill
T2C0.0315
; #@! TA.AperFunction,Plated,PTH,ComponentDrill
T3C0.0354
; #@! TA.AperFunction,Plated,PTH,ComponentDrill
T4C0.0354
; #@! TA.AperFunction,Plated,PTH,ComponentDrill
T5C0.0394
; #@! TA.AperFunction,Plated,PTH,ComponentDrill
T6C0.0433
; #@! TA.AperFunction,Plated,PTH,ComponentDrill
T7C0.0512
; #@! TA.AperFunction,Plated,PTH,ComponentDrill
T8C0.0905
; #@! TA.AperFunction,Plated,PTH,ComponentDrill
T9C0.1260
%
G90
G05
T1
X2.8605Y-4.2927
X2.9399Y-4.2916
X3.2979Y-1.9751
X3.3264Y-3.7166
X3.4873Y-4.0238
X3.627Y-1.6913
X3.6505Y-3.2243
X3.8215Y-3.3543
X3.8275Y-3.1857
X4.1186Y-3.7885
X4.256Y-4.9249
X4.2736Y-4.5738
X4.3895Y-3.9686
X4.4621Y-4.7529
X4.4668Y-5.1405
X4.489Y-5.3744
X4.6065Y-2.2224
X4.6457Y-3.54
X4.6999Y-4.7791
X4.7408Y-4.7638
X4.9197Y-4.7349
X4.9296Y-3.9532
X4.9799Y-2.2206
X4.9968Y-1.6262
X5.0031Y-5.2751
X5.0223Y-2.0854
X5.0298Y-3.8537
X5.0539Y-5.2747
X5.0568Y-5.3872
X5.0593Y-5.3063
X5.117Y-5.2248
X5.2442Y-2.9731
X5.2468Y-4.6904
X5.3525Y-3.3583
X5.3973Y-3.1474
X5.4079Y-3.3684
X5.4663Y-4.7695
X5.4832Y-5.0272
X5.5908Y-2.5593
X5.6084Y-3.2707
X5.6159Y-2.4186
X5.624Y-2.4593
X5.6341Y-3.1257
X5.6765Y-4.4639
X5.7421Y-3.0152
X5.7858Y-4.8197
X5.8267Y-3.1733
X5.8558Y-2.9181
X5.8566Y-3.5849
X5.8672Y-4.135
X5.9524Y-4.1092
X6.0662Y-2.2316
X6.0711Y-3.2178
X6.1521Y-4.8474
X6.1923Y-5.0362
X6.2227Y-3.857
X6.2248Y-2.0097
X6.3415Y-4.9777
X6.4435Y-4.5117
X6.4545Y-3.2081
X6.4649Y-4.2034
X6.4711Y-2.3913
X6.5363Y-3.6028
X6.5392Y-4.2497
X6.6499Y-4.2305
X6.6748Y-2.0351
X6.7508Y-3.8743
X6.8135Y-2.093
X6.9681Y-5.1041
X6.9757Y-5.0668
X7.0096Y-4.5394
X7.0454Y-3.3959
X7.1191Y-3.97
X7.2356Y-4.202
X7.572Y-4.3492
X7.5903Y-3.9323
X7.6117Y-2.4528
X7.7191Y-3.4769
X7.7391Y-4.4034
T2
X2.04Y-3.32
X2.0413Y-3.4509
X2.34Y-3.32
X2.3413Y-3.4509
X2.72Y-3.32
X2.72Y-3.46
X3.02Y-3.32
X3.02Y-3.46
X3.948Y-3.984
X3.9493Y-4.1059
X3.9493Y-4.2279
X3.95Y-4.35
X4.0716Y-5.13
X4.17Y-5.13
X4.248Y-3.984
X4.2493Y-4.1059
X4.2493Y-4.2279
X4.25Y-4.35
X4.2631Y-3.29
X4.37Y-2.68
X4.37Y-2.8769
X4.41Y-4.63
X4.41Y-4.93
X4.46Y-3.29
X4.51Y-4.63
X4.51Y-4.93
X4.5276Y-1.9654
X4.5276Y-2.0654
X4.5276Y-2.1654
X4.5276Y-2.2654
X4.5276Y-2.3654
X4.5276Y-2.4654
X4.5276Y-2.5654
X4.5276Y-2.6654
X4.5276Y-2.7654
X4.5276Y-2.8654
X4.53Y-3.44
X4.53Y-3.54
X4.53Y-3.64
X4.53Y-3.74
X4.53Y-3.84
X4.53Y-3.94
X4.53Y-4.04
X4.53Y-4.14
X4.53Y-4.24
X4.53Y-4.34
X4.61Y-4.63
X4.61Y-4.93
X4.71Y-4.63
X4.71Y-4.93
X4.81Y-4.63
X4.81Y-4.93
X4.8276Y-1.9654
X4.8276Y-2.0654
X4.8276Y-2.1654
X4.8276Y-2.2654
X4.8276Y-2.3654
X4.8276Y-2.4654
X4.8276Y-2.5654
X4.8276Y-2.6654
X4.8276Y-2.7654
X4.8276Y-2.8654
X4.83Y-3.44
X4.83Y-3.54
X4.83Y-3.64
X4.83Y-3.74
X4.83Y-3.84
X4.83Y-3.94
X4.83Y-4.04
X4.83Y-4.14
X4.83Y-4.24
X4.83Y-4.34
X4.91Y-4.63
X4.91Y-4.93
X4.9818Y-4.3309
X5.01Y-4.63
X5.01Y-4.93
X5.11Y-4.63
X5.11Y-4.93
X5.1181Y-1.9654
X5.1181Y-2.0654
X5.1181Y-2.1654
X5.1181Y-2.2654
X5.1181Y-2.3654
X5.1181Y-2.4654
X5.1181Y-2.5654
X5.1181Y-3.437
X5.1181Y-3.537
X5.1181Y-3.637
X5.1181Y-3.737
X5.1181Y-3.837
X5.1181Y-3.937
X5.1181Y-4.037
X5.1787Y-4.3309
X5.1818Y-2.8209
X5.21Y-3.06
X5.21Y-4.63
X5.21Y-4.93
X5.31Y-3.06
X5.31Y-4.63
X5.31Y-4.93
X5.3787Y-2.8209
X5.41Y-3.06
X5.4181Y-1.9654
X5.4181Y-2.0654
X5.4181Y-2.1654
X5.4181Y-2.2654
X5.4181Y-2.3654
X5.4181Y-2.4654
X5.4181Y-2.5654
X5.4181Y-3.437
X5.4181Y-3.537
X5.4181Y-3.637
X5.4181Y-3.737
X5.4181Y-3.837
X5.4181Y-3.937
X5.4181Y-4.037
X5.4931Y-2.82
X5.51Y-3.06
X5.57Y-1.73
X5.61Y-3.06
X5.65Y-4.34
X5.69Y-2.82
X5.7024Y-4.6213
X5.7024Y-4.9213
X5.7087Y-1.9654
X5.7087Y-2.0654
X5.7087Y-2.1654
X5.7087Y-2.2654
X5.7087Y-2.3654
X5.7087Y-2.4654
X5.7087Y-2.5654
X5.7087Y-2.6654
X5.7087Y-3.437
X5.7087Y-3.537
X5.7087Y-3.637
X5.7087Y-3.737
X5.7087Y-3.837
X5.7087Y-3.937
X5.7087Y-4.037
X5.71Y-3.06
X5.8024Y-4.6213
X5.8024Y-4.9213
X5.81Y-3.06
X5.8469Y-4.34
X5.87Y-1.73
X5.9024Y-4.6213
X5.9024Y-4.9213
X5.91Y-3.06
X6.0024Y-4.6213
X6.0024Y-4.9213
X6.0087Y-1.9654
X6.0087Y-2.0654
X6.0087Y-2.1654
X6.0087Y-2.2654
X6.0087Y-2.3654
X6.0087Y-2.4654
X6.0087Y-2.5654
X6.0087Y-2.6654
X6.0087Y-3.437
X6.0087Y-3.537
X6.0087Y-3.637
X6.0087Y-3.737
X6.0087Y-3.837
X6.0087Y-3.937
X6.0087Y-4.037
X6.01Y-3.06
X6.1024Y-4.6213
X6.1024Y-4.9213
X6.1318Y-2.7909
X6.2024Y-4.6213
X6.2024Y-4.9213
X6.2831Y-3.86
X6.2992Y-1.9654
X6.2992Y-2.0654
X6.2992Y-2.1654
X6.2992Y-2.2654
X6.2992Y-2.3654
X6.2992Y-2.4654
X6.2992Y-2.5654
X6.2992Y-3.0402
X6.2992Y-3.1402
X6.2992Y-3.2402
X6.2992Y-3.3402
X6.2992Y-3.4402
X6.2992Y-3.5402
X6.2992Y-3.6402
X6.3024Y-4.6213
X6.3024Y-4.9213
X6.31Y-4.02
X6.31Y-4.32
X6.3287Y-2.7909
X6.4024Y-4.6213
X6.4024Y-4.9213
X6.41Y-4.02
X6.41Y-4.32
X6.48Y-3.86
X6.5024Y-4.6213
X6.5024Y-4.9213
X6.51Y-4.02
X6.51Y-4.32
X6.5731Y-2.79
X6.5992Y-1.9654
X6.5992Y-2.0654
X6.5992Y-2.1654
X6.5992Y-2.2654
X6.5992Y-2.3654
X6.5992Y-2.4654
X6.5992Y-2.5654
X6.5992Y-3.0402
X6.5992Y-3.1402
X6.5992Y-3.2402
X6.5992Y-3.3402
X6.5992Y-3.4402
X6.5992Y-3.5402
X6.5992Y-3.6402
X6.6024Y-4.6213
X6.6024Y-4.9213
X6.61Y-4.02
X6.61Y-4.32
X6.6531Y-5.13
X6.66Y-1.67
X6.71Y-4.02
X6.71Y-4.32
X6.76Y-1.67
X6.77Y-2.79
X6.81Y-4.02
X6.81Y-4.32
X6.85Y-5.13
X6.86Y-1.67
X6.8803Y-4.6213
X6.8803Y-4.9213
X6.8898Y-1.9654
X6.8898Y-2.0654
X6.8898Y-2.1654
X6.8898Y-2.2654
X6.8898Y-2.3654
X6.8898Y-2.4654
X6.8898Y-2.5654
X6.8898Y-2.6654
X6.8898Y-3.0402
X6.8898Y-3.1402
X6.8898Y-3.2402
X6.8898Y-3.3402
X6.8898Y-3.4402
X6.8898Y-3.5402
X6.8898Y-3.6402
X6.91Y-4.02
X6.91Y-4.32
X6.96Y-1.67
X6.9803Y-4.6213
X6.9803Y-4.9213
X7.01Y-4.02
X7.01Y-4.32
X7.06Y-1.67
X7.0803Y-4.6213
X7.0803Y-4.9213
X7.16Y-1.67
X7.1631Y-3.83
X7.1803Y-4.6213
X7.1803Y-4.9213
X7.1898Y-1.9654
X7.1898Y-2.0654
X7.1898Y-2.1654
X7.1898Y-2.2654
X7.1898Y-2.3654
X7.1898Y-2.4654
X7.1898Y-2.5654
X7.1898Y-2.6654
X7.1898Y-3.0402
X7.1898Y-3.1402
X7.1898Y-3.2402
X7.1898Y-3.3402
X7.1898Y-3.4402
X7.1898Y-3.5402
X7.1898Y-3.6402
X7.2131Y-2.86
X7.26Y-1.67
X7.2803Y-4.6213
X7.2803Y-4.9213
X7.34Y-5.07
X7.34Y-5.31
X7.3413Y-5.1909
X7.36Y-1.67
X7.36Y-3.83
X7.3803Y-4.6213
X7.3803Y-4.9213
X7.41Y-2.86
X7.46Y-1.67
X7.48Y-4.1
X7.48Y-4.22
X7.48Y-4.34
X7.48Y-4.46
X7.4803Y-1.9654
X7.4803Y-2.0654
X7.4803Y-2.1654
X7.4803Y-2.2654
X7.4803Y-2.3654
X7.4803Y-2.4654
X7.4803Y-2.5654
X7.4803Y-2.6654
X7.4803Y-3.0402
X7.4803Y-3.1402
X7.4803Y-3.2402
X7.4803Y-3.3402
X7.4803Y-3.4402
X7.4803Y-3.5402
X7.4803Y-3.6402
X7.4803Y-3.7402
X7.4803Y-4.6213
X7.4803Y-4.9213
X7.4813Y-3.9809
X7.5803Y-4.6213
X7.5803Y-4.9213
X7.64Y-5.07
X7.64Y-5.31
X7.6413Y-5.1909
X7.6803Y-4.6213
X7.6803Y-4.9213
X7.76Y-1.63
X7.78Y-4.1
X7.78Y-4.22
X7.78Y-4.34
X7.78Y-4.46
X7.7803Y-1.9654
X7.7803Y-2.0654
X7.7803Y-2.1654
X7.7803Y-2.2654
X7.7803Y-2.3654
X7.7803Y-2.4654
X7.7803Y-2.5654
X7.7803Y-2.6654
X7.7803Y-3.0402
X7.7803Y-3.1402
X7.7803Y-3.2402
X7.7803Y-3.3402
X7.7803Y-3.4402
X7.7803Y-3.5402
X7.7803Y-3.6402
X7.7803Y-3.7402
X7.7803Y-4.6213
X7.7803Y-4.9213
X7.7813Y-3.9809
X7.8584Y-1.63
X8.0118Y-1.5109
X8.0767Y-5.2297
X8.1752Y-5.2297
X8.2087Y-1.5109
T3
X8.1693Y-2.6575
X8.1693Y-3.4172
X8.1713Y-2.3899
X8.1713Y-3.1496
X8.2677Y-2.3899
X8.2677Y-2.4726
X8.2677Y-2.5748
X8.2677Y-2.6575
X8.2677Y-3.1496
X8.2677Y-3.2323
X8.2677Y-3.3345
X8.2677Y-3.4172
T4
X5.681Y-1.528
X5.781Y-1.528
T5
X2.311Y-2.0754
X2.311Y-3.077
X2.35Y-3.8184
X2.35Y-4.82
X2.411Y-2.0754
X2.411Y-3.077
X2.45Y-3.8184
X2.45Y-4.82
X2.511Y-2.0754
X2.511Y-3.077
X2.55Y-3.8184
X2.55Y-4.82
X2.611Y-2.0754
X2.611Y-3.077
X2.65Y-3.8184
X2.65Y-4.82
X2.711Y-2.0754
X2.711Y-3.077
X2.75Y-3.8184
X2.75Y-4.82
X2.811Y-2.0754
X2.811Y-3.077
X2.85Y-3.8184
X2.85Y-4.82
X2.911Y-2.0754
X2.911Y-3.077
X2.95Y-3.8184
X2.95Y-4.82
X3.011Y-2.0754
X3.011Y-3.077
X3.05Y-3.8184
X3.05Y-4.82
X3.111Y-2.0754
X3.111Y-3.077
X3.15Y-3.8184
X3.15Y-4.82
X3.211Y-2.0754
X3.211Y-3.077
X3.25Y-3.8184
X3.25Y-4.82
X3.311Y-2.0754
X3.311Y-3.077
X3.35Y-3.8184
X3.35Y-4.82
X3.411Y-2.0754
X3.411Y-3.077
X3.45Y-3.8184
X3.45Y-4.82
X3.511Y-2.0754
X3.511Y-3.077
X3.55Y-3.8184
X3.55Y-4.82
X3.611Y-2.0754
X3.611Y-3.077
X3.65Y-3.8184
X3.65Y-4.82
X3.711Y-2.0754
X3.711Y-3.077
X3.75Y-3.8184
X3.75Y-4.82
X5.0597Y-1.5091
X5.1597Y-1.5091
X5.2597Y-1.5091
X6.13Y-1.51
X6.23Y-1.51
X6.33Y-1.51
X8.1898Y-4.1789
X8.1898Y-4.2691
X8.1898Y-4.3593
X8.1898Y-4.4494
X8.1898Y-4.5396
X8.2677Y-4.1339
X8.2677Y-4.224
X8.2677Y-4.3142
X8.2677Y-4.4043
X8.2677Y-4.4945
X8.3457Y-4.1789
X8.3457Y-4.2691
X8.3457Y-4.3593
X8.3457Y-4.4494
X8.3457Y-4.5396
T6
X3.3Y-5.15
X3.33Y-3.39
X3.7Y-5.15
X3.73Y-3.39
T8
X8.3858Y-2.258
X8.3858Y-2.7914
X8.3858Y-3.0177
X8.3858Y-3.5511
X8.4172Y-2.5237
X8.4172Y-3.2834
T9
X8.2705Y-3.8567
X8.2705Y-4.8409
T5
G00X8.1435Y-1.8741
M15
G01X8.1947Y-1.8741
M16
G05
T7
G00X8.3463Y-1.8327
M15
G01X8.3463Y-1.9154
M16
G05
M30
