%TF.GenerationSoftware,KiCad,Pcbnew,8.0.6*%
%TF.CreationDate,2025-07-20T09:00:01-05:00*%
%TF.ProjectId,MULTIIO,4d554c54-4949-44f2-9e6b-696361645f70,V1.1*%
%TF.SameCoordinates,Original*%
%TF.FileFunction,Soldermask,Bot*%
%TF.FilePolarity,Negative*%
%FSLAX46Y46*%
G04 Gerber Fmt 4.6, Leading zero omitted, Abs format (unit mm)*
G04 Created by KiCad (PCBNEW 8.0.6) date 2025-07-20 09:00:01*
%MOMM*%
%LPD*%
G01*
G04 APERTURE LIST*
%ADD10C,1.600000*%
%ADD11R,1.700000X1.700000*%
%ADD12O,1.700000X1.700000*%
%ADD13R,1.600000X1.600000*%
%ADD14O,1.600000X1.600000*%
%ADD15R,1.800000X1.800000*%
%ADD16C,1.800000*%
%ADD17C,2.400000*%
%ADD18C,1.950000*%
%ADD19R,2.400000X1.600000*%
%ADD20O,2.400000X1.600000*%
%ADD21R,1.780000X7.620000*%
%ADD22R,1.600000X2.400000*%
%ADD23O,1.600000X2.400000*%
%ADD24C,1.422400*%
%ADD25C,3.497580*%
G04 APERTURE END LIST*
D10*
%TO.C,C2*%
X180089800Y-64947800D03*
X185089800Y-64947800D03*
%TD*%
%TO.C,C28*%
X233125000Y-110972600D03*
X238125000Y-110972600D03*
%TD*%
D11*
%TO.C,J5*%
X273608800Y-118567200D03*
D12*
X273608800Y-121107200D03*
X271068800Y-118567200D03*
X271068800Y-121107200D03*
X268528800Y-118567200D03*
X268528800Y-121107200D03*
X265988800Y-118567200D03*
X265988800Y-121107200D03*
X263448800Y-118567200D03*
X263448800Y-121107200D03*
X260908800Y-118567200D03*
X260908800Y-121107200D03*
%TD*%
D13*
%TO.C,RN2*%
X248158000Y-85267800D03*
D14*
X248158000Y-87807800D03*
X248158000Y-90347800D03*
X248158000Y-92887800D03*
X248158000Y-95427800D03*
X248158000Y-97967800D03*
X248158000Y-100507800D03*
X248158000Y-103047800D03*
X248158000Y-105587800D03*
%TD*%
D10*
%TO.C,R8*%
X233578400Y-134950200D03*
D14*
X225958400Y-134950200D03*
%TD*%
D15*
%TO.C,D6*%
X290601400Y-42443400D03*
D16*
X293141400Y-42443400D03*
%TD*%
D13*
%TO.C,C19*%
X249446600Y-51148600D03*
D10*
X251946600Y-51148600D03*
%TD*%
D15*
%TO.C,D3*%
X268362400Y-42443400D03*
D16*
X270902400Y-42443400D03*
%TD*%
D10*
%TO.C,C9*%
X219838400Y-43759400D03*
X219838400Y-48759400D03*
%TD*%
%TO.C,C6*%
X187629800Y-55934600D03*
X187629800Y-60934600D03*
%TD*%
%TO.C,R11*%
X158496000Y-106502200D03*
D14*
X166116000Y-106502200D03*
%TD*%
D10*
%TO.C,C25*%
X166422200Y-68727600D03*
X166422200Y-73727600D03*
%TD*%
D17*
%TO.C,J7*%
X318015900Y-60338100D03*
X318015900Y-45338100D03*
D18*
X313015900Y-45338100D03*
X310515900Y-47838100D03*
X313015900Y-52838100D03*
X310515900Y-57838100D03*
X313015900Y-60338100D03*
X308015900Y-52838100D03*
X323015900Y-55338100D03*
X323015900Y-50338100D03*
%TD*%
D10*
%TO.C,C15*%
X264409200Y-52348000D03*
X269409200Y-52348000D03*
%TD*%
%TO.C,C14*%
X234742000Y-68604000D03*
X239742000Y-68604000D03*
%TD*%
%TO.C,C26*%
X219633800Y-133455400D03*
X219633800Y-138455400D03*
%TD*%
D19*
%TO.C,U14*%
X192532000Y-78638400D03*
D20*
X192532000Y-81178400D03*
X192532000Y-83718400D03*
X192532000Y-86258400D03*
X192532000Y-88798400D03*
X192532000Y-91338400D03*
X192532000Y-93878400D03*
X192532000Y-96418400D03*
X192532000Y-98958400D03*
X192532000Y-101498400D03*
X200152000Y-101498400D03*
X200152000Y-98958400D03*
X200152000Y-96418400D03*
X200152000Y-93878400D03*
X200152000Y-91338400D03*
X200152000Y-88798400D03*
X200152000Y-86258400D03*
X200152000Y-83718400D03*
X200152000Y-81178400D03*
X200152000Y-78638400D03*
%TD*%
D10*
%TO.C,C16*%
X286812000Y-57936000D03*
X291812000Y-57936000D03*
%TD*%
%TO.C,R1*%
X225552000Y-105740200D03*
D14*
X217932000Y-105740200D03*
%TD*%
D15*
%TO.C,D2*%
X260862400Y-42443400D03*
D16*
X263402400Y-42443400D03*
%TD*%
D10*
%TO.C,C4*%
X166323000Y-138099800D03*
X171323000Y-138099800D03*
%TD*%
%TO.C,C29*%
X220929200Y-117859800D03*
X220929200Y-122859800D03*
%TD*%
D13*
%TO.C,RN3*%
X153720800Y-91541600D03*
D14*
X153720800Y-94081600D03*
X153720800Y-96621600D03*
X153720800Y-99161600D03*
X153720800Y-101701600D03*
X153720800Y-104241600D03*
X153720800Y-106781600D03*
X153720800Y-109321600D03*
X153720800Y-111861600D03*
%TD*%
D15*
%TO.C,D1*%
X253669800Y-42392600D03*
D16*
X256209800Y-42392600D03*
%TD*%
D19*
%TO.C,U16*%
X233680000Y-75692000D03*
D20*
X233680000Y-78232000D03*
X233680000Y-80772000D03*
X233680000Y-83312000D03*
X233680000Y-85852000D03*
X233680000Y-88392000D03*
X233680000Y-90932000D03*
X233680000Y-93472000D03*
X233680000Y-96012000D03*
X233680000Y-98552000D03*
X241300000Y-98552000D03*
X241300000Y-96012000D03*
X241300000Y-93472000D03*
X241300000Y-90932000D03*
X241300000Y-88392000D03*
X241300000Y-85852000D03*
X241300000Y-83312000D03*
X241300000Y-80772000D03*
X241300000Y-78232000D03*
X241300000Y-75692000D03*
%TD*%
D10*
%TO.C,C27*%
X220903800Y-130374400D03*
X220903800Y-125374400D03*
%TD*%
D11*
%TO.C,P1*%
X319049400Y-104648000D03*
D12*
X321589400Y-104648000D03*
X319049400Y-107188000D03*
X321589400Y-107188000D03*
X319049400Y-109728000D03*
X321589400Y-109728000D03*
X319049400Y-112268000D03*
X321589400Y-112268000D03*
X319049400Y-114808000D03*
X321589400Y-114808000D03*
X319049400Y-117348000D03*
X321589400Y-117348000D03*
X319049400Y-119888000D03*
X321589400Y-119888000D03*
X319049400Y-122428000D03*
X321589400Y-122428000D03*
X319049400Y-124968000D03*
X321589400Y-124968000D03*
X319049400Y-127508000D03*
X321589400Y-127508000D03*
X319049400Y-130048000D03*
X321589400Y-130048000D03*
X319049400Y-132588000D03*
X321589400Y-132588000D03*
X319049400Y-135128000D03*
X321589400Y-135128000D03*
%TD*%
D19*
%TO.C,U19*%
X285750000Y-84074000D03*
D20*
X285750000Y-86614000D03*
X285750000Y-89154000D03*
X285750000Y-91694000D03*
X285750000Y-94234000D03*
X285750000Y-96774000D03*
X285750000Y-99314000D03*
X285750000Y-101854000D03*
X285750000Y-104394000D03*
X285750000Y-106934000D03*
X293370000Y-106934000D03*
X293370000Y-104394000D03*
X293370000Y-101854000D03*
X293370000Y-99314000D03*
X293370000Y-96774000D03*
X293370000Y-94234000D03*
X293370000Y-91694000D03*
X293370000Y-89154000D03*
X293370000Y-86614000D03*
X293370000Y-84074000D03*
%TD*%
D13*
%TO.C,C17*%
X188736600Y-68884800D03*
D10*
X191236600Y-68884800D03*
%TD*%
D15*
%TO.C,D4*%
X275862400Y-42443400D03*
D16*
X278402400Y-42443400D03*
%TD*%
D19*
%TO.C,U20*%
X274320000Y-57658000D03*
D20*
X274320000Y-60198000D03*
X274320000Y-62738000D03*
X274320000Y-65278000D03*
X274320000Y-67818000D03*
X274320000Y-70358000D03*
X274320000Y-72898000D03*
X274320000Y-75438000D03*
X274320000Y-77978000D03*
X274320000Y-80518000D03*
X281940000Y-80518000D03*
X281940000Y-77978000D03*
X281940000Y-75438000D03*
X281940000Y-72898000D03*
X281940000Y-70358000D03*
X281940000Y-67818000D03*
X281940000Y-65278000D03*
X281940000Y-62738000D03*
X281940000Y-60198000D03*
X281940000Y-57658000D03*
%TD*%
D19*
%TO.C,U6*%
X192532000Y-43992800D03*
D20*
X192532000Y-46532800D03*
X192532000Y-49072800D03*
X192532000Y-51612800D03*
X192532000Y-54152800D03*
X192532000Y-56692800D03*
X192532000Y-59232800D03*
X200152000Y-59232800D03*
X200152000Y-56692800D03*
X200152000Y-54152800D03*
X200152000Y-51612800D03*
X200152000Y-49072800D03*
X200152000Y-46532800D03*
X200152000Y-43992800D03*
%TD*%
D21*
%TO.C,J1*%
X299534900Y-146144300D03*
X296994900Y-146144300D03*
X294454900Y-146144300D03*
X291914900Y-146144300D03*
X289374900Y-146144300D03*
X286834900Y-146144300D03*
X284294900Y-146144300D03*
X281754900Y-146144300D03*
X279214900Y-146144300D03*
X276674900Y-146144300D03*
X274134900Y-146144300D03*
X271594900Y-146144300D03*
X269054900Y-146144300D03*
X266514900Y-146144300D03*
X263974900Y-146144300D03*
X261434900Y-146144300D03*
X258894900Y-146144300D03*
X256354900Y-146144300D03*
X253814900Y-146144300D03*
X251274900Y-146144300D03*
X248734900Y-146144300D03*
X246194900Y-146144300D03*
X243654900Y-146144300D03*
X241114900Y-146144300D03*
X238574900Y-146144300D03*
X236034900Y-146144300D03*
X233494900Y-146144300D03*
X230954900Y-146144300D03*
X228414900Y-146144300D03*
X225874900Y-146144300D03*
X223334900Y-146144300D03*
%TD*%
D19*
%TO.C,U13*%
X191414400Y-110413800D03*
D20*
X191414400Y-112953800D03*
X191414400Y-115493800D03*
X191414400Y-118033800D03*
X191414400Y-120573800D03*
X191414400Y-123113800D03*
X191414400Y-125653800D03*
X191414400Y-128193800D03*
X191414400Y-130733800D03*
X191414400Y-133273800D03*
X199034400Y-133273800D03*
X199034400Y-130733800D03*
X199034400Y-128193800D03*
X199034400Y-125653800D03*
X199034400Y-123113800D03*
X199034400Y-120573800D03*
X199034400Y-118033800D03*
X199034400Y-115493800D03*
X199034400Y-112953800D03*
X199034400Y-110413800D03*
%TD*%
D19*
%TO.C,U10*%
X154432000Y-117602000D03*
D20*
X154432000Y-120142000D03*
X154432000Y-122682000D03*
X154432000Y-125222000D03*
X154432000Y-127762000D03*
X154432000Y-130302000D03*
X154432000Y-132842000D03*
X162052000Y-132842000D03*
X162052000Y-130302000D03*
X162052000Y-127762000D03*
X162052000Y-125222000D03*
X162052000Y-122682000D03*
X162052000Y-120142000D03*
X162052000Y-117602000D03*
%TD*%
D10*
%TO.C,R9*%
X233595200Y-138050400D03*
D14*
X225975200Y-138050400D03*
%TD*%
D19*
%TO.C,U8*%
X233629200Y-44069000D03*
D20*
X233629200Y-46609000D03*
X233629200Y-49149000D03*
X233629200Y-51689000D03*
X233629200Y-54229000D03*
X233629200Y-56769000D03*
X233629200Y-59309000D03*
X233629200Y-61849000D03*
X241249200Y-61849000D03*
X241249200Y-59309000D03*
X241249200Y-56769000D03*
X241249200Y-54229000D03*
X241249200Y-51689000D03*
X241249200Y-49149000D03*
X241249200Y-46609000D03*
X241249200Y-44069000D03*
%TD*%
D10*
%TO.C,C10*%
X313690000Y-102442000D03*
X313690000Y-107442000D03*
%TD*%
%TO.C,C7*%
X187071000Y-97209600D03*
X187071000Y-102209600D03*
%TD*%
D22*
%TO.C,U7*%
X267665200Y-135001000D03*
D23*
X270205200Y-135001000D03*
X272745200Y-135001000D03*
X275285200Y-135001000D03*
X277825200Y-135001000D03*
X280365200Y-135001000D03*
X282905200Y-135001000D03*
X285445200Y-135001000D03*
X287985200Y-135001000D03*
X290525200Y-135001000D03*
X290525200Y-127381000D03*
X287985200Y-127381000D03*
X285445200Y-127381000D03*
X282905200Y-127381000D03*
X280365200Y-127381000D03*
X277825200Y-127381000D03*
X275285200Y-127381000D03*
X272745200Y-127381000D03*
X270205200Y-127381000D03*
X267665200Y-127381000D03*
%TD*%
D10*
%TO.C,C1*%
X183722000Y-43688000D03*
X188722000Y-43688000D03*
%TD*%
%TO.C,C5*%
X152073600Y-137871200D03*
X157073600Y-137871200D03*
%TD*%
D13*
%TO.C,C18*%
X182792500Y-119049800D03*
D10*
X185292500Y-119049800D03*
%TD*%
D19*
%TO.C,U9*%
X151892000Y-44704000D03*
D20*
X151892000Y-47244000D03*
X151892000Y-49784000D03*
X151892000Y-52324000D03*
X151892000Y-54864000D03*
X151892000Y-57404000D03*
X151892000Y-59944000D03*
X151892000Y-62484000D03*
X159512000Y-62484000D03*
X159512000Y-59944000D03*
X159512000Y-57404000D03*
X159512000Y-54864000D03*
X159512000Y-52324000D03*
X159512000Y-49784000D03*
X159512000Y-47244000D03*
X159512000Y-44704000D03*
%TD*%
D10*
%TO.C,R10*%
X158496000Y-102452200D03*
D14*
X166116000Y-102452200D03*
%TD*%
D19*
%TO.C,U17*%
X208000600Y-43434000D03*
D20*
X208000600Y-45974000D03*
X208000600Y-48514000D03*
X208000600Y-51054000D03*
X208000600Y-53594000D03*
X208000600Y-56134000D03*
X208000600Y-58674000D03*
X208000600Y-61214000D03*
X208000600Y-63754000D03*
X208000600Y-66294000D03*
X215620600Y-66294000D03*
X215620600Y-63754000D03*
X215620600Y-61214000D03*
X215620600Y-58674000D03*
X215620600Y-56134000D03*
X215620600Y-53594000D03*
X215620600Y-51054000D03*
X215620600Y-48514000D03*
X215620600Y-45974000D03*
X215620600Y-43434000D03*
%TD*%
D10*
%TO.C,R2*%
X233299000Y-116332000D03*
D14*
X225679000Y-116332000D03*
%TD*%
D24*
%TO.C,J4*%
X317042820Y-89809360D03*
X317042820Y-92405240D03*
X317042820Y-87708780D03*
X317042820Y-94505820D03*
X314594260Y-87708780D03*
X314543460Y-94505820D03*
D25*
X320042560Y-97906880D03*
X320840120Y-91107300D03*
X320042560Y-84358520D03*
%TD*%
D13*
%TO.C,RN1*%
X300050200Y-64490600D03*
D14*
X300050200Y-61950600D03*
X300050200Y-59410600D03*
X300050200Y-56870600D03*
X300050200Y-54330600D03*
X300050200Y-51790600D03*
X300050200Y-49250600D03*
X300050200Y-46710600D03*
X300050200Y-44170600D03*
%TD*%
D10*
%TO.C,C23*%
X203098400Y-124438400D03*
X203098400Y-129438400D03*
%TD*%
%TO.C,C21*%
X203047600Y-121941600D03*
X203047600Y-116941600D03*
%TD*%
D19*
%TO.C,U5*%
X172618400Y-43992800D03*
D20*
X172618400Y-46532800D03*
X172618400Y-49072800D03*
X172618400Y-51612800D03*
X172618400Y-54152800D03*
X172618400Y-56692800D03*
X172618400Y-59232800D03*
X180238400Y-59232800D03*
X180238400Y-56692800D03*
X180238400Y-54152800D03*
X180238400Y-51612800D03*
X180238400Y-49072800D03*
X180238400Y-46532800D03*
X180238400Y-43992800D03*
%TD*%
D19*
%TO.C,U15*%
X208000600Y-110667800D03*
D20*
X208000600Y-113207800D03*
X208000600Y-115747800D03*
X208000600Y-118287800D03*
X208000600Y-120827800D03*
X208000600Y-123367800D03*
X208000600Y-125907800D03*
X208000600Y-128447800D03*
X208000600Y-130987800D03*
X208000600Y-133527800D03*
X215620600Y-133527800D03*
X215620600Y-130987800D03*
X215620600Y-128447800D03*
X215620600Y-125907800D03*
X215620600Y-123367800D03*
X215620600Y-120827800D03*
X215620600Y-118287800D03*
X215620600Y-115747800D03*
X215620600Y-113207800D03*
X215620600Y-110667800D03*
%TD*%
D10*
%TO.C,R4*%
X233468200Y-122581800D03*
D14*
X225848200Y-122581800D03*
%TD*%
D10*
%TO.C,C22*%
X203097000Y-114482600D03*
X203097000Y-109482600D03*
%TD*%
D19*
%TO.C,U1*%
X298704000Y-92456000D03*
D20*
X298704000Y-94996000D03*
X298704000Y-97536000D03*
X298704000Y-100076000D03*
X298704000Y-102616000D03*
X298704000Y-105156000D03*
X298704000Y-107696000D03*
X306324000Y-107696000D03*
X306324000Y-105156000D03*
X306324000Y-102616000D03*
X306324000Y-100076000D03*
X306324000Y-97536000D03*
X306324000Y-94996000D03*
X306324000Y-92456000D03*
%TD*%
D11*
%TO.C,J2*%
X253568200Y-118516400D03*
D12*
X253568200Y-121056400D03*
X251028200Y-118516400D03*
X251028200Y-121056400D03*
X248488200Y-118516400D03*
X248488200Y-121056400D03*
X245948200Y-118516400D03*
X245948200Y-121056400D03*
X243408200Y-118516400D03*
X243408200Y-121056400D03*
X240868200Y-118516400D03*
X240868200Y-121056400D03*
%TD*%
D13*
%TO.C,C20*%
X302071400Y-132080000D03*
D10*
X304571400Y-132080000D03*
%TD*%
%TO.C,C24*%
X202998200Y-132253000D03*
X202998200Y-137253000D03*
%TD*%
%TO.C,C13*%
X228193600Y-57306200D03*
X228193600Y-62306200D03*
%TD*%
D13*
%TO.C,RN4*%
X166521400Y-44244000D03*
D14*
X166521400Y-46784000D03*
X166521400Y-49324000D03*
X166521400Y-51864000D03*
X166521400Y-54404000D03*
X166521400Y-56944000D03*
X166521400Y-59484000D03*
X166521400Y-62024000D03*
X166521400Y-64564000D03*
%TD*%
D19*
%TO.C,U4*%
X171500800Y-69215000D03*
D20*
X171500800Y-71755000D03*
X171500800Y-74295000D03*
X171500800Y-76835000D03*
X171500800Y-79375000D03*
X171500800Y-81915000D03*
X171500800Y-84455000D03*
X179120800Y-84455000D03*
X179120800Y-81915000D03*
X179120800Y-79375000D03*
X179120800Y-76835000D03*
X179120800Y-74295000D03*
X179120800Y-71755000D03*
X179120800Y-69215000D03*
%TD*%
D19*
%TO.C,U11*%
X254558800Y-57277000D03*
D20*
X254558800Y-59817000D03*
X254558800Y-62357000D03*
X254558800Y-64897000D03*
X254558800Y-67437000D03*
X254558800Y-69977000D03*
X254558800Y-72517000D03*
X254558800Y-75057000D03*
X254558800Y-77597000D03*
X254558800Y-80137000D03*
X254558800Y-82677000D03*
X254558800Y-85217000D03*
X254558800Y-87757000D03*
X254558800Y-90297000D03*
X254558800Y-92837000D03*
X254558800Y-95377000D03*
X254558800Y-97917000D03*
X254558800Y-100457000D03*
X254558800Y-102997000D03*
X254558800Y-105537000D03*
X269798800Y-105537000D03*
X269798800Y-102997000D03*
X269798800Y-100457000D03*
X269798800Y-97917000D03*
X269798800Y-95377000D03*
X269798800Y-92837000D03*
X269798800Y-90297000D03*
X269798800Y-87757000D03*
X269798800Y-85217000D03*
X269798800Y-82677000D03*
X269798800Y-80137000D03*
X269798800Y-77597000D03*
X269798800Y-75057000D03*
X269798800Y-72517000D03*
X269798800Y-69977000D03*
X269798800Y-67437000D03*
X269798800Y-64897000D03*
X269798800Y-62357000D03*
X269798800Y-59817000D03*
X269798800Y-57277000D03*
%TD*%
D10*
%TO.C,R7*%
X233578400Y-131851400D03*
D14*
X225958400Y-131851400D03*
%TD*%
D24*
%TO.C,J3*%
X317192620Y-71277460D03*
X317192620Y-73873340D03*
X317192620Y-69176880D03*
X317192620Y-75973920D03*
X314744060Y-69176880D03*
X314693260Y-75973920D03*
D25*
X320192360Y-79374980D03*
X320989920Y-72575400D03*
X320192360Y-65826620D03*
%TD*%
D10*
%TO.C,C3*%
X179937400Y-90093800D03*
X184937400Y-90093800D03*
%TD*%
%TO.C,R5*%
X233468200Y-125731400D03*
D14*
X225848200Y-125731400D03*
%TD*%
D10*
%TO.C,R12*%
X158775400Y-96429800D03*
D14*
X166395400Y-96429800D03*
%TD*%
D19*
%TO.C,U2*%
X170713400Y-118237000D03*
D20*
X170713400Y-120777000D03*
X170713400Y-123317000D03*
X170713400Y-125857000D03*
X170713400Y-128397000D03*
X170713400Y-130937000D03*
X170713400Y-133477000D03*
X178333400Y-133477000D03*
X178333400Y-130937000D03*
X178333400Y-128397000D03*
X178333400Y-125857000D03*
X178333400Y-123317000D03*
X178333400Y-120777000D03*
X178333400Y-118237000D03*
%TD*%
D10*
%TO.C,C12*%
X260629400Y-128045200D03*
X260629400Y-133045200D03*
%TD*%
%TO.C,C11*%
X220878400Y-110417600D03*
X220878400Y-115417600D03*
%TD*%
D19*
%TO.C,U3*%
X172374400Y-93975000D03*
D20*
X172374400Y-96515000D03*
X172374400Y-99055000D03*
X172374400Y-101595000D03*
X172374400Y-104135000D03*
X172374400Y-106675000D03*
X172374400Y-109215000D03*
X179994400Y-109215000D03*
X179994400Y-106675000D03*
X179994400Y-104135000D03*
X179994400Y-101595000D03*
X179994400Y-99055000D03*
X179994400Y-96515000D03*
X179994400Y-93975000D03*
%TD*%
D10*
%TO.C,C8*%
X186182000Y-129061200D03*
X186182000Y-134061200D03*
%TD*%
D15*
%TO.C,D5*%
X283362400Y-42443400D03*
D16*
X285902400Y-42443400D03*
%TD*%
D10*
%TO.C,R3*%
X233417400Y-119508400D03*
D14*
X225797400Y-119508400D03*
%TD*%
D19*
%TO.C,U12*%
X298958000Y-70358000D03*
D20*
X298958000Y-72898000D03*
X298958000Y-75438000D03*
X298958000Y-77978000D03*
X298958000Y-80518000D03*
X298958000Y-83058000D03*
X298958000Y-85598000D03*
X306578000Y-85598000D03*
X306578000Y-83058000D03*
X306578000Y-80518000D03*
X306578000Y-77978000D03*
X306578000Y-75438000D03*
X306578000Y-72898000D03*
X306578000Y-70358000D03*
%TD*%
D19*
%TO.C,SW1*%
X217942000Y-87493500D03*
D20*
X217942000Y-90033500D03*
X217942000Y-92573500D03*
X217942000Y-95113500D03*
X217942000Y-97653500D03*
X225562000Y-97653500D03*
X225562000Y-95113500D03*
X225562000Y-92573500D03*
X225562000Y-90033500D03*
X225562000Y-87493500D03*
%TD*%
D10*
%TO.C,R6*%
X233544400Y-128754000D03*
D14*
X225924400Y-128754000D03*
%TD*%
M02*
