%TF.GenerationSoftware,KiCad,Pcbnew,8.0.6*%
%TF.CreationDate,2025-06-08T19:24:15-05:00*%
%TF.ProjectId,MULTIIO,4d554c54-4949-44f2-9e6b-696361645f70,V1*%
%TF.SameCoordinates,Original*%
%TF.FileFunction,Drillmap*%
%TF.FilePolarity,Positive*%
%FSLAX45Y45*%
G04 Gerber Fmt 4.5, Leading zero omitted, Abs format (unit mm)*
G04 Created by KiCad (PCBNEW 8.0.6) date 2025-06-08 19:24:15*
%MOMM*%
%LPD*%
G01*
G04 APERTURE LIST*
%ADD10C,0.381000*%
%ADD11C,0.200000*%
%ADD12C,0.240000*%
G04 APERTURE END LIST*
D10*
X22074407Y-14230887D02*
X22076123Y-14945447D01*
X30217647Y-14237237D02*
X32249647Y-14238507D01*
X22139623Y-15008947D02*
G75*
G02*
X22076123Y-14945447I7J63507D01*
G01*
X15092680Y-14234160D02*
G75*
G02*
X14838680Y-13980160I0J254000D01*
G01*
X32501112Y-13984507D02*
G75*
G02*
X32249647Y-14238506I-253262J-743D01*
G01*
X32501107Y-4078507D02*
X32501107Y-13984507D01*
X14838680Y-13980160D02*
X14832866Y-4086126D01*
X21591807Y-14230887D02*
X22074407Y-14230887D01*
X32244566Y-3819378D02*
G75*
G02*
X32501107Y-4078507I3284J-253302D01*
G01*
X15092680Y-14234160D02*
X21591807Y-14230887D01*
X30215107Y-14944627D02*
G75*
G02*
X30151607Y-15008127I-63497J-3D01*
G01*
X15082520Y-3832860D02*
X32244567Y-3819427D01*
X22139623Y-15008947D02*
X30151607Y-15008127D01*
X30217647Y-14237237D02*
X30215107Y-14944627D01*
X14833563Y-4086126D02*
G75*
G02*
X15082520Y-3832860I253297J6D01*
G01*
D11*
D12*
X31681590Y-4413810D02*
X31921590Y-4653810D01*
X31921590Y-4413810D02*
X31681590Y-4653810D01*
X31681590Y-5913810D02*
X31921590Y-6153810D01*
X31921590Y-5913810D02*
X31681590Y-6153810D01*
D11*
X15074592Y-15339481D02*
X15074592Y-15139481D01*
X15074592Y-15139481D02*
X15122211Y-15139481D01*
X15122211Y-15139481D02*
X15150783Y-15149005D01*
X15150783Y-15149005D02*
X15169830Y-15168052D01*
X15169830Y-15168052D02*
X15179354Y-15187100D01*
X15179354Y-15187100D02*
X15188878Y-15225195D01*
X15188878Y-15225195D02*
X15188878Y-15253767D01*
X15188878Y-15253767D02*
X15179354Y-15291862D01*
X15179354Y-15291862D02*
X15169830Y-15310910D01*
X15169830Y-15310910D02*
X15150783Y-15329957D01*
X15150783Y-15329957D02*
X15122211Y-15339481D01*
X15122211Y-15339481D02*
X15074592Y-15339481D01*
X15274592Y-15339481D02*
X15274592Y-15206148D01*
X15274592Y-15244243D02*
X15284116Y-15225195D01*
X15284116Y-15225195D02*
X15293640Y-15215671D01*
X15293640Y-15215671D02*
X15312688Y-15206148D01*
X15312688Y-15206148D02*
X15331735Y-15206148D01*
X15398402Y-15339481D02*
X15398402Y-15206148D01*
X15398402Y-15139481D02*
X15388878Y-15149005D01*
X15388878Y-15149005D02*
X15398402Y-15158529D01*
X15398402Y-15158529D02*
X15407926Y-15149005D01*
X15407926Y-15149005D02*
X15398402Y-15139481D01*
X15398402Y-15139481D02*
X15398402Y-15158529D01*
X15522211Y-15339481D02*
X15503164Y-15329957D01*
X15503164Y-15329957D02*
X15493640Y-15310910D01*
X15493640Y-15310910D02*
X15493640Y-15139481D01*
X15626973Y-15339481D02*
X15607926Y-15329957D01*
X15607926Y-15329957D02*
X15598402Y-15310910D01*
X15598402Y-15310910D02*
X15598402Y-15139481D01*
X15855545Y-15339481D02*
X15855545Y-15139481D01*
X15855545Y-15139481D02*
X15922211Y-15282338D01*
X15922211Y-15282338D02*
X15988878Y-15139481D01*
X15988878Y-15139481D02*
X15988878Y-15339481D01*
X16169830Y-15339481D02*
X16169830Y-15234719D01*
X16169830Y-15234719D02*
X16160307Y-15215671D01*
X16160307Y-15215671D02*
X16141259Y-15206148D01*
X16141259Y-15206148D02*
X16103164Y-15206148D01*
X16103164Y-15206148D02*
X16084116Y-15215671D01*
X16169830Y-15329957D02*
X16150783Y-15339481D01*
X16150783Y-15339481D02*
X16103164Y-15339481D01*
X16103164Y-15339481D02*
X16084116Y-15329957D01*
X16084116Y-15329957D02*
X16074592Y-15310910D01*
X16074592Y-15310910D02*
X16074592Y-15291862D01*
X16074592Y-15291862D02*
X16084116Y-15272814D01*
X16084116Y-15272814D02*
X16103164Y-15263291D01*
X16103164Y-15263291D02*
X16150783Y-15263291D01*
X16150783Y-15263291D02*
X16169830Y-15253767D01*
X16265069Y-15206148D02*
X16265069Y-15406148D01*
X16265069Y-15215671D02*
X16284116Y-15206148D01*
X16284116Y-15206148D02*
X16322211Y-15206148D01*
X16322211Y-15206148D02*
X16341259Y-15215671D01*
X16341259Y-15215671D02*
X16350783Y-15225195D01*
X16350783Y-15225195D02*
X16360307Y-15244243D01*
X16360307Y-15244243D02*
X16360307Y-15301386D01*
X16360307Y-15301386D02*
X16350783Y-15320433D01*
X16350783Y-15320433D02*
X16341259Y-15329957D01*
X16341259Y-15329957D02*
X16322211Y-15339481D01*
X16322211Y-15339481D02*
X16284116Y-15339481D01*
X16284116Y-15339481D02*
X16265069Y-15329957D01*
X16446021Y-15320433D02*
X16455545Y-15329957D01*
X16455545Y-15329957D02*
X16446021Y-15339481D01*
X16446021Y-15339481D02*
X16436497Y-15329957D01*
X16436497Y-15329957D02*
X16446021Y-15320433D01*
X16446021Y-15320433D02*
X16446021Y-15339481D01*
X16446021Y-15215671D02*
X16455545Y-15225195D01*
X16455545Y-15225195D02*
X16446021Y-15234719D01*
X16446021Y-15234719D02*
X16436497Y-15225195D01*
X16436497Y-15225195D02*
X16446021Y-15215671D01*
X16446021Y-15215671D02*
X16446021Y-15234719D01*
X14613816Y-15567997D02*
X14813816Y-15767997D01*
X14813816Y-15567997D02*
X14613816Y-15767997D01*
X15065069Y-15578529D02*
X15074592Y-15569005D01*
X15074592Y-15569005D02*
X15093640Y-15559481D01*
X15093640Y-15559481D02*
X15141259Y-15559481D01*
X15141259Y-15559481D02*
X15160307Y-15569005D01*
X15160307Y-15569005D02*
X15169830Y-15578529D01*
X15169830Y-15578529D02*
X15179354Y-15597576D01*
X15179354Y-15597576D02*
X15179354Y-15616624D01*
X15179354Y-15616624D02*
X15169830Y-15645195D01*
X15169830Y-15645195D02*
X15055545Y-15759481D01*
X15055545Y-15759481D02*
X15179354Y-15759481D01*
X15265069Y-15740433D02*
X15274592Y-15749957D01*
X15274592Y-15749957D02*
X15265069Y-15759481D01*
X15265069Y-15759481D02*
X15255545Y-15749957D01*
X15255545Y-15749957D02*
X15265069Y-15740433D01*
X15265069Y-15740433D02*
X15265069Y-15759481D01*
X15446021Y-15626148D02*
X15446021Y-15759481D01*
X15398402Y-15549957D02*
X15350783Y-15692814D01*
X15350783Y-15692814D02*
X15474592Y-15692814D01*
X15588878Y-15559481D02*
X15607926Y-15559481D01*
X15607926Y-15559481D02*
X15626973Y-15569005D01*
X15626973Y-15569005D02*
X15636497Y-15578529D01*
X15636497Y-15578529D02*
X15646021Y-15597576D01*
X15646021Y-15597576D02*
X15655545Y-15635671D01*
X15655545Y-15635671D02*
X15655545Y-15683291D01*
X15655545Y-15683291D02*
X15646021Y-15721386D01*
X15646021Y-15721386D02*
X15636497Y-15740433D01*
X15636497Y-15740433D02*
X15626973Y-15749957D01*
X15626973Y-15749957D02*
X15607926Y-15759481D01*
X15607926Y-15759481D02*
X15588878Y-15759481D01*
X15588878Y-15759481D02*
X15569830Y-15749957D01*
X15569830Y-15749957D02*
X15560307Y-15740433D01*
X15560307Y-15740433D02*
X15550783Y-15721386D01*
X15550783Y-15721386D02*
X15541259Y-15683291D01*
X15541259Y-15683291D02*
X15541259Y-15635671D01*
X15541259Y-15635671D02*
X15550783Y-15597576D01*
X15550783Y-15597576D02*
X15560307Y-15578529D01*
X15560307Y-15578529D02*
X15569830Y-15569005D01*
X15569830Y-15569005D02*
X15588878Y-15559481D01*
X15779354Y-15559481D02*
X15798402Y-15559481D01*
X15798402Y-15559481D02*
X15817450Y-15569005D01*
X15817450Y-15569005D02*
X15826973Y-15578529D01*
X15826973Y-15578529D02*
X15836497Y-15597576D01*
X15836497Y-15597576D02*
X15846021Y-15635671D01*
X15846021Y-15635671D02*
X15846021Y-15683291D01*
X15846021Y-15683291D02*
X15836497Y-15721386D01*
X15836497Y-15721386D02*
X15826973Y-15740433D01*
X15826973Y-15740433D02*
X15817450Y-15749957D01*
X15817450Y-15749957D02*
X15798402Y-15759481D01*
X15798402Y-15759481D02*
X15779354Y-15759481D01*
X15779354Y-15759481D02*
X15760307Y-15749957D01*
X15760307Y-15749957D02*
X15750783Y-15740433D01*
X15750783Y-15740433D02*
X15741259Y-15721386D01*
X15741259Y-15721386D02*
X15731735Y-15683291D01*
X15731735Y-15683291D02*
X15731735Y-15635671D01*
X15731735Y-15635671D02*
X15741259Y-15597576D01*
X15741259Y-15597576D02*
X15750783Y-15578529D01*
X15750783Y-15578529D02*
X15760307Y-15569005D01*
X15760307Y-15569005D02*
X15779354Y-15559481D01*
X15931735Y-15759481D02*
X15931735Y-15626148D01*
X15931735Y-15645195D02*
X15941259Y-15635671D01*
X15941259Y-15635671D02*
X15960307Y-15626148D01*
X15960307Y-15626148D02*
X15988878Y-15626148D01*
X15988878Y-15626148D02*
X16007926Y-15635671D01*
X16007926Y-15635671D02*
X16017450Y-15654719D01*
X16017450Y-15654719D02*
X16017450Y-15759481D01*
X16017450Y-15654719D02*
X16026973Y-15635671D01*
X16026973Y-15635671D02*
X16046021Y-15626148D01*
X16046021Y-15626148D02*
X16074592Y-15626148D01*
X16074592Y-15626148D02*
X16093640Y-15635671D01*
X16093640Y-15635671D02*
X16103164Y-15654719D01*
X16103164Y-15654719D02*
X16103164Y-15759481D01*
X16198402Y-15759481D02*
X16198402Y-15626148D01*
X16198402Y-15645195D02*
X16207926Y-15635671D01*
X16207926Y-15635671D02*
X16226973Y-15626148D01*
X16226973Y-15626148D02*
X16255545Y-15626148D01*
X16255545Y-15626148D02*
X16274592Y-15635671D01*
X16274592Y-15635671D02*
X16284116Y-15654719D01*
X16284116Y-15654719D02*
X16284116Y-15759481D01*
X16284116Y-15654719D02*
X16293640Y-15635671D01*
X16293640Y-15635671D02*
X16312688Y-15626148D01*
X16312688Y-15626148D02*
X16341259Y-15626148D01*
X16341259Y-15626148D02*
X16360307Y-15635671D01*
X16360307Y-15635671D02*
X16369831Y-15654719D01*
X16369831Y-15654719D02*
X16369831Y-15759481D01*
X16760307Y-15549957D02*
X16588878Y-15807100D01*
X17017450Y-15559481D02*
X17036497Y-15559481D01*
X17036497Y-15559481D02*
X17055545Y-15569005D01*
X17055545Y-15569005D02*
X17065069Y-15578529D01*
X17065069Y-15578529D02*
X17074593Y-15597576D01*
X17074593Y-15597576D02*
X17084116Y-15635671D01*
X17084116Y-15635671D02*
X17084116Y-15683291D01*
X17084116Y-15683291D02*
X17074593Y-15721386D01*
X17074593Y-15721386D02*
X17065069Y-15740433D01*
X17065069Y-15740433D02*
X17055545Y-15749957D01*
X17055545Y-15749957D02*
X17036497Y-15759481D01*
X17036497Y-15759481D02*
X17017450Y-15759481D01*
X17017450Y-15759481D02*
X16998402Y-15749957D01*
X16998402Y-15749957D02*
X16988878Y-15740433D01*
X16988878Y-15740433D02*
X16979355Y-15721386D01*
X16979355Y-15721386D02*
X16969831Y-15683291D01*
X16969831Y-15683291D02*
X16969831Y-15635671D01*
X16969831Y-15635671D02*
X16979355Y-15597576D01*
X16979355Y-15597576D02*
X16988878Y-15578529D01*
X16988878Y-15578529D02*
X16998402Y-15569005D01*
X16998402Y-15569005D02*
X17017450Y-15559481D01*
X17169831Y-15740433D02*
X17179355Y-15749957D01*
X17179355Y-15749957D02*
X17169831Y-15759481D01*
X17169831Y-15759481D02*
X17160307Y-15749957D01*
X17160307Y-15749957D02*
X17169831Y-15740433D01*
X17169831Y-15740433D02*
X17169831Y-15759481D01*
X17303164Y-15559481D02*
X17322212Y-15559481D01*
X17322212Y-15559481D02*
X17341259Y-15569005D01*
X17341259Y-15569005D02*
X17350783Y-15578529D01*
X17350783Y-15578529D02*
X17360307Y-15597576D01*
X17360307Y-15597576D02*
X17369831Y-15635671D01*
X17369831Y-15635671D02*
X17369831Y-15683291D01*
X17369831Y-15683291D02*
X17360307Y-15721386D01*
X17360307Y-15721386D02*
X17350783Y-15740433D01*
X17350783Y-15740433D02*
X17341259Y-15749957D01*
X17341259Y-15749957D02*
X17322212Y-15759481D01*
X17322212Y-15759481D02*
X17303164Y-15759481D01*
X17303164Y-15759481D02*
X17284116Y-15749957D01*
X17284116Y-15749957D02*
X17274593Y-15740433D01*
X17274593Y-15740433D02*
X17265069Y-15721386D01*
X17265069Y-15721386D02*
X17255545Y-15683291D01*
X17255545Y-15683291D02*
X17255545Y-15635671D01*
X17255545Y-15635671D02*
X17265069Y-15597576D01*
X17265069Y-15597576D02*
X17274593Y-15578529D01*
X17274593Y-15578529D02*
X17284116Y-15569005D01*
X17284116Y-15569005D02*
X17303164Y-15559481D01*
X17465069Y-15759481D02*
X17503164Y-15759481D01*
X17503164Y-15759481D02*
X17522212Y-15749957D01*
X17522212Y-15749957D02*
X17531736Y-15740433D01*
X17531736Y-15740433D02*
X17550783Y-15711862D01*
X17550783Y-15711862D02*
X17560307Y-15673767D01*
X17560307Y-15673767D02*
X17560307Y-15597576D01*
X17560307Y-15597576D02*
X17550783Y-15578529D01*
X17550783Y-15578529D02*
X17541259Y-15569005D01*
X17541259Y-15569005D02*
X17522212Y-15559481D01*
X17522212Y-15559481D02*
X17484116Y-15559481D01*
X17484116Y-15559481D02*
X17465069Y-15569005D01*
X17465069Y-15569005D02*
X17455545Y-15578529D01*
X17455545Y-15578529D02*
X17446021Y-15597576D01*
X17446021Y-15597576D02*
X17446021Y-15645195D01*
X17446021Y-15645195D02*
X17455545Y-15664243D01*
X17455545Y-15664243D02*
X17465069Y-15673767D01*
X17465069Y-15673767D02*
X17484116Y-15683291D01*
X17484116Y-15683291D02*
X17522212Y-15683291D01*
X17522212Y-15683291D02*
X17541259Y-15673767D01*
X17541259Y-15673767D02*
X17550783Y-15664243D01*
X17550783Y-15664243D02*
X17560307Y-15645195D01*
X17731736Y-15626148D02*
X17731736Y-15759481D01*
X17684116Y-15549957D02*
X17636497Y-15692814D01*
X17636497Y-15692814D02*
X17760307Y-15692814D01*
X17931736Y-15559481D02*
X17836497Y-15559481D01*
X17836497Y-15559481D02*
X17826974Y-15654719D01*
X17826974Y-15654719D02*
X17836497Y-15645195D01*
X17836497Y-15645195D02*
X17855545Y-15635671D01*
X17855545Y-15635671D02*
X17903164Y-15635671D01*
X17903164Y-15635671D02*
X17922212Y-15645195D01*
X17922212Y-15645195D02*
X17931736Y-15654719D01*
X17931736Y-15654719D02*
X17941259Y-15673767D01*
X17941259Y-15673767D02*
X17941259Y-15721386D01*
X17941259Y-15721386D02*
X17931736Y-15740433D01*
X17931736Y-15740433D02*
X17922212Y-15749957D01*
X17922212Y-15749957D02*
X17903164Y-15759481D01*
X17903164Y-15759481D02*
X17855545Y-15759481D01*
X17855545Y-15759481D02*
X17836497Y-15749957D01*
X17836497Y-15749957D02*
X17826974Y-15740433D01*
X18017450Y-15559481D02*
X18017450Y-15597576D01*
X18093640Y-15559481D02*
X18093640Y-15597576D01*
X18388879Y-15835671D02*
X18379355Y-15826148D01*
X18379355Y-15826148D02*
X18360307Y-15797576D01*
X18360307Y-15797576D02*
X18350783Y-15778529D01*
X18350783Y-15778529D02*
X18341259Y-15749957D01*
X18341259Y-15749957D02*
X18331736Y-15702338D01*
X18331736Y-15702338D02*
X18331736Y-15664243D01*
X18331736Y-15664243D02*
X18341259Y-15616624D01*
X18341259Y-15616624D02*
X18350783Y-15588052D01*
X18350783Y-15588052D02*
X18360307Y-15569005D01*
X18360307Y-15569005D02*
X18379355Y-15540433D01*
X18379355Y-15540433D02*
X18388879Y-15530910D01*
X18455545Y-15578529D02*
X18465069Y-15569005D01*
X18465069Y-15569005D02*
X18484117Y-15559481D01*
X18484117Y-15559481D02*
X18531736Y-15559481D01*
X18531736Y-15559481D02*
X18550783Y-15569005D01*
X18550783Y-15569005D02*
X18560307Y-15578529D01*
X18560307Y-15578529D02*
X18569831Y-15597576D01*
X18569831Y-15597576D02*
X18569831Y-15616624D01*
X18569831Y-15616624D02*
X18560307Y-15645195D01*
X18560307Y-15645195D02*
X18446021Y-15759481D01*
X18446021Y-15759481D02*
X18569831Y-15759481D01*
X18807926Y-15759481D02*
X18807926Y-15559481D01*
X18893640Y-15759481D02*
X18893640Y-15654719D01*
X18893640Y-15654719D02*
X18884117Y-15635671D01*
X18884117Y-15635671D02*
X18865069Y-15626148D01*
X18865069Y-15626148D02*
X18836498Y-15626148D01*
X18836498Y-15626148D02*
X18817450Y-15635671D01*
X18817450Y-15635671D02*
X18807926Y-15645195D01*
X19017450Y-15759481D02*
X18998402Y-15749957D01*
X18998402Y-15749957D02*
X18988879Y-15740433D01*
X18988879Y-15740433D02*
X18979355Y-15721386D01*
X18979355Y-15721386D02*
X18979355Y-15664243D01*
X18979355Y-15664243D02*
X18988879Y-15645195D01*
X18988879Y-15645195D02*
X18998402Y-15635671D01*
X18998402Y-15635671D02*
X19017450Y-15626148D01*
X19017450Y-15626148D02*
X19046021Y-15626148D01*
X19046021Y-15626148D02*
X19065069Y-15635671D01*
X19065069Y-15635671D02*
X19074593Y-15645195D01*
X19074593Y-15645195D02*
X19084117Y-15664243D01*
X19084117Y-15664243D02*
X19084117Y-15721386D01*
X19084117Y-15721386D02*
X19074593Y-15740433D01*
X19074593Y-15740433D02*
X19065069Y-15749957D01*
X19065069Y-15749957D02*
X19046021Y-15759481D01*
X19046021Y-15759481D02*
X19017450Y-15759481D01*
X19198402Y-15759481D02*
X19179355Y-15749957D01*
X19179355Y-15749957D02*
X19169831Y-15730910D01*
X19169831Y-15730910D02*
X19169831Y-15559481D01*
X19350783Y-15749957D02*
X19331736Y-15759481D01*
X19331736Y-15759481D02*
X19293640Y-15759481D01*
X19293640Y-15759481D02*
X19274593Y-15749957D01*
X19274593Y-15749957D02*
X19265069Y-15730910D01*
X19265069Y-15730910D02*
X19265069Y-15654719D01*
X19265069Y-15654719D02*
X19274593Y-15635671D01*
X19274593Y-15635671D02*
X19293640Y-15626148D01*
X19293640Y-15626148D02*
X19331736Y-15626148D01*
X19331736Y-15626148D02*
X19350783Y-15635671D01*
X19350783Y-15635671D02*
X19360307Y-15654719D01*
X19360307Y-15654719D02*
X19360307Y-15673767D01*
X19360307Y-15673767D02*
X19265069Y-15692814D01*
X19436498Y-15749957D02*
X19455545Y-15759481D01*
X19455545Y-15759481D02*
X19493640Y-15759481D01*
X19493640Y-15759481D02*
X19512688Y-15749957D01*
X19512688Y-15749957D02*
X19522212Y-15730910D01*
X19522212Y-15730910D02*
X19522212Y-15721386D01*
X19522212Y-15721386D02*
X19512688Y-15702338D01*
X19512688Y-15702338D02*
X19493640Y-15692814D01*
X19493640Y-15692814D02*
X19465069Y-15692814D01*
X19465069Y-15692814D02*
X19446021Y-15683291D01*
X19446021Y-15683291D02*
X19436498Y-15664243D01*
X19436498Y-15664243D02*
X19436498Y-15654719D01*
X19436498Y-15654719D02*
X19446021Y-15635671D01*
X19446021Y-15635671D02*
X19465069Y-15626148D01*
X19465069Y-15626148D02*
X19493640Y-15626148D01*
X19493640Y-15626148D02*
X19512688Y-15635671D01*
X19588879Y-15835671D02*
X19598402Y-15826148D01*
X19598402Y-15826148D02*
X19617450Y-15797576D01*
X19617450Y-15797576D02*
X19626974Y-15778529D01*
X19626974Y-15778529D02*
X19636498Y-15749957D01*
X19636498Y-15749957D02*
X19646021Y-15702338D01*
X19646021Y-15702338D02*
X19646021Y-15664243D01*
X19646021Y-15664243D02*
X19636498Y-15616624D01*
X19636498Y-15616624D02*
X19626974Y-15588052D01*
X19626974Y-15588052D02*
X19617450Y-15569005D01*
X19617450Y-15569005D02*
X19598402Y-15540433D01*
X19598402Y-15540433D02*
X19588879Y-15530910D01*
X19950783Y-15835671D02*
X19941260Y-15826148D01*
X19941260Y-15826148D02*
X19922212Y-15797576D01*
X19922212Y-15797576D02*
X19912688Y-15778529D01*
X19912688Y-15778529D02*
X19903164Y-15749957D01*
X19903164Y-15749957D02*
X19893641Y-15702338D01*
X19893641Y-15702338D02*
X19893641Y-15664243D01*
X19893641Y-15664243D02*
X19903164Y-15616624D01*
X19903164Y-15616624D02*
X19912688Y-15588052D01*
X19912688Y-15588052D02*
X19922212Y-15569005D01*
X19922212Y-15569005D02*
X19941260Y-15540433D01*
X19941260Y-15540433D02*
X19950783Y-15530910D01*
X20026974Y-15626148D02*
X20026974Y-15759481D01*
X20026974Y-15645195D02*
X20036498Y-15635671D01*
X20036498Y-15635671D02*
X20055545Y-15626148D01*
X20055545Y-15626148D02*
X20084117Y-15626148D01*
X20084117Y-15626148D02*
X20103164Y-15635671D01*
X20103164Y-15635671D02*
X20112688Y-15654719D01*
X20112688Y-15654719D02*
X20112688Y-15759481D01*
X20236498Y-15759481D02*
X20217450Y-15749957D01*
X20217450Y-15749957D02*
X20207926Y-15740433D01*
X20207926Y-15740433D02*
X20198402Y-15721386D01*
X20198402Y-15721386D02*
X20198402Y-15664243D01*
X20198402Y-15664243D02*
X20207926Y-15645195D01*
X20207926Y-15645195D02*
X20217450Y-15635671D01*
X20217450Y-15635671D02*
X20236498Y-15626148D01*
X20236498Y-15626148D02*
X20265069Y-15626148D01*
X20265069Y-15626148D02*
X20284117Y-15635671D01*
X20284117Y-15635671D02*
X20293641Y-15645195D01*
X20293641Y-15645195D02*
X20303164Y-15664243D01*
X20303164Y-15664243D02*
X20303164Y-15721386D01*
X20303164Y-15721386D02*
X20293641Y-15740433D01*
X20293641Y-15740433D02*
X20284117Y-15749957D01*
X20284117Y-15749957D02*
X20265069Y-15759481D01*
X20265069Y-15759481D02*
X20236498Y-15759481D01*
X20360307Y-15626148D02*
X20436498Y-15626148D01*
X20388879Y-15559481D02*
X20388879Y-15730910D01*
X20388879Y-15730910D02*
X20398402Y-15749957D01*
X20398402Y-15749957D02*
X20417450Y-15759481D01*
X20417450Y-15759481D02*
X20436498Y-15759481D01*
X20655545Y-15626148D02*
X20655545Y-15826148D01*
X20655545Y-15635671D02*
X20674593Y-15626148D01*
X20674593Y-15626148D02*
X20712688Y-15626148D01*
X20712688Y-15626148D02*
X20731736Y-15635671D01*
X20731736Y-15635671D02*
X20741260Y-15645195D01*
X20741260Y-15645195D02*
X20750783Y-15664243D01*
X20750783Y-15664243D02*
X20750783Y-15721386D01*
X20750783Y-15721386D02*
X20741260Y-15740433D01*
X20741260Y-15740433D02*
X20731736Y-15749957D01*
X20731736Y-15749957D02*
X20712688Y-15759481D01*
X20712688Y-15759481D02*
X20674593Y-15759481D01*
X20674593Y-15759481D02*
X20655545Y-15749957D01*
X20865069Y-15759481D02*
X20846022Y-15749957D01*
X20846022Y-15749957D02*
X20836498Y-15730910D01*
X20836498Y-15730910D02*
X20836498Y-15559481D01*
X21026974Y-15759481D02*
X21026974Y-15654719D01*
X21026974Y-15654719D02*
X21017450Y-15635671D01*
X21017450Y-15635671D02*
X20998403Y-15626148D01*
X20998403Y-15626148D02*
X20960307Y-15626148D01*
X20960307Y-15626148D02*
X20941260Y-15635671D01*
X21026974Y-15749957D02*
X21007926Y-15759481D01*
X21007926Y-15759481D02*
X20960307Y-15759481D01*
X20960307Y-15759481D02*
X20941260Y-15749957D01*
X20941260Y-15749957D02*
X20931736Y-15730910D01*
X20931736Y-15730910D02*
X20931736Y-15711862D01*
X20931736Y-15711862D02*
X20941260Y-15692814D01*
X20941260Y-15692814D02*
X20960307Y-15683291D01*
X20960307Y-15683291D02*
X21007926Y-15683291D01*
X21007926Y-15683291D02*
X21026974Y-15673767D01*
X21093641Y-15626148D02*
X21169831Y-15626148D01*
X21122212Y-15559481D02*
X21122212Y-15730910D01*
X21122212Y-15730910D02*
X21131736Y-15749957D01*
X21131736Y-15749957D02*
X21150783Y-15759481D01*
X21150783Y-15759481D02*
X21169831Y-15759481D01*
X21312688Y-15749957D02*
X21293641Y-15759481D01*
X21293641Y-15759481D02*
X21255545Y-15759481D01*
X21255545Y-15759481D02*
X21236498Y-15749957D01*
X21236498Y-15749957D02*
X21226974Y-15730910D01*
X21226974Y-15730910D02*
X21226974Y-15654719D01*
X21226974Y-15654719D02*
X21236498Y-15635671D01*
X21236498Y-15635671D02*
X21255545Y-15626148D01*
X21255545Y-15626148D02*
X21293641Y-15626148D01*
X21293641Y-15626148D02*
X21312688Y-15635671D01*
X21312688Y-15635671D02*
X21322212Y-15654719D01*
X21322212Y-15654719D02*
X21322212Y-15673767D01*
X21322212Y-15673767D02*
X21226974Y-15692814D01*
X21493641Y-15759481D02*
X21493641Y-15559481D01*
X21493641Y-15749957D02*
X21474593Y-15759481D01*
X21474593Y-15759481D02*
X21436498Y-15759481D01*
X21436498Y-15759481D02*
X21417450Y-15749957D01*
X21417450Y-15749957D02*
X21407926Y-15740433D01*
X21407926Y-15740433D02*
X21398403Y-15721386D01*
X21398403Y-15721386D02*
X21398403Y-15664243D01*
X21398403Y-15664243D02*
X21407926Y-15645195D01*
X21407926Y-15645195D02*
X21417450Y-15635671D01*
X21417450Y-15635671D02*
X21436498Y-15626148D01*
X21436498Y-15626148D02*
X21474593Y-15626148D01*
X21474593Y-15626148D02*
X21493641Y-15635671D01*
X21569831Y-15835671D02*
X21579355Y-15826148D01*
X21579355Y-15826148D02*
X21598403Y-15797576D01*
X21598403Y-15797576D02*
X21607926Y-15778529D01*
X21607926Y-15778529D02*
X21617450Y-15749957D01*
X21617450Y-15749957D02*
X21626974Y-15702338D01*
X21626974Y-15702338D02*
X21626974Y-15664243D01*
X21626974Y-15664243D02*
X21617450Y-15616624D01*
X21617450Y-15616624D02*
X21607926Y-15588052D01*
X21607926Y-15588052D02*
X21598403Y-15569005D01*
X21598403Y-15569005D02*
X21579355Y-15540433D01*
X21579355Y-15540433D02*
X21569831Y-15530910D01*
M02*
