M48
; DRILL file {KiCad 8.0.6} date 2025-07-20T08:59:58-0500
; FORMAT={-:-/ absolute / inch / decimal}
; #@! TF.CreationDate,2025-07-20T08:59:58-05:00
; #@! TF.GenerationSoftware,Kicad,Pcbnew,8.0.6
; #@! TF.FileFunction,Plated,1,2,PTH
FMAT,2
INCH
; #@! TA.AperFunction,Plated,PTH,ViaDrill
T1C0.0118
; #@! TA.AperFunction,Plated,PTH,ComponentDrill
T2C0.0118
; #@! TA.AperFunction,Plated,PTH,ComponentDrill
T3C0.0315
; #@! TA.AperFunction,Plated,PTH,ComponentDrill
T4C0.0354
; #@! TA.AperFunction,Plated,PTH,ComponentDrill
T5C0.0354
; #@! TA.AperFunction,Plated,PTH,ComponentDrill
T6C0.0394
; #@! TA.AperFunction,Plated,PTH,ComponentDrill
T7C0.0512
; #@! TA.AperFunction,Plated,PTH,ComponentDrill
T8C0.0905
%
G90
G05
T1
X6.4463Y-4.6838
X6.4603Y-4.7606
X6.5882Y-3.7426
X6.6077Y-3.0631
X6.6244Y-2.2003
X6.7184Y-3.5436
X6.8708Y-1.7603
X6.9702Y-2.6787
X6.9963Y-2.975
X7.166Y-3.7829
X7.1805Y-5.3456
X7.2319Y-3.8501
X7.2549Y-4.1566
X7.2669Y-2.9096
X7.2723Y-2.7556
X7.2751Y-2.9579
X7.2884Y-3.0478
X7.3099Y-1.6452
X7.3129Y-2.9646
X7.4055Y-4.6168
X7.4201Y-4.5774
X7.4541Y-3.196
X7.4623Y-2.032
X7.4778Y-2.1426
X7.6706Y-4.2092
X7.6799Y-2.6771
X7.7Y-4.0946
X7.7144Y-3.1863
X7.7442Y-3.6195
X7.7453Y-4.3064
X7.7502Y-3.8812
X7.7579Y-3.6981
X7.7846Y-4.196
X7.7907Y-3.9303
X7.7942Y-4.1329
X7.7945Y-1.8755
X7.8064Y-3.7876
X7.8088Y-2.131
X7.8858Y-2.7996
X7.9142Y-5.1231
X7.9153Y-4.9729
X8.0064Y-2.232
X8.051Y-4.756
X8.116Y-1.6873
X8.1302Y-2.5656
X8.1618Y-5.3756
X8.2231Y-3.5108
X8.2917Y-4.9878
X8.3214Y-2.8676
X8.3267Y-4.8086
X8.3411Y-2.0295
X8.357Y-3.396
X8.3649Y-3.2518
X8.4052Y-3.4404
X8.408Y-5.3569
X8.4089Y-3.7235
X8.4181Y-3.1394
X8.44Y-4.1636
X8.4452Y-1.623
X8.4577Y-2.6756
X8.4598Y-4.2946
X8.4666Y-3.3496
X8.4747Y-3.6011
X8.4801Y-2.9645
X8.5433Y-3.0683
X8.5732Y-4.9361
X8.5799Y-2.623
X8.58Y-2.6593
X8.5892Y-5.0353
X8.5907Y-2.5757
X8.6181Y-4.1192
X8.6208Y-4.7913
X8.6927Y-2.3866
X8.7Y-5.201
X8.7199Y-5.5919
X8.732Y-2.717
X8.7374Y-2.7498
X8.755Y-4.5409
X8.7625Y-2.9881
X8.7731Y-5.5147
X8.813Y-3.9209
X8.8147Y-5.2272
X8.8154Y-4.8181
X8.8596Y-3.9856
X8.9525Y-5.5647
X9.0045Y-2.1677
X9.0073Y-3.9439
X9.0326Y-3.3401
X9.0385Y-2.3848
X9.0734Y-5.1171
X9.0762Y-3.768
X9.1025Y-5.5359
X9.2286Y-4.5259
X9.2955Y-3.4573
X9.3493Y-3.7738
X9.36Y-3.335
X9.4246Y-4.1916
X9.487Y-5.2517
X9.5313Y-3.984
X9.683Y-4.8882
X9.7201Y-4.5846
X9.7216Y-3.6235
X9.7904Y-4.4007
X9.8771Y-3.7822
X9.9121Y-4.136
X9.9439Y-3.383
X9.9439Y-3.5126
X9.9542Y-4.5642
X9.9621Y-3.8068
X10.0712Y-4.579
X10.0993Y-4.597
X10.1061Y-2.855
X10.1546Y-2.755
X10.3699Y-2.9368
X10.3818Y-2.9822
X10.3939Y-4.1898
X10.4185Y-4.1379
X10.4968Y-4.9666
X10.7051Y-2.6305
X10.7755Y-5.2005
X10.8844Y-2.52
X10.8998Y-4.1011
X10.9319Y-3.4887
X10.9325Y-3.0259
X10.9455Y-3.0891
X10.953Y-3.1928
X11.0164Y-3.0267
X11.0229Y-2.9081
X11.0401Y-3.699
X11.1271Y-4.1562
X11.1747Y-5.4941
X11.187Y-4.2605
X11.1988Y-2.7719
X11.2352Y-4.8816
X11.3159Y-5.5403
X11.3477Y-5.5503
X11.4667Y-5.5835
X11.4858Y-4.3026
X11.5154Y-5.3831
X11.5549Y-5.4354
X11.5734Y-5.0786
X11.5762Y-5.5839
X11.612Y-4.9718
X11.6676Y-4.9729
X11.6927Y-5.4694
X11.6993Y-4.8391
X11.8355Y-5.1836
X11.8856Y-3.0969
X11.9228Y-3.0585
X11.9322Y-5.1149
X11.9324Y-4.6417
X12.0353Y-4.6921
X12.3742Y-4.8571
X12.4022Y-4.6407
T2
X9.9728Y-4.272
X10.02Y-4.272
T3
X5.98Y-1.76
X5.98Y-1.86
X5.98Y-1.96
X5.98Y-2.06
X5.98Y-2.16
X5.98Y-2.26
X5.98Y-2.36
X5.98Y-2.46
X5.9871Y-5.428
X6.052Y-3.604
X6.052Y-3.704
X6.052Y-3.804
X6.052Y-3.904
X6.052Y-4.004
X6.052Y-4.104
X6.052Y-4.204
X6.052Y-4.304
X6.052Y-4.404
X6.08Y-4.63
X6.08Y-4.73
X6.08Y-4.83
X6.08Y-4.93
X6.08Y-5.03
X6.08Y-5.13
X6.08Y-5.23
X6.184Y-5.428
X6.24Y-4.0336
X6.24Y-4.193
X6.251Y-3.7964
X6.28Y-1.76
X6.28Y-1.86
X6.28Y-1.96
X6.28Y-2.06
X6.28Y-2.16
X6.28Y-2.26
X6.28Y-2.36
X6.28Y-2.46
X6.38Y-4.63
X6.38Y-4.73
X6.38Y-4.83
X6.38Y-4.93
X6.38Y-5.03
X6.38Y-5.13
X6.38Y-5.23
X6.54Y-4.0336
X6.54Y-4.193
X6.5481Y-5.437
X6.551Y-3.7964
X6.5521Y-2.7058
X6.5521Y-2.9027
X6.556Y-1.7419
X6.556Y-1.8419
X6.556Y-1.9419
X6.556Y-2.0419
X6.556Y-2.1419
X6.556Y-2.2419
X6.556Y-2.3419
X6.556Y-2.4419
X6.556Y-2.5419
X6.721Y-4.655
X6.721Y-4.755
X6.721Y-4.855
X6.721Y-4.955
X6.721Y-5.055
X6.721Y-5.155
X6.721Y-5.255
X6.745Y-5.437
X6.752Y-2.725
X6.752Y-2.825
X6.752Y-2.925
X6.752Y-3.025
X6.752Y-3.125
X6.752Y-3.225
X6.752Y-3.325
X6.7864Y-3.6998
X6.7864Y-3.7998
X6.7864Y-3.8998
X6.7864Y-3.9998
X6.7864Y-4.0998
X6.7864Y-4.1998
X6.7864Y-4.2998
X6.796Y-1.732
X6.796Y-1.832
X6.796Y-1.932
X6.796Y-2.032
X6.796Y-2.132
X6.796Y-2.232
X6.796Y-2.332
X7.021Y-4.655
X7.021Y-4.755
X7.021Y-4.855
X7.021Y-4.955
X7.021Y-5.055
X7.021Y-5.155
X7.021Y-5.255
X7.052Y-2.725
X7.052Y-2.825
X7.052Y-2.925
X7.052Y-3.025
X7.052Y-3.125
X7.052Y-3.225
X7.052Y-3.325
X7.0841Y-3.547
X7.0864Y-3.6998
X7.0864Y-3.7998
X7.0864Y-3.8998
X7.0864Y-3.9998
X7.0864Y-4.0998
X7.0864Y-4.1998
X7.0864Y-4.2998
X7.0901Y-2.557
X7.096Y-1.732
X7.096Y-1.832
X7.096Y-1.932
X7.096Y-2.032
X7.096Y-2.132
X7.096Y-2.232
X7.096Y-2.332
X7.1966Y-4.687
X7.2331Y-1.72
X7.281Y-3.547
X7.287Y-2.557
X7.295Y-4.687
X7.33Y-5.0811
X7.33Y-5.278
X7.365Y-3.8271
X7.365Y-4.024
X7.387Y-2.2021
X7.387Y-2.399
X7.43Y-1.72
X7.4306Y-2.712
X7.529Y-2.712
X7.536Y-4.347
X7.536Y-4.447
X7.536Y-4.547
X7.536Y-4.647
X7.536Y-4.747
X7.536Y-4.847
X7.536Y-4.947
X7.536Y-5.047
X7.536Y-5.147
X7.536Y-5.247
X7.58Y-1.732
X7.58Y-1.832
X7.58Y-1.932
X7.58Y-2.032
X7.58Y-2.132
X7.58Y-2.232
X7.58Y-2.332
X7.58Y-3.096
X7.58Y-3.196
X7.58Y-3.296
X7.58Y-3.396
X7.58Y-3.496
X7.58Y-3.596
X7.58Y-3.696
X7.58Y-3.796
X7.58Y-3.896
X7.58Y-3.996
X7.836Y-4.347
X7.836Y-4.447
X7.836Y-4.547
X7.836Y-4.647
X7.836Y-4.747
X7.836Y-4.847
X7.836Y-4.947
X7.836Y-5.047
X7.836Y-5.147
X7.836Y-5.247
X7.88Y-1.732
X7.88Y-1.832
X7.88Y-1.932
X7.88Y-2.032
X7.88Y-2.132
X7.88Y-2.232
X7.88Y-2.332
X7.88Y-3.096
X7.88Y-3.196
X7.88Y-3.296
X7.88Y-3.396
X7.88Y-3.496
X7.88Y-3.596
X7.88Y-3.696
X7.88Y-3.796
X7.88Y-3.896
X7.88Y-3.996
X7.9921Y-5.2068
X7.9921Y-5.4037
X7.994Y-4.604
X7.994Y-4.8009
X7.9959Y-4.3103
X7.9959Y-4.5072
X7.996Y-4.8991
X7.996Y-5.096
X8.189Y-1.71
X8.189Y-1.81
X8.189Y-1.91
X8.189Y-2.01
X8.189Y-2.11
X8.189Y-2.21
X8.189Y-2.31
X8.189Y-2.41
X8.189Y-2.51
X8.189Y-2.61
X8.189Y-4.357
X8.189Y-4.457
X8.189Y-4.557
X8.189Y-4.657
X8.189Y-4.757
X8.189Y-4.857
X8.189Y-4.957
X8.189Y-5.057
X8.189Y-5.157
X8.189Y-5.257
X8.489Y-1.71
X8.489Y-1.81
X8.489Y-1.91
X8.489Y-2.01
X8.489Y-2.11
X8.489Y-2.21
X8.489Y-2.31
X8.489Y-2.41
X8.489Y-2.51
X8.489Y-2.61
X8.489Y-4.357
X8.489Y-4.457
X8.489Y-4.557
X8.489Y-4.657
X8.489Y-4.757
X8.489Y-4.857
X8.489Y-4.957
X8.489Y-5.057
X8.489Y-5.157
X8.489Y-5.257
X8.58Y-4.163
X8.5804Y-3.4446
X8.5804Y-3.5446
X8.5804Y-3.6446
X8.5804Y-3.7446
X8.5804Y-3.8446
X8.647Y-5.2541
X8.647Y-5.451
X8.6551Y-1.7228
X8.6551Y-1.9197
X8.696Y-4.3471
X8.696Y-4.544
X8.697Y-4.936
X8.697Y-5.1329
X8.698Y-4.6401
X8.698Y-4.837
X8.88Y-4.163
X8.8804Y-3.4446
X8.8804Y-3.5446
X8.8804Y-3.6446
X8.8804Y-3.7446
X8.8804Y-3.8446
X8.885Y-4.58
X8.8897Y-4.7051
X8.8917Y-4.8261
X8.8917Y-4.9501
X8.8947Y-5.0691
X8.896Y-5.191
X8.896Y-5.313
X8.8967Y-5.4351
X8.984Y-2.2561
X8.984Y-2.453
X9.1781Y-4.369
X9.185Y-4.58
X9.1897Y-4.7051
X9.1917Y-4.8261
X9.1917Y-4.9501
X9.1947Y-5.0691
X9.196Y-5.191
X9.196Y-5.313
X9.1967Y-5.4351
X9.198Y-1.735
X9.198Y-1.835
X9.198Y-1.935
X9.198Y-2.035
X9.198Y-2.135
X9.198Y-2.235
X9.198Y-2.335
X9.198Y-2.435
X9.2Y-2.98
X9.2Y-3.08
X9.2Y-3.18
X9.2Y-3.28
X9.2Y-3.38
X9.2Y-3.48
X9.2Y-3.58
X9.2Y-3.68
X9.2Y-3.78
X9.2Y-3.88
X9.2418Y-2.7009
X9.375Y-4.369
X9.4387Y-2.7009
X9.498Y-1.735
X9.498Y-1.835
X9.498Y-1.935
X9.498Y-2.035
X9.498Y-2.135
X9.498Y-2.235
X9.498Y-2.335
X9.498Y-2.435
X9.5Y-2.98
X9.5Y-3.08
X9.5Y-3.18
X9.5Y-3.28
X9.5Y-3.38
X9.5Y-3.48
X9.5Y-3.58
X9.5Y-3.68
X9.5Y-3.78
X9.5Y-3.88
X9.77Y-3.357
X9.77Y-3.457
X9.77Y-3.557
X9.77Y-3.657
X9.77Y-3.757
X9.77Y-3.857
X9.77Y-3.957
X9.77Y-4.057
X9.77Y-4.157
X9.8207Y-2.0137
X9.9192Y-2.0137
X10.022Y-2.255
X10.022Y-2.355
X10.022Y-2.455
X10.022Y-2.555
X10.022Y-2.655
X10.022Y-2.755
X10.022Y-2.855
X10.022Y-2.955
X10.022Y-3.055
X10.022Y-3.155
X10.022Y-3.255
X10.022Y-3.355
X10.022Y-3.455
X10.022Y-3.555
X10.022Y-3.655
X10.022Y-3.755
X10.022Y-3.855
X10.022Y-3.955
X10.022Y-4.055
X10.022Y-4.155
X10.261Y-5.0411
X10.261Y-5.238
X10.4098Y-2.0609
X10.538Y-5.015
X10.538Y-5.315
X10.6067Y-2.0609
X10.622Y-2.255
X10.622Y-2.355
X10.622Y-2.455
X10.622Y-2.555
X10.622Y-2.655
X10.622Y-2.755
X10.622Y-2.855
X10.622Y-2.955
X10.622Y-3.055
X10.622Y-3.155
X10.622Y-3.255
X10.622Y-3.355
X10.622Y-3.455
X10.622Y-3.555
X10.622Y-3.655
X10.622Y-3.755
X10.622Y-3.855
X10.622Y-3.955
X10.622Y-4.055
X10.622Y-4.155
X10.638Y-5.015
X10.638Y-5.315
X10.738Y-5.015
X10.738Y-5.315
X10.8Y-2.27
X10.8Y-2.37
X10.8Y-2.47
X10.8Y-2.57
X10.8Y-2.67
X10.8Y-2.77
X10.8Y-2.87
X10.8Y-2.97
X10.8Y-3.07
X10.8Y-3.17
X10.838Y-5.015
X10.838Y-5.315
X10.938Y-5.015
X10.938Y-5.315
X11.038Y-5.015
X11.038Y-5.315
X11.1Y-2.27
X11.1Y-2.37
X11.1Y-2.47
X11.1Y-2.57
X11.1Y-2.67
X11.1Y-2.77
X11.1Y-2.87
X11.1Y-2.97
X11.1Y-3.07
X11.1Y-3.17
X11.138Y-5.015
X11.138Y-5.315
X11.238Y-5.015
X11.238Y-5.315
X11.25Y-3.31
X11.25Y-3.41
X11.25Y-3.51
X11.25Y-3.61
X11.25Y-3.71
X11.25Y-3.81
X11.25Y-3.91
X11.25Y-4.01
X11.25Y-4.11
X11.25Y-4.21
X11.2918Y-2.2809
X11.338Y-5.015
X11.338Y-5.315
X11.438Y-5.015
X11.438Y-5.315
X11.4887Y-2.2809
X11.55Y-3.31
X11.55Y-3.41
X11.55Y-3.51
X11.55Y-3.61
X11.55Y-3.71
X11.55Y-3.81
X11.55Y-3.91
X11.55Y-4.01
X11.55Y-4.11
X11.55Y-4.21
X11.76Y-3.64
X11.76Y-3.74
X11.76Y-3.84
X11.76Y-3.94
X11.76Y-4.04
X11.76Y-4.14
X11.76Y-4.24
X11.77Y-2.77
X11.77Y-2.87
X11.77Y-2.97
X11.77Y-3.07
X11.77Y-3.17
X11.77Y-3.27
X11.77Y-3.37
X11.813Y-1.739
X11.813Y-1.839
X11.813Y-1.939
X11.813Y-2.039
X11.813Y-2.139
X11.813Y-2.239
X11.813Y-2.339
X11.813Y-2.439
X11.813Y-2.539
X11.8926Y-5.2
X11.991Y-5.2
X12.06Y-3.64
X12.06Y-3.74
X12.06Y-3.84
X12.06Y-3.94
X12.06Y-4.04
X12.06Y-4.14
X12.06Y-4.24
X12.07Y-2.77
X12.07Y-2.87
X12.07Y-2.97
X12.07Y-3.07
X12.07Y-3.17
X12.07Y-3.27
X12.07Y-3.37
X12.35Y-4.0331
X12.35Y-4.23
T4
X12.3836Y-3.7207
X12.3856Y-3.4531
X12.3895Y-2.9911
X12.3915Y-2.7235
X12.482Y-3.4531
X12.482Y-3.5358
X12.482Y-3.638
X12.482Y-3.7207
X12.4879Y-2.7235
X12.4879Y-2.8062
X12.4879Y-2.9084
X12.4879Y-2.9911
T5
X9.987Y-1.669
X10.087Y-1.669
X10.2702Y-1.671
X10.3702Y-1.671
X10.5654Y-1.671
X10.6654Y-1.671
X10.8607Y-1.671
X10.9607Y-1.671
X11.156Y-1.671
X11.256Y-1.671
X11.441Y-1.671
X11.541Y-1.671
T6
X9.483Y-4.666
X9.483Y-4.766
X9.583Y-4.666
X9.583Y-4.766
X9.683Y-4.666
X9.683Y-4.766
X9.783Y-4.666
X9.783Y-4.766
X9.883Y-4.666
X9.883Y-4.766
X9.983Y-4.666
X9.983Y-4.766
X10.272Y-4.668
X10.272Y-4.768
X10.372Y-4.668
X10.372Y-4.768
X10.472Y-4.668
X10.472Y-4.768
X10.572Y-4.668
X10.572Y-4.768
X10.672Y-4.668
X10.672Y-4.768
X10.772Y-4.668
X10.772Y-4.768
X12.561Y-4.12
X12.561Y-4.22
X12.561Y-4.32
X12.561Y-4.42
X12.561Y-4.52
X12.561Y-4.62
X12.561Y-4.72
X12.561Y-4.82
X12.561Y-4.92
X12.561Y-5.02
X12.561Y-5.12
X12.561Y-5.22
X12.561Y-5.32
X12.661Y-4.12
X12.661Y-4.22
X12.661Y-4.32
X12.661Y-4.42
X12.661Y-4.52
X12.661Y-4.62
X12.661Y-4.72
X12.661Y-4.82
X12.661Y-4.92
X12.661Y-5.02
X12.661Y-5.12
X12.661Y-5.22
X12.661Y-5.32
T7
X12.1266Y-2.0802
X12.225Y-1.8834
X12.225Y-2.2771
X12.3235Y-1.785
X12.3235Y-2.0802
X12.3235Y-2.3755
X12.7172Y-1.9818
X12.7172Y-2.1787
T8
X12.6001Y-3.3212
X12.6001Y-3.8546
X12.606Y-2.5916
X12.606Y-3.125
X12.6315Y-3.5869
X12.6374Y-2.8573
M30
