M48
; DRILL file {KiCad 8.0.6} date 2025-06-08T19:24:14-0500
; FORMAT={-:-/ absolute / inch / decimal}
; #@! TF.CreationDate,2025-06-08T19:24:14-05:00
; #@! TF.GenerationSoftware,Kicad,Pcbnew,8.0.6
; #@! TF.FileFunction,Plated,1,2,PTH
FMAT,2
INCH
; #@! TA.AperFunction,Plated,PTH,ViaDrill
T1C0.0118
; #@! TA.AperFunction,Plated,PTH,ComponentDrill
T2C0.0118
; #@! TA.AperFunction,Plated,PTH,ComponentDrill
T3C0.0315
; #@! TA.AperFunction,Plated,PTH,ComponentDrill
T4C0.0354
; #@! TA.AperFunction,Plated,PTH,ComponentDrill
T5C0.0354
; #@! TA.AperFunction,Plated,PTH,ComponentDrill
T6C0.0394
; #@! TA.AperFunction,Plated,PTH,ComponentDrill
T7C0.0512
; #@! TA.AperFunction,Plated,PTH,ComponentDrill
T8C0.0905
%
G90
G05
T1
X6.1597Y-2.3484
X6.2376Y-2.9367
X6.243Y-2.7138
X6.2844Y-4.0779
X6.4263Y-2.9514
X6.6783Y-1.8932
X6.7146Y-1.9968
X6.9953Y-4.5396
X7.1995Y-3.1127
X7.3111Y-4.1117
X7.321Y-2.4519
X7.3485Y-2.582
X7.3984Y-2.5004
X7.467Y-4.142
X7.467Y-4.2067
X7.4793Y-3.27
X7.5072Y-5.3987
X7.5262Y-2.8844
X7.527Y-5.4288
X7.5295Y-2.9802
X7.559Y-2.9442
X7.5619Y-2.8974
X7.6526Y-2.8506
X7.6884Y-2.6533
X7.6951Y-4.247
X7.7019Y-2.9158
X7.7096Y-2.6777
X7.7297Y-2.7331
X7.7539Y-2.8742
X7.7793Y-4.178
X7.7884Y-5.1903
X7.8024Y-3.0369
X7.8078Y-2.8119
X7.9047Y-4.604
X7.9575Y-1.6382
X7.9771Y-3.8521
X7.9784Y-5.3005
X7.9863Y-2.4519
X8.0368Y-4.9365
X8.0619Y-5.5404
X8.0703Y-2.9619
X8.2766Y-5.0531
X8.2867Y-4.407
X8.2873Y-2.6907
X8.2935Y-2.61
X8.3194Y-4.5481
X8.3327Y-2.4201
X8.3426Y-2.1154
X8.381Y-2.3965
X8.3943Y-2.3327
X8.4052Y-2.7095
X8.4052Y-4.633
X8.4116Y-2.8286
X8.4254Y-2.1755
X8.4364Y-2.9198
X8.5117Y-1.6539
X8.5589Y-2.0002
X8.5731Y-5.0047
X8.5897Y-3.1404
X8.6093Y-1.6697
X8.6249Y-4.7929
X8.6328Y-5.3294
X8.6596Y-5.3474
X8.6715Y-3.8252
X8.6878Y-3.9997
X8.697Y-3.456
X8.7315Y-3.455
X8.7473Y-2.899
X8.7492Y-1.6559
X8.7668Y-5.2022
X8.7811Y-4.372
X8.8746Y-2.7772
X8.8787Y-1.8789
X8.9444Y-5.5352
X8.9813Y-4.2009
X8.9951Y-4.7528
X9.0324Y-5.5733
X9.0781Y-5.1596
X9.0893Y-5.5463
X9.1323Y-4.4645
X9.1338Y-5.5837
X9.1641Y-4.5111
X9.1858Y-4.4875
X9.2162Y-2.4994
X9.2864Y-4.5359
X9.2997Y-4.4685
X9.3172Y-2.699
X9.3336Y-3.6929
X9.3372Y-3.5986
X9.3436Y-4.2326
X9.3647Y-4.2024
X9.3973Y-3.3447
X9.4354Y-3.6137
X9.5804Y-4.3838
X9.5982Y-2.5745
X9.6248Y-5.1952
X9.67Y-3.6261
X9.6882Y-4.5905
X9.7127Y-2.7309
X9.7157Y-5.188
X9.7267Y-3.505
X9.9168Y-3.0568
X9.9379Y-4.513
X9.9547Y-4.1117
X9.9885Y-4.5453
X10.026Y-5.4836
X10.0812Y-4.5666
X10.0872Y-4.2651
X10.1206Y-2.905
X10.1374Y-4.5863
X10.1408Y-3.1505
X10.1559Y-3.3679
X10.1909Y-2.6994
X10.223Y-2.6083
X10.2897Y-5.2955
X10.3257Y-4.1923
X10.3801Y-3.8157
X10.3985Y-5.3925
X10.4195Y-4.4175
X10.4204Y-4.2151
X10.5047Y-3.7156
X10.6789Y-1.9335
X10.6987Y-5.3684
X10.7283Y-1.9215
X10.7819Y-5.083
X10.7986Y-1.9201
X10.808Y-1.8597
X10.8879Y-5.1901
X10.9016Y-1.9806
X11.0802Y-5.3684
X11.1194Y-4.7128
X11.1194Y-4.7805
X11.1404Y-2.4229
X11.1849Y-5.3925
X11.189Y-2.3993
X11.2325Y-4.0076
X11.4151Y-5.2002
X11.4365Y-3.5187
X11.4909Y-5.2753
X11.5144Y-5.2423
X11.5341Y-5.1904
X11.5678Y-5.1338
X11.5927Y-5.0867
X11.6197Y-5.0251
X11.6812Y-2.7682
X11.717Y-5.1886
X11.717Y-5.5237
X11.7285Y-4.9535
X11.8058Y-3.863
X11.8359Y-4.4458
X11.8436Y-5.0797
X11.8567Y-3.0868
X12.068Y-4.8723
X12.244Y-4.3917
X12.2665Y-4.8374
X12.3864Y-3.5672
T2
X9.9728Y-4.272
X10.02Y-4.272
T3
X5.9871Y-5.428
X6.026Y-1.743
X6.026Y-1.843
X6.026Y-1.943
X6.026Y-2.043
X6.026Y-2.143
X6.026Y-2.243
X6.026Y-2.343
X6.048Y-2.72
X6.048Y-2.82
X6.048Y-2.92
X6.048Y-3.02
X6.048Y-3.12
X6.048Y-3.22
X6.048Y-3.32
X6.052Y-3.604
X6.052Y-3.704
X6.052Y-3.804
X6.052Y-3.904
X6.052Y-4.004
X6.052Y-4.104
X6.052Y-4.204
X6.052Y-4.304
X6.052Y-4.404
X6.08Y-4.63
X6.08Y-4.73
X6.08Y-4.83
X6.08Y-4.93
X6.08Y-5.03
X6.08Y-5.13
X6.08Y-5.23
X6.184Y-5.428
X6.24Y-4.0336
X6.24Y-4.193
X6.251Y-3.7964
X6.326Y-1.743
X6.326Y-1.843
X6.326Y-1.943
X6.326Y-2.043
X6.326Y-2.143
X6.326Y-2.243
X6.326Y-2.343
X6.348Y-2.72
X6.348Y-2.82
X6.348Y-2.92
X6.348Y-3.02
X6.348Y-3.12
X6.348Y-3.22
X6.348Y-3.32
X6.38Y-4.63
X6.38Y-4.73
X6.38Y-4.83
X6.38Y-4.93
X6.38Y-5.03
X6.38Y-5.13
X6.38Y-5.23
X6.54Y-4.0336
X6.54Y-4.193
X6.5481Y-5.437
X6.551Y-3.7964
X6.5521Y-2.7058
X6.5521Y-2.9027
X6.556Y-1.7419
X6.556Y-1.8419
X6.556Y-1.9419
X6.556Y-2.0419
X6.556Y-2.1419
X6.556Y-2.2419
X6.556Y-2.3419
X6.556Y-2.4419
X6.556Y-2.5419
X6.721Y-4.655
X6.721Y-4.755
X6.721Y-4.855
X6.721Y-4.955
X6.721Y-5.055
X6.721Y-5.155
X6.721Y-5.255
X6.745Y-5.437
X6.752Y-2.725
X6.752Y-2.825
X6.752Y-2.925
X6.752Y-3.025
X6.752Y-3.125
X6.752Y-3.225
X6.752Y-3.325
X6.7864Y-3.6998
X6.7864Y-3.7998
X6.7864Y-3.8998
X6.7864Y-3.9998
X6.7864Y-4.0998
X6.7864Y-4.1998
X6.7864Y-4.2998
X6.796Y-1.732
X6.796Y-1.832
X6.796Y-1.932
X6.796Y-2.032
X6.796Y-2.132
X6.796Y-2.232
X6.796Y-2.332
X7.021Y-4.655
X7.021Y-4.755
X7.021Y-4.855
X7.021Y-4.955
X7.021Y-5.055
X7.021Y-5.155
X7.021Y-5.255
X7.052Y-2.725
X7.052Y-2.825
X7.052Y-2.925
X7.052Y-3.025
X7.052Y-3.125
X7.052Y-3.225
X7.052Y-3.325
X7.0841Y-3.547
X7.0864Y-3.6998
X7.0864Y-3.7998
X7.0864Y-3.8998
X7.0864Y-3.9998
X7.0864Y-4.0998
X7.0864Y-4.1998
X7.0864Y-4.2998
X7.0901Y-2.557
X7.096Y-1.732
X7.096Y-1.832
X7.096Y-1.932
X7.096Y-2.032
X7.096Y-2.132
X7.096Y-2.232
X7.096Y-2.332
X7.1966Y-4.687
X7.2331Y-1.72
X7.281Y-3.547
X7.287Y-2.557
X7.295Y-4.687
X7.33Y-5.0811
X7.33Y-5.278
X7.365Y-3.8271
X7.365Y-4.024
X7.387Y-2.2021
X7.387Y-2.399
X7.43Y-1.72
X7.4306Y-2.712
X7.529Y-2.712
X7.536Y-4.347
X7.536Y-4.447
X7.536Y-4.547
X7.536Y-4.647
X7.536Y-4.747
X7.536Y-4.847
X7.536Y-4.947
X7.536Y-5.047
X7.536Y-5.147
X7.536Y-5.247
X7.58Y-1.732
X7.58Y-1.832
X7.58Y-1.932
X7.58Y-2.032
X7.58Y-2.132
X7.58Y-2.232
X7.58Y-2.332
X7.58Y-3.096
X7.58Y-3.196
X7.58Y-3.296
X7.58Y-3.396
X7.58Y-3.496
X7.58Y-3.596
X7.58Y-3.696
X7.58Y-3.796
X7.58Y-3.896
X7.58Y-3.996
X7.836Y-4.347
X7.836Y-4.447
X7.836Y-4.547
X7.836Y-4.647
X7.836Y-4.747
X7.836Y-4.847
X7.836Y-4.947
X7.836Y-5.047
X7.836Y-5.147
X7.836Y-5.247
X7.88Y-1.732
X7.88Y-1.832
X7.88Y-1.932
X7.88Y-2.032
X7.88Y-2.132
X7.88Y-2.232
X7.88Y-2.332
X7.88Y-3.096
X7.88Y-3.196
X7.88Y-3.296
X7.88Y-3.396
X7.88Y-3.496
X7.88Y-3.596
X7.88Y-3.696
X7.88Y-3.796
X7.88Y-3.896
X7.88Y-3.996
X7.9921Y-5.2068
X7.9921Y-5.4037
X7.994Y-4.604
X7.994Y-4.8009
X7.9959Y-4.3103
X7.9959Y-4.5072
X7.996Y-4.8991
X7.996Y-5.096
X8.189Y-1.71
X8.189Y-1.81
X8.189Y-1.91
X8.189Y-2.01
X8.189Y-2.11
X8.189Y-2.21
X8.189Y-2.31
X8.189Y-2.41
X8.189Y-2.51
X8.189Y-2.61
X8.189Y-3.085
X8.189Y-3.185
X8.189Y-3.285
X8.189Y-3.385
X8.189Y-3.485
X8.189Y-3.585
X8.189Y-3.685
X8.189Y-3.785
X8.189Y-3.885
X8.189Y-3.985
X8.189Y-4.357
X8.189Y-4.457
X8.189Y-4.557
X8.189Y-4.657
X8.189Y-4.757
X8.189Y-4.857
X8.189Y-4.957
X8.189Y-5.057
X8.189Y-5.157
X8.189Y-5.257
X8.489Y-1.71
X8.489Y-1.81
X8.489Y-1.91
X8.489Y-2.01
X8.489Y-2.11
X8.489Y-2.21
X8.489Y-2.31
X8.489Y-2.41
X8.489Y-2.51
X8.489Y-2.61
X8.489Y-3.085
X8.489Y-3.185
X8.489Y-3.285
X8.489Y-3.385
X8.489Y-3.485
X8.489Y-3.585
X8.489Y-3.685
X8.489Y-3.785
X8.489Y-3.885
X8.489Y-3.985
X8.489Y-4.357
X8.489Y-4.457
X8.489Y-4.557
X8.489Y-4.657
X8.489Y-4.757
X8.489Y-4.857
X8.489Y-4.957
X8.489Y-5.057
X8.489Y-5.157
X8.489Y-5.257
X8.58Y-4.163
X8.647Y-5.2541
X8.647Y-5.451
X8.6551Y-1.7228
X8.6551Y-1.9197
X8.6901Y-3.0628
X8.6901Y-3.2597
X8.696Y-4.3471
X8.696Y-4.544
X8.697Y-4.936
X8.697Y-5.1329
X8.698Y-4.6401
X8.698Y-4.837
X8.88Y-4.163
X8.885Y-4.58
X8.8897Y-4.7051
X8.8917Y-4.8261
X8.8917Y-4.9501
X8.8947Y-5.0691
X8.896Y-5.191
X8.896Y-5.313
X8.8967Y-5.4351
X8.984Y-2.2561
X8.984Y-2.453
X8.989Y-3.2211
X8.989Y-3.418
X9.1781Y-4.369
X9.185Y-4.58
X9.189Y-3.771
X9.189Y-3.871
X9.189Y-3.971
X9.189Y-4.071
X9.189Y-4.171
X9.1897Y-4.7051
X9.1917Y-4.8261
X9.1917Y-4.9501
X9.1947Y-5.0691
X9.196Y-5.191
X9.196Y-5.313
X9.1967Y-5.4351
X9.198Y-1.735
X9.198Y-1.835
X9.198Y-1.935
X9.198Y-2.035
X9.198Y-2.135
X9.198Y-2.235
X9.198Y-2.335
X9.198Y-2.435
X9.203Y-2.699
X9.203Y-2.799
X9.203Y-2.899
X9.203Y-2.999
X9.203Y-3.099
X9.203Y-3.199
X9.203Y-3.299
X9.203Y-3.399
X9.375Y-4.369
X9.489Y-3.771
X9.489Y-3.871
X9.489Y-3.971
X9.489Y-4.071
X9.489Y-4.171
X9.498Y-1.735
X9.498Y-1.835
X9.498Y-1.935
X9.498Y-2.035
X9.498Y-2.135
X9.498Y-2.235
X9.498Y-2.335
X9.498Y-2.435
X9.503Y-2.699
X9.503Y-2.799
X9.503Y-2.899
X9.503Y-2.999
X9.503Y-3.099
X9.503Y-3.199
X9.503Y-3.299
X9.503Y-3.399
X9.77Y-3.357
X9.77Y-3.457
X9.77Y-3.557
X9.77Y-3.657
X9.77Y-3.757
X9.77Y-3.857
X9.77Y-3.957
X9.77Y-4.057
X9.77Y-4.157
X9.8207Y-2.0137
X9.9192Y-2.0137
X10.022Y-2.255
X10.022Y-2.355
X10.022Y-2.455
X10.022Y-2.555
X10.022Y-2.655
X10.022Y-2.755
X10.022Y-2.855
X10.022Y-2.955
X10.022Y-3.055
X10.022Y-3.155
X10.022Y-3.255
X10.022Y-3.355
X10.022Y-3.455
X10.022Y-3.555
X10.022Y-3.655
X10.022Y-3.755
X10.022Y-3.855
X10.022Y-3.955
X10.022Y-4.055
X10.022Y-4.155
X10.261Y-5.0411
X10.261Y-5.238
X10.4098Y-2.0609
X10.538Y-5.015
X10.538Y-5.315
X10.6067Y-2.0609
X10.622Y-2.255
X10.622Y-2.355
X10.622Y-2.455
X10.622Y-2.555
X10.622Y-2.655
X10.622Y-2.755
X10.622Y-2.855
X10.622Y-2.955
X10.622Y-3.055
X10.622Y-3.155
X10.622Y-3.255
X10.622Y-3.355
X10.622Y-3.455
X10.622Y-3.555
X10.622Y-3.655
X10.622Y-3.755
X10.622Y-3.855
X10.622Y-3.955
X10.622Y-4.055
X10.622Y-4.155
X10.638Y-5.015
X10.638Y-5.315
X10.738Y-5.015
X10.738Y-5.315
X10.838Y-5.015
X10.838Y-5.315
X10.938Y-5.015
X10.938Y-5.315
X10.943Y-2.263
X10.943Y-2.363
X10.943Y-2.463
X10.943Y-2.563
X10.943Y-2.663
X10.943Y-2.763
X10.943Y-2.863
X10.943Y-2.963
X10.943Y-3.063
X10.943Y-3.163
X10.943Y-3.263
X10.943Y-3.363
X10.943Y-3.463
X10.943Y-3.563
X10.943Y-3.663
X10.943Y-3.763
X10.943Y-3.863
X10.943Y-3.963
X10.943Y-4.063
X10.943Y-4.163
X11.038Y-5.015
X11.038Y-5.315
X11.138Y-5.015
X11.138Y-5.315
X11.238Y-5.015
X11.238Y-5.315
X11.3251Y-2.062
X11.338Y-5.015
X11.338Y-5.315
X11.438Y-5.015
X11.438Y-5.315
X11.522Y-2.062
X11.543Y-2.263
X11.543Y-2.363
X11.543Y-2.463
X11.543Y-2.563
X11.543Y-2.663
X11.543Y-2.763
X11.543Y-2.863
X11.543Y-2.963
X11.543Y-3.063
X11.543Y-3.163
X11.543Y-3.263
X11.543Y-3.363
X11.543Y-3.463
X11.543Y-3.563
X11.543Y-3.663
X11.543Y-3.763
X11.543Y-3.863
X11.543Y-3.963
X11.543Y-4.063
X11.543Y-4.163
X11.813Y-1.739
X11.813Y-1.839
X11.813Y-1.939
X11.813Y-2.039
X11.813Y-2.139
X11.813Y-2.239
X11.813Y-2.339
X11.813Y-2.439
X11.813Y-2.539
X11.8926Y-5.2
X11.991Y-5.2
T4
X12.3836Y-3.7207
X12.3856Y-3.4531
X12.3895Y-2.9911
X12.3915Y-2.7235
X12.482Y-3.4531
X12.482Y-3.5358
X12.482Y-3.638
X12.482Y-3.7207
X12.4879Y-2.7235
X12.4879Y-2.8062
X12.4879Y-2.9084
X12.4879Y-2.9911
T5
X9.987Y-1.669
X10.087Y-1.669
X10.2702Y-1.671
X10.3702Y-1.671
X10.5654Y-1.671
X10.6654Y-1.671
X10.8607Y-1.671
X10.9607Y-1.671
X11.156Y-1.671
X11.256Y-1.671
X11.441Y-1.671
X11.541Y-1.671
T6
X9.475Y-5.145
X9.475Y-5.245
X9.483Y-4.666
X9.483Y-4.766
X9.575Y-5.145
X9.575Y-5.245
X9.583Y-4.666
X9.583Y-4.766
X9.675Y-5.145
X9.675Y-5.245
X9.683Y-4.666
X9.683Y-4.766
X9.775Y-5.145
X9.775Y-5.245
X9.783Y-4.666
X9.783Y-4.766
X9.875Y-5.145
X9.875Y-5.245
X9.883Y-4.666
X9.883Y-4.766
X9.975Y-5.145
X9.975Y-5.245
X9.983Y-4.666
X9.983Y-4.766
X10.272Y-4.668
X10.272Y-4.768
X10.372Y-4.668
X10.372Y-4.768
X10.472Y-4.668
X10.472Y-4.768
X10.572Y-4.668
X10.572Y-4.768
X10.672Y-4.668
X10.672Y-4.768
X10.772Y-4.668
X10.772Y-4.768
X12.561Y-4.12
X12.561Y-4.22
X12.561Y-4.32
X12.561Y-4.42
X12.561Y-4.52
X12.561Y-4.62
X12.561Y-4.72
X12.561Y-4.82
X12.561Y-4.92
X12.561Y-5.02
X12.561Y-5.12
X12.561Y-5.22
X12.561Y-5.32
X12.661Y-4.12
X12.661Y-4.22
X12.661Y-4.32
X12.661Y-4.42
X12.661Y-4.52
X12.661Y-4.62
X12.661Y-4.72
X12.661Y-4.82
X12.661Y-4.92
X12.661Y-5.02
X12.661Y-5.12
X12.661Y-5.22
X12.661Y-5.32
T7
X12.1266Y-2.0802
X12.225Y-1.8834
X12.225Y-2.2771
X12.3235Y-1.785
X12.3235Y-2.0802
X12.3235Y-2.3755
X12.7172Y-1.9818
X12.7172Y-2.1787
T8
X12.6001Y-3.3212
X12.6001Y-3.8546
X12.606Y-2.5916
X12.606Y-3.125
X12.6315Y-3.5869
X12.6374Y-2.8573
M30
